<svg width="188" height="182" viewBox="0 0 188 182" fill="none" xmlns="http://www.w3.org/2000/svg">
<path d="M89.789 113.559C106.1 97.2567 106.1 70.8259 89.789 54.5238C73.478 38.2218 47.0326 38.2218 30.7216 54.5238C14.4107 70.8259 14.4107 97.2567 30.7216 113.559C47.0326 129.861 73.478 129.861 89.789 113.559Z" fill="#B8BF00"/>
<path d="M67.103 87.8199C64.9476 86.2398 62.6327 84.9738 60.2588 84.039C70.0611 79.2718 82.1268 79.9637 91.529 86.8556C95.1794 89.53 98.0492 92.8692 100.109 96.5814C98.7709 100.828 96.7236 104.933 93.9422 108.724C89.6461 114.581 84.1079 118.99 77.956 121.86C82.0066 109.698 78.0027 95.8086 67.103 87.8199Z" fill="#758700"/>
<path d="M56.473 90.8795C58.054 88.7253 59.3207 86.4116 60.256 84.0391C65.0258 93.836 64.3336 105.895 57.4378 115.292C54.762 118.941 51.4209 121.809 47.7067 123.867C43.4573 122.53 39.3503 120.484 35.5575 117.704C29.6977 113.41 25.2863 107.873 22.4141 101.727C34.5853 105.777 48.4824 101.773 56.473 90.8795Z" fill="#758700"/>
<path d="M53.4145 80.258C55.5699 81.8381 57.8849 83.1041 60.2587 84.0389C50.4564 88.8061 38.3907 88.1142 28.9885 81.2223C25.3381 78.5479 22.4683 75.2087 20.4087 71.4965C21.7466 67.2494 23.794 63.1447 26.5753 59.354C30.8714 53.4974 36.4096 49.0884 42.5615 46.2178C38.5085 58.3824 42.5149 72.2693 53.4145 80.258Z" fill="#758700"/>
<path d="M64.0417 77.1986C62.4607 79.3528 61.194 81.6665 60.2587 84.0391C55.4889 74.2421 56.1811 62.183 63.0769 52.786C65.7527 49.1376 69.0938 46.2694 72.808 44.2109C77.0574 45.5481 81.1644 47.5944 84.9572 50.3742C90.817 54.6679 95.2284 60.2055 98.1006 66.3516C85.9294 62.3033 72.0347 66.305 64.0417 77.1986Z" fill="#758700"/>
<path d="M156.425 141.483C172.736 125.181 172.736 98.7499 156.425 82.4479C140.114 66.1459 113.669 66.1459 97.3579 82.4479C81.0469 98.7499 81.0469 125.181 97.3579 141.483C113.669 157.785 140.114 157.785 156.425 141.483Z" fill="#FF802F"/>
<path d="M134.692 111.371C132.024 111.231 129.395 111.442 126.893 111.962C132.471 102.602 142.941 96.5661 154.584 97.1722C159.104 97.4077 163.336 98.6271 167.097 100.6C168.309 104.886 168.849 109.44 168.606 114.133C168.228 121.386 166.016 128.109 162.45 133.882C159.16 121.489 148.189 112.075 134.692 111.371Z" fill="#F53100"/>
<path d="M127.484 119.754C127.624 117.087 127.413 114.459 126.893 111.959C136.258 117.534 142.297 127.998 141.691 139.635C141.455 144.152 140.235 148.382 138.261 152.141C133.973 153.353 129.416 153.892 124.72 153.65C117.464 153.272 110.737 151.061 104.961 147.496C117.361 144.211 126.78 133.244 127.484 119.754Z" fill="#F53100"/>
<path d="M119.096 112.551C121.765 112.691 124.394 112.48 126.895 111.959C121.318 121.32 110.848 127.355 99.2043 126.749C94.6848 126.514 90.4526 125.294 86.6917 123.322C85.479 119.035 84.939 114.482 85.182 109.788C85.56 102.535 87.7719 95.8127 91.3388 90.0396C94.6259 102.432 105.599 111.849 119.096 112.551Z" fill="#F53100"/>
<path d="M126.304 104.167C126.164 106.834 126.375 109.462 126.895 111.962C117.53 106.387 111.491 95.9232 112.097 84.2861C112.333 79.7692 113.553 75.5393 115.527 71.7805C119.816 70.5684 124.372 70.0287 129.068 70.2716C136.325 70.6494 143.051 72.86 148.827 76.425C136.428 79.7127 127.006 90.6776 126.304 104.167Z" fill="#F53100"/>
<path d="M105.787 94.5395C128.855 94.5395 147.555 75.8499 147.555 52.7951C147.555 29.7404 128.855 11.0508 105.787 11.0508C82.7199 11.0508 64.02 29.7404 64.02 52.7951C64.02 75.8499 82.7199 94.5395 105.787 94.5395Z" fill="#FF6788"/>
<path d="M113.606 52.5546C110.945 52.2945 108.309 52.3877 105.79 52.7926C111.785 43.6924 122.518 38.1352 134.119 39.2663C138.624 39.7055 142.797 41.1138 146.465 43.2533C147.481 47.5886 147.818 52.162 147.361 56.8409C146.656 64.069 144.145 70.6862 140.318 76.29C137.593 63.7648 127.057 53.8648 113.606 52.5546Z" fill="#E8003A"/>
<path d="M106.028 60.6045C106.288 57.9449 106.195 55.3098 105.79 52.7925C114.895 58.784 120.455 69.5108 119.323 81.1062C118.884 85.6084 117.475 89.7794 115.334 93.445C110.996 94.4608 106.421 94.7969 101.739 94.3405C94.507 93.6364 87.8862 91.1264 82.2793 87.3014C94.809 84.5779 104.717 74.0474 106.028 60.6045Z" fill="#E8003A"/>
<path d="M97.9712 53.0306C100.632 53.2907 103.269 53.1974 105.787 52.7926C99.7927 61.8927 89.06 67.45 77.4582 66.3189C72.9535 65.8797 68.7802 64.4714 65.1126 62.3319C64.0963 57.9965 63.76 53.4232 64.2166 48.7443C64.9211 41.5162 67.4325 34.899 71.2596 29.2952C73.9845 41.818 84.5209 51.7204 97.9712 53.0306Z" fill="#E8003A"/>
<path d="M105.55 44.9806C105.289 47.6402 105.383 50.2753 105.788 52.7926C96.6825 46.8011 91.1222 36.0743 92.2539 24.4789C92.6933 19.9767 94.1024 15.8057 96.2431 12.1401C100.581 11.1243 105.157 10.7882 109.838 11.2446C117.07 11.9487 123.691 14.4587 129.298 18.2837C116.768 21.0047 106.86 31.5352 105.55 44.9806Z" fill="#E8003A"/>
</svg>
