<svg width="188" height="182" viewBox="0 0 188 182" fill="none" xmlns="http://www.w3.org/2000/svg">
<path d="M115.461 157.28H71.5391L73.7982 26.4094H113.202L115.461 157.28Z" fill="#FFEECF"/>
<path d="M119.047 167.14H67.9536V163.005C67.9536 160.834 69.6681 159.073 71.7835 159.073H115.215C117.33 159.073 119.047 160.834 119.047 163.005V167.14Z" fill="#FFEECF"/>
<path d="M124.425 177H62.5752V170.542C62.5752 168.663 64.0992 167.14 65.9859 167.14H121.014C122.899 167.14 124.425 168.66 124.425 170.542V177Z" fill="#FFEECF"/>
<path d="M113.668 157.28H73.3315V159.073H113.668V157.28Z" fill="#E8D1AA"/>
<path d="M119.047 166.244H67.9536V167.14H119.047V166.244Z" fill="#E8D1AA"/>
<path d="M106.498 149.213L106.498 26.4094H104.705L104.705 149.213H106.498Z" fill="#E8D1AA"/>
<path d="M98.4302 149.213L98.4302 26.4094H96.6374L96.6374 149.213H98.4302Z" fill="#E8D1AA"/>
<path d="M90.3628 149.213L90.3628 26.4094H88.57L88.57 149.213H90.3628Z" fill="#E8D1AA"/>
<path d="M82.2954 149.213L82.2954 26.4094H80.5027L80.5027 149.213H82.2954Z" fill="#E8D1AA"/>
<path d="M112.772 26.4094H74.228V28.2022H112.772V26.4094Z" fill="#E8D1AA"/>
<path d="M118.711 26.4093H68.2907C62.2292 26.4093 57.7906 20.9194 59.2794 15.2711L60.4725 10.7468C61.5139 6.77945 65.2271 4 69.4838 4H117.518C121.772 4 125.485 6.77945 126.527 10.7468L127.72 15.2711C129.211 20.922 124.773 26.4093 118.711 26.4093Z" fill="#FFEECF"/>
<path d="M74.7863 27.3042C80.5861 26.9163 85.9253 23.435 87.3477 17.9914C88.6269 13.0995 86.066 7.67099 80.9442 5.78172C75.7789 3.87734 67.8097 4.87739 65.7503 10.4318C64.8267 12.9231 65.2156 16.2079 66.9476 18.3189C68.6847 20.4323 71.5347 21.4122 74.3309 21.0722C77.1656 20.722 79.8851 18.9738 80.8086 16.3717C81.6657 13.9585 80.5323 11.0767 78.0226 10.0011C77.3626 9.71643 76.7844 10.6334 77.4495 10.918C79.5192 11.8072 80.4326 14.092 79.7162 16.0896C78.9283 18.266 76.6078 19.6943 74.2516 20.0092C71.7598 20.3442 69.1529 19.4424 67.6869 17.4775C66.2338 15.5303 65.9984 12.4672 67.0218 10.3059C69.1938 5.71371 76.2241 5.11922 80.6449 6.80696C84.9634 8.45944 87.2352 13.0138 86.373 17.213C85.3036 22.4299 80.2739 25.8734 74.7863 26.2412C74.0649 26.2891 74.0597 27.3521 74.7863 27.3042Z" fill="#E8D1AA"/>
<path d="M112.241 26.2373C107.332 25.9068 102.716 23.1367 101.08 18.6638C99.5885 14.5895 100.988 9.87946 104.932 7.4929C108.942 5.06849 115.849 5.25266 119.051 8.82998C120.742 10.7196 120.962 13.4997 120.202 15.8005C119.432 18.134 117.17 19.7839 114.595 20.0337C111.89 20.2961 108.95 19.0952 107.65 16.7894C106.46 14.6753 107.192 11.9154 109.582 10.8886C110.245 10.6035 109.669 9.68268 109.009 9.97028C106.859 10.8936 105.692 13.1591 105.976 15.3287C106.293 17.7077 108.272 19.6351 110.562 20.5257C113.195 21.5474 116.335 21.28 118.626 19.6553C120.975 17.9877 121.871 15.3009 121.72 12.6066C121.566 9.95767 120.069 7.70986 117.653 6.34755C114.964 4.82883 111.634 4.66232 108.604 5.12147C103.018 5.96409 98.959 10.6666 99.3531 16.0023C99.8214 22.39 105.679 26.8654 112.243 27.3044C112.97 27.3498 112.968 26.2877 112.241 26.2373Z" fill="#E8D1AA"/>
</svg>
