<svg width="188" height="182" viewBox="0 0 188 182" fill="none" xmlns="http://www.w3.org/2000/svg">
<path d="M94.3698 153.974C85.6326 153.962 78.1543 148.34 73.7741 141.069C65.5381 128.669 68.3733 112.612 72.3017 99.1635C75.085 87.1599 79.6892 75.7286 84.3422 64.3593C87.6167 55.7 91.0827 47.099 93.8141 38.247C94.9948 35.3485 95.8853 28.9136 99.0947 28.019C100.704 27.8011 101.198 29.5515 101.514 30.7942C102.606 34.4476 103.341 38.3741 104.086 42.0821C106.222 52.297 108.56 62.4725 111.229 72.5634C114.344 85.6374 119.833 98.3177 120.181 111.903C121.078 128.75 116.415 153.997 95.5143 154C95.137 154 94.7566 153.99 94.3698 153.974Z" fill="#5DB9E3"/>
<path d="M108.425 119.672C106.142 117.382 106.604 112.965 108.357 110.482C109.553 108.862 112.135 108.719 113.293 110.466C115.647 112.782 113.634 120.229 110.119 120.229C109.586 120.229 109.017 120.059 108.425 119.672Z" fill="#D0EFFE"/>
<path d="M97.1038 146.207C91.999 145.68 90.0285 141.535 93.1661 137.365C94.6816 135.098 97.0062 133.559 99.0675 131.831C100.869 130.335 102.16 128.318 103.841 126.685C109.014 120.078 114.008 125.527 112.051 132.17C110.601 138.949 104.956 146.214 97.5362 146.214C97.3935 146.214 97.2503 146.21 97.1038 146.207Z" fill="#D0EFFE"/>
<path d="M104.561 88.2688C101.167 85.4322 99.534 71.8962 99.2386 67.2379C99.1735 65.6146 99.248 63.396 101.108 62.8106C102.942 62.2378 104.188 64.0176 104.506 65.6146C105.189 66.0278 105.544 66.861 105.361 67.6448C105.328 67.7781 105.283 67.9083 105.221 68.0317C105.224 68.1068 105.231 68.1782 105.238 68.2527C105.351 68.6822 105.465 69.1148 105.582 69.5474C105.895 69.8072 106.132 70.1558 106.246 70.569C107.384 74.7359 108.353 78.9973 108.766 83.3044C108.918 84.882 109.143 86.9804 107.787 88.1023C107.279 88.5223 106.678 88.7302 106.074 88.7302C105.553 88.7302 105.029 88.5743 104.561 88.2688Z" fill="#D0EFFE"/>
<path d="M100.832 54.0794C99.7941 53.65 99.5407 52.5149 99.4594 51.4996C97.5345 50.0779 99.6866 46.867 101.751 48.0157C103.032 48.7444 102.837 50.3777 103.016 51.6361C103.309 52.8005 102.623 54.2028 101.452 54.2028C101.258 54.2033 101.053 54.1639 100.832 54.0794Z" fill="#D0EFFE"/>
</svg>
