<svg width="188" height="182" viewBox="0 0 188 182" fill="none" xmlns="http://www.w3.org/2000/svg">
<path d="M93.9955 148.989C126.028 148.989 151.996 123.021 151.996 90.9879C151.996 58.9549 126.028 32.9871 93.9955 32.9871C61.9625 32.9871 35.9946 58.9549 35.9946 90.9879C35.9946 123.021 61.9625 148.989 93.9955 148.989Z" fill="url(#paint0_linear_81_6337)"/>
<path d="M97.9475 142.473C66.3785 137.041 45.1882 107.044 50.6201 75.4751C53.6723 57.7331 64.484 43.2705 78.9711 34.9675C57.8115 40.6574 40.7942 58.1415 36.8362 81.1557C31.4042 112.725 52.5946 142.722 84.1635 148.15C97.9905 150.53 111.517 147.8 122.807 141.331C114.94 143.446 106.505 143.944 97.9475 142.473Z" fill="url(#paint1_linear_81_6337)"/>
<path d="M109.327 49.7435C109.327 49.7435 110.172 49.4825 111.695 49.4088C112.444 49.3996 113.393 49.3443 114.437 49.4733C115.499 49.5623 116.675 49.7711 117.949 50.1028C119.224 50.4252 120.563 50.9165 121.954 51.5214C123.311 52.1785 124.76 52.9001 126.099 53.8827C127.521 54.7701 128.779 55.94 130.066 57.1314C131.328 58.3412 132.415 59.7537 133.524 61.1324C134.442 62.6339 135.492 64.0741 136.204 65.6431C136.57 66.42 136.914 67.203 137.23 67.9829C137.54 68.7629 137.921 69.506 138.09 70.3043C138.532 71.8642 138.897 73.3842 139.21 74.8151C139.401 76.2767 139.508 77.6646 139.585 78.9328C139.61 79.5653 139.634 80.1733 139.656 80.7506C139.628 81.334 139.585 81.8836 139.533 82.4026C139.441 83.4374 139.293 84.3401 139.186 85.074C138.956 86.5448 138.722 87.3739 138.722 87.3739C138.722 87.3739 138.206 86.6339 137.488 85.3565C137.135 84.7178 136.689 83.9501 136.256 83.0719C135.851 82.1845 135.326 81.2173 134.73 80.1917C134.162 79.1569 133.6 78.0392 133.029 76.8693C132.354 75.7455 131.678 74.5663 131.043 73.3412C130.395 72.1191 129.538 70.9829 128.872 69.7301C128.135 68.5172 127.263 67.3903 126.501 66.1836C125.638 65.0628 124.8 63.9144 123.925 62.8335C122.991 61.8049 122.162 60.6872 121.198 59.7568C120.302 58.7435 119.34 57.8653 118.438 56.9748C117.51 56.1273 116.611 55.2952 115.736 54.5766C114.004 53.0812 112.398 51.9359 111.24 51.0608C110.641 50.6463 110.175 50.3177 109.852 50.0966C109.508 49.8632 109.327 49.7435 109.327 49.7435Z" fill="white"/>
<defs>
<linearGradient id="paint0_linear_81_6337" x1="35.9854" y1="90.989" x2="152.008" y2="90.989" gradientUnits="userSpaceOnUse">
<stop stop-color="#B01917"/>
<stop offset="0.2789" stop-color="#C21B16"/>
<stop offset="0.7255" stop-color="#DB1C14"/>
<stop offset="1" stop-color="#E41D13"/>
</linearGradient>
<linearGradient id="paint1_linear_81_6337" x1="34.0481" y1="123.695" x2="102.049" y2="86.6035" gradientUnits="userSpaceOnUse">
<stop stop-color="#E41D13"/>
<stop offset="0.0558" stop-color="#E11D13"/>
<stop offset="1" stop-color="#B01917"/>
</linearGradient>
</defs>
</svg>
