<svg width="188" height="182" viewBox="0 0 188 182" fill="none" xmlns="http://www.w3.org/2000/svg">
<path d="M24.8843 39.7355C24.8483 41.1933 24.8122 42.65 24.7751 44.1067C23.8015 44.6841 23.1356 45.6549 23.1084 46.7302C23.0647 48.3918 24.5601 49.6676 26.4452 49.5837C28.327 49.4998 29.8824 48.0845 29.9195 46.4197C29.9424 45.413 29.4054 44.549 28.5638 44.0413C28.5988 42.5465 28.6337 41.0517 28.6686 39.5569C32.8765 39.3629 37.0723 39.1788 41.2551 39.0056C41.2278 40.4677 41.2005 41.9287 41.1743 43.3909C40.2148 43.964 39.5632 44.9336 39.5424 46.0123C39.5097 47.6792 40.9942 48.9692 42.8563 48.8984C44.7152 48.8276 46.2434 47.4188 46.2706 45.7486C46.287 44.7397 45.7511 43.8681 44.9171 43.3527C44.9433 41.8536 44.9684 40.3544 44.9935 38.8541C49.1512 38.6885 53.2957 38.5327 57.4283 38.3878C57.4097 39.8543 57.3923 41.3208 57.3737 42.7862C56.4295 43.3538 55.791 44.3224 55.7768 45.4043C55.7539 47.0767 57.2285 48.3809 59.0677 48.322C60.9037 48.2632 62.4057 46.8599 62.4231 45.1853C62.434 44.1731 61.8992 43.2961 61.0718 42.772C61.0882 41.2685 61.1056 39.7639 61.122 38.2592C65.2294 38.1209 69.3238 37.9934 73.4072 37.8757C73.3974 39.3466 73.3876 40.8174 73.3777 42.2883C72.4477 42.8516 71.8223 43.8191 71.8147 44.9042C71.8016 46.581 73.2664 47.9004 75.0827 47.8535C76.8968 47.8067 78.3726 46.4099 78.3813 44.7288C78.3868 43.7134 77.853 42.8298 77.0322 42.2992C77.0409 40.7902 77.0485 39.2823 77.0562 37.7733C81.1145 37.6622 85.1597 37.5619 89.194 37.4715C89.1929 38.9467 89.1907 40.4219 89.1885 41.8971C88.2728 42.4561 87.6604 43.4225 87.6582 44.5109C87.6549 46.1931 89.1089 47.5256 90.9044 47.4918C92.6967 47.457 94.1474 46.0656 94.1463 44.3802C94.1463 43.3615 93.6136 42.4713 92.8004 41.9342C92.8004 40.4208 92.8004 38.9075 92.7993 37.3942C96.8085 37.3103 100.807 37.2362 104.792 37.173C104.799 38.6526 104.804 40.1332 104.811 41.6128C103.909 42.1673 103.309 43.1327 103.312 44.2244C103.317 45.912 104.761 47.2587 106.535 47.2358C108.307 47.2129 109.732 45.8259 109.722 44.1361C109.717 43.1141 109.186 42.2185 108.38 41.6738C108.372 40.1561 108.363 38.6384 108.355 37.1196C112.317 37.0619 116.266 37.015 120.205 36.9769C120.22 38.4619 120.233 39.9458 120.247 41.4297C119.358 41.9799 118.77 42.9442 118.78 44.0391C118.794 45.7312 120.227 47.092 121.98 47.08C123.73 47.068 125.133 45.6876 125.114 43.9912C125.103 42.966 124.575 42.0638 123.775 41.5125C123.76 39.9905 123.743 38.4673 123.727 36.9442C127.641 36.9126 131.545 36.8908 135.437 36.8788C135.457 38.3682 135.479 39.8565 135.5 41.3458C134.625 41.8917 134.048 42.8548 134.064 43.9531C134.086 45.6505 135.51 47.0244 137.241 47.0233C138.97 47.0233 140.349 45.6473 140.321 43.9465C140.305 42.9191 139.779 42.0104 138.985 41.4526C138.962 39.9251 138.939 38.3987 138.915 36.8712C142.784 36.8647 146.641 36.8679 150.487 36.881C150.515 38.3747 150.543 39.8674 150.571 41.3611C149.708 41.9037 149.144 42.8646 149.164 43.9672C149.194 45.6701 150.608 47.056 152.318 47.0669C154.027 47.0778 155.382 45.7072 155.347 44.001C155.327 42.9703 154.802 42.0562 154.015 41.4907C153.984 39.9589 153.953 38.427 153.924 36.8952C157.746 36.9137 161.558 36.942 165.359 36.9801C165.394 38.4782 165.429 39.9752 165.464 41.4733C164.614 42.0115 164.061 42.9725 164.086 44.0773C164.124 45.7845 165.527 47.1835 167.218 47.2064C168.906 47.2282 170.239 45.8619 170.197 44.1514C170.171 43.1174 169.649 42.1968 168.868 41.6258C168.831 40.0896 168.794 38.5534 168.757 37.0172C171.603 37.0499 174.444 37.088 177.278 37.1305C177.299 37.1741 179.205 110.635 179.781 135.905C179.805 136.918 179.828 137.854 179.848 138.706C179.858 139.132 179.869 139.591 179.878 140.001C179.882 140.157 179.894 140.635 179.902 141.003C179.899 140.844 179.948 142.938 179.946 142.863C179.95 143.051 179.947 142.905 179.973 144.021C180 145.114 180.013 145.666 179.983 144.42C180.001 145.177 179.862 143.529 179.687 144.41C179.491 144.352 179.181 143.569 178.819 144.381C178.438 144.418 177.957 144.05 177.407 144.334C177.109 143.512 176.848 145.202 176.516 144.763C176.168 143.546 175.853 144.731 175.48 144.271C175.105 143.737 174.729 143.981 174.331 144.213C173.937 144.577 173.475 142.765 173.065 144.194C172.609 143.504 172.195 145.665 171.683 144.151C171.211 144.463 170.713 144.442 170.19 144.106C169.704 145.563 169.126 143.363 168.591 144.146C168.323 144.56 168.047 144.72 167.76 144.594C167.479 144.699 167.184 144.403 166.883 144.008C166.599 144.464 166.303 144.506 165.989 143.871C165.687 143.891 165.359 142.658 165.075 143.957C164.457 143.991 163.815 143.636 163.169 143.904C162.853 144.373 162.537 145.118 162.174 143.525C161.823 142.626 161.513 144.064 161.168 143.851C160.841 144.614 160.458 142.47 160.136 143.965C159.779 143.521 159.422 143.245 159.076 143.798C158.715 143.47 158.361 143.826 157.995 143.705C157.631 143.624 157.252 142.899 156.896 143.743C156.537 144.418 156.164 144.47 155.778 143.982C155.387 143.069 155.029 144.498 154.631 143.69C154.244 143.475 153.867 144.181 153.47 143.726C153.078 143.668 152.673 142.965 152.287 143.636C151.888 143.562 151.483 143.322 151.082 143.416C150.679 143.469 150.284 144.313 149.863 143.583C149.452 143.501 149.036 143.313 148.627 143.796C148.202 143.218 147.795 144.04 147.365 143.531C146.943 143.499 146.519 143.607 146.092 143.726C145.675 144.525 145.239 144.149 144.797 143.48C144.364 143.627 143.927 143.561 143.487 143.424C143.047 143.4 142.602 143.115 142.161 143.429C141.726 144.291 141.273 143.865 140.817 143.332C140.365 143.184 139.919 143.734 139.46 143.381C139.007 143.611 138.55 143.572 138.087 143.344C137.627 143.41 137.156 142.584 136.7 143.336C136.235 143.293 135.769 143.447 135.298 143.411C134.825 143.106 134.356 143.41 133.881 143.292C133.41 143.582 132.923 142.49 132.452 143.311C131.975 143.431 131.496 143.701 131.009 143.252C130.528 143.395 130.04 143.14 129.556 143.323C129.069 143.393 128.579 143.155 128.089 143.214C127.596 142.979 127.102 142.855 126.609 143.108C126.12 143.872 125.623 143.66 125.121 143.178C124.626 143.659 124.124 143.471 123.622 143.308C123.115 142.684 122.617 143.281 122.11 143.146C121.604 142.909 121.098 143.176 120.59 143.151C120.077 142.211 119.572 143.388 119.06 143.118C118.547 142.814 118.037 143.125 117.521 142.891C117.008 143.082 116.493 143.25 115.976 143.093C115.46 143.281 114.941 143.08 114.421 143.054C113.904 143.587 113.383 143.635 112.859 143.071C112.34 143.652 111.815 143.113 111.291 143.099C110.767 143.111 110.241 142.645 109.716 143.052C109.189 142.463 108.664 143.526 108.135 143.189C107.606 142.465 107.079 143.291 106.548 143.038C106.019 143.785 105.487 142.91 104.957 143.299C104.425 142.738 103.893 142.788 103.36 143.027C102.827 142.863 102.293 142.702 101.76 142.705C101.226 142.446 100.69 143.369 100.155 143.022C99.6192 143.492 99.0844 142.478 98.5484 143.054C98.0125 142.985 97.4744 143.487 96.9384 143.02C96.4003 143.458 95.8633 143.45 95.3262 143.174C94.7881 143.47 94.2511 143.16 93.7129 143.021C93.1737 143.501 92.6345 143.626 92.0975 143.262C91.5594 143.113 91.0223 142.781 90.4831 143.027C89.9472 142.535 89.4047 143.358 88.8676 143.08C88.3273 143.526 87.7892 143.421 87.2533 143.037C86.7151 142.961 86.1781 142.84 85.64 142.958C85.1029 142.963 84.5615 143.583 84.0278 143.051C83.4886 143.397 82.9537 143.07 82.4178 143.124C81.8851 142.675 81.3426 143.504 80.8111 143.069C80.2762 142.985 79.7381 143.396 79.2065 143.03C78.6695 143.306 78.1346 143.542 77.6052 143.091C77.0693 143.421 76.5399 143.131 76.0083 143.147C75.4789 142.939 74.9408 143.659 74.4169 143.117C73.8853 143.29 73.3592 143.018 72.8298 143.096C72.2982 143.432 71.7754 143.03 71.2481 143.146C70.7198 143.404 70.2003 142.794 69.6763 142.909C69.1491 143.186 68.6448 141.697 68.1056 143.179C67.5839 143.24 67.0643 143.115 66.5415 143.431C66.0175 143.774 65.5023 143.583 64.9915 143.215C64.4708 143.539 63.9633 143.025 63.4524 142.873C62.9514 141.999 62.4177 143.581 61.9123 143.254C61.408 142.864 60.8961 143.051 60.3852 143.379C59.8908 142.522 59.3712 143.464 58.8713 143.297C58.3703 143.147 57.8671 143.213 57.3682 143.202C56.865 143.416 56.3728 143.074 55.8728 143.342C55.3762 143.379 54.8795 143.52 54.3927 143.264C53.907 142.877 53.4082 143.459 52.9213 143.389C52.4247 143.88 51.9401 143.805 51.4652 143.36C50.9784 143.555 50.497 143.58 50.0211 143.439C49.5474 143.184 49.0573 143.89 48.5956 143.29C48.1077 144.009 47.6525 143.205 47.1777 143.49C46.6942 144.224 46.2346 143.889 45.7751 143.687C45.3123 143.663 44.8429 144.018 44.3954 143.544C43.9413 143.347 43.4687 144.147 43.0244 143.753C42.5594 144.313 42.1206 143.764 41.6775 143.598C41.2223 143.963 40.7824 143.787 40.3414 143.79C39.8852 144.483 39.4693 143.45 39.0305 143.655C38.6081 143.119 38.1322 145.029 37.736 143.61C37.3266 142.78 36.8824 143.615 36.4578 143.713C36.0572 142.809 35.6424 142.641 35.2003 143.757C34.7735 144.254 34.362 144.219 33.9647 143.77C33.5827 142.684 33.1494 143.834 32.7542 143.583C32.3482 143.779 31.9607 143.355 31.5546 143.828C31.1737 143.323 30.7709 143.829 30.378 144.046C29.9959 143.877 29.6128 143.894 29.234 143.886C28.8476 144.15 28.4994 143.182 28.1229 143.388C27.7692 142.732 27.4057 142.622 27.0073 143.944C26.5893 145.949 26.2662 144.63 25.9125 144.64C25.5872 143.596 25.1997 144.913 24.8799 143.999C24.5099 144.837 24.1999 143.709 23.8713 143.419C23.5472 142.978 23.1946 143.651 22.8551 144.055C22.21 143.648 21.5704 143.67 20.9384 144.108C20.6077 144.785 20.3042 144.749 20.004 144.743C19.7071 144.613 19.4015 144.937 19.1352 144.159C18.5523 144.192 18.0098 143.559 17.4488 144.208C16.9161 143.945 16.378 144.439 15.8846 144.255C15.3672 144.819 14.8542 145.868 14.4471 144.299C13.9788 144.648 13.6142 142.474 13.1416 144.339C12.7257 144.455 12.3098 145.249 11.9616 144.71C11.6003 144.57 11.2511 144.758 10.9443 144.408C10.3254 143.873 9.76548 144.464 9.32996 144.46C8.87043 145.123 8.58336 143.775 8.33449 144.493C8.15111 143.33 8.00048 144.334 7.99502 144.504C7.98956 144.661 8.01139 144.058 8.00812 144.116C7.98738 144.692 8.02777 143.572 8.04741 142.989C8.07252 142.263 8.0878 141.819 8.10963 141.181C8.13146 140.537 8.14456 140.195 8.19368 138.748C8.19368 138.761 8.27118 136.494 8.29738 135.746C8.33558 134.635 8.38251 133.275 8.41744 132.232C8.46001 130.983 8.50586 129.657 8.55279 128.264C9.57119 99.086 11.3842 40.4405 11.3679 40.4132C15.8879 40.1757 20.3926 39.9491 24.8843 39.7355Z" fill="#FEFFFF"/>
<path d="M21.1543 64.6017C72.394 62.3639 121.791 61.672 169.38 62.4477C169.378 62.3399 169.374 62.2331 169.372 62.1252C121.788 61.3528 72.3962 62.0468 21.163 64.2879C21.1598 64.3925 21.1565 64.4971 21.1543 64.6017Z" fill="#29ABE2"/>
<path d="M20.8945 74.1274C72.3198 71.9778 121.88 71.3763 169.609 72.2403C169.607 72.1325 169.604 72.0257 169.601 71.9178C121.876 71.056 72.3231 71.6607 20.9033 73.8136C20.9 73.9182 20.8978 74.0228 20.8945 74.1274Z" fill="#29ABE2"/>
<path d="M20.6318 83.6488C72.2438 81.5874 121.965 81.0731 169.835 82.0254C169.833 81.9186 169.83 81.8108 169.828 81.704C121.962 80.755 72.246 81.2714 20.6406 83.3361C20.6373 83.4396 20.6351 83.5442 20.6318 83.6488Z" fill="#29ABE2"/>
<path d="M20.3643 93.1667C72.1629 91.1914 122.047 90.7654 170.058 91.8037C170.056 91.6969 170.054 91.5891 170.05 91.4823C122.044 90.4462 72.165 90.8765 20.3719 92.854C20.3708 92.9586 20.3675 93.0632 20.3643 93.1667Z" fill="#29ABE2"/>
<path d="M20.0933 102.681C72.0785 100.792 122.126 100.45 170.278 101.574C170.276 101.468 170.274 101.36 170.27 101.253C122.123 100.132 72.0807 100.476 20.1009 102.368C20.0998 102.473 20.0965 102.578 20.0933 102.681Z" fill="#29ABE2"/>
<path d="M19.8198 112.193C71.9928 110.388 122.203 110.131 170.497 111.339C170.495 111.232 170.493 111.124 170.489 111.017C122.2 109.811 71.995 110.072 19.8286 111.88C19.8253 111.985 19.822 112.088 19.8198 112.193Z" fill="#29ABE2"/>
<path d="M19.541 121.7C71.9018 119.976 122.276 119.803 170.711 121.094C170.709 120.988 170.707 120.881 170.705 120.773C122.274 119.484 71.905 119.661 19.5508 121.386C19.5465 121.492 19.5432 121.597 19.541 121.7Z" fill="#29ABE2"/>
<path d="M19.2583 131.205C71.8068 129.563 122.345 129.471 170.922 130.845C170.92 130.739 170.918 130.632 170.916 130.525C122.342 129.153 71.8101 129.248 19.2681 130.893C19.2648 130.996 19.2616 131.1 19.2583 131.205Z" fill="#29ABE2"/>
</svg>
