<svg width="365" height="476" viewBox="0 0 365 476" fill="none" xmlns="http://www.w3.org/2000/svg">
<path d="M119.548 263.53C92.5443 278.294 57.0491 275.87 32.2981 257.583C34.1147 263.148 37.0786 267.219 41.2137 271.363C34.9154 271.01 30.1887 271.255 23.8904 270.909C29.2087 275.488 33.7741 277.094 39.7138 279.846C34.8138 279.548 29.9258 281.876 25.6114 284.217C43.2454 286.485 59.3975 291.262 77.9578 292.157C97.6295 293.106 117.941 288.42 128.822 279.596L119.548 263.53Z" fill="#83A329"/>
<path d="M83.055 293.728C81.34 293.728 79.619 293.686 77.892 293.602C66.5025 293.053 55.8838 291.029 45.6177 289.071C39.0684 287.823 32.2921 286.527 25.4321 285.65C24.8046 285.566 24.3027 285.094 24.1892 284.474C24.0756 283.859 24.3684 283.232 24.9242 282.933C27.9179 281.309 31.0551 279.781 34.276 278.969C30.4098 277.202 26.8842 275.387 22.9522 272.002C22.4801 271.596 22.3188 270.939 22.5518 270.36C22.7849 269.781 23.3466 269.423 23.98 269.452C27.0933 269.626 29.8779 269.649 32.5729 269.679C34.2401 269.697 35.9372 269.709 37.7359 269.763C34.4314 265.978 32.3279 262.33 30.9237 258.031C30.7265 257.434 30.9416 256.772 31.4555 256.401C31.9694 256.031 32.6566 256.037 33.1705 256.413C57.2941 274.241 92.5323 276.647 118.855 262.252C119.56 261.864 120.438 262.127 120.827 262.825C121.209 263.53 120.952 264.413 120.247 264.796C93.9963 279.148 60.5986 277.721 35.5608 261.584C37.1204 264.557 39.2597 267.333 42.2534 270.33C42.6777 270.754 42.7972 271.399 42.5522 271.948C42.3072 272.497 41.7515 272.838 41.148 272.802C38.0347 272.629 35.2441 272.605 32.555 272.575C31.2105 272.563 29.8421 272.545 28.4199 272.515C31.3181 274.455 34.1445 275.721 37.467 277.214C38.3932 277.632 39.3493 278.056 40.3413 278.515C40.9747 278.808 41.3093 279.512 41.136 280.187C40.9627 280.862 40.3353 281.309 39.6361 281.28C36.5886 281.088 33.4753 282.044 30.4217 283.411C35.7759 284.229 41.0404 285.232 46.1675 286.211C56.332 288.151 66.8491 290.151 78.0354 290.695C97.9761 291.668 117.558 286.856 127.914 278.456C128.541 277.954 129.45 278.044 129.958 278.67C130.466 279.291 130.37 280.205 129.748 280.712C119.769 288.802 101.842 293.728 83.055 293.728Z" fill="#658215"/>
<path d="M119.548 263.53C92.5443 278.294 57.0491 275.87 32.2981 257.583C34.1147 263.148 37.0786 267.219 41.2137 271.363C34.9154 271.01 30.1887 271.255 23.8904 270.909C29.2087 275.488 33.7741 277.094 39.7138 279.846C34.8138 279.548 29.9258 281.876 25.6114 284.217C43.2454 286.485 59.3975 291.262 77.9578 292.157C97.6295 293.106 117.941 288.42 128.822 279.596L119.548 263.53Z" fill="#83A329"/>
<path d="M83.055 293.728C81.34 293.728 79.619 293.686 77.892 293.602C66.5025 293.053 55.8838 291.029 45.6177 289.071C39.0684 287.823 32.2921 286.527 25.4321 285.65C24.8046 285.566 24.3027 285.094 24.1892 284.474C24.0756 283.859 24.3684 283.232 24.9242 282.933C27.9179 281.309 31.0551 279.781 34.276 278.969C30.4098 277.202 26.8842 275.387 22.9522 272.002C22.4801 271.596 22.3188 270.939 22.5518 270.36C22.7849 269.781 23.3466 269.423 23.98 269.452C27.0933 269.626 29.8779 269.649 32.5729 269.679C34.2401 269.697 35.9372 269.709 37.7359 269.763C34.4314 265.978 32.3279 262.33 30.9237 258.031C30.7265 257.434 30.9416 256.772 31.4555 256.401C31.9694 256.031 32.6566 256.037 33.1705 256.413C57.2941 274.241 92.5323 276.647 118.855 262.252C119.56 261.864 120.438 262.127 120.827 262.825C121.209 263.53 120.952 264.413 120.247 264.796C93.9963 279.148 60.5986 277.721 35.5608 261.584C37.1204 264.557 39.2597 267.333 42.2534 270.33C42.6777 270.754 42.7972 271.399 42.5522 271.948C42.3072 272.497 41.7515 272.838 41.148 272.802C38.0347 272.629 35.2441 272.605 32.555 272.575C31.2105 272.563 29.8421 272.545 28.4199 272.515C31.3181 274.455 34.1445 275.721 37.467 277.214C38.3932 277.632 39.3493 278.056 40.3413 278.515C40.9747 278.808 41.3093 279.512 41.136 280.187C40.9627 280.862 40.3353 281.309 39.6361 281.28C36.5886 281.088 33.4753 282.044 30.4217 283.411C35.7759 284.229 41.0404 285.232 46.1675 286.211C56.332 288.151 66.8491 290.151 78.0354 290.695C97.9761 291.668 117.558 286.856 127.914 278.456C128.541 277.954 129.45 278.044 129.958 278.67C130.466 279.291 130.37 280.205 129.748 280.712C119.769 288.802 101.842 293.728 83.055 293.728Z" fill="#658215"/>
<path d="M347.698 160.196C346.102 156.232 345.773 151.533 344.961 147.336L357.061 152.757C354.689 154.978 350.064 157.975 347.698 160.196Z" fill="#6B8A16"/>
<path d="M347.698 161.647C347.596 161.647 347.488 161.635 347.387 161.611C346.915 161.51 346.532 161.182 346.353 160.74C345.158 157.773 344.65 154.489 344.16 151.319C343.963 150.065 343.772 148.817 343.539 147.617C343.437 147.086 343.634 146.542 344.064 146.202C344.489 145.862 345.068 145.796 345.558 146.017L357.659 151.438C358.101 151.635 358.418 152.041 358.496 152.525C358.579 153.002 358.412 153.492 358.059 153.82C356.816 154.984 355.006 156.334 353.255 157.641C351.57 158.901 349.819 160.202 348.696 161.259C348.415 161.51 348.062 161.647 347.698 161.647ZM346.849 149.772L347.016 150.871C347.375 153.169 347.739 155.534 348.367 157.707C349.341 156.925 350.434 156.113 351.504 155.313C352.478 154.584 353.476 153.844 354.36 153.14L346.849 149.772Z" fill="#577012"/>
<path d="M333.619 170.603C332.166 166.74 331.109 162.781 329.657 158.919L343.556 162.602C340.885 164.865 336.29 168.34 333.619 170.603Z" fill="#6B8A16"/>
<path d="M333.619 172.053C333.499 172.053 333.374 172.035 333.254 172.006C332.8 171.886 332.424 171.552 332.262 171.11C331.527 169.146 330.882 167.14 330.254 165.199C329.645 163.295 329.012 161.325 328.3 159.426C328.109 158.919 328.217 158.346 328.581 157.94C328.946 157.534 329.507 157.372 330.033 157.51L343.933 161.193C344.453 161.331 344.859 161.749 344.978 162.28C345.098 162.805 344.913 163.355 344.5 163.707C343.144 164.853 341.285 166.322 339.493 167.737C337.718 169.14 335.877 170.591 334.563 171.701C334.294 171.934 333.959 172.053 333.619 172.053ZM331.946 161.032C332.316 162.137 333.846 166.889 334.288 168.173C335.346 167.319 339.564 163.987 340.443 163.283L331.946 161.032Z" fill="#577012"/>
<path d="M320.598 180.746C320.216 176.656 318.853 172.352 318.596 168.214C321.925 169.719 326.687 172.519 330.016 174.023C326.502 176.644 324.112 178.131 320.598 180.746Z" fill="#6B8A16"/>
<path d="M320.598 182.197C320.401 182.197 320.198 182.155 320.006 182.071C319.528 181.857 319.2 181.403 319.152 180.883C318.979 179.045 318.608 177.176 318.208 175.2C317.754 172.943 317.288 170.615 317.144 168.31C317.114 167.803 317.347 167.313 317.766 167.026C318.184 166.74 318.728 166.692 319.188 166.901C320.897 167.677 322.976 168.782 324.99 169.85C326.956 170.895 328.988 171.976 330.613 172.71C331.079 172.925 331.402 173.367 331.456 173.874C331.509 174.388 331.288 174.889 330.882 175.194C329.113 176.513 327.619 177.546 326.131 178.579C324.667 179.594 323.203 180.615 321.459 181.91C321.208 182.101 320.903 182.197 320.598 182.197ZM320.323 170.674C320.52 171.988 320.789 173.325 321.052 174.627C321.285 175.779 321.518 176.955 321.709 178.137C322.672 177.45 326.251 174.961 327.201 174.28C326.054 173.695 321.393 171.218 320.323 170.674Z" fill="#577012"/>
<path d="M317.574 197.188C313.714 194.812 310.033 192.328 306.167 189.952C309.878 188.143 313.732 186.633 317.682 185.439C317.604 189.188 317.658 193.451 317.574 197.188Z" fill="#6B8A16"/>
<path d="M317.574 198.639C317.311 198.639 317.042 198.567 316.815 198.424C314.879 197.236 307.338 192.376 305.408 191.188C304.96 190.913 304.691 190.412 304.721 189.88C304.751 189.349 305.061 188.877 305.533 188.645C309.304 186.812 313.254 185.259 317.264 184.047C317.712 183.91 318.19 184 318.566 184.28C318.937 184.561 319.152 185.003 319.14 185.468C319.098 187.331 319.068 195.337 319.026 197.212C319.014 197.731 318.722 198.203 318.267 198.454C318.052 198.585 317.813 198.639 317.574 198.639ZM309.208 190.143C310.368 190.877 314.993 193.857 316.164 194.597C316.176 193.516 316.188 188.704 316.206 187.439C313.833 188.221 311.491 189.128 309.208 190.143Z" fill="#577012"/>
<path d="M316.343 216.657C311.909 213.427 307.762 210.86 302.719 208.705C307.183 206.054 312.142 203.272 316.606 200.621C316.576 205.887 316.379 211.397 316.343 216.657Z" fill="#6B8A16"/>
<path d="M316.349 218.108C316.045 218.108 315.746 218.013 315.495 217.828C310.619 214.281 306.633 211.947 302.151 210.036C301.649 209.821 301.309 209.344 301.273 208.8C301.237 208.257 301.512 207.738 301.978 207.457C304.219 206.126 313.642 200.699 315.865 199.379C316.313 199.111 316.875 199.105 317.329 199.367C317.783 199.624 318.064 200.114 318.058 200.633C318.04 203.266 317.813 214.042 317.795 216.663C317.789 217.207 317.485 217.702 316.995 217.947C316.797 218.06 316.57 218.108 316.349 218.108ZM305.868 208.544C308.868 209.989 311.748 211.684 314.927 213.875C314.951 212.132 315.106 204.979 315.13 203.182C313.577 204.09 307.35 207.672 305.868 208.544Z" fill="#577012"/>
<path d="M315.937 235.756C311.927 233.595 304.828 230.407 300.819 228.245L315.584 220.132C315.507 225.302 317.007 230.699 315.937 235.756Z" fill="#6B8A16"/>
<path d="M315.937 237.207C315.698 237.207 315.459 237.147 315.25 237.034C313.272 235.971 310.463 234.616 307.75 233.308C305.007 231.989 302.169 230.622 300.131 229.523C299.665 229.272 299.372 228.783 299.366 228.251C299.366 227.72 299.653 227.231 300.119 226.974L314.885 218.854C315.339 218.603 315.889 218.615 316.337 218.884C316.779 219.153 317.048 219.63 317.042 220.15C317.012 222.036 317.204 223.947 317.401 225.965C317.729 229.278 318.07 232.705 317.359 236.055C317.263 236.502 316.965 236.878 316.546 237.07C316.355 237.165 316.146 237.207 315.937 237.207ZM303.908 228.21C305.485 228.998 313.051 232.64 314.801 233.529C315.005 231.201 314.766 228.783 314.515 226.251C314.395 225.033 314.27 223.798 314.198 222.55L303.908 228.21Z" fill="#577012"/>
<path d="M313.762 257.022C310.242 253.237 306.095 249.715 301.709 246.974C306.448 244.67 311.019 242.025 315.375 239.064C315.554 245.13 315.142 251.112 313.762 257.022Z" fill="#6B8A16"/>
<path d="M313.762 258.473C313.361 258.473 312.979 258.312 312.698 258.007C309.125 254.168 305.061 250.777 300.938 248.204C300.49 247.924 300.233 247.422 300.257 246.897C300.287 246.371 300.597 245.9 301.07 245.673C305.731 243.404 310.266 240.783 314.551 237.87C314.987 237.571 315.554 237.535 316.026 237.78C316.499 238.019 316.803 238.502 316.815 239.028C317.012 245.744 316.475 251.739 315.166 257.357C315.046 257.882 314.646 258.294 314.126 258.431C314.013 258.455 313.887 258.473 313.762 258.473ZM304.607 247.147C307.481 249.136 310.29 251.476 312.895 254.049C313.606 250.198 313.959 246.132 313.959 241.738C310.941 243.691 307.81 245.5 304.607 247.147Z" fill="#577012"/>
<path d="M293.236 274.056C292.136 269.602 290.386 264.808 289.286 260.354L309.944 261.769C305.008 266.402 298.847 269.679 293.236 274.056Z" fill="#6B8A16"/>
<path d="M293.236 275.506C293.074 275.506 292.913 275.482 292.764 275.429C292.298 275.267 291.945 274.879 291.831 274.402C291.294 272.217 290.571 269.882 289.877 267.631C289.172 265.339 288.443 262.969 287.882 260.706C287.768 260.258 287.882 259.781 288.18 259.422C288.479 259.07 288.903 258.891 289.393 258.909L310.057 260.318C310.631 260.36 311.133 260.736 311.324 261.279C311.515 261.822 311.372 262.431 310.953 262.825C307.918 265.673 304.392 268.049 300.986 270.348C298.709 271.882 296.361 273.47 294.144 275.196C293.869 275.405 293.552 275.506 293.236 275.506ZM291.204 261.942C291.652 263.536 292.154 265.178 292.644 266.778C293.134 268.366 293.636 269.996 294.084 271.596C295.835 270.312 297.61 269.112 299.343 267.948C301.787 266.294 304.141 264.712 306.316 262.975L291.204 261.942Z" fill="#577012"/>
<path d="M274.395 286.712C273.976 281.244 273.773 275.864 274.096 270.39L287.78 278.867C283.89 281.327 278.291 284.253 274.395 286.712Z" fill="#6B8A16"/>
<path d="M274.395 288.163C274.173 288.163 273.946 288.109 273.743 288.008C273.289 287.781 272.984 287.327 272.948 286.82C272.458 280.425 272.363 275.178 272.65 270.3C272.68 269.792 272.978 269.333 273.432 269.1C273.887 268.861 274.43 268.885 274.867 269.154L288.551 277.631C288.975 277.894 289.238 278.36 289.238 278.861C289.238 279.363 288.987 279.828 288.563 280.091C286.585 281.339 284.153 282.718 281.804 284.049C279.486 285.363 277.09 286.724 275.177 287.93C274.932 288.091 274.663 288.163 274.395 288.163ZM275.44 272.927C275.333 276.36 275.41 280.037 275.679 284.229C277.173 283.345 283.543 279.727 285.013 278.855L275.44 272.927Z" fill="#577012"/>
<path d="M255.649 300.575C254.496 295.232 252.775 288.695 252.661 283.226C258.374 284.868 264.834 287.62 269.835 290.832C265.503 293.107 259.635 297.728 255.649 300.575Z" fill="#6B8A16"/>
<path d="M255.649 302.026C255.47 302.026 255.296 301.996 255.123 301.931C254.669 301.758 254.328 301.364 254.227 300.886C254.024 299.943 253.803 298.957 253.575 297.949C252.512 293.238 251.305 287.901 251.209 283.262C251.197 282.802 251.412 282.366 251.777 282.08C252.141 281.799 252.619 281.709 253.062 281.835C259.234 283.614 265.802 286.521 270.618 289.614C271.054 289.895 271.305 290.384 271.287 290.898C271.263 291.411 270.971 291.877 270.51 292.122C267.319 293.793 263.262 296.79 259.683 299.429C258.541 300.271 257.46 301.065 256.492 301.758C256.241 301.931 255.948 302.026 255.649 302.026ZM254.221 285.22C254.55 289.095 255.53 293.423 256.408 297.304L256.587 298.098L257.956 297.089C260.866 294.939 264.081 292.569 266.979 290.796C263.22 288.647 258.685 286.659 254.221 285.22Z" fill="#577012"/>
<path d="M234.926 314.385C234.651 308.581 234.024 302.599 233.749 296.796C239.455 298.957 245.323 301.453 251.03 303.614C245.156 307.31 240.531 310.271 234.926 314.385Z" fill="#6B8A16"/>
<path d="M234.926 315.835C234.71 315.835 234.501 315.788 234.298 315.692C233.814 315.465 233.497 314.988 233.474 314.45C233.336 311.573 233.109 308.582 232.888 305.698C232.667 302.79 232.44 299.781 232.296 296.862C232.272 296.372 232.5 295.907 232.894 295.62C233.288 295.334 233.808 295.268 234.262 295.435C237.137 296.522 248.711 301.184 251.544 302.253C252.058 302.45 252.416 302.916 252.476 303.465C252.53 304.014 252.273 304.546 251.807 304.838C245.963 308.51 241.397 311.429 235.786 315.549C235.529 315.74 235.23 315.835 234.926 315.835ZM235.32 298.952C235.451 301.125 236.097 309.585 236.228 311.65C240.196 308.814 243.752 306.498 247.809 303.931C245.825 303.149 237.507 299.799 235.32 298.952Z" fill="#577012"/>
<path d="M215.541 325.991L216.425 309.573L230.133 317.095C225.186 320.719 220.973 323.143 215.541 325.991Z" fill="#6B8A16"/>
<path d="M215.541 327.441C215.266 327.441 214.997 327.364 214.758 327.214C214.316 326.934 214.065 326.438 214.089 325.919C214.232 323.143 214.83 312.271 214.973 309.501C214.997 308.999 215.278 308.551 215.72 308.307C216.156 308.062 216.688 308.062 217.124 308.301L230.832 315.823C231.269 316.062 231.549 316.504 231.585 316.999C231.615 317.495 231.394 317.973 230.994 318.265C225.95 321.955 221.6 324.45 216.216 327.274C216.007 327.388 215.774 327.441 215.541 327.441ZM217.752 311.96L217.124 323.507C220.746 321.555 223.966 319.656 227.414 317.262L217.752 311.96Z" fill="#577012"/>
<path d="M312.507 257.918C316.176 251.655 314.574 184.901 319.367 181.319C324.159 177.737 363.754 145.677 363.538 148.913C363.323 152.149 343.526 182.436 340.072 185.457C336.618 188.478 355.943 288.199 350.147 298.778C348.683 301.447 295.476 355.15 256.569 396.452L212.266 326.701C218.176 325.794 308.838 264.175 312.507 257.918Z" fill="#95BA2F"/>
<path d="M217.393 334.785C234.919 324.271 315.112 271.864 317.986 259.404C321.094 245.959 320.054 190.621 323.161 185.97C324.787 183.534 334.348 172.603 343.096 162.734C332.692 170.746 321.745 179.54 319.367 181.319C314.574 184.901 316.176 251.655 312.507 257.918C308.838 264.175 218.176 325.8 212.26 326.707L217.393 334.785Z" fill="#B6D440"/>
<path d="M363.538 148.912C363.544 148.841 363.503 148.811 363.473 148.775C352.179 159.957 334.784 177.635 332.483 182.698C329.035 190.28 339.851 269.219 335.931 289.578C332.991 304.838 267.044 356.075 242.813 374.804L256.569 396.452C295.476 355.15 348.689 301.447 350.147 298.778C355.949 288.199 336.618 188.477 340.072 185.457C343.526 182.436 363.323 152.148 363.538 148.912Z" fill="#83A329"/>
<path d="M256.563 397.903C256.515 397.903 256.473 397.897 256.426 397.897C255.978 397.855 255.577 397.61 255.338 397.228L211.035 327.483C210.772 327.071 210.736 326.552 210.939 326.104C211.142 325.656 211.555 325.346 212.039 325.268C218.277 324.062 308.228 262.342 311.252 257.177C312.764 254.598 313.373 237.613 313.917 222.627C314.897 195.349 315.674 182.262 318.5 180.149C319.468 179.427 321.978 177.438 325.163 174.931C359.947 147.456 362.541 146.596 364.13 147.42C364.71 147.724 365.039 148.327 364.997 149.002C364.728 153.056 344.817 182.764 341.226 186.364C340.437 189.176 343.239 209.117 345.713 226.741C351.157 265.494 354.754 293.399 351.426 299.471C350.673 300.844 341.835 310.008 318.638 333.937C300.149 353 277.143 376.732 257.627 397.443C257.346 397.741 256.964 397.903 256.563 397.903ZM214.417 327.394L256.79 394.1C276.038 373.699 298.458 350.576 316.546 331.925C333.386 314.564 347.924 299.566 348.886 298.062C351.994 292.39 346.699 254.688 342.827 227.159C337.927 192.292 337.371 185.898 339.116 184.376C342.032 181.827 356.553 159.617 360.879 151.504C353.673 156.125 334.778 171.05 326.956 177.223C323.633 179.85 321.231 181.743 320.233 182.489C318.19 184.645 317.395 206.663 316.815 222.747C316.086 243.022 315.548 255.607 313.756 258.658C310.391 264.395 229.32 320.211 214.417 327.394Z" fill="#6B8A16"/>
<path d="M149.444 412.19C147.436 432.262 143.086 451.82 135.7 470.591C129.402 470.812 116.602 470.555 108.039 474.651C111.003 470.173 123.301 462.525 122.817 462.507C115.287 462.167 107.698 463.211 100.546 465.57C106.079 461.414 113.979 458.746 120.653 456.919C113.286 454.435 106.88 453.426 99.1114 453.617C98.6871 453.337 116.082 450.322 125.506 452.716C124.98 443.82 124.43 431.897 123.038 423.097C127.687 421.706 131.661 418.787 135.963 416.542C140.254 414.297 144.592 411.993 149.444 412.19Z" fill="#95BA2F"/>
<path d="M124.346 422.644C128.44 421.139 132.061 418.572 135.951 416.542C139.704 414.584 143.486 412.584 147.604 412.231C148.207 412.351 148.799 412.5 149.384 412.673C148.088 425.36 145.853 437.838 142.506 450.047C137.798 440.113 131.643 430.877 124.346 422.644Z" fill="#83A329"/>
<path d="M108.188 476C107.776 476 107.376 475.827 107.095 475.504C106.664 475.015 106.617 474.292 106.975 473.749C108.989 470.704 114.654 466.555 118.556 463.815C112.64 463.97 106.802 464.985 101.149 466.848C100.474 467.068 99.7327 466.77 99.4041 466.143C99.0754 465.516 99.2487 464.74 99.8164 464.31C103.647 461.433 108.762 459.009 115.712 456.806C110.286 455.385 105.165 454.817 99.2906 454.967C99.0097 454.967 98.699 454.889 98.448 454.722C97.8564 454.328 97.6353 453.552 97.9221 452.907C98.1432 452.411 98.5555 451.486 108.911 450.591C113.303 450.208 119.255 449.976 124.089 450.805L123.988 449.074C123.522 440.931 122.948 430.799 121.741 423.223C121.627 422.506 122.064 421.814 122.757 421.605C125.792 420.697 128.523 419.097 131.415 417.408C132.712 416.65 134.057 415.867 135.425 415.151L135.604 415.055C139.967 412.775 144.484 410.434 149.647 410.632C150.047 410.649 150.424 410.828 150.687 411.127C150.95 411.431 151.075 411.826 151.033 412.226C148.93 433.253 144.269 453.032 137.194 471.015C136.985 471.552 136.471 471.91 135.891 471.934C135.108 471.964 134.224 471.982 133.262 472.006C126.814 472.149 116.028 472.4 108.81 475.857C108.613 475.952 108.403 476 108.188 476ZM120.145 460.889C121.108 460.889 122.07 460.913 123.032 460.955C123.653 460.985 124.203 461.409 124.376 462.006C124.687 463.074 124.346 463.313 121.717 465.146C119.721 466.543 116.435 468.83 113.686 471.086C120.373 469.397 127.83 469.23 133.208 469.104C133.788 469.092 134.338 469.08 134.851 469.063C141.455 452.035 145.87 433.372 147.986 413.557C144.197 413.843 140.666 415.688 136.961 417.623L136.782 417.718C135.473 418.399 134.164 419.169 132.897 419.909C130.334 421.408 127.699 422.948 124.806 423.987C125.906 431.545 126.456 441.128 126.898 448.907L127.107 452.525C127.137 452.991 126.94 453.432 126.581 453.731C126.223 454.029 125.745 454.137 125.296 454.017C121.89 453.152 117.403 453.026 113.148 453.217C115.795 453.755 118.46 454.495 121.269 455.438C121.872 455.641 122.273 456.22 122.255 456.853C122.237 457.492 121.801 458.041 121.185 458.209C117.361 459.253 113.997 460.358 111.068 461.528C114.068 461.11 117.098 460.889 120.145 460.889Z" fill="#6B8A16"/>
<path d="M201.145 411.205C202.669 431.319 206.535 450.979 213.467 469.922C219.753 470.298 232.565 470.346 241.02 474.651C238.17 470.107 226.057 462.161 226.541 462.149C234.076 461.994 241.636 463.224 248.735 465.755C243.303 461.468 235.475 458.609 228.842 456.621C236.269 454.316 242.693 453.462 250.462 453.844C250.892 453.576 233.574 450.137 224.097 452.304C224.838 443.426 225.675 431.516 227.288 422.751C222.675 421.247 218.773 418.232 214.53 415.885C210.276 413.533 205.997 411.127 201.145 411.205Z" fill="#95BA2F"/>
<path d="M224.736 444.531C225.352 437.193 226.111 429.139 227.288 422.751C222.675 421.247 218.773 418.232 214.53 415.885C210.281 413.539 206.003 411.127 201.151 411.205C201.557 416.59 202.149 421.939 202.907 427.253C210.108 432.471 218.408 438.429 224.736 444.531Z" fill="#83A329"/>
<path d="M240.871 476C240.65 476 240.423 475.946 240.214 475.844C233.079 472.215 222.299 471.707 215.863 471.403C214.901 471.355 214.016 471.313 213.234 471.265C212.654 471.229 212.152 470.859 211.955 470.316C205.316 452.172 201.145 432.285 199.549 411.21C199.52 410.81 199.657 410.416 199.926 410.124C200.195 409.831 200.577 409.658 200.978 409.652C206.147 409.557 210.604 412.028 214.913 414.416L215.086 414.512C216.437 415.258 217.757 416.076 219.036 416.864C221.886 418.625 224.581 420.285 227.593 421.27C228.286 421.497 228.704 422.196 228.573 422.912C227.187 430.459 226.362 440.578 225.699 448.704L225.555 450.429C230.408 449.719 236.353 450.095 240.733 450.584C251.065 451.731 251.454 452.668 251.663 453.169C251.938 453.82 251.693 454.59 251.095 454.966C250.844 455.128 250.545 455.211 250.247 455.193C244.39 454.901 239.251 455.337 233.784 456.632C240.674 459.008 245.735 461.552 249.488 464.519C250.043 464.961 250.205 465.737 249.858 466.358C249.512 466.979 248.771 467.259 248.095 467.02C242.49 465.02 236.676 463.862 230.766 463.564C234.596 466.4 240.166 470.686 242.102 473.779C242.448 474.334 242.383 475.05 241.94 475.528C241.66 475.833 241.265 476 240.871 476ZM214.351 468.423L215.994 468.501C221.366 468.752 228.824 469.104 235.463 470.955C232.774 468.632 229.547 466.262 227.581 464.823C224.988 462.925 224.659 462.68 224.994 461.617C225.185 461.026 225.741 460.608 226.362 460.596C230.39 460.519 234.375 460.805 238.301 461.474C235.397 460.232 232.069 459.044 228.268 457.91C227.659 457.725 227.234 457.164 227.234 456.525C227.228 455.886 227.647 455.319 228.256 455.134C231.083 454.256 233.772 453.587 236.431 453.11C232.182 452.811 227.695 452.829 224.265 453.611C223.816 453.719 223.338 453.599 222.992 453.295C222.639 452.99 222.46 452.537 222.496 452.077L222.795 448.471C223.428 440.703 224.205 431.133 225.49 423.605C222.621 422.5 220.022 420.894 217.5 419.33C216.251 418.56 214.961 417.76 213.67 417.049L213.497 416.954C209.833 414.93 206.356 413.001 202.573 412.619C204.204 432.476 208.166 451.235 214.351 468.423Z" fill="#6B8A16"/>
<path d="M225.167 195.63C224.133 190.973 204.635 118.404 189.624 110.13C174.613 101.855 165.124 120.47 165.124 120.47C165.124 120.47 157.876 104.613 144.072 105.646C131.129 106.613 123.713 136.16 121.64 137.193C119.572 138.226 54.5214 146.417 54.5214 146.417C54.5214 146.417 48.1394 134.435 39.7676 134.524C30.4396 134.62 26.5674 149.092 26.5674 149.092C26.5674 149.092 22.9462 135.044 11.8136 137.199C1.23081 139.247 -0.956264 174.776 8.79594 179.086C17.4964 182.931 22.253 178.567 32.6088 182.704C42.9586 186.842 57.9693 189.427 72.4662 184.77C86.957 180.113 93.1717 186.322 97.3128 189.94C101.454 193.558 107.663 196.663 111.29 196.143C111.29 196.143 98.8664 205.451 75.0596 209.069C51.2467 212.687 22.265 214.759 22.265 219.41C22.265 222.401 30.8938 240.783 53.8402 245.398C60.736 246.783 101.071 245.141 121.132 240.097C121.132 240.097 84.8417 408.912 90.5902 416.96C98.2749 427.718 258.475 422.769 265.544 414.375C270.522 408.458 234.137 235.965 225.167 195.63Z" fill="#95BA2F"/>
<path d="M79.8582 183.307C80.7545 189.343 81.4357 192.293 83.4136 199.284C87.5846 194.155 88.7857 190.627 92.144 186.185C87.2201 183.218 84.3936 182.878 79.8582 183.307Z" fill="#F2FFA3"/>
<path d="M83.4077 200.741C83.3121 200.741 83.2105 200.729 83.1149 200.711C82.583 200.603 82.1588 200.203 82.0094 199.684C80.0852 192.866 79.3383 189.743 78.418 183.522C78.3583 183.128 78.4658 182.728 78.7108 182.418C78.9558 182.107 79.3204 181.904 79.7147 181.869C84.4355 181.415 87.6145 181.761 92.891 184.949C93.2435 185.164 93.4885 185.51 93.5662 185.916C93.6439 186.316 93.5483 186.734 93.2973 187.063C91.8572 188.973 90.8294 190.699 89.7418 192.531C88.3555 194.86 86.9273 197.272 84.5371 200.203C84.2562 200.544 83.8439 200.741 83.4077 200.741ZM81.5254 184.639C82.1946 188.914 82.8161 191.678 84.0232 196.096C85.3199 194.287 86.2879 192.651 87.2381 191.057C88.0806 189.642 88.9411 188.185 90.0107 186.651C86.754 184.872 84.5132 184.484 81.5254 184.639Z" fill="#FFD580"/>
<path d="M41.8291 185.839C43.7353 191.385 44.5958 193.773 47.0637 199.791C51.1033 194.555 53.129 191.833 56.3738 187.308C51.1929 187.331 46.6156 186.687 41.8291 185.839Z" fill="#F2FFA3"/>
<path d="M47.0636 201.242C46.9979 201.242 46.9321 201.236 46.8724 201.23C46.3585 201.159 45.9223 200.824 45.7251 200.341C43.2512 194.323 42.3668 191.845 40.4605 186.311C40.2932 185.827 40.3948 185.284 40.7294 184.896C41.0641 184.508 41.578 184.316 42.0859 184.412C47.0815 185.302 51.3959 185.851 56.3676 185.857C56.9353 185.821 57.4134 186.155 57.6643 186.639C57.9153 187.122 57.8735 187.708 57.5568 188.149C54.2463 192.764 52.2385 195.457 48.2169 200.675C47.936 201.033 47.5118 201.242 47.0636 201.242ZM43.9981 187.678C45.1693 191.051 45.9999 193.302 47.452 196.896C49.8721 193.744 51.5513 191.493 53.571 188.705C50.3263 188.585 47.2608 188.209 43.9981 187.678Z" fill="#FFD580"/>
<path d="M8.41357 178.949C9.71028 184.251 10.2122 187.929 12.6861 193.947C16.7257 188.711 17.9925 185.027 20.323 181.015C15.1361 181.045 13.0746 181.146 8.41357 178.949Z" fill="#F2FFA3"/>
<path d="M12.686 195.397C12.6203 195.397 12.5545 195.391 12.4948 195.385C11.9809 195.314 11.5447 194.979 11.3475 194.496C9.39344 189.731 8.65246 186.46 7.79197 182.669C7.54697 181.594 7.296 180.483 7.00917 179.289C6.8777 178.746 7.06892 178.173 7.49917 177.821C7.93539 177.469 8.53295 177.391 9.0349 177.63C13.2178 179.606 14.9986 179.588 19.7372 179.564H20.3169C20.8367 179.564 21.3148 179.839 21.5717 180.286C21.8347 180.734 21.8347 181.289 21.5717 181.743C20.8666 182.961 20.2631 184.137 19.6237 185.391C18.1836 188.209 16.6956 191.123 13.8333 194.83C13.5584 195.194 13.1342 195.397 12.686 195.397ZM10.475 181.379L10.6244 182.03C11.2937 184.997 11.8912 187.636 13.0864 190.943C14.8372 188.394 15.9547 186.203 17.0482 184.072C17.3171 183.546 17.586 183.015 17.8669 182.478C15.1121 182.466 13.0923 182.31 10.475 181.379Z" fill="#FFD580"/>
<path d="M140.624 183.821C140.624 183.821 132.664 196.334 111.015 196.346C109.156 197.654 96.9241 205.756 75.0593 209.075C60.3295 211.314 43.6276 212.962 33.0209 214.992L25.886 216.83C28.9933 221.654 41.7692 227.487 56.9413 226.658C75.8362 225.625 129.408 209.935 135.276 203.039C141.138 196.143 140.624 183.821 140.624 183.821Z" fill="#FF7E6B"/>
<path d="M56.9412 226.658C75.8361 225.625 129.408 209.935 135.276 203.039C141.144 196.143 140.624 183.821 140.624 183.821C140.624 183.821 132.658 196.334 111.009 196.34C109.885 197.129 104.943 200.406 96.3923 203.606C85.2836 215.153 70.6672 223.314 55.0051 226.711C55.6505 226.699 56.2899 226.693 56.9412 226.658Z" fill="#E05845"/>
<path d="M156.71 229.499C155.079 232.234 137.947 234.413 137.17 237.774C127.86 278.079 109.802 367.514 126.826 388.046C147.711 413.234 201.342 408.596 212.02 387.95C222.699 367.299 206.009 241.679 191.584 221.201C182.585 208.424 166.152 209.588 166.152 209.588C166.152 209.588 163.182 218.639 156.71 229.499Z" fill="#E9FF57"/>
<path d="M244.247 300.981L244.767 303.853C227.169 309.847 208.74 313.668 190.09 315.28C163.546 317.573 136.566 315.418 110.889 308.82L111.6 306.026C154.923 317.155 202.023 315.447 244.247 300.981ZM248.657 325.758L248.149 322.88C203.111 338.869 152.3 340.2 106.348 326.815L105.648 329.639C133.363 337.699 162.817 340.475 191.745 337.973C211.19 336.296 230.389 332.2 248.657 325.758ZM254.591 367.156C204.748 385.706 147.442 386.1 97.3483 368.237L96.3743 370.971C127.657 382.129 161.718 386.255 195.074 383.371C215.803 381.58 236.263 377.079 255.607 369.878L254.591 367.156ZM117.026 285.023L116.297 287.823C139.829 293.071 164.305 294.671 188.423 292.587C206.26 291.047 223.894 287.483 240.793 281.936L240.267 279.053C200.942 292.05 157.565 294.05 117.026 285.023ZM101.316 347.454L100.641 350.296C130.274 359.926 162.148 363.377 193.412 360.678C213.61 358.935 233.551 354.595 252.451 347.711L251.961 344.815C204.204 362.326 149.713 363.234 101.316 347.454ZM128.374 242.407L127.609 245.225C146.563 248.192 165.942 248.861 185.088 247.207C201.252 245.81 217.243 242.741 232.684 238.055L232.152 235.195C198.868 245.356 162.913 247.768 128.374 242.407ZM122.619 263.834L121.878 266.629C143.169 270.67 165.106 271.769 186.755 269.894C203.762 268.426 220.578 265.1 236.754 259.99L236.228 257.142C199.89 268.688 160.224 270.939 122.619 263.834Z" fill="#95BA2F"/>
<path d="M30.2844 229.887C56.625 249.148 135.802 228.58 144.933 224.586C155.976 219.762 163.577 212.215 166.672 208.383C162.441 218.645 161.539 224.675 154.075 232.174C154.075 232.174 93.3451 249.237 57.8022 245.446C42.8332 243.852 28.5276 230.126 30.2844 229.887Z" fill="#83A329"/>
<path d="M193.849 115.467C169.935 104.816 161.324 134.775 161.324 134.775C161.324 134.775 160.463 122.966 169.128 114.59C173.532 110.339 180.248 107.264 186.081 109.133C191.919 111.001 199.149 117.831 193.849 115.467Z" fill="#B6D440"/>
<path d="M55.9072 151.928C55.8833 150.28 55.5786 147.892 55.3037 146.328C60.5682 145.205 118.711 139.778 121.645 136.847C130.644 127.855 129.832 104.834 149.252 106.679C156.501 107.371 158.598 113.688 160.983 115.64C152.013 109.264 141.633 107.76 135.963 118.225C131.11 127.175 127.854 139.945 124.059 142.184C118.986 145.181 68.1573 151.151 55.9072 151.928Z" fill="#B6D440"/>
<path d="M3.80005 149.862C5.85566 141.002 10.7377 135.557 16.3429 136.996C20.6393 138.101 22.695 142.25 25.0912 146.137C25.0972 146.196 25.623 149.629 25.629 149.689C22.7846 145.337 19.6773 141.587 13.8391 141.91C9.39323 142.154 5.87359 146.023 3.80005 149.862Z" fill="#B6D440"/>
<path d="M28.4734 147.014C30.8875 138.309 35.5664 133.306 41.8349 135.509C46.6393 137.199 51.4317 141.593 53.8399 145.808C53.8399 145.868 55.2143 152.525 54.8737 152.357C52.1966 147.533 46.6751 139.689 40.3828 139.342C35.3035 139.068 31.1564 143.462 28.4734 147.014Z" fill="#B6D440"/>
<path d="M160.314 136.399C160.26 136.399 160.206 136.393 160.146 136.393C159.352 136.303 158.778 135.587 158.868 134.787C159.919 125.455 164.09 119.264 164.27 119.002C164.718 118.339 165.62 118.172 166.283 118.62C166.947 119.067 167.114 119.975 166.666 120.632C166.624 120.691 162.716 126.524 161.754 135.103C161.67 135.85 161.043 136.399 160.314 136.399Z" fill="#6B8A16"/>
<path d="M154.971 178.149C152.832 185.14 156.77 192.543 163.767 194.681C170.765 196.818 178.175 192.884 180.314 185.892C182.453 178.901 178.515 171.498 171.518 169.361C164.514 167.223 157.111 171.158 154.971 178.149Z" fill="#FFC1B8"/>
<path d="M37.2877 153.689C37.2757 156.686 38.6501 159.128 40.3651 159.134C42.0801 159.14 43.4844 156.716 43.4963 153.719C43.5083 150.722 42.1339 148.28 40.4189 148.274C38.7039 148.262 37.2996 150.686 37.2877 153.689Z" fill="#577012"/>
<path d="M10.69 150.256C10.6781 153.253 12.0525 155.695 13.7675 155.701C15.4825 155.707 16.8867 153.283 16.8987 150.286C16.9106 147.289 15.5362 144.847 13.8212 144.841C12.1062 144.829 10.702 147.259 10.69 150.256Z" fill="#577012"/>
<path d="M90.8229 155.892C90.7452 155.892 90.6615 155.886 90.5838 155.874C89.7951 155.743 89.2573 154.997 89.3887 154.202C89.6636 152.549 89.0421 150.143 87.7574 147.91C86.4786 145.689 84.9608 144.387 84.1182 144.25C83.3294 144.119 82.7916 143.372 82.9231 142.578C83.0546 141.79 83.8015 141.247 84.5963 141.384C86.5025 141.701 88.6238 143.599 90.2731 146.465C91.8985 149.289 92.6395 152.364 92.251 154.68C92.1315 155.391 91.516 155.892 90.8229 155.892Z" fill="#6B8A16"/>
<path d="M82.1585 156.913C81.3577 156.907 80.7064 156.238 80.7183 155.438C80.796 150.716 77.9935 145.611 75.8482 145.253C75.0594 145.122 74.5216 144.375 74.6531 143.581C74.7845 142.793 75.5375 142.256 76.3263 142.387C80.545 143.092 83.7181 150.005 83.6225 155.48C83.6046 156.28 82.9472 156.919 82.1585 156.913Z" fill="#6B8A16"/>
<path d="M55.4595 158.298C55.3878 158.298 55.3221 158.292 55.2503 158.28C54.4556 158.167 53.9058 157.432 54.0194 156.638C54.4795 153.444 54.2345 150.202 53.3023 147.259C53.0633 146.495 53.4816 145.677 54.2464 145.438C55.0113 145.193 55.824 145.617 56.069 146.381C57.1327 149.737 57.4135 153.426 56.8877 157.056C56.7921 157.779 56.1706 158.298 55.4595 158.298Z" fill="#6B8A16"/>
<path d="M155.007 424.56C145.064 424.56 135.694 424.405 127.519 424.083C92.9086 422.715 90.363 419.151 89.4009 417.808C83.7062 409.843 112.216 274.736 119.231 242.001C94.6655 247.16 59.6304 248.574 52.3521 246.401C30.3021 239.822 20.8068 223.655 20.8068 219.416C20.8068 215.105 30.4156 213.469 55.8359 210.215C62.1402 209.41 68.6596 208.574 74.8384 207.636C91.0084 205.177 101.782 200.054 106.832 197.164C103.223 196.072 99.2428 193.546 96.3566 191.027L95.8427 190.573C91.7015 186.925 86.0367 181.928 72.9142 186.143C55.1069 191.857 38.4229 186.579 32.0768 184.042C27.0633 182.036 23.4241 182.131 19.8985 182.221C16.3968 182.304 12.7816 182.4 8.22217 180.406C0.752648 177.14 -0.72333 165.403 0.280574 156.34C1.32033 146.978 5.20448 136.99 11.5446 135.766C19.2771 134.262 24.1412 139.808 26.5434 144.835C28.4974 140.22 32.6565 133.139 39.7555 133.068H39.8631C47.6433 133.068 53.5831 141.963 55.3041 144.853C80.2403 141.707 116.996 136.895 120.857 135.915C121.311 135.211 122.249 132.894 123.085 130.835C127.005 121.163 133.561 104.977 143.958 104.195C155.36 103.318 162.471 112.936 165.184 117.521C167.221 114.428 171.488 109.091 177.595 107.222C181.754 105.945 186.039 106.494 190.317 108.852C206.439 117.742 226.404 194.549 226.577 195.308C230.533 213.093 241.952 266.39 252.003 317.627C270.313 410.948 267.743 414.005 266.644 415.312C261.798 421.079 202.053 424.56 155.007 424.56ZM121.125 238.652C121.502 238.652 121.872 238.801 122.147 239.07C122.5 239.416 122.649 239.924 122.548 240.407C108.66 305.005 88.0265 409.837 91.7792 416.136C92.4007 417.008 96.8466 419.969 127.639 421.187C183.29 423.384 260.363 418.279 264.427 413.449C267.809 405.975 237.459 257.584 223.745 195.947C222.131 188.693 202.962 119.139 188.919 111.402C185.351 109.437 181.832 108.966 178.45 110.004C170.992 112.291 166.457 121.043 166.415 121.133C166.164 121.629 165.656 121.939 165.088 121.921C164.532 121.909 164.03 121.581 163.797 121.073C163.726 120.924 156.782 106.148 144.179 107.091C135.581 107.736 129.205 123.473 125.781 131.927C123.88 136.62 123.289 137.993 122.291 138.489C120.163 139.551 70.022 145.928 54.7065 147.856C54.1089 147.928 53.5293 147.629 53.2425 147.098C53.1827 146.984 47.2071 135.969 39.8631 135.969H39.7854C31.6705 136.053 28.0074 149.325 27.9716 149.462C27.8043 150.095 27.2246 150.537 26.5673 150.537C25.91 150.537 25.3304 150.089 25.163 149.45C25.0256 148.931 21.739 136.763 12.0944 138.614C8.06083 139.396 4.21851 147.152 3.16082 156.662C2.19277 165.385 3.74046 175.283 9.37546 177.749C13.3433 179.481 16.3371 179.403 19.8149 179.319C23.454 179.224 27.5772 179.128 33.1405 181.349C39.1938 183.767 55.1069 188.812 72.0119 183.385C86.7059 178.669 93.6197 184.758 97.7489 188.4L98.2568 188.848C102.595 192.645 107.991 195.206 110.812 194.794C111.475 194.699 112.102 195.063 112.359 195.672C112.616 196.281 112.425 196.985 111.899 197.385C111.391 197.773 99.1651 206.872 75.2626 210.508C69.048 211.451 62.5107 212.287 56.1884 213.099C42.9883 214.789 24.9061 217.099 23.6751 219.529C23.693 221.708 31.8199 237.255 53.1648 243.625C60.228 245.727 97.0139 244.055 120.785 238.694C120.91 238.664 121.018 238.652 121.125 238.652Z" fill="#6B8A16"/>
<path d="M242.544 403.652C239.658 403.354 237.172 401.127 236.264 398.757C235.356 396.387 235.732 393.927 236.449 391.67C238.063 386.613 245.694 380.464 250.372 388.273C253.456 393.407 250.821 404.506 242.544 403.652Z" fill="#83A329"/>
<path d="M235.075 381.712C235.152 383.216 234.34 384.756 233.013 385.461C231.878 386.064 230.48 386.046 229.278 385.604C228.107 385.174 227.055 384.333 226.548 383.198C225.866 381.664 226.332 379.7 227.629 378.637C230.324 376.422 234.89 378.183 235.075 381.712Z" fill="#83A329"/>
<path d="M248.729 376.028C247.594 378.225 244.624 379.246 242.371 378.219C240.118 377.192 238.953 374.279 239.873 371.98C240.775 369.723 244.104 368.058 246.452 369.007C248.878 370.004 249.864 373.837 248.729 376.028Z" fill="#83A329"/>
<path d="M235.272 371.323C235.403 372.052 235.194 372.822 234.764 373.425C234.077 374.392 232.804 374.912 231.639 374.697C230.473 374.476 229.476 373.514 229.231 372.356C228.986 371.192 229.523 369.902 230.533 369.276C232.182 368.237 234.919 369.359 235.272 371.323Z" fill="#83A329"/>
<path d="M65.7795 225.237C63.0845 220.031 61.728 216.562 58.4055 210.974C55.1727 216.741 53.7266 220.956 51.175 225.899C56.4216 226.395 60.8257 225.965 65.7795 225.237Z" fill="#F2FFA3"/>
<path d="M104.143 215.78C100.671 210.759 98.7529 208.418 93.8888 203.015C92.4128 209.457 92.8968 213.153 91.8511 218.616C97.5757 219.117 100.265 218.174 104.143 215.78Z" fill="#F2FFA3"/>
<path d="M35.979 222.52C35.1185 215.798 33.9951 210.8 32.4415 205.367C29.2505 209.505 28.2167 216.484 27.8701 218.639C30.2843 220.108 31.3599 220.986 35.979 222.52Z" fill="#F2FFA3"/>
<path d="M110.597 197.767C109.82 197.767 109.174 197.152 109.145 196.37C109.115 195.57 109.736 194.896 110.537 194.866L111.493 194.836C116.686 194.705 128.84 194.388 139.339 182.263C139.865 181.654 140.78 181.588 141.389 182.113C141.993 182.639 142.064 183.552 141.538 184.161C130.197 197.254 116.662 197.606 111.571 197.738L110.597 197.767Z" fill="#6B8A16"/>
<path d="M120.349 241.685C119.662 241.685 119.052 241.201 118.921 240.503C118.771 239.715 119.291 238.956 120.08 238.807C121.066 238.622 122.614 238.395 124.526 238.115C132.635 236.932 149.51 234.467 154.29 229.953C160.158 224.419 165.369 208.526 165.423 208.365C165.668 207.6 166.487 207.189 167.251 207.433C168.016 207.684 168.435 208.496 168.184 209.26C167.963 209.941 162.692 226.013 156.28 232.061C150.83 237.201 133.991 239.661 124.944 240.98C123.08 241.255 121.574 241.47 120.612 241.649C120.528 241.673 120.438 241.685 120.349 241.685Z" fill="#6B8A16"/>
<path d="M54.1268 228.186C40.4486 228.186 28.097 222.962 24.661 217.619C24.2248 216.944 24.422 216.048 25.0973 215.613C25.7725 215.177 26.6689 215.374 27.1051 216.048C29.8479 220.311 42.0262 226.019 56.8637 225.213C76.0753 224.162 128.816 208.394 134.17 202.108C139.608 195.72 139.178 184.006 139.172 183.886C139.136 183.086 139.757 182.412 140.564 182.376C141.377 182.298 142.04 182.967 142.076 183.767C142.1 184.292 142.548 196.74 136.381 203.988C129.987 211.499 76.141 227.069 57.025 228.114C56.051 228.156 55.0889 228.186 54.1268 228.186Z" fill="#6B8A16"/>
<path d="M210.419 255.142C237.339 240.228 254.268 208.962 252.021 178.292C255.756 182.8 257.614 187.481 258.911 193.188C261.983 187.684 267.737 189.964 266.889 196.454C273.563 189.361 274.788 196.341 271.735 205.051C268.592 213.995 261.684 226.837 256.867 235.326C247.157 252.443 232.337 267.088 219.054 271.56L210.419 255.142Z" fill="#95BA2F"/>
<path d="M252.798 179.29C252.541 178.955 252.302 178.621 252.027 178.292C254.25 208.633 237.704 239.541 211.292 254.64C211.178 254.969 211.059 255.297 210.945 255.631C220.267 255.094 240.088 238.64 247.713 223.559C254.567 209.971 257.005 192.693 252.798 179.29Z" fill="#B6D440"/>
<path d="M219.048 273.005C218.438 273.005 217.877 272.623 217.674 272.02C217.417 271.261 217.823 270.437 218.588 270.181C231.226 265.924 245.753 251.959 255.601 234.604C259.993 226.854 263.363 219.23 266.62 211.857C267.952 208.842 269.285 205.821 270.689 202.776C272.733 198.346 272.028 195.099 271.072 194.603C270.653 194.388 269.488 194.89 268.138 197.188C267.785 197.779 267.068 198.048 266.417 197.827C265.765 197.6 265.359 196.949 265.449 196.269C265.801 193.576 264.833 192 263.716 191.63C262.551 191.242 261.164 192.137 260.178 193.893C259.885 194.418 259.312 194.717 258.702 194.621C258.105 194.537 257.627 194.09 257.495 193.505C256.563 189.379 255.356 186.089 253.677 183.182C253.946 212.95 237.292 241.912 211.124 256.407C210.419 256.795 209.535 256.545 209.146 255.84C208.758 255.136 209.009 254.258 209.714 253.864C235.959 239.326 252.762 208.293 250.575 178.388C250.528 177.755 250.898 177.17 251.484 176.937C252.069 176.704 252.745 176.871 253.145 177.355C256.157 180.997 258.164 184.895 259.611 190.024C261.122 188.752 262.915 188.298 264.624 188.866C266.094 189.349 267.462 190.663 268.078 192.722C270.122 191.093 271.819 191.719 272.416 192.03C274.926 193.343 276.097 197.982 273.325 203.994C271.926 207.027 270.6 210.03 269.273 213.027C265.986 220.466 262.592 228.162 258.123 236.037C247.946 253.977 232.786 268.461 219.508 272.927C219.359 272.981 219.203 273.005 219.048 273.005Z" fill="#6B8A16"/>
<path d="M259.066 193.128C258.941 196.4 257.298 203.964 256.479 207.134C259.491 206.179 264.373 201.964 266.703 196.531L259.066 193.128Z" fill="#95BA2F"/>
<path d="M256.479 208.586C256.115 208.586 255.756 208.448 255.481 208.185C255.099 207.821 254.944 207.278 255.075 206.771C255.924 203.493 257.501 196.114 257.621 193.075C257.65 192.275 258.391 191.636 259.126 191.684C259.927 191.714 260.555 192.388 260.519 193.188C260.423 195.732 259.467 200.669 258.642 204.335C261.015 202.621 263.799 199.624 265.371 195.964C265.688 195.224 266.548 194.884 267.277 195.2C268.012 195.517 268.359 196.37 268.042 197.105C265.592 202.818 260.465 207.391 256.921 208.52C256.772 208.562 256.629 208.586 256.479 208.586Z" fill="#6B8A16"/>
<path d="M267.737 195.367C267.636 198.639 264.487 206.335 263.811 209.505C266.291 208.55 272.589 204.418 273.235 196.532L267.737 195.367Z" fill="#95BA2F"/>
<path d="M263.811 210.956C263.471 210.956 263.136 210.836 262.867 210.61C262.461 210.263 262.276 209.726 262.389 209.207C262.664 207.923 263.303 205.989 263.979 203.947C264.983 200.914 266.225 197.141 266.285 195.332C266.309 194.526 266.978 193.845 267.779 193.929C268.58 193.952 269.207 194.621 269.183 195.421C269.112 197.654 267.905 201.32 266.733 204.86C266.56 205.392 266.387 205.911 266.219 206.412C268.634 204.538 271.388 201.266 271.783 196.418C271.849 195.618 272.53 195.039 273.348 195.093C274.149 195.158 274.741 195.857 274.675 196.657C273.964 205.314 266.96 209.845 264.325 210.86C264.164 210.92 263.991 210.956 263.811 210.956Z" fill="#6B8A16"/>
<path d="M171.859 136.572C169.492 141.981 170.55 147.665 174.219 149.265C177.888 150.865 182.776 147.778 185.143 142.369C187.509 136.96 186.451 131.276 182.782 129.676C179.113 128.07 174.219 131.163 171.859 136.572Z" fill="#452800"/>
<path d="M180.194 143.587C179.543 145.08 180.224 146.817 181.718 147.468C183.212 148.118 184.951 147.438 185.602 145.945C186.254 144.453 185.573 142.715 184.079 142.065C182.585 141.414 180.846 142.094 180.194 143.587Z" fill="#F7FFC4"/>
<path d="M135.76 133.503C133.394 138.913 134.451 144.596 138.12 146.196C141.789 147.796 146.677 144.71 149.044 139.301C151.41 133.892 150.352 128.208 146.683 126.608C143.014 125.002 138.126 128.094 135.76 133.503Z" fill="#452800"/>
<path d="M144.096 140.519C143.444 142.011 144.125 143.749 145.619 144.399C147.113 145.05 148.852 144.37 149.504 142.877C150.155 141.384 149.474 139.647 147.98 138.996C146.486 138.345 144.747 139.026 144.096 140.519Z" fill="#F7FFC4"/>
<path d="M122.171 18.3309C122.171 18.3309 144.98 47.4301 139.267 92.6131L159.662 98.04C159.662 98.04 168.799 40.6359 124.621 16.7727L122.171 18.3309Z" fill="#FFD039"/>
<path d="M245.83 41.1908C245.83 41.1908 214.112 60.2121 203.26 104.44L182.274 102.219C182.274 102.219 194.302 45.3461 244.103 38.8564L245.83 41.1908Z" fill="#ED2020"/>
<path d="M186.773 18.7369C185.471 17.2682 165.255 38.7074 157.995 97.7296L184.532 102.554C184.532 102.554 199.752 33.3163 186.773 18.7369Z" fill="#80D34A"/>
<path d="M186.773 18.7368C186.773 18.7368 191.823 37.6865 179.358 101.616L184.532 102.559C184.532 102.559 188.279 87.5084 191.064 60.9287C193.848 34.3431 190.52 23.5309 186.773 18.7368Z" fill="#6AC634"/>
<path d="M245.83 41.1911C245.83 41.1911 214.297 60.0811 203.26 104.44L196.119 103.682C196.119 103.682 202.68 64.2901 244.814 39.812L245.83 41.1911Z" fill="#BF0404"/>
<path d="M122.171 18.3307C122.171 18.3307 132.162 32.0862 137.199 52.5344C142.237 72.9825 139.267 92.6128 139.267 92.6128L146.205 94.4576C146.205 94.4576 150.531 45.5551 123.103 17.7336L122.171 18.3307Z" fill="#EAAD00"/>
<path d="M186.773 18.7368C186.773 18.7368 181.652 19.3637 171.081 43.5134C160.51 67.6632 157.995 97.7295 157.995 97.7295L164.478 98.8638C164.478 98.8638 172.569 40.5164 186.773 18.7368Z" fill="#97E266"/>
<path d="M244.121 38.8626C244.121 38.8626 230.85 38.7432 212.977 51.6748C195.103 64.6064 187.317 86.5352 187.317 86.5352L186.003 93.6279C186.003 93.6279 200.021 52.8688 244.599 39.776L244.121 38.8626Z" fill="#FF4D4D"/>
<path d="M123.103 17.7399C123.103 17.7399 152.156 32.1879 160.14 82.1412C160.14 82.1412 163.193 37.3224 124.621 16.7727L123.103 17.7399Z" fill="#FFF6A4"/>
<path d="M171.123 97.8368C168.368 97.2756 142.602 91.9621 139.118 87.9441L135.377 108.136C135.377 108.136 137.325 115.377 166.851 120.912C166.851 120.912 167 120.936 167.078 120.954C167.161 120.972 167.305 120.996 167.305 120.996C196.4 126.297 200.816 120.231 200.816 120.231L204.557 100.04C199.86 102.547 173.89 98.2965 171.123 97.8368Z" fill="#BF0404"/>
<path d="M139.118 87.9441L135.377 108.136C135.377 108.136 138.281 113.718 152.282 117.479L156.83 94.5711C156.83 94.5711 142.267 91.2636 139.118 87.9441Z" fill="#ED2020"/>
<path d="M186.701 99.9983L182.477 122.811C182.477 122.811 196.298 124.309 200.81 120.232L204.551 100.04C204.557 100.04 201.431 101.664 186.701 99.9983Z" fill="#750000"/>
<path d="M129.6 15.4404C130.574 10.1847 127.099 5.13559 121.838 4.16282C116.578 3.19005 111.524 6.662 110.551 11.9177C109.577 17.1733 113.052 22.2224 118.312 23.1952C123.573 24.168 128.626 20.696 129.6 15.4404Z" fill="#E08F00"/>
<path d="M124.11 18.8845C127.55 16.2695 128.216 11.3639 125.597 7.92752C122.978 4.49117 118.066 3.82536 114.625 6.44038C111.185 9.0554 110.519 13.961 113.138 17.3974C115.757 20.8337 120.669 21.4995 124.11 18.8845Z" fill="#FFBE2C"/>
<path d="M121.719 9.60976C122.028 7.94002 120.924 6.33588 119.253 6.02682C117.582 5.71777 115.976 6.82083 115.667 8.49058C115.358 10.1603 116.462 11.7645 118.133 12.0735C119.804 12.3826 121.41 11.2795 121.719 9.60976Z" fill="white"/>
<path d="M189.954 21.1448C195.145 19.8513 198.303 14.5985 197.009 9.41237C195.714 4.22621 190.457 1.07055 185.266 2.36402C180.075 3.65749 176.917 8.91027 178.211 14.0964C179.506 19.2826 184.763 22.4382 189.954 21.1448Z" fill="#E08F00"/>
<path d="M190.899 17.4417C194.615 15.234 195.836 10.4347 193.626 6.72214C191.417 3.00957 186.613 1.78961 182.897 3.99729C179.181 6.20496 177.96 11.0043 180.17 14.7168C182.379 18.4294 187.183 19.6494 190.899 17.4417Z" fill="#FFBE2C"/>
<path d="M189.253 7.67984C188.942 9.35151 187.335 10.456 185.668 10.1456C183.995 9.83511 182.889 8.2291 183.2 6.5634C183.511 4.89172 185.118 3.78722 186.785 4.09768C188.452 4.40216 189.558 6.00816 189.253 7.67984Z" fill="white"/>
<path d="M254.941 43.5177C259.316 40.4428 260.368 34.4062 257.291 30.0346C254.213 25.663 248.171 24.6118 243.796 27.6867C239.42 30.7617 238.368 36.7983 241.446 41.1699C244.523 45.5415 250.565 46.5926 254.941 43.5177Z" fill="#E08F00"/>
<path d="M256.379 36.0026C257.166 31.7553 254.357 27.6749 250.106 26.8887C245.855 26.1026 241.771 28.9084 240.984 33.1557C240.197 37.4031 243.006 41.4835 247.257 42.2696C251.508 43.0558 255.592 40.2499 256.379 36.0026Z" fill="#FFBE2C"/>
<path d="M251.017 31.5251C250.706 33.1967 249.099 34.3012 247.432 33.9908C245.758 33.6803 244.653 32.0743 244.964 30.4086C245.274 28.7369 246.882 27.6324 248.549 27.9429C250.222 28.2533 251.328 29.8593 251.017 31.5251Z" fill="white"/>
</svg>
