<svg width="432" height="407" viewBox="0 0 432 407" fill="none" xmlns="http://www.w3.org/2000/svg">
<path d="M325.953 245.9C352.643 238.082 373.769 213.843 377.886 186.312C380.279 191.035 380.991 195.534 380.996 200.829C384.797 196.581 387.974 193.713 391.774 189.464C391.306 195.796 389.415 199.738 387.378 205.301C390.316 201.976 394.928 200.339 399.179 199.081C389.365 211.805 382.098 225.191 370.82 237.631C358.863 250.817 342.89 260.801 330.299 262.11L325.953 245.9Z" fill="#83A329"/>
<path d="M368.572 241.891C369.668 240.794 370.742 239.669 371.788 238.511C378.715 230.876 384.201 222.791 389.509 214.979C392.897 209.995 396.397 204.833 400.219 199.882C400.564 199.431 400.587 198.808 400.264 198.34C399.941 197.872 399.357 197.661 398.812 197.822C395.863 198.696 392.881 199.727 390.305 201.263C391.645 197.661 392.736 194.247 393.086 189.564C393.125 189.002 392.808 188.478 392.291 188.261C391.773 188.038 391.184 188.172 390.8 188.595C388.919 190.7 387.155 192.493 385.453 194.236C384.396 195.311 383.322 196.408 382.209 197.588C381.898 193.05 380.913 189.375 379.06 185.722C378.804 185.215 378.242 184.931 377.68 185.02C377.118 185.109 376.679 185.555 376.595 186.123C372.584 212.957 351.613 237.018 325.591 244.641C324.89 244.842 324.495 245.577 324.701 246.267C324.907 246.964 325.636 247.364 326.331 247.158C352.276 239.558 372.7 217.295 378.381 190.962C379.283 193.863 379.694 197.004 379.7 200.835C379.7 201.38 380.034 201.865 380.546 202.06C381.052 202.255 381.625 202.121 381.992 201.709C383.873 199.604 385.636 197.811 387.339 196.068C388.19 195.199 389.053 194.314 389.943 193.384C389.331 196.48 388.335 199.097 387.167 202.171C386.838 203.029 386.504 203.914 386.165 204.844C385.948 205.434 386.182 206.102 386.727 206.425C387.272 206.748 387.957 206.631 388.379 206.169C390.204 204.103 392.803 202.722 395.629 201.642C392.73 205.59 390.01 209.594 387.361 213.497C382.103 221.237 376.668 229.239 369.868 236.74C357.75 250.11 342.166 259.548 330.181 260.796C329.458 260.873 328.935 261.514 329.013 262.238C329.085 262.956 329.731 263.485 330.454 263.407C341.966 262.21 356.565 253.902 368.572 241.891Z" fill="#658215"/>
<path d="M18.5878 255.06C16.9186 251.568 13.9864 248.478 11.6886 245.371L7.91626 256.752C10.8373 256.53 15.6612 255.277 18.5878 255.06Z" fill="#6B8A16"/>
<path d="M19.5558 255.945C19.617 255.878 19.6782 255.8 19.7228 255.717C19.9398 255.338 19.9564 254.881 19.7728 254.492C18.5265 251.88 16.6459 249.536 14.8321 247.264C14.1144 246.367 13.4022 245.476 12.7457 244.585C12.4563 244.19 11.9667 243.99 11.4827 244.073C10.9986 244.151 10.598 244.491 10.4422 244.959L6.66992 256.34C6.53082 256.758 6.60872 257.215 6.88135 257.56C7.15398 257.905 7.57683 258.094 8.01638 258.061C9.552 257.944 11.555 257.565 13.4968 257.198C15.3663 256.842 17.3025 256.474 18.6879 256.374C19.0217 256.346 19.3333 256.19 19.5558 255.945ZM12.1559 248.121L12.7846 248.907C14.0977 250.555 15.4497 252.242 16.5124 253.985C15.3996 254.158 14.1867 254.386 13.0016 254.609C11.9222 254.815 10.8206 255.021 9.81351 255.182L12.1559 248.121Z" fill="#577012"/>
<path d="M34.1167 252.047C32.4308 248.717 30.439 245.588 28.7475 242.264L22.7163 253.779C25.8599 253.378 30.9787 252.443 34.1167 252.047Z" fill="#6B8A16"/>
<path d="M35.0846 252.933C35.157 252.849 35.2237 252.76 35.2794 252.66C35.4797 252.281 35.4852 251.83 35.2905 251.452C34.4337 249.759 33.4878 248.105 32.5753 246.501C31.6795 244.931 30.7504 243.305 29.9214 241.668C29.6988 241.228 29.2481 240.955 28.7585 240.95C28.2689 240.944 27.8182 241.222 27.5901 241.651L21.5589 253.172C21.3307 253.607 21.3641 254.13 21.6423 254.531C21.9205 254.932 22.399 255.143 22.8831 255.082C24.4743 254.882 26.583 254.542 28.625 254.208C30.6447 253.879 32.7311 253.545 34.2779 253.345C34.595 253.306 34.8788 253.161 35.0846 252.933ZM28.7585 245.076C29.2648 246 31.5015 249.92 32.0857 251.006C30.8672 251.19 26.0767 251.964 25.0697 252.12L28.7585 245.076Z" fill="#577012"/>
<path d="M48.8277 249.569C46.3351 246.813 44.2987 243.277 41.7004 240.571C40.6711 243.711 39.6306 248.595 38.6013 251.735C42.4905 250.995 44.9386 250.31 48.8277 249.569Z" fill="#6B8A16"/>
<path d="M49.7955 250.455C49.9179 250.321 50.0125 250.16 50.0737 249.982C50.2239 249.53 50.1182 249.035 49.8011 248.684C48.6827 247.448 47.6646 246.056 46.5852 244.58C45.3611 242.898 44.0926 241.161 42.6459 239.658C42.3232 239.324 41.8559 239.184 41.4108 239.29C40.9601 239.396 40.5984 239.724 40.4538 240.159C39.9252 241.774 39.3911 243.834 38.8792 245.833C38.3785 247.782 37.8555 249.798 37.3547 251.329C37.21 251.769 37.3102 252.253 37.6162 252.604C37.9222 252.955 38.3896 253.117 38.8458 253.027C40.8043 252.654 42.4067 252.292 44.0035 251.936C45.5781 251.58 47.1471 251.229 49.0778 250.861C49.356 250.806 49.6063 250.661 49.7955 250.455ZM42.2787 243.227C43.0354 244.163 43.7587 245.159 44.4709 246.128C45.0996 246.986 45.7395 247.866 46.4071 248.712C45.3611 248.935 41.522 249.798 40.4872 250.015C40.7987 248.89 41.995 244.268 42.2787 243.227Z" fill="#577012"/>
<path d="M61.6356 257.61C62.409 253.584 63.0043 249.608 63.7777 245.588C60.3058 246.958 56.9453 248.6 53.7405 250.505C56.2832 252.732 59.0874 255.377 61.6356 257.61Z" fill="#6B8A16"/>
<path d="M62.598 258.495C62.7593 258.317 62.8706 258.1 62.9207 257.855C63.3101 255.839 64.6733 247.838 65.0628 245.833C65.1518 245.365 64.9793 244.881 64.6121 244.574C64.2449 244.268 63.7386 244.19 63.2934 244.363C59.766 245.755 56.3275 247.437 53.0671 249.369C52.6998 249.58 52.4717 249.959 52.4272 250.377C52.3883 250.794 52.5552 251.206 52.8668 251.485C54.1353 252.593 59.4878 257.471 60.7619 258.59C61.118 258.902 61.6076 258.997 62.0527 258.846C62.2697 258.779 62.4533 258.657 62.598 258.495ZM62.0416 247.726C61.8246 248.951 60.9844 253.851 60.7619 255.082C60.0386 254.431 56.8171 251.496 55.9658 250.733C57.941 249.631 59.9718 248.628 62.0416 247.726Z" fill="#577012"/>
<path d="M75.356 268.697C75.9123 263.769 76.7302 259.431 78.3771 254.754C73.8871 256.107 69.002 257.71 64.512 259.069C68.0395 262.265 71.834 265.506 75.356 268.697Z" fill="#6B8A16"/>
<path d="M76.3241 269.588C76.5077 269.387 76.6301 269.131 76.6635 268.847C77.2755 263.429 78.1546 259.342 79.6179 255.193C79.7793 254.726 79.668 254.208 79.3286 253.851C78.9892 253.495 78.4718 253.361 77.9988 253.501C75.7455 254.18 66.3759 257.137 64.1337 257.816C63.6774 257.955 63.3325 258.323 63.2323 258.785C63.1266 259.247 63.2824 259.726 63.6329 260.049C65.4022 261.647 72.7187 268.084 74.4769 269.677C74.8441 270.005 75.3616 270.106 75.8234 269.933C76.0181 269.855 76.1906 269.733 76.3241 269.588ZM76.3464 256.747C75.4784 259.626 74.8497 262.588 74.3656 266.046C73.1917 264.999 68.3288 260.723 67.1159 259.643C68.6738 259.164 74.8608 257.209 76.3464 256.747Z" fill="#577012"/>
<path d="M88.3365 280.106C89.3435 276.108 91.5524 269.437 92.5594 265.439L78.1323 270.317C81.632 273.424 84.3082 277.723 88.3365 280.106Z" fill="#6B8A16"/>
<path d="M89.3045 280.992C89.4492 280.836 89.5549 280.641 89.6105 280.424C90.1057 278.458 90.9236 275.758 91.7081 273.146C92.5037 270.507 93.3216 267.784 93.8335 265.757C93.9503 265.289 93.8057 264.799 93.4496 264.47C93.0991 264.142 92.5928 264.036 92.1421 264.192L77.715 269.07C77.2699 269.22 76.9416 269.593 76.847 270.056C76.7524 270.512 76.9138 270.986 77.2587 271.297C78.5329 272.433 79.6901 273.725 80.9142 275.089C82.9227 277.334 84.9981 279.656 87.6632 281.231C88.0193 281.443 88.4532 281.471 88.8371 281.315C89.0152 281.243 89.1765 281.131 89.3045 280.992ZM90.651 267.472C90.217 269.003 88.0248 276.276 87.5463 277.985C85.8716 276.693 84.4027 275.056 82.8727 273.341C82.1382 272.517 81.3871 271.676 80.5971 270.869L90.651 267.472Z" fill="#577012"/>
<path d="M103.837 291.661C103.465 287 103.648 282.083 104.494 277.484C100.065 279.232 95.5139 280.663 90.8792 281.755C94.8184 285.586 99.058 288.966 103.837 291.661Z" fill="#6B8A16"/>
<path d="M104.806 292.546C105.05 292.279 105.178 291.923 105.145 291.555C104.767 286.828 104.989 282.044 105.79 277.723C105.879 277.255 105.701 276.777 105.334 276.47C104.967 276.17 104.461 276.086 104.021 276.264C99.6645 277.985 95.1467 279.405 90.5899 280.48C90.1225 280.591 89.7553 280.942 89.6273 281.409C89.4993 281.872 89.6329 282.367 89.9778 282.701C94.3344 286.939 98.6575 290.247 103.203 292.808C103.626 293.047 104.143 293.031 104.555 292.769C104.639 292.708 104.728 292.63 104.806 292.546ZM102.842 279.522C102.413 282.651 102.257 285.953 102.38 289.266C99.3808 287.384 96.4542 285.129 93.5276 282.451C96.6712 281.627 99.7925 280.647 102.842 279.522Z" fill="#577012"/>
<path d="M127.723 288.398C125.425 284.94 123.3 280.842 121.002 277.384L109.329 292.017C115.432 291.561 121.38 289.461 127.723 288.398Z" fill="#6B8A16"/>
<path d="M128.691 289.283C128.791 289.178 128.869 289.055 128.93 288.916C129.108 288.509 129.064 288.036 128.819 287.668C127.69 285.97 126.577 284.066 125.497 282.223C124.401 280.352 123.266 278.414 122.098 276.654C121.864 276.303 121.48 276.086 121.063 276.069C120.646 276.053 120.267 276.225 119.984 276.559L108.311 291.193C107.988 291.6 107.932 292.162 108.177 292.624C108.422 293.087 108.917 293.359 109.435 293.32C113.185 293.042 116.923 292.145 120.534 291.282C122.944 290.703 125.436 290.107 127.946 289.69C128.235 289.645 128.496 289.501 128.691 289.283ZM120.891 279.633C121.681 280.908 122.465 282.245 123.233 283.553C123.99 284.851 124.769 286.182 125.564 287.462C123.645 287.847 121.758 288.298 119.922 288.738C117.33 289.356 114.837 289.957 112.35 290.347L120.891 279.633Z" fill="#577012"/>
<path d="M147.658 283.587C144.27 279.962 140.809 276.543 136.959 273.408L134.255 287.713C138.278 286.617 143.641 284.679 147.658 283.587Z" fill="#6B8A16"/>
<path d="M148.626 284.472C148.76 284.322 148.866 284.144 148.921 283.943C149.049 283.498 148.932 283.024 148.615 282.69C144.654 278.453 141.215 275.179 137.788 272.389C137.432 272.099 136.942 272.016 136.508 272.172C136.074 272.333 135.757 272.706 135.668 273.163L132.964 287.468C132.881 287.914 133.031 288.37 133.365 288.676C133.698 288.983 134.16 289.1 134.6 288.977C136.642 288.42 139.04 287.646 141.366 286.894C143.658 286.154 146.022 285.391 148.003 284.851C148.248 284.784 148.465 284.65 148.626 284.472ZM137.838 275.847C140.186 277.874 142.595 280.179 145.227 282.919C143.725 283.37 137.426 285.408 135.946 285.853L137.838 275.847Z" fill="#577012"/>
<path d="M168.345 279.567C165.491 275.53 162.18 270.384 158.608 266.965C156.216 271.776 154.107 277.768 153.189 283.064C157.351 281.566 164.016 280.48 168.345 279.567Z" fill="#6B8A16"/>
<path d="M169.313 280.452C169.419 280.335 169.508 280.196 169.569 280.045C169.73 279.633 169.675 279.171 169.419 278.809C168.912 278.096 168.395 277.345 167.861 276.576C165.374 272.985 162.547 268.92 159.515 266.018C159.214 265.729 158.792 265.601 158.38 265.673C157.968 265.746 157.618 266.007 157.434 266.38C154.847 271.581 152.783 277.734 151.898 282.835C151.82 283.297 151.987 283.765 152.349 284.066C152.705 284.366 153.194 284.455 153.634 284.294C156.694 283.191 161.173 282.317 165.118 281.549C166.375 281.304 167.566 281.07 168.617 280.847C168.884 280.791 169.129 280.652 169.313 280.452ZM158.981 269.226C161.362 271.815 163.649 275.112 165.702 278.074L166.119 278.675L164.611 278.971C161.407 279.594 157.862 280.29 154.908 281.131C155.77 277.317 157.217 273.079 158.981 269.226Z" fill="#577012"/>
<path d="M190.2 274.204C186.5 270.473 182.895 266.397 179.195 262.661C177.147 267.784 175.233 273.224 173.186 278.347C179.239 276.693 184.035 275.418 190.2 274.204Z" fill="#6B8A16"/>
<path d="M191.168 275.089C191.296 274.95 191.396 274.777 191.457 274.588C191.596 274.126 191.474 273.625 191.134 273.279C189.298 271.425 187.446 269.448 185.66 267.538C183.857 265.612 181.993 263.624 180.129 261.742C179.817 261.43 179.367 261.291 178.938 261.38C178.504 261.469 178.143 261.775 177.981 262.182C176.952 264.765 172.991 275.323 171.972 277.868C171.789 278.33 171.883 278.859 172.212 279.232C172.54 279.605 173.057 279.756 173.536 279.628C179.55 277.979 184.285 276.721 190.456 275.501C190.734 275.434 190.979 275.29 191.168 275.089ZM179.673 265.027C181.042 266.447 186.283 272.049 187.579 273.396C183.267 274.31 179.55 275.262 175.361 276.392C176.056 274.594 178.905 266.998 179.673 265.027Z" fill="#577012"/>
<path d="M209.773 268.38L198.29 258.93L194.935 272.667C200.37 271.587 204.555 270.256 209.773 268.38Z" fill="#6B8A16"/>
<path d="M210.736 269.27C210.903 269.087 211.02 268.858 211.059 268.608C211.142 268.146 210.964 267.672 210.602 267.372C208.666 265.773 201.055 259.52 199.119 257.922C198.768 257.632 198.301 257.549 197.867 257.688C197.438 257.833 197.116 258.184 197.004 258.624L193.649 272.361C193.544 272.795 193.666 273.257 193.978 273.58C194.289 273.903 194.74 274.048 195.179 273.959C200.715 272.856 205.033 271.481 210.207 269.621C210.419 269.543 210.597 269.421 210.736 269.27ZM199.069 261.274L207.147 267.917C203.631 269.137 200.404 270.122 196.704 270.952L199.069 261.274Z" fill="#577012"/>
<path d="M105.201 291.372C98.7855 289.991 55.276 248.094 49.9625 249.102C44.649 250.104 -0.891248 256.881 1.3955 258.718C3.68225 260.556 35.9527 265.885 40.0755 265.428C44.1984 264.972 98.8578 338.837 109.457 341.443C112.128 342.1 180.407 339.483 231.69 338.809L212.25 266.625C208.032 270.022 111.61 292.753 105.201 291.372Z" fill="#95BA2F"/>
<path d="M214.503 274.995C196.799 280.246 112.912 301.64 102.853 295.937C91.992 289.784 55.7434 255.255 50.7415 254.475C48.1265 254.068 35.0013 253.757 23.0835 253.551C34.7732 251.518 47.3197 249.597 49.957 249.101C55.2705 248.099 98.7855 289.99 105.195 291.371C111.605 292.752 208.027 270.016 212.244 266.631L214.503 274.995Z" fill="#B6D440"/>
<path d="M1.39553 258.718C1.34546 258.679 1.35102 258.635 1.34546 258.59C15.6947 257.9 38.0948 257.12 42.8798 258.685C50.0405 261.024 96.0425 316.507 112.005 326.347C123.973 333.725 198.379 321.107 225.658 316.407L231.69 338.814C180.408 339.488 112.128 342.105 109.457 341.448C98.8634 338.842 44.204 264.977 40.0756 265.434C35.9527 265.885 3.68228 260.556 1.39553 258.718Z" fill="#83A329"/>
<path d="M232.652 339.7C232.68 339.672 232.708 339.639 232.73 339.605C232.975 339.282 233.058 338.865 232.953 338.475L213.518 266.291C213.401 265.862 213.078 265.523 212.656 265.384C212.233 265.244 211.771 265.328 211.426 265.606C206.814 269.031 110.759 291.227 105.473 290.085C102.836 289.517 91.1407 279.539 80.8197 270.735C62.0361 254.709 52.8446 247.219 49.7121 247.81C48.6383 248.016 45.784 248.472 42.1675 249.057C2.62509 255.438 0.466313 256.636 0.0490229 258.2C-0.101202 258.774 0.0990976 259.364 0.577591 259.743C3.44298 262.043 35.4019 266.943 39.992 266.748C42.3511 267.945 53.9295 282.005 64.1615 294.429C86.6674 321.758 103.07 341.22 109.145 342.712C110.52 343.052 122.026 342.768 152.132 341.938C176.123 341.276 205.985 340.457 231.706 340.117C232.068 340.117 232.407 339.967 232.652 339.7ZM211.393 268.491L229.982 337.523C204.633 337.873 175.539 338.675 152.06 339.321C130.205 339.923 111.338 340.44 109.741 340.162C104.066 338.764 82.1718 312.175 66.1812 292.764C45.9343 268.179 42.0117 263.897 39.9308 264.125C36.4479 264.509 12.7792 260.606 4.7338 258.529C12.2116 256.552 33.6993 253.089 42.5848 251.652C46.3627 251.045 49.089 250.599 50.1962 250.393C52.8835 250.349 68.0451 263.284 79.1116 272.734C93.0714 284.65 101.784 291.984 104.917 292.658C110.815 293.922 197.505 274.031 211.393 268.491Z" fill="#6B8A16"/>
<path d="M296.993 349.256C298.807 367.42 302.735 385.116 309.411 402.105C315.098 402.306 326.665 402.072 334.404 405.781C331.728 401.732 320.617 394.811 321.051 394.789C327.85 394.482 334.705 395.429 341.17 397.562C336.174 393.803 329.035 391.386 323.004 389.732C329.658 387.488 335.445 386.57 342.466 386.742C342.845 386.486 327.132 383.763 318.625 385.929C319.104 377.883 319.593 367.086 320.856 359.123C316.656 357.864 313.067 355.219 309.183 353.187C305.294 351.165 301.377 349.077 296.993 349.256Z" fill="#95BA2F"/>
<path d="M319.666 358.716C315.971 357.352 312.694 355.03 309.183 353.193C305.795 351.422 302.379 349.612 298.657 349.295C298.111 349.4 297.577 349.54 297.049 349.69C298.217 361.172 300.242 372.465 303.263 383.513C307.514 374.525 313.073 366.167 319.666 358.716Z" fill="#83A329"/>
<path d="M334.265 407C334.638 407 335 406.844 335.256 406.549C335.645 406.103 335.684 405.452 335.361 404.962C333.542 402.206 328.423 398.452 324.901 395.969C330.248 396.108 335.517 397.027 340.625 398.714C341.237 398.915 341.899 398.647 342.199 398.074C342.5 397.506 342.338 396.804 341.826 396.414C338.366 393.808 333.742 391.614 327.466 389.621C332.368 388.335 336.997 387.822 342.299 387.962C342.555 387.962 342.834 387.889 343.062 387.739C343.596 387.382 343.796 386.681 343.54 386.096C343.34 385.645 342.967 384.81 333.614 384.002C329.647 383.657 324.267 383.446 319.899 384.197L319.988 382.633C320.406 375.266 320.929 366.094 322.019 359.234C322.119 358.588 321.73 357.959 321.101 357.77C318.358 356.945 315.888 355.503 313.278 353.972C312.104 353.287 310.891 352.574 309.656 351.928L309.495 351.845C305.556 349.784 301.472 347.663 296.809 347.841C296.448 347.858 296.108 348.019 295.874 348.292C295.635 348.565 295.524 348.927 295.557 349.283C297.46 368.316 301.666 386.213 308.059 402.484C308.248 402.968 308.71 403.297 309.233 403.314C309.94 403.342 310.741 403.358 311.609 403.381C317.434 403.514 327.177 403.737 333.703 406.861C333.881 406.961 334.07 407 334.265 407ZM323.46 393.33C322.592 393.33 321.724 393.346 320.851 393.391C320.289 393.419 319.794 393.803 319.638 394.343C319.36 395.312 319.666 395.524 322.041 397.183C323.844 398.447 326.815 400.518 329.297 402.562C323.26 401.036 316.522 400.88 311.659 400.769C311.136 400.758 310.641 400.747 310.174 400.736C304.209 385.322 300.22 368.439 298.306 350.508C301.728 350.77 304.916 352.435 308.265 354.189L308.427 354.273C309.606 354.891 310.791 355.581 311.937 356.255C314.252 357.608 316.633 359.006 319.243 359.941C318.247 366.779 317.757 375.449 317.351 382.493L317.162 385.768C317.14 386.185 317.312 386.592 317.635 386.859C317.957 387.126 318.391 387.227 318.792 387.121C321.869 386.341 325.919 386.224 329.77 386.397C327.377 386.887 324.968 387.55 322.431 388.407C321.886 388.591 321.524 389.114 321.541 389.688C321.557 390.267 321.947 390.763 322.503 390.918C325.958 391.865 328.996 392.862 331.645 393.925C328.952 393.524 326.214 393.33 323.46 393.33Z" fill="#6B8A16"/>
<path d="M250.289 348.364C248.915 366.567 245.421 384.353 239.156 401.504C233.475 401.843 221.902 401.888 214.263 405.786C216.839 401.671 227.778 394.482 227.344 394.471C220.539 394.332 213.707 395.44 207.297 397.734C212.205 393.853 219.276 391.269 225.269 389.465C218.559 387.382 212.755 386.608 205.739 386.953C205.355 386.708 220.995 383.601 229.553 385.561C228.879 377.526 228.123 366.751 226.671 358.816C230.838 357.452 234.36 354.723 238.199 352.602C242.038 350.469 245.905 348.292 250.289 348.364Z" fill="#95BA2F"/>
<path d="M228.974 378.523C228.418 371.88 227.733 364.596 226.671 358.811C230.838 357.446 234.36 354.718 238.199 352.596C242.033 350.469 245.905 348.292 250.289 348.364C249.922 353.237 249.388 358.081 248.704 362.887C242.188 367.609 234.694 372.999 228.974 378.523Z" fill="#83A329"/>
<path d="M214.397 407C214.597 407 214.803 406.955 214.992 406.855C221.435 403.57 231.172 403.113 236.992 402.835C237.865 402.79 238.661 402.757 239.368 402.712C239.891 402.679 240.341 402.345 240.519 401.855C246.517 385.433 250.284 367.436 251.725 348.364C251.753 348.002 251.63 347.646 251.386 347.379C251.141 347.112 250.801 346.956 250.44 346.95C245.772 346.866 241.743 349.105 237.849 351.26L237.693 351.349C236.474 352.023 235.278 352.763 234.126 353.476C231.55 355.069 229.119 356.572 226.393 357.463C225.77 357.669 225.391 358.304 225.508 358.95C226.76 365.782 227.505 374.937 228.101 382.293L228.229 383.852C223.844 383.206 218.475 383.551 214.514 383.991C205.183 385.032 204.833 385.873 204.644 386.33C204.399 386.92 204.616 387.616 205.155 387.956C205.384 388.101 205.651 388.179 205.923 388.156C211.214 387.895 215.855 388.284 220.795 389.454C214.569 391.603 210.002 393.909 206.608 396.593C206.101 396.993 205.962 397.695 206.274 398.257C206.585 398.82 207.259 399.076 207.865 398.859C212.928 397.049 218.18 396.002 223.522 395.729C220.061 398.296 215.031 402.178 213.279 404.973C212.967 405.474 213.023 406.12 213.423 406.554C213.685 406.85 214.041 407 214.397 407ZM238.355 400.145L236.869 400.218C232.012 400.446 225.28 400.763 219.282 402.439C221.714 400.334 224.629 398.191 226.404 396.888C228.746 395.167 229.047 394.944 228.741 393.986C228.568 393.452 228.067 393.073 227.505 393.062C223.867 392.99 220.267 393.251 216.717 393.853C219.338 392.728 222.348 391.659 225.781 390.629C226.332 390.462 226.71 389.955 226.715 389.376C226.715 388.797 226.343 388.284 225.792 388.117C223.238 387.321 220.807 386.72 218.409 386.285C222.248 386.018 226.304 386.035 229.397 386.742C229.803 386.837 230.232 386.731 230.549 386.452C230.866 386.18 231.033 385.768 230.994 385.35L230.727 382.087C230.154 375.054 229.453 366.395 228.29 359.585C230.877 358.582 233.231 357.129 235.512 355.72C236.641 355.024 237.804 354.3 238.973 353.654L239.134 353.565C242.439 351.733 245.588 349.99 249.004 349.645C247.524 367.614 243.947 384.593 238.355 400.145Z" fill="#6B8A16"/>
<path d="M228.585 153.275C229.52 149.065 247.135 83.3856 260.694 75.9016C274.253 68.4121 282.827 85.2621 282.827 85.2621C282.827 85.2621 289.376 70.9123 301.845 71.8478C313.54 72.7276 320.239 99.4616 322.108 100.397C323.978 101.333 382.743 108.744 382.743 108.744C382.743 108.744 388.513 97.9025 396.069 97.9804C404.498 98.0695 407.992 111.161 407.992 111.161C407.992 111.161 411.264 98.4482 421.317 100.397C430.876 102.251 432.851 134.403 424.044 138.307C416.182 141.787 411.887 137.839 402.534 141.581C393.181 145.323 379.622 147.667 366.53 143.452C353.438 139.242 347.824 144.855 344.085 148.13C340.346 151.404 334.733 154.216 331.461 153.748C331.461 153.748 342.683 162.173 364.193 165.447C385.703 168.722 411.887 170.598 411.887 174.808C411.887 177.514 404.092 194.153 383.361 198.323C377.135 199.576 340.691 198.09 322.57 193.529C322.57 193.529 355.358 346.299 350.161 353.582C343.217 363.316 198.49 358.839 192.108 351.244C187.613 345.876 220.484 189.781 228.585 153.275Z" fill="#95BA2F"/>
<path d="M359.859 142.132C359.052 147.595 358.429 150.262 356.648 156.594C352.882 151.949 351.797 148.759 348.764 144.738C353.204 142.043 355.764 141.737 359.859 142.132Z" fill="#F2FFA3"/>
<path d="M356.649 157.902C356.738 157.902 356.827 157.891 356.916 157.874C357.394 157.774 357.778 157.418 357.912 156.944C359.653 150.775 360.326 147.951 361.161 142.322C361.211 141.965 361.116 141.603 360.894 141.319C360.671 141.035 360.343 140.857 359.987 140.824C355.72 140.412 352.849 140.724 348.086 143.614C347.769 143.809 347.546 144.126 347.474 144.488C347.402 144.85 347.491 145.229 347.713 145.529C349.015 147.255 349.944 148.82 350.929 150.474C352.181 152.584 353.472 154.762 355.63 157.418C355.881 157.73 356.259 157.902 356.649 157.902ZM358.351 143.33C357.745 147.2 357.183 149.7 356.092 153.693C354.924 152.055 354.045 150.574 353.188 149.132C352.426 147.851 351.647 146.537 350.679 145.145C353.628 143.541 355.653 143.19 358.351 143.33Z" fill="#FFD580"/>
<path d="M394.216 144.416C392.491 149.433 391.718 151.599 389.487 157.039C385.837 152.3 384.006 149.834 381.074 145.741C385.753 145.774 389.887 145.19 394.216 144.416Z" fill="#F2FFA3"/>
<path d="M389.487 158.359C389.542 158.359 389.603 158.353 389.659 158.347C390.126 158.286 390.521 157.98 390.699 157.546C392.931 152.1 393.732 149.861 395.457 144.85C395.607 144.41 395.512 143.925 395.212 143.569C394.911 143.218 394.444 143.045 393.988 143.129C389.475 143.931 385.575 144.432 381.085 144.438C380.573 144.404 380.139 144.71 379.911 145.145C379.683 145.585 379.722 146.114 380.011 146.515C382.999 150.691 384.813 153.13 388.452 157.852C388.696 158.169 389.08 158.359 389.487 158.359ZM392.252 146.086C391.189 149.137 390.444 151.175 389.13 154.433C386.944 151.582 385.431 149.544 383.6 147.021C386.538 146.899 389.309 146.565 392.252 146.086Z" fill="#FFD580"/>
<path d="M424.4 138.184C423.232 142.979 422.775 146.314 420.544 151.755C416.894 147.016 415.754 143.68 413.645 140.055C418.324 140.083 420.194 140.172 424.4 138.184Z" fill="#F2FFA3"/>
<path d="M420.544 153.069C420.6 153.069 420.661 153.063 420.716 153.058C421.184 152.996 421.579 152.69 421.757 152.256C423.526 147.946 424.194 144.983 424.967 141.553C425.184 140.584 425.412 139.576 425.674 138.496C425.796 138.006 425.618 137.488 425.229 137.165C424.839 136.842 424.294 136.775 423.838 136.993C420.06 138.78 418.452 138.763 414.168 138.741H413.639C413.172 138.741 412.738 138.986 412.504 139.393C412.27 139.799 412.27 140.3 412.504 140.707C413.144 141.809 413.689 142.873 414.262 144.003C415.564 146.554 416.911 149.193 419.492 152.545C419.754 152.885 420.138 153.069 420.544 153.069ZM422.536 140.384L422.402 140.968C421.796 143.652 421.256 146.041 420.182 149.032C418.602 146.726 417.589 144.744 416.605 142.812C416.365 142.338 416.115 141.854 415.865 141.369C418.346 141.364 420.171 141.225 422.536 140.384Z" fill="#FFD580"/>
<path d="M304.966 142.589C304.966 142.589 312.16 153.915 331.717 153.921C333.397 155.101 344.447 162.435 364.199 165.442C377.508 167.469 392.597 168.961 402.172 170.799L408.621 172.463C405.817 176.829 394.272 182.108 380.562 181.356C363.492 180.421 315.098 166.227 309.795 159.985C304.498 153.742 304.966 142.589 304.966 142.589Z" fill="#FF7E6B"/>
<path d="M380.562 181.356C363.492 180.421 315.098 166.227 309.795 159.985C304.493 153.742 304.966 142.589 304.966 142.589C304.966 142.589 312.16 153.915 331.717 153.921C332.73 154.633 337.197 157.601 344.92 160.497C354.957 170.943 368.16 178.327 382.309 181.406C381.731 181.395 381.152 181.39 380.562 181.356Z" fill="#E05845"/>
<path d="M290.427 183.929C291.896 186.402 307.38 188.373 308.081 191.419C316.488 227.892 332.807 308.829 317.423 327.405C298.556 350.197 250.106 346.004 240.458 327.316C230.81 308.628 245.888 194.949 258.919 176.417C267.048 164.857 281.892 165.91 281.892 165.91C281.892 165.91 284.585 174.101 290.427 183.929Z" fill="#E9FF57"/>
<path d="M211.348 248.617L210.881 251.218C226.777 256.641 243.429 260.105 260.277 261.564C284.257 263.641 308.632 261.686 331.828 255.723L331.183 253.194C292.041 263.257 249.494 261.709 211.348 248.617ZM207.364 271.041L207.821 268.435C248.509 282.902 294.411 284.11 335.923 271.999L336.558 274.555C311.52 281.844 284.914 284.361 258.78 282.095C241.215 280.574 223.867 276.866 207.364 271.041ZM202.001 308.5C247.029 325.289 298.801 325.645 344.052 309.48L344.937 311.952C316.672 322.048 285.904 325.784 255.77 323.173C237.042 321.552 218.559 317.476 201.088 310.961L202.001 308.5ZM326.281 234.178L326.943 236.712C305.684 241.462 283.573 242.91 261.785 241.022C245.672 239.624 229.742 236.406 214.475 231.383L214.948 228.777C250.468 240.532 289.654 242.347 326.281 234.178ZM340.469 290.67L341.081 293.237C314.313 301.952 285.515 305.075 257.272 302.631C239.023 301.049 221.013 297.124 203.937 290.898L204.382 288.276C247.524 304.129 296.754 304.953 340.469 290.67ZM316.027 195.611L316.717 198.162C299.591 200.846 282.087 201.453 264.789 199.955C250.184 198.691 235.74 195.912 221.792 191.675L222.27 189.085C252.343 198.279 284.825 200.461 316.027 195.611ZM321.229 215.001L321.902 217.529C302.668 221.187 282.849 222.178 263.287 220.486C247.925 219.155 232.73 216.148 218.119 211.52L218.592 208.942C251.419 219.394 287.256 221.427 321.229 215.001Z" fill="#95BA2F"/>
<path d="M404.643 184.28C380.852 201.709 309.317 183.093 301.066 179.485C291.09 175.119 284.224 168.287 281.425 164.823C285.248 174.112 286.06 179.569 292.803 186.351C292.803 186.351 347.663 201.792 379.778 198.362C393.304 196.914 406.228 184.497 404.643 184.28Z" fill="#83A329"/>
<path d="M381.497 113.733C381.519 112.241 381.792 110.086 382.042 108.666C377.29 107.653 324.762 102.736 322.108 100.085C313.979 91.9496 314.714 71.1126 297.171 72.7831C290.622 73.4068 288.725 79.1311 286.572 80.8963C294.678 75.1218 304.048 73.7631 309.172 83.235C313.551 91.3371 316.5 102.892 319.927 104.918C324.506 107.625 370.43 113.032 381.497 113.733Z" fill="#B6D440"/>
<path d="M428.567 111.857C426.709 103.838 422.297 98.9102 417.234 100.213C413.35 101.216 411.492 104.969 409.333 108.488C409.327 108.538 408.854 111.651 408.849 111.701C411.419 107.764 414.224 104.367 419.504 104.662C423.515 104.891 426.698 108.388 428.567 111.857Z" fill="#B6D440"/>
<path d="M406.278 109.284C404.097 101.405 399.869 96.8831 394.21 98.871C389.87 100.397 385.542 104.378 383.366 108.193C383.366 108.243 382.125 114.268 382.431 114.123C384.846 109.757 389.837 102.658 395.523 102.346C400.108 102.09 403.858 106.071 406.278 109.284Z" fill="#B6D440"/>
<path d="M292.002 137.461C293.933 143.786 290.377 150.485 284.057 152.417C277.736 154.35 271.043 150.791 269.112 144.466C267.181 138.14 270.737 131.441 277.057 129.509C283.378 127.571 290.066 131.135 292.002 137.461Z" fill="#FFC1B8"/>
<path d="M398.316 115.32C398.328 118.032 397.081 120.243 395.535 120.248C393.988 120.254 392.719 118.06 392.708 115.348C392.697 112.636 393.943 110.431 395.49 110.42C397.037 110.415 398.305 112.609 398.316 115.32Z" fill="#577012"/>
<path d="M422.347 112.219C422.358 114.93 421.112 117.141 419.565 117.147C418.012 117.152 416.749 114.958 416.738 112.246C416.727 109.535 417.974 107.324 419.52 107.318C421.067 107.307 422.33 109.501 422.347 112.219Z" fill="#577012"/>
<path d="M349.955 117.32C350.028 117.32 350.1 117.314 350.172 117.303C350.884 117.186 351.368 116.507 351.252 115.794C351.001 114.302 351.569 112.119 352.726 110.103C353.878 108.093 355.252 106.918 356.014 106.79C356.727 106.673 357.211 105.993 357.094 105.281C356.977 104.568 356.298 104.078 355.586 104.2C353.861 104.49 351.947 106.205 350.456 108.794C348.987 111.35 348.319 114.134 348.67 116.228C348.77 116.863 349.321 117.32 349.955 117.32Z" fill="#6B8A16"/>
<path d="M357.784 118.244C358.507 118.238 359.097 117.631 359.086 116.907C359.013 112.631 361.545 108.015 363.487 107.692C364.199 107.575 364.683 106.895 364.566 106.177C364.444 105.464 363.765 104.974 363.058 105.097C359.247 105.737 356.381 111.99 356.465 116.946C356.47 117.67 357.066 118.249 357.784 118.244Z" fill="#6B8A16"/>
<path d="M381.898 119.497C381.959 119.497 382.026 119.491 382.087 119.48C382.805 119.374 383.3 118.712 383.2 117.993C382.782 115.103 383.005 112.169 383.845 109.507C384.062 108.816 383.678 108.076 382.988 107.859C382.298 107.636 381.558 108.02 381.341 108.716C380.379 111.757 380.123 115.092 380.601 118.372C380.696 119.023 381.258 119.497 381.898 119.497Z" fill="#6B8A16"/>
<path d="M291.963 360.448C300.949 360.448 309.411 360.309 316.795 360.014C348.064 358.777 350.361 355.548 351.229 354.334C356.37 347.123 330.621 224.862 324.284 195.233C346.472 199.905 378.131 201.185 384.702 199.214C404.626 193.256 413.2 178.628 413.2 174.797C413.2 170.893 404.52 169.412 381.558 166.472C375.861 165.742 369.974 164.991 364.388 164.139C349.783 161.911 340.046 157.273 335.484 154.661C338.744 153.67 342.344 151.387 344.948 149.11L345.415 148.697C349.154 145.395 354.273 140.874 366.129 144.688C382.215 149.861 397.287 145.078 403.023 142.784C407.552 140.968 410.841 141.052 414.023 141.136C417.189 141.208 420.455 141.297 424.572 139.493C431.321 136.536 432.657 125.911 431.744 117.715C430.804 109.245 427.293 100.202 421.568 99.0939C414.585 97.7352 410.19 102.752 408.02 107.302C406.25 103.125 402.495 96.7162 396.085 96.6494H395.991C388.964 96.6494 383.6 104.696 382.042 107.313C359.514 104.467 326.309 100.113 322.82 99.2276C322.409 98.5928 321.563 96.4935 320.806 94.628C317.268 85.8745 311.342 71.224 301.95 70.5223C291.651 69.7261 285.225 78.4295 282.771 82.5835C280.93 79.7826 277.08 74.9548 271.56 73.262C267.799 72.1093 263.932 72.6049 260.065 74.7376C245.499 82.784 227.461 152.295 227.311 152.98C223.739 169.072 213.418 217.306 204.338 263.669C187.796 348.119 190.122 350.887 191.112 352.067C195.491 357.296 249.466 360.448 291.963 360.448ZM322.575 192.209C322.236 192.209 321.902 192.343 321.652 192.588C321.335 192.905 321.196 193.356 321.29 193.796C333.837 252.259 352.476 347.123 349.087 352.819C348.525 353.604 344.508 356.288 316.689 357.391C266.414 359.379 196.787 354.763 193.115 350.391C190.055 343.626 217.479 209.343 229.865 153.559C231.322 146.994 248.637 84.0536 261.328 77.0485C264.55 75.2666 267.732 74.8434 270.787 75.7845C277.525 77.856 281.62 85.7743 281.659 85.8578C281.887 86.3033 282.349 86.5872 282.855 86.5705C283.356 86.5594 283.812 86.2643 284.023 85.8077C284.085 85.674 290.361 72.2987 301.75 73.1562C309.517 73.7409 315.276 87.9794 318.369 95.6304C320.088 99.8735 320.623 101.121 321.524 101.572C323.443 102.535 368.739 108.304 382.582 110.047C383.121 110.114 383.65 109.841 383.9 109.362C383.956 109.262 389.353 99.2944 395.985 99.2944H396.052C403.38 99.3724 406.69 111.378 406.723 111.5C406.879 112.074 407.402 112.475 407.992 112.475C408.587 112.475 409.11 112.068 409.261 111.495C409.383 111.027 412.354 100.013 421.067 101.689C424.711 102.396 428.183 109.418 429.135 118.021C430.008 125.911 428.612 134.877 423.521 137.104C419.938 138.674 417.228 138.602 414.09 138.524C410.802 138.44 407.079 138.346 402.05 140.362C396.58 142.55 382.203 147.116 366.931 142.205C353.655 137.939 347.407 143.452 343.679 146.743L343.223 147.144C339.3 150.58 334.432 152.896 331.878 152.529C331.277 152.445 330.71 152.774 330.482 153.325C330.254 153.876 330.426 154.516 330.899 154.878C331.361 155.229 342.4 163.465 363.993 166.75C369.607 167.608 375.51 168.36 381.224 169.095C393.153 170.62 409.489 172.714 410.596 174.914C410.579 176.885 403.24 190.951 383.956 196.72C377.574 198.624 344.341 197.109 322.865 192.254C322.77 192.22 322.676 192.209 322.575 192.209Z" fill="#6B8A16"/>
<path d="M212.884 341.527C215.493 341.259 217.735 339.243 218.559 337.1C219.382 334.956 219.043 332.728 218.392 330.685C216.934 326.108 210.04 320.545 205.812 327.611C203.03 332.255 205.411 342.301 212.884 341.527Z" fill="#83A329"/>
<path d="M219.633 321.669C219.56 323.028 220.295 324.42 221.496 325.06C222.52 325.606 223.783 325.589 224.874 325.189C225.931 324.799 226.882 324.041 227.339 323.011C227.956 321.625 227.533 319.848 226.359 318.885C223.922 316.886 219.805 318.479 219.633 321.669Z" fill="#83A329"/>
<path d="M207.297 316.53C208.327 318.518 211.008 319.442 213.039 318.512C215.07 317.582 216.127 314.943 215.298 312.866C214.486 310.828 211.476 309.313 209.356 310.176C207.164 311.078 206.273 314.548 207.297 316.53Z" fill="#83A329"/>
<path d="M219.46 312.276C219.343 312.933 219.532 313.629 219.922 314.174C220.545 315.049 221.691 315.522 222.743 315.322C223.794 315.121 224.701 314.252 224.918 313.205C225.141 312.153 224.651 310.989 223.744 310.416C222.248 309.48 219.777 310.494 219.46 312.276Z" fill="#83A329"/>
<path d="M372.572 180.07C375.009 175.359 376.233 172.224 379.232 167.163C382.153 172.38 383.461 176.195 385.764 180.672C381.029 181.123 377.051 180.733 372.572 180.07Z" fill="#F2FFA3"/>
<path d="M337.921 171.517C341.059 166.973 342.789 164.851 347.185 159.962C348.514 165.792 348.08 169.139 349.026 174.084C343.852 174.529 341.426 173.677 337.921 171.517Z" fill="#F2FFA3"/>
<path d="M399.501 177.614C400.28 171.528 401.293 167.007 402.695 162.095C405.577 165.837 406.512 172.157 406.824 174.106C404.642 175.426 403.669 176.228 399.501 177.614Z" fill="#F2FFA3"/>
<path d="M332.084 155.213C332.785 155.213 333.369 154.656 333.392 153.949C333.419 153.225 332.857 152.618 332.134 152.584L331.266 152.556C326.576 152.434 315.598 152.15 306.106 141.18C305.633 140.629 304.804 140.573 304.254 141.047C303.708 141.52 303.647 142.35 304.12 142.895C314.369 154.745 326.593 155.062 331.194 155.179L332.084 155.213Z" fill="#6B8A16"/>
<path d="M323.282 194.954C323.9 194.954 324.45 194.514 324.573 193.885C324.706 193.172 324.239 192.488 323.527 192.354C322.637 192.187 321.24 191.981 319.51 191.73C312.182 190.661 296.943 188.428 292.619 184.346C287.317 179.335 282.61 164.957 282.56 164.812C282.337 164.122 281.597 163.749 280.908 163.966C280.218 164.189 279.839 164.929 280.062 165.62C280.262 166.238 285.025 180.783 290.811 186.251C295.735 190.901 310.947 193.128 319.12 194.325C320.801 194.57 322.164 194.771 323.032 194.932C323.121 194.949 323.199 194.954 323.282 194.954Z" fill="#6B8A16"/>
<path d="M383.099 182.737C395.457 182.737 406.612 178.01 409.723 173.171C410.112 172.558 409.939 171.745 409.327 171.355C408.715 170.96 407.909 171.138 407.514 171.751C405.038 175.604 394.032 180.772 380.635 180.042C363.281 179.09 315.632 164.824 310.797 159.133C305.884 153.353 306.273 142.75 306.273 142.645C306.307 141.921 305.739 141.308 305.016 141.28C304.282 141.208 303.681 141.815 303.653 142.539C303.631 143.018 303.23 154.283 308.794 160.837C314.569 167.636 363.214 181.724 380.484 182.67C381.363 182.715 382.237 182.737 383.099 182.737Z" fill="#6B8A16"/>
<path d="M275.438 103.309C277.575 108.204 276.623 113.349 273.307 114.797C269.997 116.245 265.574 113.449 263.443 108.555C261.306 103.66 262.258 98.5149 265.574 97.0671C268.884 95.6249 273.302 98.4147 275.438 103.309Z" fill="#452800"/>
<path d="M267.91 109.663C268.5 111.016 267.883 112.586 266.536 113.177C265.184 113.767 263.615 113.149 263.025 111.801C262.436 110.448 263.053 108.878 264.4 108.288C265.746 107.692 267.321 108.31 267.91 109.663Z" fill="#F7FFC4"/>
<path d="M309.356 101.85C311.492 106.745 310.541 111.89 307.225 113.338C303.914 114.786 299.491 111.991 297.36 107.096C295.223 102.201 296.175 97.056 299.491 95.6082C302.801 94.1604 307.219 96.9558 309.356 101.85Z" fill="#452800"/>
<path d="M301.828 108.198C302.417 109.552 301.8 111.122 300.453 111.712C299.101 112.302 297.532 111.684 296.943 110.337C296.353 108.984 296.97 107.413 298.317 106.823C299.663 106.233 301.238 106.845 301.828 108.198Z" fill="#F7FFC4"/>
<path d="M232.402 240.053C205.712 232.235 184.586 207.996 180.468 180.465C178.076 185.187 177.364 189.687 177.358 194.982C173.558 190.734 170.381 187.866 166.581 183.617C167.048 189.948 168.94 193.891 170.977 199.454C168.039 196.129 163.426 194.492 159.176 193.234C168.99 205.958 176.257 219.344 187.535 231.784C199.491 244.97 215.465 254.954 228.056 256.263L232.402 240.053Z" fill="#95BA2F"/>
<path d="M189.783 236.044C188.687 234.947 187.613 233.822 186.567 232.664C179.64 225.029 174.154 216.944 168.846 209.132C165.457 204.148 161.958 198.986 158.135 194.036C157.79 193.585 157.768 192.961 158.091 192.493C158.414 192.025 158.998 191.814 159.543 191.975C162.492 192.85 165.474 193.88 168.05 195.417C166.709 191.814 165.619 188.4 165.268 183.717C165.229 183.155 165.546 182.631 166.064 182.414C166.581 182.192 167.171 182.325 167.555 182.748C169.436 184.853 171.199 186.646 172.902 188.389C173.959 189.464 175.033 190.561 176.146 191.741C176.457 187.203 177.442 183.528 179.295 179.875C179.551 179.368 180.113 179.084 180.675 179.173C181.237 179.263 181.676 179.708 181.76 180.276C185.771 207.11 206.741 231.171 232.764 238.795C233.465 238.995 233.86 239.73 233.654 240.421C233.448 241.117 232.719 241.518 232.024 241.311C206.079 233.711 185.654 211.448 179.974 185.115C179.072 188.016 178.66 191.157 178.655 194.988C178.655 195.533 178.321 196.018 177.809 196.213C177.303 196.408 176.73 196.274 176.363 195.862C174.482 193.757 172.718 191.964 171.016 190.221C170.164 189.353 169.302 188.467 168.412 187.537C169.024 190.633 170.02 193.25 171.188 196.324C171.516 197.182 171.85 198.067 172.19 198.997C172.407 199.587 172.173 200.256 171.628 200.578C171.082 200.901 170.398 200.785 169.975 200.322C168.15 198.256 165.552 196.875 162.726 195.795C165.624 199.743 168.345 203.747 170.993 207.65C176.251 215.39 181.687 223.392 188.486 230.893C200.604 244.263 216.189 253.701 228.173 254.949C228.897 255.027 229.42 255.667 229.342 256.391C229.269 257.109 228.624 257.638 227.901 257.56C216.383 256.369 201.784 248.06 189.783 236.044Z" fill="#6B8A16"/>
<path d="M259.404 135.534C259.404 135.534 250.067 98.8601 251.375 72.8333L246.423 51.5786C246.423 51.5786 238.483 64.2356 238.222 95.6249C237.966 127.008 241.115 124.987 242.462 125.739C243.808 126.491 244.804 123.573 249.6 126.179C254.396 128.785 255.704 134.414 259.404 135.534Z" fill="#E08F00"/>
<path d="M236.314 138.107C236.314 138.107 238.773 100.342 248.053 75.9964L249.912 54.2517C249.912 54.2517 238.45 63.8294 228.502 93.5982C218.559 123.367 222.181 122.415 223.227 123.551C224.273 124.681 226.121 122.214 229.882 126.179C233.637 130.133 233.142 135.896 236.314 138.107Z" fill="#FFBE2C"/>
<path d="M196.988 87.6898C196.988 87.6898 209.217 1.85258 276.089 0.0317017C342.967 -1.79474 370.03 75.9071 370.03 75.9071L309.478 62.1865C309.478 62.1865 296.993 73.0839 280.412 73.3456C263.832 73.6073 248.237 62.1475 248.237 62.1475L196.988 87.6898Z" fill="black"/>
<path d="M247.686 83.7251L246.512 60.6551C246.512 60.6551 257.523 64.2468 278.265 64.2245C299.007 64.2078 310.764 59.1572 310.764 59.1572L311.849 80.4565C311.849 80.4565 306.168 88.4638 280.162 89.7836C254.146 91.0977 247.686 83.7251 247.686 83.7251Z" fill="#FFBE2C"/>
<path d="M196.988 87.6898C196.988 87.6898 206.396 0.811204 276.089 0.0316249C345.782 -0.753523 370.03 75.907 370.03 75.907L358.691 73.3399C358.691 73.3399 336.886 6.90863 276.317 8.36756C215.749 9.82648 207.631 82.3831 207.631 82.3831L196.988 87.6898Z" fill="#FFBE2C"/>
<path d="M310.758 59.1572L311.843 80.4565C311.843 80.4565 307.253 85.8467 292.787 88.4026L291.529 63.6955C291.529 63.6955 303.325 61.8078 310.758 59.1572Z" fill="#E08F00"/>
<path d="M262.324 63.4061L263.649 89.4385C263.649 89.4385 251.692 88.1689 247.68 83.7253L246.506 60.6553C246.512 60.6497 259.604 63.0497 262.324 63.4061Z" fill="#FFE252"/>
<path d="M331.639 30.7637C331.639 30.7637 351.797 51.055 358.691 73.3399L370.03 75.9069C370.03 75.9069 357.522 37.6017 327.227 16.1577C327.227 16.1577 349.221 36.9502 349.555 43.5599C349.889 50.1697 331.639 30.7637 331.639 30.7637Z" fill="#E08F00"/>
<path d="M210.926 49.1231C210.926 49.1231 218.186 26.2702 238.016 12.2768C257.846 -1.71665 284.992 0.683337 289.209 2.09215C289.209 2.09215 263.053 3.51767 243.508 16.6814C223.962 29.8452 210.926 49.1231 210.926 49.1231Z" fill="#FFE252"/>
</svg>
