<svg width="424" height="400" viewBox="0 0 424 400" fill="none" xmlns="http://www.w3.org/2000/svg">
<path d="M146.229 188.185C115.059 186.669 85.6461 165.764 73.9355 136.806C72.5603 142.592 72.9662 147.686 74.3475 153.466C69.0889 149.827 64.8663 147.535 59.6077 143.89C61.7827 150.676 64.8784 154.484 68.5558 160.015C64.4786 157.159 59.014 156.583 54.0463 156.328C68.0954 167.632 79.5273 180.331 95.1031 190.944C111.606 202.188 131.659 208.889 145.738 207.009L146.229 188.185Z" fill="#83A329"/>
<path d="M140.8 208.798C127.188 208.798 109.57 202.588 94.273 192.169C84.7131 185.656 76.6071 178.282 68.7617 171.144C63.7576 166.589 58.5899 161.883 53.1193 157.486C52.6225 157.086 52.4408 156.407 52.6649 155.813C52.8891 155.212 53.4828 154.818 54.1189 154.866C57.566 155.042 61.092 155.382 64.3028 156.383C61.8916 152.805 59.8076 149.366 58.2022 144.345C58.0083 143.744 58.2203 143.089 58.7292 142.713C59.2381 142.337 59.9288 142.325 60.4437 142.683C63.0488 144.484 65.4418 145.982 67.756 147.431C69.1858 148.329 70.6519 149.245 72.1786 150.239C71.3243 145.206 71.4395 140.936 72.4996 136.467C72.645 135.842 73.1842 135.387 73.8203 135.339C74.4504 135.29 75.0562 135.66 75.2986 136.254C86.7184 164.485 115.913 185.231 146.301 186.711C147.113 186.754 147.743 187.445 147.701 188.252C147.658 189.064 146.937 189.677 146.156 189.652C115.859 188.179 87.7301 169.251 74.6261 142.004C74.4019 145.406 74.7836 148.941 75.7832 153.12C75.9226 153.714 75.6863 154.333 75.1835 154.678C74.6806 155.024 74.0142 155.018 73.5174 154.672C70.9124 152.871 68.5194 151.373 66.2051 149.924C65.048 149.202 63.8727 148.462 62.661 147.68C64.1393 150.894 65.9083 153.484 67.9923 156.534C68.5739 157.389 69.1797 158.269 69.7916 159.197C70.1854 159.785 70.1006 160.573 69.5977 161.07C69.0949 161.568 68.3073 161.628 67.7257 161.222C65.1995 159.451 61.9946 158.62 58.6262 158.19C62.8246 161.738 66.8412 165.394 70.7609 168.954C78.5276 176.019 86.5548 183.327 95.9451 189.725C112.678 201.127 132.149 207.337 145.556 205.548C146.362 205.451 147.101 206.008 147.21 206.815C147.319 207.622 146.75 208.361 145.944 208.471C144.302 208.695 142.588 208.798 140.8 208.798Z" fill="#658215"/>
<path d="M146.229 188.185C115.059 186.669 85.6461 165.764 73.9355 136.806C72.5603 142.592 72.9662 147.686 74.3475 153.466C69.0889 149.827 64.8663 147.535 59.6077 143.89C61.7827 150.676 64.8784 154.484 68.5558 160.015C64.4786 157.159 59.014 156.583 54.0463 156.328C68.0954 167.632 79.5273 180.331 95.1031 190.944C111.606 202.188 131.659 208.889 145.738 207.009L146.229 188.185Z" fill="#83A329"/>
<path d="M140.8 208.798C127.188 208.798 109.57 202.588 94.273 192.169C84.7131 185.656 76.6071 178.282 68.7617 171.144C63.7576 166.589 58.5899 161.883 53.1193 157.486C52.6225 157.086 52.4408 156.407 52.6649 155.813C52.8891 155.212 53.4828 154.818 54.1189 154.866C57.566 155.042 61.092 155.382 64.3028 156.383C61.8916 152.805 59.8076 149.366 58.2022 144.345C58.0083 143.744 58.2203 143.089 58.7292 142.713C59.2381 142.337 59.9288 142.325 60.4437 142.683C63.0488 144.484 65.4418 145.982 67.756 147.431C69.1858 148.329 70.6519 149.245 72.1786 150.239C71.3243 145.206 71.4395 140.936 72.4996 136.467C72.645 135.842 73.1842 135.387 73.8203 135.339C74.4504 135.29 75.0562 135.66 75.2986 136.254C86.7184 164.485 115.913 185.231 146.301 186.711C147.113 186.754 147.743 187.445 147.701 188.252C147.658 189.064 146.937 189.677 146.156 189.652C115.859 188.179 87.7301 169.251 74.6261 142.004C74.4019 145.406 74.7836 148.941 75.7832 153.12C75.9226 153.714 75.6863 154.333 75.1835 154.678C74.6806 155.024 74.0142 155.018 73.5174 154.672C70.9124 152.871 68.5194 151.373 66.2051 149.924C65.048 149.202 63.8727 148.462 62.661 147.68C64.1393 150.894 65.9083 153.484 67.9923 156.534C68.5739 157.389 69.1797 158.269 69.7916 159.197C70.1854 159.785 70.1006 160.573 69.5977 161.07C69.0949 161.568 68.3073 161.628 67.7257 161.222C65.1995 159.451 61.9946 158.62 58.6262 158.19C62.8246 161.738 66.8412 165.394 70.7609 168.954C78.5276 176.019 86.5548 183.327 95.9451 189.725C112.678 201.127 132.149 207.337 145.556 205.548C146.362 205.451 147.101 206.008 147.21 206.815C147.319 207.622 146.75 208.361 145.944 208.471C144.302 208.695 142.588 208.798 140.8 208.798Z" fill="#658215"/>
<path d="M86.0822 190.969C85.1735 192.752 83.5014 194.219 81.5264 194.541C79.9331 194.801 78.2671 194.292 76.9464 193.352C75.244 192.139 74.0505 190.259 73.3902 188.288C73.366 188.221 73.3478 188.161 73.3236 188.094C73.1903 187.663 73.057 187.081 72.9661 186.645C72.7965 185.747 72.6814 184.904 72.5966 184.104C71.8938 177.378 73.7416 173.345 72.4391 161.459C72.3785 160.925 72.3179 160.379 72.2452 159.815C72.1907 159.397 72.1361 158.972 72.0756 158.536C72.0029 158.02 71.9241 157.493 71.8453 156.947C71.8211 156.777 71.7908 156.613 71.7666 156.443C71.7242 156.176 71.6818 155.904 71.6333 155.631C71.6757 155.849 71.9241 156.031 72.3785 156.134C73.4205 156.365 75.1471 156.098 76.2376 155.54C76.8495 155.23 77.1281 154.897 77.0797 154.618C77.1342 154.897 77.1948 155.17 77.2554 155.437C77.2917 155.606 77.3281 155.776 77.3644 155.946C77.4795 156.468 77.5886 156.971 77.7037 157.468C77.8067 157.899 77.9036 158.317 78.0066 158.73C78.1399 159.269 78.2732 159.785 78.4004 160.288C81.4174 171.805 84.5737 174.946 86.3428 181.387C86.5669 182.211 86.7729 183.085 86.9486 184.043C86.9849 184.267 87.0395 184.571 87.0637 184.795C87.0879 185.031 87.1061 185.262 87.1121 185.498C87.1243 185.686 87.1303 185.874 87.1303 186.062C87.1485 187.754 86.8516 189.465 86.0822 190.969Z" fill="#ED912E"/>
<path d="M77.6976 157.468C77.5825 157.693 77.2977 157.935 76.8555 158.16C75.6802 158.766 73.8203 159.057 72.6995 158.808C72.4148 158.742 72.2027 158.651 72.0694 158.536C71.9967 158.02 71.918 157.492 71.8392 156.947C71.9665 157.08 72.1846 157.189 72.5056 157.262C73.5901 157.505 75.3954 157.22 76.5283 156.631C76.9645 156.407 77.2432 156.164 77.3583 155.94C77.4674 156.468 77.5825 156.977 77.6976 157.468Z" fill="#349E44"/>
<path d="M78.3942 160.288C78.267 160.531 77.9701 160.792 77.4976 161.034C76.2496 161.683 74.2685 161.992 73.0751 161.726C72.7903 161.665 72.5783 161.574 72.4329 161.465C72.3723 160.931 72.3117 160.385 72.239 159.821C72.3784 159.931 72.5843 160.022 72.8691 160.082C74.0262 160.337 75.9406 160.04 77.1523 159.415C77.5824 159.191 77.8671 158.954 78.0004 158.736C78.1276 159.27 78.2609 159.785 78.3942 160.288Z" fill="#FEED3F"/>
<path d="M87.1121 185.504C86.7244 185.965 86.0883 186.438 85.2098 186.887C82.1383 188.476 77.2735 189.24 74.3474 188.585C73.9839 188.5 73.6628 188.403 73.3902 188.288C73.366 188.221 73.3478 188.161 73.3235 188.094C73.1903 187.663 73.057 187.081 72.9661 186.644C72.7965 185.747 72.6814 184.904 72.5966 184.103C72.9116 184.279 73.3235 184.431 73.8324 184.546C76.6738 185.177 81.381 184.443 84.3617 182.903C85.3189 182.405 85.9792 181.884 86.3367 181.393C86.5608 182.217 86.7668 183.091 86.9425 184.049C86.9789 184.273 87.0334 184.576 87.0576 184.801C87.0818 185.031 87.1 185.268 87.1121 185.504Z" fill="#ED3B89"/>
<path d="M86.4275 144.223C86.3548 144.496 86.2761 144.763 86.1973 145.03C86.1973 145.036 86.1973 145.036 86.1912 145.042C85.8641 146.079 85.4582 147.092 84.9614 148.05C83.9557 150.027 82.5926 151.816 80.86 153.259C77.8066 155.807 73.899 156.874 69.9733 156.292C65.1388 155.576 61.0737 152.271 58.4565 148.262C55.8636 144.284 54.6217 139.341 54.9367 134.635C55.2638 129.808 57.1601 124.738 60.8132 121.597C62.8124 119.856 65.1812 118.649 67.8044 118.219C72.7783 117.394 77.637 119.577 81.1084 123.076C83.1258 125.108 84.6888 127.673 85.6763 130.36C86.6759 133.089 87.1121 135.848 87.1727 138.741C87.1545 140.579 86.9122 142.44 86.4275 144.223Z" fill="#F49C2E"/>
<path d="M61.5947 152.041C61.3645 151.816 61.0555 151.531 60.8314 151.301L60.0681 150.452C59.747 150.051 59.3168 149.512 59.0139 149.099C59.4622 149.73 60.3286 150.264 61.6129 150.652C61.316 151.283 61.2676 151.574 61.5947 152.041Z" fill="#ED3B89"/>
<path d="M66.2232 153.429C64.4542 152.55 63.3153 151.907 61.625 150.658C61.8976 150.743 62.1945 150.815 62.5095 150.888C64.2301 151.264 66.3141 151.379 68.5435 151.27C67.1865 152.483 66.8048 152.835 66.2232 153.429Z" fill="#ED3B89"/>
<path d="M86.5003 143.987L86.4276 144.26C86.3307 144.569 86.258 144.824 86.1913 145.036C86.1913 145.042 86.1913 145.042 86.1853 145.048C85.8581 146.085 85.4522 147.098 84.9554 148.056L82.2413 147.862L85.0584 145.903C85.5067 145.594 85.9005 145.2 86.1792 144.727C86.2761 144.557 86.3609 144.393 86.4215 144.229C86.4518 144.144 86.4821 144.066 86.5003 143.987Z" fill="#ED3B89"/>
<path d="M58.2505 146.958C58.3717 147.249 58.3596 147.425 58.2202 147.359C57.9173 147.219 57.1782 145.885 57.3478 145.788C57.3842 145.77 57.4448 145.818 57.4811 145.843C57.778 146.103 58.1112 146.625 58.2505 146.958Z" fill="#46C3D5"/>
<path d="M64.4239 148.426C64.5451 148.99 63.812 149.19 63.1335 148.778C62.4913 148.389 62.3641 147.747 62.9033 147.595C63.0245 147.559 63.1274 147.565 63.2365 147.571C63.9453 147.656 64.3573 148.123 64.4239 148.426Z" fill="#46C3D5"/>
<path d="M73.1298 153.084C71.4516 152.495 70.3914 152.095 68.5558 151.264C71.1851 151.131 74.0143 150.676 76.6496 149.954C75.2926 151.24 74.6625 151.81 73.1298 153.084Z" fill="#ED3B89"/>
<path d="M76.6616 149.948C77.7885 150.367 78.9274 150.767 80.0542 151.185L82.2473 147.856C80.6055 148.693 78.6911 149.396 76.6616 149.948Z" fill="#ED3B89"/>
<path d="M73.0207 147.765C73.0449 148.475 71.7363 148.881 71.1244 148.347C70.7307 148.001 70.8518 147.334 71.8211 147.14C72.5845 147.043 73.0086 147.389 73.0207 147.765Z" fill="#46C3D5"/>
<path d="M81.3568 145.242C81.2901 146.067 80.0543 146.728 79.6423 146.164C79.3878 145.818 79.6786 145.121 80.4299 144.787C81.0781 144.551 81.3931 144.842 81.3568 145.242Z" fill="#46C3D5"/>
<path d="M86.9244 135.157L86.785 134.32L86.6699 133.744C87.0092 135.345 85.3856 137.304 81.8294 139.117C75.5227 142.331 65.5387 143.859 59.5289 142.537C56.8391 141.943 55.3972 140.882 55.1973 139.596L55.3003 140.178L55.4699 141.009C56.8754 145.703 71.7908 145.369 82.0717 140.409C85.5249 138.644 87.1546 136.74 86.9244 135.157Z" fill="#FEED3F"/>
<path d="M74.0202 118.649C73.6991 118.552 73.269 118.449 72.9479 118.37C72.4208 118.255 72.3481 118.249 71.5121 118.128C71.1243 118.085 71.0819 118.079 70.4034 118.049C70.0884 118.037 70.0641 118.037 69.4886 118.049C69.216 118.061 69.2099 118.061 68.6828 118.103C68.4345 118.128 68.4345 118.128 67.9437 118.194C67.7014 118.231 67.7014 118.231 67.2289 118.322C66.9865 118.37 66.9865 118.37 66.5019 118.498C66.2414 118.564 66.2414 118.564 65.7325 118.728C65.4417 118.825 65.4417 118.825 64.8722 119.05C64.5208 119.195 64.5208 119.195 63.8605 119.517C63.0184 119.953 62.5155 120.299 61.934 120.705L61.5402 121.002C59.8378 122.324 60.171 123.64 62.5822 124.168C65.4901 124.811 70.3125 124.071 73.3598 122.518C76.2496 121.039 76.4919 119.365 74.0202 118.649ZM64.6662 121.397C63.0123 121.033 63.079 120.02 64.8116 119.141C66.5443 118.261 69.2826 117.837 70.9365 118.201C72.5904 118.564 72.5238 119.577 70.7911 120.457C69.0585 121.342 66.3201 121.76 64.6662 121.397Z" fill="#ED3B89"/>
<path d="M82.4896 124.538C82.12 124.041 81.5627 123.422 81.1568 122.955C83.5013 125.611 83.9678 127.782 83.9557 130.427C82.5744 130.063 81.9989 129.96 78.2852 129.262C78.2852 129.256 78.2791 129.256 78.2791 129.25C76.9826 131.967 75.4499 133.853 73.2326 136.194C67.5136 134.223 65.1024 132.41 63.812 131.433C61.4977 133.083 59.0017 134.447 56.6572 136.048C54.8276 132.191 55.9787 129.159 56.53 127.704L56.4754 127.825C56.2573 128.371 56.0089 129.104 55.8151 129.662C54.6822 133.671 55.8333 136.073 56.5905 137.655C58.8806 135.957 61.4008 134.617 63.7332 132.986C66.8532 135.296 70.3186 136.667 73.59 137.807C76.498 134.835 77.7702 132.937 78.9758 130.681C82.5562 131.36 83.2348 131.512 84.5918 131.9C84.9311 128.055 83.3438 125.769 82.4896 124.538Z" fill="#349E44"/>
<path d="M154.613 327.584C150.827 347.724 144.726 367.13 135.621 385.481C129.241 385.154 116.331 383.771 107.323 387.167C110.703 382.898 123.795 376.233 123.31 376.166C115.737 375.166 107.983 375.56 100.543 377.319C106.493 373.595 114.708 371.588 121.608 370.326C114.386 367.167 108.007 365.584 100.137 365.099C99.7376 364.777 117.567 363.249 126.873 366.493C127.115 357.445 127.612 345.328 126.97 336.304C131.786 335.304 136.057 332.696 140.595 330.798C145.144 328.912 149.73 326.959 154.613 327.584Z" fill="#95BA2F"/>
<path d="M128.351 335.971C132.616 334.807 136.499 332.52 140.607 330.81C144.569 329.154 148.561 327.462 152.753 327.469C153.353 327.638 153.935 327.845 154.51 328.069C152.093 340.798 148.737 353.231 144.29 365.287C140.407 354.826 134.997 344.934 128.351 335.971Z" fill="#83A329"/>
<path d="M107.486 388.556C107.026 388.556 106.577 388.338 106.299 387.95C105.911 387.416 105.923 386.682 106.335 386.167C108.637 383.262 114.726 379.557 118.906 377.125C112.914 376.767 106.935 377.282 101.058 378.671C100.362 378.835 99.6406 378.471 99.3619 377.804C99.0833 377.137 99.3317 376.367 99.9435 375.985C104.063 373.407 109.443 371.406 116.652 369.781C111.291 367.864 106.159 366.851 100.228 366.488C99.9254 366.469 99.6346 366.354 99.3983 366.166C98.8409 365.717 98.6774 364.911 99.0227 364.286C99.2892 363.801 99.7981 362.903 110.333 362.903C114.798 362.903 120.832 363.189 125.637 364.45L125.685 362.691C125.927 354.413 126.23 344.11 125.679 336.335C125.624 335.601 126.127 334.94 126.848 334.788C129.999 334.133 132.894 332.757 135.96 331.301C137.335 330.646 138.765 329.967 140.207 329.367L140.401 329.288C145.005 327.365 149.767 325.382 154.965 326.043C155.364 326.098 155.728 326.31 155.97 326.638C156.207 326.965 156.304 327.378 156.225 327.778C152.257 348.876 145.823 368.483 137.105 386.064C136.844 386.591 136.293 386.907 135.711 386.883C134.918 386.84 134.021 386.786 133.052 386.725C126.527 386.312 115.61 385.615 108.013 388.478C107.831 388.526 107.662 388.556 107.486 388.556ZM115.204 374.062C118.021 374.062 120.851 374.25 123.668 374.62C124.292 374.705 124.807 375.184 124.934 375.803C125.152 376.912 124.788 377.119 121.965 378.75C119.827 379.987 116.307 382.013 113.332 384.063C120.233 382.941 127.781 383.42 133.228 383.765C133.809 383.802 134.367 383.838 134.888 383.868C143.048 367.209 149.143 348.713 153.014 328.851C149.155 328.797 145.441 330.367 141.527 331.999L141.334 332.078C139.952 332.654 138.559 333.315 137.214 333.951C134.494 335.243 131.701 336.571 128.69 337.366C129.138 345.11 128.854 354.856 128.623 362.77L128.52 366.451C128.508 366.918 128.272 367.355 127.884 367.622C127.496 367.888 127.006 367.955 126.564 367.798C123.201 366.621 118.682 366.106 114.362 365.924C116.985 366.7 119.621 367.676 122.371 368.883C122.965 369.144 123.322 369.762 123.244 370.405C123.171 371.048 122.686 371.57 122.044 371.685C118.094 372.407 114.598 373.231 111.533 374.159C112.757 374.099 113.981 374.062 115.204 374.062Z" fill="#6B8A16"/>
<path d="M206.932 330.943C206.708 351.435 208.895 371.667 214.239 391.443C220.557 392.371 233.492 393.547 241.658 398.641C239.174 393.79 227.64 384.693 228.124 384.723C235.745 385.227 243.276 387.131 250.225 390.315C245.118 385.5 237.454 381.922 230.935 379.332C238.635 377.652 245.202 377.349 253.012 378.41C253.466 378.174 236.279 373.183 226.519 374.541C228.045 365.62 229.936 353.643 232.329 344.916C227.797 342.987 224.126 339.597 220.042 336.85C215.953 334.103 211.84 331.289 206.932 330.943Z" fill="#95BA2F"/>
<path d="M227.845 366.736C229.112 359.362 230.584 351.278 232.329 344.916C227.797 342.987 224.126 339.597 220.042 336.85C215.959 334.103 211.846 331.289 206.938 330.943C206.878 336.432 207.005 341.896 207.308 347.342C214.124 353.249 221.987 360.004 227.845 366.736Z" fill="#83A329"/>
<path d="M241.513 400C241.246 400 240.974 399.927 240.731 399.776C233.843 395.476 222.999 394.02 216.523 393.153C215.553 393.026 214.663 392.905 213.881 392.789C213.3 392.704 212.827 392.28 212.676 391.716C207.562 372.77 205.085 352.278 205.315 330.816C205.321 330.41 205.491 330.022 205.787 329.749C206.084 329.476 206.484 329.336 206.89 329.361C212.118 329.724 216.401 332.611 220.539 335.395L220.715 335.51C222.017 336.383 223.278 337.329 224.501 338.239C227.228 340.271 229.802 342.187 232.759 343.448C233.437 343.74 233.795 344.485 233.601 345.195C231.535 352.721 229.821 362.897 228.439 371.072L228.148 372.776C233.116 372.479 239.09 373.383 243.464 374.262C253.799 376.33 254.108 377.307 254.278 377.834C254.496 378.52 254.181 379.278 253.545 379.605C253.272 379.745 252.969 379.799 252.666 379.757C246.778 378.956 241.549 378.944 235.915 379.769C242.67 382.771 247.553 385.797 251.085 389.126C251.612 389.624 251.697 390.424 251.297 391.025C250.897 391.625 250.116 391.843 249.461 391.54C243.973 389.023 238.205 387.343 232.262 386.525C235.885 389.733 241.131 394.554 242.815 397.853C243.118 398.441 242.991 399.163 242.5 399.612C242.234 399.867 241.876 400 241.513 400ZM215.269 390.006C215.784 390.078 216.341 390.151 216.916 390.23C222.326 390.958 229.821 391.965 236.369 394.415C233.855 391.825 230.802 389.145 228.942 387.513C226.495 385.366 226.179 385.087 226.61 384.044C226.852 383.462 227.458 383.092 228.082 383.135C232.153 383.401 236.157 384.05 240.071 385.063C237.248 383.553 233.983 382.061 230.251 380.575C229.651 380.339 229.275 379.732 229.324 379.084C229.378 378.435 229.845 377.901 230.481 377.761C233.413 377.119 236.188 376.682 238.914 376.427C234.643 375.754 230.111 375.378 226.579 375.875C226.113 375.942 225.646 375.778 225.319 375.439C224.992 375.099 224.847 374.626 224.925 374.165L225.537 370.563C226.858 362.746 228.482 353.121 230.445 345.607C227.646 344.237 225.162 342.387 222.751 340.586C221.557 339.695 220.321 338.773 219.079 337.942L218.904 337.827C215.384 335.455 212.04 333.206 208.253 332.49C208.162 352.739 210.519 372.073 215.269 390.006Z" fill="#6B8A16"/>
<path d="M389.153 137.206C384.821 137.364 380.223 136.048 375.934 135.381L385.275 125.702C386.584 128.728 387.85 134.18 389.153 137.206Z" fill="#6B8A16"/>
<path d="M388.426 138.692C385.433 138.692 382.392 138.098 379.447 137.522C378.181 137.273 376.927 137.03 375.703 136.836C375.158 136.751 374.71 136.369 374.534 135.848C374.358 135.326 374.492 134.75 374.873 134.356L384.221 124.677C384.567 124.325 385.063 124.168 385.542 124.253C386.027 124.344 386.433 124.665 386.626 125.12C387.311 126.709 387.977 128.904 388.62 131.027C389.238 133.07 389.88 135.187 390.498 136.624C390.692 137.073 390.649 137.582 390.389 137.995C390.128 138.407 389.686 138.662 389.195 138.68C388.947 138.686 388.686 138.692 388.426 138.692ZM378.914 134.411C379.284 134.483 379.647 134.556 380.017 134.623C382.337 135.078 384.718 135.545 387.008 135.69C386.602 134.495 386.196 133.173 385.809 131.876C385.451 130.693 385.082 129.486 384.718 128.395L378.914 134.411Z" fill="#577012"/>
<path d="M397.156 155.097C392.987 155.485 388.825 155.46 384.663 155.849L391.988 143.228C393.484 146.449 395.653 151.876 397.156 155.097Z" fill="#6B8A16"/>
<path d="M384.657 157.322C384.161 157.322 383.688 157.067 383.415 156.643C383.119 156.176 383.107 155.588 383.385 155.109L390.71 142.482C390.982 142.009 391.503 141.736 392.048 141.748C392.594 141.773 393.084 142.1 393.315 142.597C394.078 144.229 395.017 146.442 395.926 148.583C396.822 150.7 397.749 152.883 398.488 154.472C398.688 154.908 398.67 155.412 398.434 155.83C398.198 156.249 397.767 156.522 397.295 156.564C395.181 156.758 393.042 156.855 390.982 156.946C388.953 157.037 386.85 157.128 384.797 157.316C384.748 157.322 384.706 157.322 384.657 157.322ZM391.812 146.454L387.335 154.169C388.516 154.096 393.575 153.877 394.95 153.786C394.399 152.525 392.267 147.51 391.812 146.454Z" fill="#577012"/>
<path d="M394.175 174.448C391.515 171.234 387.05 168.76 385.209 165.012C388.862 164.369 394.569 164.06 398.216 163.417C396.774 167.626 395.623 170.24 394.175 174.448Z" fill="#6B8A16"/>
<path d="M394.175 175.922C393.739 175.922 393.327 175.728 393.042 175.389C392.073 174.218 390.825 173.133 389.498 171.986C387.353 170.125 385.136 168.202 383.888 165.667C383.682 165.249 383.688 164.764 383.894 164.351C384.106 163.939 384.494 163.648 384.954 163.569C386.832 163.241 389.238 162.993 391.564 162.756C393.836 162.526 396.192 162.283 397.961 161.974C398.47 161.883 398.997 162.071 399.337 162.471C399.676 162.865 399.779 163.411 399.609 163.909C398.882 166.031 398.228 167.747 397.568 169.47C396.925 171.162 396.277 172.854 395.562 174.94C395.387 175.443 394.957 175.813 394.436 175.91C394.351 175.916 394.266 175.922 394.175 175.922ZM387.693 166.14C388.71 167.396 390.043 168.554 391.431 169.755C392.158 170.385 392.897 171.022 393.593 171.689C394.017 170.531 395.611 166.346 396.017 165.231C394.696 165.394 389.007 165.977 387.693 166.14Z" fill="#577012"/>
<path d="M386.457 191.526C383.846 187.742 381.447 183.921 378.835 180.137C383.016 179.973 387.214 180.149 391.37 180.659C389.758 184.097 388.068 188.082 386.457 191.526Z" fill="#6B8A16"/>
<path d="M386.457 193C385.972 193 385.518 192.763 385.245 192.363C383.93 190.453 378.92 182.848 377.624 180.974C377.321 180.531 377.279 179.955 377.521 179.476C377.763 178.997 378.242 178.682 378.781 178.663C383.022 178.5 387.323 178.676 391.546 179.191C392.012 179.246 392.43 179.525 392.654 179.937C392.885 180.349 392.903 180.847 392.697 181.277C391.891 183 388.589 190.429 387.79 192.151C387.565 192.63 387.105 192.951 386.578 192.994C386.536 193 386.499 193 386.457 193ZM381.574 181.55C382.343 182.702 385.415 187.36 386.202 188.536C386.651 187.548 388.632 183.078 389.171 181.896C386.651 181.659 384.112 181.562 381.574 181.55Z" fill="#577012"/>
<path d="M376.921 212.704C374.237 207.828 371.529 203.686 367.815 199.538L383.537 197.973C381.247 202.794 379.211 207.876 376.921 212.704Z" fill="#6B8A16"/>
<path d="M376.921 214.177C376.388 214.177 375.891 213.886 375.631 213.413C372.68 208.058 370.015 204.201 366.719 200.514C366.349 200.101 366.24 199.513 366.446 198.998C366.646 198.482 367.119 198.118 367.67 198.064L383.391 196.499C383.912 196.438 384.433 196.681 384.742 197.118C385.051 197.554 385.094 198.118 384.869 198.597C383.737 200.987 382.646 203.491 381.586 205.911C380.514 208.361 379.411 210.896 378.254 213.334C378.018 213.831 377.521 214.159 376.969 214.177H376.921ZM370.772 200.726C372.904 203.34 374.819 206.129 376.788 209.489C377.503 207.906 380.356 201.375 381.113 199.695L370.772 200.726Z" fill="#577012"/>
<path d="M355.366 227.337C356.038 222.758 356.62 214.886 357.292 210.314L370.148 221.588C365.186 223.298 360.564 226.603 355.366 227.337Z" fill="#6B8A16"/>
<path d="M355.366 228.811C354.978 228.811 354.602 228.653 354.324 228.374C353.997 228.047 353.845 227.58 353.912 227.119C354.245 224.857 354.56 221.709 354.869 218.659C355.178 215.59 355.499 212.412 355.838 210.096C355.917 209.562 356.281 209.113 356.783 208.925C357.292 208.737 357.856 208.846 358.262 209.198L371.117 220.466C371.511 220.812 371.693 221.345 371.59 221.861C371.487 222.376 371.123 222.801 370.627 222.971C368.815 223.595 367.064 224.438 365.21 225.33C362.163 226.791 359.013 228.301 355.572 228.793C355.505 228.805 355.432 228.811 355.366 228.811ZM358.401 213.243C358.195 215.014 357.341 223.498 357.098 225.475C359.388 224.857 361.612 223.789 363.938 222.673C365.053 222.14 366.192 221.588 367.355 221.091L358.401 213.243Z" fill="#577012"/>
<path d="M334.556 235.567C336.555 230.491 338.027 224.936 338.639 219.514C343.001 222.989 347.605 226.155 352.421 228.968C346.715 231.886 340.82 234.202 334.556 235.567Z" fill="#6B8A16"/>
<path d="M334.556 237.04C334.132 237.04 333.72 236.852 333.435 236.519C333.084 236.106 332.987 235.53 333.187 235.021C335.216 229.872 336.597 224.451 337.173 219.344C337.233 218.811 337.579 218.356 338.07 218.149C338.566 217.943 339.13 218.022 339.548 218.356C343.837 221.776 348.417 224.917 353.155 227.689C353.621 227.962 353.9 228.465 353.882 229.005C353.863 229.545 353.56 230.03 353.082 230.279C346.769 233.511 340.808 235.712 334.865 237.004C334.768 237.028 334.659 237.04 334.556 237.04ZM339.754 222.249C339.16 225.955 338.197 229.763 336.9 233.487C340.971 232.407 345.079 230.873 349.35 228.841C346.048 226.81 342.837 224.602 339.754 222.249Z" fill="#577012"/>
<path d="M313.976 244.063C314.236 238.957 314.036 233.25 314.303 228.138L331.442 237.325C326.007 240.37 319.907 241.54 313.976 244.063Z" fill="#6B8A16"/>
<path d="M313.976 245.537C313.679 245.537 313.382 245.446 313.134 245.27C312.716 244.979 312.479 244.494 312.51 243.984C312.637 241.461 312.655 238.732 312.673 236.088C312.685 233.414 312.704 230.648 312.837 228.059C312.861 227.556 313.146 227.101 313.582 226.852C314.018 226.603 314.557 226.597 315 226.834L332.138 236.022C332.611 236.276 332.908 236.767 332.914 237.307C332.92 237.847 332.629 238.344 332.163 238.605C328.794 240.497 325.153 241.698 321.627 242.856C319.295 243.626 316.884 244.421 314.551 245.409C314.364 245.5 314.17 245.537 313.976 245.537ZM315.678 230.551C315.63 232.377 315.587 239.957 315.533 241.85C317.271 241.195 319.01 240.618 320.7 240.061C323.324 239.193 325.844 238.362 328.243 237.283L315.678 230.551Z" fill="#577012"/>
<path d="M295.595 251.128C296.358 245.494 297.315 240 298.818 234.523L310.553 246.131C306.16 247.762 299.987 249.497 295.595 251.128Z" fill="#6B8A16"/>
<path d="M295.601 252.602C295.274 252.602 294.947 252.493 294.68 252.28C294.274 251.959 294.074 251.443 294.141 250.934C295.031 244.342 296.067 239.005 297.4 234.141C297.54 233.638 297.933 233.244 298.442 233.104C298.945 232.965 299.49 233.11 299.86 233.48L311.595 245.088C311.952 245.44 312.104 245.955 312.001 246.446C311.898 246.938 311.546 247.344 311.074 247.52C308.844 248.351 306.142 249.212 303.525 250.043C300.95 250.861 298.279 251.716 296.122 252.517C295.946 252.571 295.771 252.602 295.601 252.602ZM299.599 237.374C298.751 240.837 298.036 244.597 297.394 248.927C299.06 248.357 306.185 246.088 307.845 245.524L299.599 237.374Z" fill="#577012"/>
<path d="M275.9 258.994C276.408 253.463 276.736 246.604 278.286 241.273C283.309 244.603 288.204 248.108 292.069 252.741C287.083 254.712 280.619 257.447 275.9 258.994Z" fill="#6B8A16"/>
<path d="M275.9 260.468C275.573 260.468 275.245 260.358 274.985 260.146C274.597 259.837 274.391 259.352 274.434 258.86C274.524 257.884 274.609 256.871 274.694 255.828C275.094 250.934 275.554 245.391 276.875 240.861C277.008 240.412 277.342 240.048 277.784 239.891C278.226 239.733 278.717 239.788 279.105 240.048C283.757 243.135 289.064 246.841 293.202 251.801C293.505 252.165 293.614 252.65 293.499 253.111C293.384 253.572 293.051 253.942 292.614 254.118C291.33 254.627 289.949 255.185 288.519 255.761C284.484 257.393 279.904 259.243 276.36 260.401C276.209 260.443 276.051 260.468 275.9 260.468ZM279.195 243.657C278.329 247.526 277.959 252.026 277.626 256.071C277.602 256.338 277.584 256.604 277.56 256.865C280.631 255.761 284.193 254.324 287.41 253.026L289.573 252.153C286.429 248.787 282.703 246.034 279.195 243.657Z" fill="#577012"/>
<path d="M272.955 342.83C280.304 338.627 391.031 272.178 397.325 265.083C402.148 259.655 423.406 170.216 422.515 162.647C421.467 153.714 381.059 117.994 381.059 117.994C381.059 117.994 398.373 157.395 398.373 161.592C398.373 165.789 375.285 218.853 370.56 220.951C365.834 223.05 267.703 261.923 267.703 261.923L272.955 342.83Z" fill="#95BA2F"/>
<path d="M382.628 119.049C382.628 119.049 398.373 157.395 398.373 161.598C398.373 165.801 375.285 218.859 370.56 220.957C365.834 223.056 267.703 261.929 267.703 261.929L268.49 266.92C301.811 256.938 371.232 227.786 373.971 225.682C380.792 220.43 403.886 165.431 403.62 162.993C403.099 158.184 382.628 119.049 382.628 119.049Z" fill="#B6D440"/>
<path d="M272.955 342.83C280.304 338.627 391.031 272.178 397.325 265.083C402.148 259.655 423.406 170.216 422.516 162.647C422.273 160.585 419.923 157.092 416.469 152.944C415.694 183.133 394.587 239.26 384.736 254.051C379.49 261.929 319.137 303.429 268.236 317.086L272.955 342.83Z" fill="#83A329"/>
<path d="M272.955 344.309C272.713 344.309 272.477 344.249 272.258 344.134C271.81 343.891 271.519 343.436 271.489 342.933L266.243 262.032C266.2 261.395 266.576 260.801 267.17 260.565C268.151 260.176 365.325 221.679 369.966 219.611C374.237 217.125 396.731 166.255 396.907 161.592C396.907 158.76 386.36 133.713 379.714 118.588C379.435 117.958 379.635 117.212 380.192 116.805C380.75 116.393 381.513 116.429 382.034 116.89C386.214 120.584 422.891 153.253 423.975 162.477C424.811 169.597 404.062 259.71 398.428 266.065C391.83 273.5 278.359 341.441 273.688 344.109C273.458 344.243 273.204 344.309 272.955 344.309ZM269.241 262.912L274.264 340.361C291.645 330.124 390.516 270.535 396.216 264.112C400.16 259.673 421.964 170.695 421.043 162.829C420.395 157.298 400.742 137.813 385.1 123.616C390.261 135.539 399.839 158.117 399.839 161.604C399.839 165.115 377.2 219.623 371.153 222.31C366.664 224.305 280.165 258.581 269.241 262.912Z" fill="#6B8A16"/>
<path d="M275.057 345.983C282.673 338.36 257.21 111.008 253.011 55.4875C251.709 38.24 245.523 15.3343 232.347 11.3075C218.873 7.18365 207.55 19.3248 207.55 19.3248C207.55 19.3248 206.932 5.20662 194.137 2.09553C173.739 -2.85918 170.807 24.0794 160.144 31.3507C149.482 38.6221 98.0048 33.5946 98.0048 33.5946C98.0048 33.5946 93.1885 19.2278 84.9008 17.7116C76.6131 16.1955 69.84 33.2246 69.84 33.2246C69.84 33.2246 65.5144 19.719 58.9412 17.2143C52.368 14.7097 48.5694 21.7021 45.0375 35.6201C40.3605 54.0623 50.3142 59.866 50.3142 59.866C37.713 95.8225 127.83 117.091 164.767 124.217C164.767 124.217 92.9583 316.571 99.7799 328.124C106.601 339.682 267.188 353.861 275.057 345.983Z" fill="#95BA2F"/>
<path d="M240.253 18.8395C217.031 5.97058 199.584 32.8909 199.584 32.8909C199.584 32.8909 198.481 26.1351 212.966 15.6859C218.001 12.0533 226.743 10.1005 232.474 12.496C238.193 14.8975 245.396 21.6898 240.253 18.8395Z" fill="#B6D440"/>
<path d="M98.9136 38.8465C99.0347 37.1787 99.8526 34.6862 99.7072 33.0731C107.534 33.8796 150.869 38.0156 160.647 31.5387C171.407 24.4129 173.388 -1.45825 192.835 2.16832C197.179 2.98097 201.849 7.54148 204.085 9.7247C195.718 3.79968 185.323 3.70871 178.677 13.8061C172.994 22.442 169.928 31.842 162.234 36.5723C153.741 41.7878 115.398 40.4414 98.9136 38.8465Z" fill="#B6D440"/>
<path d="M47.6851 30.3016C50.4961 21.508 54.7248 16.0257 59.9954 17.9179C64.0363 19.3673 65.6296 23.7216 67.5804 27.8333C67.5804 27.894 67.8348 31.1688 67.8348 31.2234C65.2419 26.9115 62.2976 22.4784 57.1238 22.6846C52.8043 22.8665 50.0417 26.584 47.6851 30.3016Z" fill="#B6D440"/>
<path d="M72.7539 30.065C76.613 21.6596 80.7266 16.7716 86.8575 19.543C91.5648 21.6717 95.5814 27.627 97.6412 32.1026C97.6352 32.1633 97.9017 37.4879 97.5746 37.2878C94.7575 32.509 90.541 24.5827 84.3918 23.9398C79.2787 23.4122 75.777 26.7052 72.7539 30.065Z" fill="#B6D440"/>
<path d="M172.721 127.455C164.106 142.671 123.153 266.999 142.042 294.314C160.932 321.628 215.511 321.628 228.106 301.67C240.701 281.706 234.449 153.338 222.054 131.136C212.082 113.27 181.645 111.699 172.721 127.455Z" fill="#E9FF57"/>
<path d="M268.26 216.476L268.533 219.429C250.231 223.953 231.287 226.215 212.306 226.215C185.298 226.215 158.23 221.667 132.87 212.752L133.833 209.987C176.623 225.033 224.35 227.422 268.26 216.476ZM270.55 241.941L270.29 238.987C223.399 251.226 171.964 248.133 126.721 230.564L125.77 233.359C153.056 243.936 182.566 249.327 212.003 249.327C231.783 249.321 251.533 246.859 270.55 241.941ZM272.919 284.35C220.957 298.765 163.034 294.15 114.005 271.687L112.781 274.368C143.405 288.395 177.441 295.551 211.391 295.551C232.486 295.551 253.545 292.786 273.713 287.194L272.919 284.35ZM141.158 189.198L140.176 191.969C163.489 199.344 188.067 203.098 212.609 203.098C230.76 203.098 248.88 201.036 266.437 196.9L266.158 193.94C225.301 203.649 181.312 201.879 141.158 189.198ZM119.827 251.001L118.894 253.815C147.979 266.15 179.876 272.433 211.688 272.433C232.244 272.433 252.763 269.789 272.458 264.476L272.216 261.499C222.448 275.053 167.33 271.208 119.827 251.001ZM156.346 147.062L155.328 149.845C174.212 154.509 193.725 156.88 213.215 156.88C229.663 156.88 246.087 155.176 262.087 151.78L261.802 148.838C227.288 156.213 190.763 155.509 156.346 147.062ZM148.658 168.245L147.664 171.004C168.814 176.953 190.878 179.986 212.912 179.986C230.214 179.986 247.492 178.094 264.28 174.334L263.995 171.404C226.282 179.919 186.019 178.718 148.658 168.245Z" fill="#95BA2F"/>
<path d="M50.1869 61.0061C52.1256 61.9461 53.6583 62.7769 55.3062 63.4986C59.3713 102.239 178.658 115.987 195.028 112.482C185.934 119.134 176.853 122.021 166.427 124.562C166.427 124.568 34.7081 100.929 50.1869 61.0061Z" fill="#83A329"/>
<path d="M253.781 349.749C227.3 349.749 183.711 345.911 156.412 342.454C120.632 337.924 101.155 333.357 98.5137 328.875C97.2536 326.741 93.9034 321.064 128.326 221.358C143.484 177.445 159.502 134.168 162.786 125.332C126.351 118.194 65.1569 102.76 50.7443 77.6471C47.5516 72.0799 46.8307 66.2943 48.5876 60.43C45.9947 58.3134 39.5608 51.2301 43.6138 35.2562C46.34 24.5099 49.5448 18.415 53.6947 16.0802C55.7485 14.9219 58.0142 14.7157 60.4254 15.4616C65.5689 17.0445 68.6707 24.243 70.1792 28.9248C72.8509 23.6366 78.3397 15.0189 85.1613 16.2621C93.0067 17.6994 97.8049 28.8885 99.0711 32.2179C113.926 33.6066 151.105 35.7292 159.314 30.1317C162.731 27.8029 165.397 23.0908 168.22 18.1058C173.781 8.28732 180.076 -2.84106 194.483 0.658164C204.442 3.0779 207.593 11.3984 208.574 15.8255C212.597 12.5871 221.945 6.58319 232.777 9.89441C246.577 14.1153 253.09 37.0331 254.477 55.3782C255.641 70.7699 258.458 99.5521 261.717 132.883C275.221 270.935 281.158 341.957 276.087 347.026C274.155 348.967 265.697 349.749 253.781 349.749ZM57.675 17.9784C56.7784 17.9784 55.9363 18.2028 55.1305 18.6576C51.8227 20.5134 48.9087 26.3474 46.4611 35.99C42.1416 53.0131 50.6959 58.3862 51.0654 58.6045C51.6652 58.9623 51.9378 59.7022 51.7076 60.3633C49.7932 65.8152 50.3142 70.9943 53.2949 76.1856C67.871 101.59 136.299 117.23 165.045 122.773C165.47 122.858 165.839 123.119 166.051 123.501C166.263 123.877 166.3 124.332 166.148 124.738C138.48 198.852 96.3388 319.403 101.052 327.384C102.621 330.046 118.088 334.631 156.788 339.537C209.616 346.232 269.768 349.016 273.997 344.971C278.844 338.124 266.297 209.841 258.797 133.18C255.538 99.8311 252.715 71.0307 251.551 55.6087C250.134 36.8148 243.512 16.2682 231.929 12.7265C219.485 8.91196 208.701 19.6461 208.598 19.7553C208.186 20.1738 207.568 20.3072 207.023 20.0949C206.478 19.8827 206.108 19.3732 206.078 18.785C206.054 18.2816 205.339 6.34061 193.804 3.53274C181.56 0.561131 176.09 10.2219 170.795 19.5673C167.796 24.8616 164.967 29.8588 160.986 32.5757C150.009 40.0593 99.998 35.2804 97.8715 35.0682C97.296 35.0136 96.8053 34.6194 96.6175 34.0736C96.569 33.9402 91.9768 20.5134 84.6403 19.1731C78.8304 18.1058 72.9721 29.3615 71.2091 33.7825C70.9729 34.3829 70.361 34.771 69.7248 34.7043C69.0827 34.6497 68.5435 34.1828 68.4042 33.5521C67.5802 29.8103 64.3936 19.7735 59.5652 18.2877C58.9048 18.0754 58.2747 17.9784 57.675 17.9784Z" fill="#6B8A16"/>
<path d="M120.76 72.3525C120.523 78.5444 120.657 81.6191 121.317 88.9693C126.43 84.6271 128.502 81.4978 132.676 77.6954C128.157 74.0991 125.358 72.7649 120.76 72.3525Z" fill="#F2FFA3"/>
<path d="M71.7969 68.6111C73.2387 74.3906 73.893 76.8831 75.862 83.1902C80.3996 78.2415 82.6896 75.6641 86.3549 71.3704C81.1266 70.9459 76.5587 69.8907 71.7969 68.6111Z" fill="#F2FFA3"/>
<path d="M19.9259 54.5232C24.4393 51.2787 31.1276 40.5081 23.3428 34.8136C14.213 28.1426 5.5012 29.5192 1.08473 43.9225C-1.04778 50.8663 7.01576 57.7617 17.5753 62.116C29.5525 67.0586 48.7814 69.9877 66.629 67.568C66.629 67.568 52.3739 60.8303 51.3259 60.7818C30.3764 59.7812 19.9259 54.5232 19.9259 54.5232Z" fill="#FFC1B8"/>
<path d="M53.3131 69.1689C40.4574 69.1689 27.2747 66.9129 17.2967 62.7951C7.52476 58.7682 -2.04729 51.6364 0.382071 43.7101C2.57516 36.5661 5.89509 32.2057 10.257 30.7563C14.201 29.4463 18.8719 30.641 23.7791 34.2312C26.3296 36.093 27.6685 38.7008 27.6563 41.7634C27.6382 46.7241 24.1607 51.8183 21.3255 54.3472C24.4758 55.6511 34.5506 59.2534 51.3623 60.06C52.4407 60.1146 62.6186 64.8691 66.9442 66.9129L69.1918 67.9742L66.7261 68.3077C62.4065 68.8838 57.881 69.1689 53.3131 69.1689ZM13.5164 31.7084C12.541 31.7084 11.6141 31.8539 10.7296 32.1511C6.84623 33.4428 3.84134 37.4757 1.79365 44.1406C-0.34492 51.1209 8.68794 57.6524 17.8601 61.4366C30.4795 66.64 48.3089 68.8171 63.9998 67.1494C58.7655 64.7054 52.0832 61.661 51.2593 61.5215C30.431 60.5209 20.029 55.4024 19.5989 55.1902L18.5144 54.6444L19.5019 53.9348C22.1857 52.0002 26.1721 46.7969 26.1902 41.7573C26.2024 39.1496 25.0998 37.0148 22.9188 35.4199C19.5565 32.9638 16.3638 31.7084 13.5164 31.7084Z" fill="#F58170"/>
<path d="M20.1017 55.1722C20.0229 55.1722 19.9441 55.16 19.8654 55.1297C17.3936 54.2807 7.65194 49.8536 8.81513 45.3113C9.24527 43.6193 11.9715 38.6828 13.8738 38.1309C15.2187 37.7367 16.9938 38.3735 18.1509 39.1801C19.2232 39.926 19.8533 40.8417 19.926 41.7575C20.0108 42.843 19.1263 45.4872 17.2543 47.6401C16.9877 47.9493 16.5212 47.9797 16.2183 47.7128C15.9093 47.446 15.8791 46.979 16.1456 46.6758C17.8783 44.6866 18.5023 42.4367 18.4599 41.8788C18.4235 41.4239 17.9994 40.8721 17.3149 40.399C16.3153 39.7016 15.0127 39.3438 14.2857 39.55C13.2619 39.8472 10.6932 43.9286 10.2449 45.6812C9.48154 48.6407 17.1574 52.6433 20.344 53.741C20.7257 53.8744 20.9316 54.2928 20.7984 54.6749C20.6954 54.9842 20.4106 55.1722 20.1017 55.1722Z" fill="#F58170"/>
<path d="M158.442 89.7214C155.383 89.7214 151.929 89.3697 147.949 88.557C140.667 87.0712 136.323 83.0626 132.482 79.5209C130.12 77.3437 128.078 75.4577 125.697 74.4692C120.911 72.4679 115.344 73.42 109.958 74.3297C108.631 74.5541 107.304 74.7785 105.996 74.9665C91.9285 76.9374 54.0643 65.7241 48.5513 60.4056C47.9637 59.8416 47.9516 58.9076 48.515 58.3194C49.0784 57.7311 50.0114 57.719 50.599 58.283C55.0155 62.5524 92.0738 73.9416 105.59 72.0494C106.874 71.8675 108.171 71.6492 109.467 71.4308C115.265 70.4484 121.263 69.4296 126.836 71.7523C129.696 72.947 132.016 75.0877 134.482 77.3559C138.207 80.7944 142.067 84.3482 148.543 85.6703C164.694 88.9694 171.37 84.3119 178.44 79.3814C179.337 78.7568 180.24 78.1261 181.161 77.5135C181.839 77.0587 182.754 77.2467 183.202 77.9199C183.657 78.5991 183.469 79.5148 182.796 79.9636C181.888 80.5701 181.009 81.1826 180.125 81.8012C174.515 85.7067 168.759 89.7214 158.442 89.7214Z" fill="#6B8A16"/>
<path d="M251.188 190.198C282.394 189.901 312.6 170.173 325.438 141.694C326.583 147.528 325.983 152.604 324.372 158.329C329.77 154.897 334.077 152.768 339.475 149.342C337.039 156.037 333.798 159.724 329.903 165.103C334.089 162.411 339.572 162.047 344.546 161.986C330.066 172.732 318.144 184.971 302.168 194.965C285.235 205.554 264.94 211.46 250.946 209.035L251.188 190.198Z" fill="#95BA2F"/>
<path d="M325.638 142.962C325.571 142.543 325.517 142.125 325.432 141.694C312.74 169.864 283.042 189.464 252.2 190.168C251.939 190.411 251.673 190.641 251.412 190.884C259.985 194.91 285.605 189.804 299.69 180.028C312.382 171.216 322.906 156.965 325.638 142.962Z" fill="#B6D440"/>
<path d="M257.64 211.042C255.186 211.042 252.86 210.86 250.691 210.484C249.891 210.345 249.352 209.58 249.492 208.78C249.631 207.979 250.394 207.44 251.194 207.579C264.516 209.896 284.224 204.45 301.387 193.716C311.019 187.694 319.325 180.707 327.358 173.951C331.411 170.543 335.573 167.044 339.905 163.666C336.524 163.963 333.289 164.673 330.696 166.34C330.103 166.723 329.315 166.626 328.83 166.116C328.346 165.601 328.291 164.812 328.709 164.242C329.364 163.339 329.994 162.483 330.612 161.659C332.817 158.693 334.689 156.17 336.288 153.017C335.046 153.751 333.841 154.442 332.659 155.115C330.29 156.474 327.837 157.88 325.165 159.572C324.65 159.9 323.99 159.876 323.499 159.512C323.008 159.148 322.796 158.517 322.96 157.929C324.123 153.787 324.638 150.27 324.547 146.861C310.389 173.575 281.534 191.526 251.2 191.672C250.394 191.678 249.728 191.023 249.722 190.21C249.716 189.398 250.37 188.731 251.182 188.725C281.606 188.44 311.589 168.851 324.105 141.088C324.372 140.506 324.983 140.16 325.614 140.227C326.25 140.299 326.765 140.779 326.892 141.409C327.776 145.915 327.728 150.191 326.674 155.188C328.237 154.254 329.733 153.393 331.199 152.556C333.568 151.197 336.022 149.79 338.693 148.098C339.226 147.759 339.911 147.795 340.408 148.195C340.899 148.59 341.086 149.257 340.868 149.851C339.069 154.8 336.846 158.153 334.301 161.64C337.548 160.767 341.092 160.543 344.546 160.525C345.176 160.519 345.751 160.925 345.951 161.525C346.157 162.132 345.945 162.799 345.436 163.181C339.796 167.365 334.446 171.865 329.267 176.22C321.155 183.042 312.764 190.095 302.962 196.226C287.949 205.59 270.98 211.042 257.64 211.042Z" fill="#6B8A16"/>
<path d="M198.79 33.2489C198.608 33.2489 198.421 33.2125 198.239 33.1397C197.488 32.8365 197.124 31.9753 197.427 31.2233C201.001 22.3813 206.848 17.3963 207.09 17.184C207.714 16.6625 208.641 16.7413 209.162 17.3659C209.689 17.9906 209.61 18.9185 208.986 19.44C208.932 19.4885 203.437 24.1946 200.153 32.3271C199.923 32.9032 199.378 33.2489 198.79 33.2489Z" fill="#6B8A16"/>
<path d="M195.004 73.966C192.229 80.8553 195.561 88.6906 202.443 91.4621C209.325 94.2397 217.153 90.9042 219.921 84.0149C222.696 77.1256 219.364 69.2903 212.482 66.5188C205.605 63.7473 197.778 67.0828 195.004 73.966Z" fill="#FFC1B8"/>
<path d="M78.2791 38.919C78.0004 41.9513 79.1818 44.5408 80.9145 44.6985C82.6471 44.8562 84.2768 42.5274 84.5494 39.4951C84.8281 36.4629 83.6467 33.8733 81.9141 33.7157C80.1814 33.5519 78.5517 35.8807 78.2791 38.919Z" fill="#577012"/>
<path d="M51.7137 33.1154C51.435 36.1477 52.6164 38.7372 54.349 38.8949C56.0817 39.0526 57.7114 36.7238 57.984 33.6916C58.2627 30.6593 57.0813 28.0698 55.3486 27.9121C53.622 27.7544 51.9924 30.0832 51.7137 33.1154Z" fill="#577012"/>
<path d="M135.857 49.2228C135.736 49.2228 135.614 49.2046 135.487 49.1743C134.7 48.9741 134.227 48.1676 134.427 47.3792C135.396 43.601 132.082 37.3849 129.974 36.8451C129.187 36.645 128.714 35.8384 128.914 35.05C129.12 34.2616 129.914 33.7886 130.707 33.9887C134.73 35.0258 138.535 43.2068 137.274 48.113C137.111 48.7801 136.511 49.2228 135.857 49.2228Z" fill="#6B8A16"/>
<path d="M125.237 48.9075C125.188 48.9075 125.134 48.9075 125.085 48.9014C124.273 48.8165 123.692 48.0948 123.771 47.2822C124.261 42.5094 121.88 37.0999 119.742 36.548C118.954 36.3479 118.482 35.5413 118.682 34.7529C118.882 33.9645 119.687 33.4915 120.475 33.6916C124.679 34.7711 127.272 42.0485 126.703 47.5794C126.618 48.3435 125.982 48.9075 125.237 48.9075Z" fill="#6B8A16"/>
<path d="M165.246 125.708C164.961 125.708 164.688 125.702 164.416 125.69C163.604 125.654 162.974 124.962 163.01 124.15C163.046 123.337 163.749 122.724 164.549 122.743C172.352 123.107 185.965 117.272 194.61 111.432C195.288 110.977 196.197 111.153 196.652 111.827C197.106 112.5 196.93 113.415 196.252 113.87C187.619 119.716 174.024 125.708 165.246 125.708Z" fill="#6B8A16"/>
<path d="M257.846 326.444C254.956 325.892 252.642 323.417 251.927 320.943C251.212 318.463 251.812 316.007 252.733 313.787C254.805 308.808 263.05 303.259 267.097 311.567C269.762 317.025 266.127 328.033 257.846 326.444Z" fill="#83A329"/>
<path d="M252.218 303.58C252.169 305.109 251.212 306.595 249.807 307.195C248.607 307.704 247.201 307.565 246.02 307.013C244.875 306.479 243.888 305.533 243.47 304.339C242.912 302.725 243.554 300.779 244.96 299.82C247.88 297.819 252.333 299.996 252.218 303.58Z" fill="#83A329"/>
<path d="M266.503 299.032C265.164 301.155 262.074 301.931 259.887 300.694C257.706 299.457 256.78 296.406 257.906 294.162C259.015 291.961 262.523 290.56 264.807 291.731C267.188 292.943 267.842 296.91 266.503 299.032Z" fill="#83A329"/>
<path d="M253.32 293.089C253.387 293.835 253.108 294.599 252.624 295.169C251.842 296.085 250.515 296.503 249.358 296.182C248.201 295.86 247.274 294.799 247.129 293.604C246.983 292.409 247.638 291.148 248.71 290.602C250.473 289.699 253.139 291.069 253.32 293.089Z" fill="#83A329"/>
<path d="M98.3077 45.3295C98.1986 45.3295 98.0835 45.3174 97.9684 45.2932C97.1748 45.1052 96.6841 44.3168 96.8719 43.5223C97.611 40.3688 97.4959 37.0697 96.5387 33.9707C96.2963 33.1945 96.7325 32.3697 97.508 32.1271C98.2834 31.8845 99.1074 32.3212 99.3497 33.0974C100.464 36.6937 100.598 40.5265 99.7374 44.1894C99.5799 44.8686 98.9741 45.3295 98.3077 45.3295Z" fill="#6B8A16"/>
<path d="M314.03 187.288C315.2 188.913 317.078 190.102 319.077 190.12C320.694 190.132 322.264 189.374 323.421 188.246C324.917 186.784 325.808 184.747 326.159 182.703C326.171 182.636 326.183 182.569 326.195 182.503C326.262 182.06 326.304 181.466 326.329 181.017C326.359 180.107 326.347 179.258 326.304 178.452C325.971 171.696 323.53 167.99 323.003 156.049C322.978 155.516 322.96 154.964 322.948 154.394C322.936 153.975 322.93 153.545 322.918 153.102C322.912 152.581 322.906 152.047 322.906 151.495C322.906 151.325 322.906 151.155 322.906 150.986C322.906 150.713 322.912 150.44 322.912 150.161C322.906 150.385 322.688 150.597 322.251 150.767C321.258 151.149 319.507 151.155 318.35 150.773C317.702 150.561 317.368 150.27 317.381 149.991C317.368 150.27 317.35 150.549 317.332 150.828C317.32 151.004 317.314 151.174 317.302 151.349C317.272 151.883 317.235 152.399 317.199 152.902C317.169 153.345 317.132 153.775 317.096 154.194C317.047 154.746 316.999 155.279 316.944 155.795C315.721 167.639 313.079 171.229 312.322 177.863C312.225 178.712 312.158 179.61 312.128 180.58C312.128 180.811 312.116 181.114 312.128 181.344C312.14 181.581 312.158 181.811 312.183 182.048C312.201 182.236 312.219 182.418 312.249 182.606C312.485 184.274 313.043 185.917 314.03 187.288Z" fill="#ED912E"/>
<path d="M317.205 152.896C317.356 153.102 317.671 153.296 318.144 153.454C319.398 153.878 321.282 153.878 322.348 153.46C322.621 153.351 322.815 153.229 322.93 153.096C322.924 152.574 322.918 152.041 322.918 151.489C322.815 151.64 322.609 151.78 322.306 151.901C321.27 152.308 319.446 152.301 318.235 151.895C317.768 151.737 317.459 151.543 317.314 151.343C317.271 151.877 317.241 152.392 317.205 152.896Z" fill="#349E44"/>
<path d="M316.944 155.794C317.108 156.013 317.441 156.225 317.944 156.395C319.277 156.844 321.282 156.85 322.421 156.401C322.694 156.298 322.887 156.17 323.015 156.043C322.99 155.509 322.972 154.958 322.96 154.387C322.839 154.515 322.645 154.636 322.378 154.745C321.276 155.176 319.337 155.176 318.041 154.739C317.58 154.582 317.265 154.394 317.102 154.199C317.047 154.745 316.999 155.273 316.944 155.794Z" fill="#FEED3F"/>
<path d="M312.182 182.042C312.637 182.436 313.333 182.806 314.273 183.121C317.55 184.225 322.475 184.231 325.268 183.133C325.62 182.994 325.916 182.848 326.165 182.691C326.177 182.624 326.189 182.557 326.201 182.49C326.268 182.048 326.31 181.453 326.334 181.005C326.365 180.095 326.353 179.246 326.31 178.439C326.026 178.664 325.638 178.876 325.159 179.064C322.451 180.125 317.683 180.119 314.503 179.052C313.479 178.706 312.746 178.294 312.316 177.857C312.219 178.706 312.152 179.604 312.122 180.574C312.122 180.805 312.11 181.108 312.122 181.338C312.14 181.575 312.158 181.805 312.182 182.042Z" fill="#ED3B89"/>
<path d="M306.555 141.149C306.664 141.403 306.785 141.658 306.906 141.907C306.906 141.913 306.906 141.913 306.912 141.919C307.391 142.895 307.948 143.829 308.584 144.709C309.881 146.51 311.498 148.068 313.437 149.233C316.841 151.282 320.87 151.737 324.657 150.567C329.328 149.124 332.841 145.23 334.81 140.87C336.767 136.54 337.24 131.47 336.204 126.861C335.143 122.143 332.496 117.418 328.407 114.871C326.165 113.458 323.639 112.627 320.985 112.603C315.939 112.548 311.48 115.447 308.578 119.438C306.894 121.754 305.743 124.532 305.179 127.334C304.61 130.178 304.604 132.98 304.979 135.848C305.276 137.656 305.803 139.457 306.555 141.149Z" fill="#F49C2E"/>
<path d="M332.284 145.072C332.478 144.818 332.738 144.484 332.926 144.223L333.55 143.271C333.804 142.822 334.15 142.228 334.386 141.773C334.035 142.465 333.265 143.126 332.054 143.708C332.447 144.278 332.538 144.557 332.284 145.072Z" fill="#ED3B89"/>
<path d="M327.922 147.153C329.533 146.013 330.563 145.206 332.041 143.708C331.781 143.829 331.502 143.951 331.205 144.066C329.564 144.703 327.516 145.139 325.305 145.364C326.831 146.364 327.255 146.649 327.922 147.153Z" fill="#ED3B89"/>
<path d="M306.445 140.924L306.554 141.179C306.694 141.47 306.809 141.713 306.906 141.907C306.906 141.913 306.906 141.913 306.912 141.919C307.39 142.895 307.948 143.829 308.584 144.709L311.237 144.102L308.154 142.598C307.663 142.362 307.215 142.034 306.869 141.61C306.748 141.458 306.639 141.306 306.554 141.155C306.512 141.07 306.475 140.997 306.445 140.924Z" fill="#ED3B89"/>
<path d="M334.816 139.535C334.743 139.845 334.78 140.008 334.907 139.93C335.18 139.742 335.707 138.31 335.525 138.25C335.489 138.238 335.434 138.292 335.398 138.329C335.149 138.62 334.901 139.184 334.816 139.535Z" fill="#46C3D5"/>
<path d="M328.94 141.931C328.903 142.507 329.661 142.592 330.266 142.082C330.842 141.597 330.866 140.942 330.309 140.876C330.182 140.857 330.085 140.882 329.976 140.9C329.291 141.1 328.958 141.622 328.94 141.931Z" fill="#46C3D5"/>
<path d="M321.046 147.868C322.615 147.031 323.596 146.467 325.286 145.37C322.663 145.636 319.804 145.618 317.084 145.315C318.628 146.376 319.337 146.843 321.046 147.868Z" fill="#ED3B89"/>
<path d="M317.078 145.309C316.023 145.891 314.963 146.467 313.915 147.055L311.243 144.096C312.988 144.672 314.987 145.072 317.078 145.309Z" fill="#ED3B89"/>
<path d="M320.337 142.592C320.422 143.301 321.779 143.495 322.3 142.877C322.639 142.477 322.415 141.834 321.427 141.791C320.664 141.816 320.294 142.222 320.337 142.592Z" fill="#46C3D5"/>
<path d="M311.716 141.379C311.91 142.18 313.231 142.647 313.552 142.028C313.752 141.646 313.352 141.003 312.564 140.785C311.886 140.651 311.625 140.991 311.716 141.379Z" fill="#46C3D5"/>
<path d="M304.676 132.264L304.688 131.415L304.713 130.827C304.622 132.464 306.53 134.15 310.316 135.4C317.035 137.607 327.14 137.595 332.877 135.363C335.446 134.369 336.706 133.095 336.712 131.797L336.7 132.385L336.658 133.235C335.985 138.092 321.191 140.039 310.28 136.716C306.591 135.491 304.688 133.859 304.676 132.264Z" fill="#FEED3F"/>
<path d="M314.909 113.974C315.212 113.834 315.624 113.664 315.926 113.531C316.429 113.337 316.496 113.319 317.308 113.076C317.689 112.973 317.726 112.967 318.392 112.827C318.701 112.767 318.725 112.767 319.301 112.688C319.574 112.658 319.58 112.658 320.101 112.615C320.349 112.603 320.349 112.603 320.846 112.591C321.088 112.591 321.088 112.591 321.573 112.609C321.821 112.621 321.821 112.621 322.318 112.67C322.585 112.7 322.584 112.7 323.112 112.779C323.414 112.827 323.414 112.827 324.008 112.961C324.372 113.052 324.372 113.052 325.081 113.264C325.977 113.567 326.528 113.834 327.165 114.143L327.601 114.38C329.485 115.423 329.358 116.775 327.055 117.673C324.281 118.752 319.398 118.758 316.151 117.691C313.073 116.678 312.57 115.059 314.909 113.974ZM324.572 115.259C326.147 114.647 325.929 113.658 324.087 113.052C322.239 112.445 319.471 112.451 317.889 113.064C316.314 113.676 316.532 114.665 318.374 115.271C320.222 115.878 322.996 115.872 324.572 115.259Z" fill="#ED3B89"/>
<path d="M307.439 121.087C307.73 120.535 308.184 119.844 308.517 119.323C306.603 122.306 306.482 124.526 306.894 127.134C308.202 126.564 308.753 126.369 312.322 125.114C312.322 125.108 312.322 125.108 312.328 125.102C314.024 127.588 315.829 129.214 318.374 131.191C323.729 128.365 325.826 126.206 326.958 125.041C329.497 126.321 332.175 127.285 334.737 128.504C335.955 124.411 334.356 121.591 333.586 120.238L333.659 120.353C333.956 120.857 334.319 121.548 334.592 122.064C336.325 125.854 335.555 128.401 335.046 130.081C332.526 128.753 329.83 127.813 327.274 126.557C324.541 129.317 321.33 131.203 318.271 132.828C314.939 130.336 313.394 128.656 311.861 126.612C308.426 127.831 307.778 128.086 306.5 128.68C305.561 124.938 306.778 122.434 307.439 121.087Z" fill="#349E44"/>
<path d="M220.182 33.9281C218.292 39.6166 219.885 45.2687 223.738 46.5484C227.591 47.828 232.244 44.256 234.128 38.5614C236.018 32.8729 234.425 27.2208 230.572 25.9412C226.725 24.6615 222.072 28.2335 220.182 33.9281Z" fill="#452800"/>
<path d="M229.245 40.2535C228.724 41.8242 229.572 43.5223 231.141 44.0438C232.71 44.5654 234.407 43.7163 234.928 42.1456C235.449 40.5749 234.6 38.8769 233.031 38.3553C231.462 37.8338 229.766 38.6828 229.245 40.2535Z" fill="#F7FFC4"/>
<path d="M231.801 30.0467C231.971 30.0467 235.921 29.1795 237.345 24.8252C237.345 24.8252 235.249 32.8122 232.54 33.2124C229.832 33.6066 236.709 32.6605 238.605 30.1256C238.605 30.1256 235.921 34.4738 233.231 35.0318C230.547 35.5836 237.26 35.1894 238.605 33.5278C238.605 33.5278 236.236 36.8269 234.734 35.9293L230.147 36.8572L231.801 30.0467Z" fill="#452800"/>
<path d="M176.12 24.789C174.23 30.4775 175.823 36.1296 179.676 37.4092C183.529 38.6888 188.182 35.1168 190.066 29.4222C191.956 23.7337 190.363 18.0816 186.51 16.802C182.663 15.5224 178.01 19.0944 176.12 24.789Z" fill="#452800"/>
<path d="M185.183 31.1143C184.662 32.6851 185.51 34.3831 187.079 34.9047C188.649 35.4262 190.345 34.5772 190.866 33.0065C191.387 31.4358 190.539 29.7377 188.97 29.2162C187.401 28.6946 185.704 29.5436 185.183 31.1143Z" fill="#F7FFC4"/>
<path d="M179.331 19.2337C179.161 19.2337 175.211 18.3665 173.788 14.0122C173.788 14.0122 175.884 21.9992 178.592 22.3994C181.3 22.7936 174.424 21.8476 172.527 19.3126C172.527 19.3126 175.211 23.6608 177.901 24.2188C180.585 24.7706 173.872 24.3765 172.527 22.7148C172.527 22.7148 174.896 26.0139 176.399 25.1163L180.985 26.0442L179.331 19.2337Z" fill="#452800"/>
</svg>
