<svg width="236" height="102" viewBox="0 0 236 102" fill="none" xmlns="http://www.w3.org/2000/svg">
<g opacity="0.7">
<path d="M24.1702 100.824C44.3603 101.261 64.5533 101.649 84.7494 101.859C97.0517 101.989 109.354 102.049 121.653 101.953C129.898 101.886 138.14 101.736 146.385 101.555C154.496 101.378 162.605 101.2 170.72 101.107C182.523 100.972 194.326 100.978 206.129 101.059C208.029 101.071 209.932 101.086 211.832 101.101C217.115 101.146 222.174 96.4437 221.932 91.0431C221.684 85.5552 217.496 81.0331 211.832 80.985C199.306 80.8797 186.777 80.8375 174.251 80.9549C165.891 81.0331 157.534 81.1926 149.177 81.3761C141.162 81.5536 133.147 81.7221 125.133 81.8033C113.538 81.9237 101.941 81.8936 90.3438 81.7943C71.3308 81.6318 52.3207 81.2919 33.3137 80.9007C30.2669 80.8375 27.217 80.7744 24.1702 80.7082C18.8844 80.5938 13.8316 85.4168 14.0707 90.7662C14.3218 96.3113 18.5062 100.701 24.1702 100.824Z" fill="#53416B"/>
<path d="M25.1172 85.1881H27.9825L28.993 94.9122L30.0883 85.1881H32.8689V96.922H31.0989V87.1979L29.937 96.922H28.049L26.8872 87.1979V96.922H25.1172V85.1881Z" fill="#16102B"/>
<path d="M35.3257 96.6124C34.9263 96.2393 34.6419 95.6978 34.4755 94.9877C34.306 94.2777 34.2213 93.3931 34.2213 92.331C34.2213 91.2359 34.303 90.3363 34.4664 89.6322C34.6298 88.9282 34.9112 88.3896 35.3105 88.0136C35.7099 87.6405 36.2636 87.4509 36.9716 87.4509C37.6342 87.4509 38.1577 87.6465 38.5389 88.0376C38.9201 88.4287 39.1864 89.0004 39.3407 89.7556C39.492 90.5108 39.5676 91.4736 39.5676 92.6469H35.9611V91.3051H37.7492C37.725 90.8026 37.6857 90.3814 37.6221 90.0384C37.5586 89.6984 37.4678 89.4337 37.3438 89.2411C37.2197 89.0515 37.0624 88.9553 36.8718 88.9553C36.6691 88.9553 36.5026 89.0515 36.3756 89.2411C36.2455 89.4306 36.1486 89.6984 36.0791 90.0444C36.0125 90.3904 35.9732 90.8086 35.9611 91.3021V92.6439C35.9822 93.2938 36.0276 93.8264 36.0972 94.2446C36.1638 94.6628 36.2666 94.9907 36.3998 95.2254C36.5359 95.4601 36.7144 95.5774 36.9383 95.5774C37.2076 95.5774 37.4103 95.421 37.5465 95.1081C37.6826 94.7952 37.7643 94.3378 37.8006 93.7331L39.6553 93.9497C39.5767 94.5635 39.4375 95.1081 39.2408 95.5834C39.0442 96.0588 38.7567 96.4409 38.3816 96.7328C38.0034 97.0246 37.5193 97.169 36.9232 97.169C36.2545 97.175 35.7251 96.9885 35.3257 96.6124Z" fill="#16102B"/>
<path d="M46.8987 89.8156C46.8533 89.5357 46.7898 89.3372 46.7051 89.2198C46.6204 89.1025 46.5114 89.0453 46.3753 89.0453C46.2391 89.0453 46.1211 89.1025 46.0213 89.2198C45.9215 89.3372 45.8428 89.5388 45.7853 89.8246C45.7278 90.1104 45.7006 90.4925 45.7006 90.9739V96.9251H43.9306V90.9739C43.9306 90.4835 43.9094 90.0954 43.864 89.8186C43.8186 89.5388 43.7551 89.3402 43.6704 89.2228C43.5857 89.1055 43.4767 89.0483 43.3406 89.0483C43.2044 89.0483 43.0895 89.1055 42.9866 89.2228C42.8867 89.3402 42.8081 89.5418 42.7506 89.8276C42.6931 90.1134 42.6659 90.4955 42.6659 90.9769V96.9281H40.8959V87.7035H42.5811V88.5429C42.7173 88.1638 42.8988 87.887 43.1288 87.7125C43.3587 87.538 43.6764 87.4537 44.0819 87.4537C44.4419 87.4537 44.7384 87.55 44.9744 87.7396C45.2104 87.9291 45.3859 88.227 45.4979 88.6271C45.6098 88.3353 45.7429 88.1066 45.8942 87.9411C46.0455 87.7727 46.221 87.6493 46.4177 87.5711C46.6143 87.4928 46.8473 87.4537 47.1166 87.4537C47.4887 87.4537 47.7913 87.553 48.0273 87.7546C48.2633 87.9562 48.4418 88.2751 48.5568 88.7114C48.6748 89.1476 48.7323 89.7073 48.7323 90.3872V96.9251H46.9623V90.9739C46.9653 90.4805 46.9441 90.0954 46.8987 89.8156Z" fill="#16102B"/>
<path d="M51.1709 96.6122C50.7715 96.2391 50.4901 95.6976 50.3267 94.9935C50.1634 94.2895 50.0817 93.3959 50.0817 92.3098C50.0817 91.2266 50.1634 90.3301 50.3267 89.626C50.4901 88.922 50.7715 88.3834 51.1709 88.0073C51.5703 87.6343 52.1058 87.4447 52.7805 87.4447C53.4552 87.4447 53.9908 87.6312 54.3902 88.0073C54.7895 88.3834 55.0709 88.922 55.2343 89.626C55.3977 90.3301 55.4794 91.2236 55.4794 92.3098C55.4794 93.3929 55.3977 94.2895 55.2343 94.9935C55.0709 95.6976 54.7895 96.2361 54.3902 96.6122C53.9908 96.9853 53.4552 97.1748 52.7805 97.1748C52.1058 97.1748 51.5703 96.9883 51.1709 96.6122ZM53.3372 95.2312C53.4613 94.9965 53.54 94.6566 53.5732 94.2083C53.6065 93.76 53.6247 93.1311 53.6247 92.3128C53.6247 91.4974 53.6065 90.8656 53.5732 90.4173C53.54 89.969 53.4613 89.629 53.3372 89.3943C53.2132 89.1597 53.0286 89.0423 52.7805 89.0423C52.5324 89.0423 52.3479 89.1597 52.2238 89.3943C52.0998 89.629 52.0211 89.969 51.9878 90.4173C51.9545 90.8656 51.9364 91.4974 51.9364 92.3128C51.9364 93.1281 51.9545 93.76 51.9878 94.2083C52.0211 94.6566 52.0998 94.9965 52.2238 95.2312C52.3479 95.4659 52.5324 95.5832 52.7805 95.5832C53.0286 95.5832 53.2162 95.4659 53.3372 95.2312ZM52.9681 84.0328H54.72L53.1194 86.867H52.0756L52.9681 84.0328Z" fill="#16102B"/>
<path d="M56.8289 87.7037H58.4993V88.6755C58.6355 88.2512 58.7899 87.9413 58.9714 87.7458C59.15 87.5502 59.386 87.4509 59.6796 87.4509C59.8369 87.4509 59.9671 87.472 60.0669 87.5111C60.1668 87.5502 60.2697 87.6134 60.3696 87.7037L60.2515 89.6142C60.1396 89.5029 60.0276 89.4216 59.9156 89.3705C59.8037 89.3193 59.6735 89.2953 59.5283 89.2953C59.3255 89.2953 59.156 89.3584 59.0229 89.4788C58.8867 89.6021 58.7838 89.8218 58.7112 90.1407C58.6385 90.4596 58.6022 90.9049 58.6022 91.4736V96.9223H56.8319V87.7037H56.8289Z" fill="#16102B"/>
<path d="M61.213 84.5507H63.1346V86.5304H61.213V84.5507ZM61.2947 87.7038H63.065V96.9254H61.2947V87.7038Z" fill="#16102B"/>
<path d="M64.877 96.4467C64.5109 95.9593 64.3294 95.2643 64.3294 94.3587C64.3294 93.2846 64.5836 92.4963 65.0888 91.9878C65.5941 91.4794 66.2416 91.2236 67.0283 91.2236H68.0721V92.5655H67.1614C66.8135 92.5655 66.5502 92.7069 66.3687 92.9927C66.1902 93.2786 66.0994 93.6998 66.0994 94.2594C66.0994 94.7408 66.1569 95.0808 66.2749 95.2824C66.3929 95.4839 66.5654 95.5832 66.7892 95.5832C66.9254 95.5832 67.0525 95.5321 67.1765 95.4328C67.3006 95.3335 67.4035 95.156 67.4882 94.9033C67.5729 94.6535 67.6152 94.3075 67.6152 93.8713L67.9027 96.0165C67.8028 96.2843 67.6697 96.5069 67.5063 96.6784C67.3429 96.8529 67.1614 96.9763 66.9587 97.0545C66.756 97.1327 66.5411 97.1718 66.3172 97.1718C65.7242 97.1748 65.2431 96.9311 64.877 96.4467ZM68.3414 96.9161C68.1175 96.7416 67.9692 96.4437 67.9027 96.0195L67.6152 93.8743V90.5888C67.6152 90.0863 67.5336 89.7042 67.3702 89.4395C67.2068 89.1777 66.9345 89.0453 66.5532 89.0453C66.2598 89.0453 65.9905 89.1115 65.7454 89.2469C65.4973 89.3823 65.2552 89.5929 65.0193 89.8848L64.4293 88.2932C64.8014 88.0133 65.1947 87.8027 65.6092 87.6643C66.0238 87.5259 66.4685 87.4537 66.9405 87.4537C67.7272 87.4537 68.3323 87.7035 68.7529 88.1999C69.1734 88.6963 69.3852 89.4395 69.3852 90.4203V95.1981C69.3852 95.3425 69.4094 95.4448 69.4609 95.499C69.5123 95.5562 69.5819 95.5832 69.6727 95.5832C69.7302 95.5832 69.7876 95.5682 69.8482 95.5411C69.9087 95.514 69.9692 95.4779 70.0236 95.4328L70.0751 95.3997L70.2596 96.9251L70.1235 96.9913C69.8209 97.1147 69.5093 97.1748 69.1946 97.1748C68.8527 97.1748 68.5683 97.0876 68.3414 96.9161Z" fill="#16102B"/>
<path d="M71.3852 96.4197C70.886 95.9172 70.5955 95.1349 70.5168 94.0729L72.3716 93.8562C72.4169 94.4249 72.5319 94.8581 72.7165 95.147C72.901 95.4358 73.134 95.5832 73.4154 95.5832C73.6393 95.5832 73.8178 95.514 73.9449 95.3726C74.075 95.2342 74.1385 95.0417 74.1385 94.795C74.1385 94.5482 74.081 94.3316 73.963 94.1421C73.845 93.9525 73.7028 93.7901 73.5334 93.6547C73.364 93.5193 73.1219 93.3478 72.8073 93.1342C72.3806 92.8664 72.0266 92.6076 71.7453 92.3639C71.4639 92.1172 71.2248 91.7923 71.0282 91.3831C70.8315 90.9739 70.7347 90.4745 70.7347 89.8817C70.7347 89.4004 70.8376 88.9761 71.0463 88.6091C71.2551 88.242 71.5456 87.9562 71.9238 87.7546C72.2989 87.553 72.7346 87.4537 73.2308 87.4537C73.9842 87.4537 74.5712 87.6974 74.9918 88.1818C75.4123 88.6692 75.6513 89.4485 75.7088 90.5196L73.9388 90.655C73.9146 90.1405 73.839 89.7434 73.7119 89.4635C73.5818 89.1837 73.4063 89.0453 73.1824 89.0453C72.9797 89.0453 72.8163 89.1236 72.6923 89.28C72.5682 89.4365 72.5077 89.6501 72.5077 89.9179C72.5077 90.2097 72.5713 90.4624 72.7014 90.6821C72.8315 90.8987 72.9918 91.0852 73.1824 91.2357C73.373 91.3861 73.6363 91.5726 73.9751 91.7983C74.3897 92.0661 74.7285 92.3098 74.9857 92.5264C75.2429 92.743 75.4638 93.0319 75.6423 93.3899C75.8208 93.7479 75.9115 94.1842 75.9115 94.6987C75.9115 95.4478 75.6846 96.0496 75.2278 96.5009C74.7739 96.9522 74.1446 97.1809 73.3488 97.1809C72.541 97.1748 71.8844 96.9221 71.3852 96.4197Z" fill="#16102B"/>
<path d="M80.9704 96.6304C80.6678 96.2664 80.4439 95.7278 80.3048 95.0117C80.1656 94.2957 80.093 93.3961 80.093 92.3129C80.093 91.2057 80.1625 90.2941 80.3048 89.581C80.4439 88.865 80.6678 88.3324 80.9704 87.9804C81.273 87.6284 81.6663 87.4539 82.1504 87.4539C82.3743 87.4539 82.5861 87.493 82.7827 87.5712C82.9794 87.6495 83.1519 87.7698 83.2971 87.9323C83.4423 88.0947 83.5543 88.2993 83.633 88.543V84.8544H85.4029V96.9253H83.7177V96.0858C83.6178 96.3446 83.4877 96.5522 83.3304 96.7147C83.1731 96.8771 82.9945 96.9945 82.8009 97.0667C82.6042 97.1389 82.3864 97.175 82.1504 97.175C81.6663 97.175 81.273 96.9945 80.9704 96.6304ZM83.5755 90.4265C83.5361 89.9752 83.4544 89.6292 83.3304 89.3945C83.2063 89.1598 83.0218 89.0425 82.7737 89.0425C82.5256 89.0425 82.344 89.1598 82.226 89.3945C82.108 89.6292 82.0324 89.9631 81.9991 90.3994C81.9658 90.8357 81.9477 91.4735 81.9477 92.3099C81.9477 93.1463 81.9658 93.7842 81.9991 94.2205C82.0324 94.6567 82.108 94.9907 82.226 95.2254C82.344 95.46 82.5256 95.5774 82.7737 95.5774C83.0218 95.5774 83.2063 95.46 83.3304 95.2254C83.4544 94.9907 83.5361 94.6477 83.5755 94.1934C83.6148 93.7391 83.636 93.1132 83.636 92.3069C83.636 91.5006 83.6148 90.8808 83.5755 90.4265Z" fill="#16102B"/>
<path d="M87.8415 96.6124C87.4422 96.2394 87.1608 95.6978 86.9974 94.9938C86.834 94.2897 86.7523 93.3961 86.7523 92.31C86.7523 91.2269 86.834 90.3303 86.9974 89.6263C87.1608 88.9222 87.4422 88.3837 87.8415 88.0076C88.2409 87.6345 88.7765 87.4449 89.4512 87.4449C90.1259 87.4449 90.6614 87.6315 91.0608 88.0076C91.4602 88.3837 91.7416 88.9222 91.905 89.6263C92.0684 90.3303 92.15 91.2239 92.15 92.31C92.15 93.3931 92.0684 94.2897 91.905 94.9938C91.7416 95.6978 91.4602 96.2364 91.0608 96.6124C90.6614 96.9855 90.1259 97.1751 89.4512 97.1751C88.7765 97.1751 88.2379 96.9885 87.8415 96.6124ZM90.0079 95.2315C90.132 94.9968 90.2106 94.6568 90.2439 94.2085C90.2772 93.7602 90.2953 93.1314 90.2953 92.313C90.2953 91.4977 90.2772 90.8658 90.2439 90.4175C90.2106 89.9692 90.132 89.6293 90.0079 89.3946C89.8839 89.1599 89.6993 89.0426 89.4512 89.0426C89.2031 89.0426 89.0185 89.1599 88.8945 89.3946C88.7704 89.6293 88.6917 89.9692 88.6585 90.4175C88.6252 90.8658 88.607 91.4977 88.607 92.313C88.607 93.1284 88.6252 93.7602 88.6585 94.2085C88.6917 94.6568 88.7704 94.9968 88.8945 95.2315C89.0185 95.4661 89.2031 95.5835 89.4512 95.5835C89.6963 95.5835 89.8839 95.4661 90.0079 95.2315Z" fill="#16102B"/>
<path d="M97.8867 96.5645C97.4087 96.1553 97.0637 95.5084 96.8489 94.6209C96.6341 93.7333 96.5282 92.5449 96.5282 91.0586C96.5282 89.5723 96.6341 88.3838 96.8489 87.4963C97.0637 86.6087 97.4087 85.9588 97.8867 85.5527C98.3648 85.1435 99.0032 84.9419 99.7989 84.9419C100.564 84.9419 101.166 85.1375 101.611 85.5286C102.056 85.9197 102.377 86.4673 102.573 87.1713C102.77 87.8754 102.891 88.7599 102.936 89.819L101.133 89.9694C101.076 89.1872 101.012 88.5734 100.94 88.1251C100.867 87.6768 100.74 87.3158 100.561 87.0359C100.383 86.7561 100.117 86.6177 99.7686 86.6177C99.3965 86.6177 99.1181 86.7892 98.9336 87.1292C98.749 87.4692 98.625 87.9506 98.5614 88.5704C98.5009 89.1902 98.4676 90.0206 98.4676 91.0616C98.4676 92.0996 98.4979 92.93 98.5614 93.5498C98.625 94.1696 98.746 94.651 98.9336 94.9909C99.1181 95.3309 99.3965 95.5024 99.7686 95.5024C100.117 95.5024 100.389 95.349 100.586 95.0421C100.782 94.7352 100.921 94.3351 101.006 93.8446C101.091 93.3542 101.16 92.7314 101.218 91.9853L103.021 92.2199C102.976 93.2579 102.846 94.1455 102.634 94.8766C102.419 95.6077 102.083 96.1764 101.623 96.5795C101.163 96.9827 100.555 97.1843 99.8019 97.1843C99.0032 97.1753 98.3648 96.9707 97.8867 96.5645Z" fill="#16102B"/>
<path d="M104.395 96.4467C104.029 95.9593 103.847 95.2643 103.847 94.3587C103.847 93.2846 104.101 92.4963 104.607 91.9878C105.112 91.4794 105.759 91.2236 106.546 91.2236H107.59V92.5655H106.679C106.331 92.5655 106.068 92.7069 105.886 92.9927C105.708 93.2786 105.617 93.6998 105.617 94.2594C105.617 94.7408 105.675 95.0808 105.793 95.2824C105.911 95.4839 106.083 95.5832 106.307 95.5832C106.443 95.5832 106.57 95.5321 106.694 95.4328C106.818 95.3335 106.921 95.156 107.006 94.9033C107.091 94.6535 107.133 94.3075 107.133 93.8713L107.42 96.0165C107.321 96.2843 107.187 96.5069 107.024 96.6784C106.861 96.8529 106.679 96.9763 106.476 97.0545C106.274 97.1327 106.059 97.1718 105.835 97.1718C105.242 97.1748 104.761 96.9311 104.395 96.4467ZM107.859 96.9161C107.635 96.7416 107.487 96.4437 107.42 96.0195L107.133 93.8743V90.5888C107.133 90.0863 107.051 89.7042 106.888 89.4395C106.725 89.1777 106.452 89.0453 106.071 89.0453C105.778 89.0453 105.508 89.1115 105.263 89.2469C105.015 89.3823 104.773 89.5929 104.537 89.8848L103.947 88.2932C104.319 88.0133 104.713 87.8027 105.127 87.6643C105.542 87.5259 105.986 87.4537 106.458 87.4537C107.245 87.4537 107.85 87.7035 108.271 88.1999C108.691 88.6963 108.903 89.4395 108.903 90.4203V95.1981C108.903 95.3425 108.927 95.4448 108.979 95.499C109.03 95.5562 109.1 95.5832 109.19 95.5832C109.248 95.5832 109.305 95.5682 109.366 95.5411C109.426 95.514 109.487 95.4779 109.541 95.4328L109.593 95.3997L109.777 96.9251L109.641 96.9913C109.339 97.1147 109.027 97.1748 108.712 97.1748C108.37 97.1748 108.086 97.0876 107.859 96.9161Z" fill="#16102B"/>
<path d="M110.625 87.7037H112.295V88.6755C112.431 88.2512 112.586 87.9413 112.767 87.7458C112.946 87.5502 113.182 87.4509 113.475 87.4509C113.633 87.4509 113.763 87.472 113.863 87.5111C113.963 87.5502 114.065 87.6134 114.165 87.7037L114.047 89.6142C113.935 89.5029 113.823 89.4216 113.711 89.3705C113.599 89.3193 113.469 89.2953 113.324 89.2953C113.121 89.2953 112.952 89.3584 112.819 89.4788C112.682 89.6021 112.58 89.8218 112.507 90.1407C112.434 90.4596 112.398 90.9049 112.398 91.4736V96.9223H110.628V87.7037H110.625Z" fill="#16102B"/>
<path d="M115.093 87.7035H116.779V88.5429C116.936 88.1638 117.145 87.887 117.402 87.7125C117.659 87.538 117.986 87.4537 118.379 87.4537C118.963 87.4537 119.405 87.6914 119.702 88.1668C119.998 88.6422 120.149 89.3823 120.149 90.3872V96.9251H118.379V90.9739C118.379 90.4835 118.352 90.0954 118.295 89.8186C118.237 89.5388 118.158 89.3402 118.059 89.2228C117.959 89.1055 117.823 89.0483 117.653 89.0483C117.484 89.0483 117.342 89.1055 117.224 89.2228C117.106 89.3402 117.015 89.5388 116.954 89.8186C116.891 90.0984 116.86 90.4835 116.86 90.9739V96.9251H115.09V87.7035H115.093Z" fill="#16102B"/>
<path d="M121.962 96.4467C121.596 95.9593 121.414 95.2643 121.414 94.3587C121.414 93.2846 121.668 92.4963 122.173 91.9878C122.679 91.4794 123.326 91.2236 124.113 91.2236H125.157V92.5655H124.246C123.898 92.5655 123.635 92.7069 123.453 92.9927C123.275 93.2786 123.184 93.6998 123.184 94.2594C123.184 94.7408 123.241 95.0808 123.359 95.2824C123.477 95.4839 123.65 95.5832 123.874 95.5832C124.01 95.5832 124.137 95.5321 124.261 95.4328C124.385 95.3335 124.488 95.156 124.573 94.9033C124.657 94.6535 124.7 94.3075 124.7 93.8713L124.987 96.0165C124.887 96.2843 124.754 96.5069 124.591 96.6784C124.428 96.8529 124.246 96.9763 124.043 97.0545C123.841 97.1327 123.626 97.1718 123.402 97.1718C122.809 97.1748 122.328 96.9311 121.962 96.4467ZM125.426 96.9161C125.202 96.7416 125.054 96.4437 124.987 96.0195L124.7 93.8743V90.5888C124.7 90.0863 124.618 89.7042 124.455 89.4395C124.291 89.1777 124.019 89.0453 123.638 89.0453C123.344 89.0453 123.075 89.1115 122.83 89.2469C122.582 89.3823 122.34 89.5929 122.104 89.8848L121.514 88.2932C121.886 88.0133 122.279 87.8027 122.694 87.6643C123.108 87.5259 123.553 87.4537 124.025 87.4537C124.812 87.4537 125.417 87.7035 125.837 88.1999C126.258 88.6963 126.47 89.4395 126.47 90.4203V95.1981C126.47 95.3425 126.494 95.4448 126.545 95.499C126.597 95.5562 126.667 95.5832 126.757 95.5832C126.815 95.5832 126.872 95.5682 126.933 95.5411C126.993 95.514 127.054 95.4779 127.108 95.4328L127.16 95.3997L127.344 96.9251L127.208 96.9913C126.906 97.1147 126.594 97.1748 126.279 97.1748C125.937 97.1748 125.653 97.0876 125.426 96.9161Z" fill="#16102B"/>
<path d="M127.601 87.7034H129.423L130.231 95.4147L131.057 87.7034H132.827L131.359 96.925H129.033L127.601 87.7034Z" fill="#16102B"/>
<path d="M134.049 96.4469C133.683 95.9595 133.501 95.2645 133.501 94.3589C133.501 93.2848 133.756 92.4965 134.261 91.988C134.766 91.4796 135.414 91.2238 136.2 91.2238H137.244V92.5657H136.333C135.986 92.5657 135.722 92.7071 135.541 92.9929C135.362 93.2788 135.271 93.7 135.271 94.2596C135.271 94.741 135.329 95.081 135.447 95.2826C135.565 95.4842 135.737 95.5834 135.961 95.5834C136.097 95.5834 136.225 95.5323 136.349 95.433C136.473 95.3337 136.576 95.1562 136.66 94.9035C136.745 94.6537 136.787 94.3078 136.787 93.8715L137.075 96.0167C136.975 96.2845 136.842 96.5071 136.678 96.6786C136.515 96.8531 136.333 96.9765 136.131 97.0547C135.928 97.1329 135.713 97.172 135.489 97.172C134.896 97.175 134.415 96.9313 134.049 96.4469ZM137.516 96.9163C137.293 96.7418 137.144 96.4439 137.078 96.0197L136.79 93.8715V90.586C136.79 90.0835 136.709 89.7014 136.545 89.4367C136.382 89.1749 136.11 89.0425 135.728 89.0425C135.435 89.0425 135.166 89.1087 134.92 89.2441C134.672 89.3795 134.43 89.5901 134.194 89.882L133.604 88.2904C133.976 88.0105 134.37 87.7999 134.784 87.6615C135.199 87.5231 135.644 87.4509 136.116 87.4509C136.902 87.4509 137.507 87.7007 137.928 88.1971C138.349 88.6935 138.56 89.4367 138.56 90.4175V95.1953C138.56 95.3397 138.585 95.442 138.636 95.4962C138.687 95.5534 138.757 95.5804 138.848 95.5804C138.905 95.5804 138.963 95.5654 139.023 95.5383C139.084 95.5112 139.144 95.4751 139.199 95.43L139.25 95.3969L139.435 96.9223L139.299 96.9885C138.996 97.1119 138.684 97.172 138.37 97.172C138.028 97.175 137.74 97.0878 137.516 96.9163Z" fill="#16102B"/>
<path d="M140.279 84.8544H142.049V96.9253H140.279V84.8544Z" fill="#16102B"/>
<path d="M148.127 96.5645C147.649 96.1553 147.304 95.5084 147.09 94.6209C146.875 93.7333 146.769 92.5449 146.769 91.0586C146.769 89.5723 146.875 88.3838 147.09 87.4963C147.304 86.6087 147.649 85.9588 148.127 85.5527C148.605 85.1435 149.244 84.9419 150.04 84.9419C150.805 84.9419 151.407 85.1375 151.852 85.5286C152.297 85.9197 152.617 86.4673 152.814 87.1713C153.011 87.8754 153.132 88.7599 153.177 89.819L151.374 89.9694C151.316 89.1872 151.253 88.5734 151.18 88.1251C151.108 87.6768 150.98 87.3158 150.802 87.0359C150.623 86.7561 150.357 86.6177 150.009 86.6177C149.637 86.6177 149.359 86.7892 149.174 87.1292C148.99 87.4692 148.866 87.9506 148.802 88.5704C148.742 89.1902 148.708 90.0206 148.708 91.0616C148.708 92.0996 148.738 92.93 148.802 93.5498C148.866 94.1696 148.987 94.651 149.174 94.9909C149.359 95.3309 149.637 95.5024 150.009 95.5024C150.357 95.5024 150.63 95.349 150.826 95.0421C151.023 94.7352 151.162 94.3351 151.247 93.8446C151.331 93.3542 151.401 92.7314 151.459 91.9853L153.262 92.2199C153.216 93.2579 153.086 94.1455 152.875 94.8766C152.66 95.6077 152.324 96.1764 151.864 96.5795C151.404 96.9827 150.796 97.1843 150.043 97.1843C149.244 97.1753 148.605 96.9707 148.127 96.5645Z" fill="#16102B"/>
<path d="M154.635 96.4467C154.269 95.9593 154.088 95.2643 154.088 94.3587C154.088 93.2846 154.342 92.4963 154.847 91.9878C155.352 91.4794 156 91.2236 156.787 91.2236H157.83V92.5655H156.92C156.572 92.5655 156.309 92.7069 156.127 92.9927C155.949 93.2786 155.858 93.6998 155.858 94.2594C155.858 94.7408 155.915 95.0808 156.033 95.2824C156.151 95.4839 156.324 95.5832 156.548 95.5832C156.684 95.5832 156.811 95.5321 156.935 95.4328C157.059 95.3335 157.162 95.156 157.247 94.9033C157.331 94.6535 157.374 94.3075 157.374 93.8713L157.661 96.0165C157.561 96.2843 157.428 96.5069 157.265 96.6784C157.101 96.8529 156.92 96.9763 156.717 97.0545C156.514 97.1327 156.3 97.1718 156.076 97.1718C155.48 97.1748 155.002 96.9311 154.635 96.4467ZM158.1 96.9161C157.876 96.7416 157.728 96.4437 157.661 96.0195L157.374 93.8743V90.5888C157.374 90.0863 157.292 89.7042 157.129 89.4395C156.965 89.1777 156.693 89.0453 156.312 89.0453C156.018 89.0453 155.749 89.1115 155.504 89.2469C155.256 89.3823 155.014 89.5929 154.778 89.8848L154.188 88.2932C154.56 88.0133 154.953 87.8027 155.368 87.6643C155.782 87.5259 156.227 87.4537 156.699 87.4537C157.486 87.4537 158.091 87.7035 158.511 88.1999C158.932 88.6963 159.144 89.4395 159.144 90.4203V95.1981C159.144 95.3425 159.168 95.4448 159.219 95.499C159.271 95.5562 159.34 95.5832 159.431 95.5832C159.489 95.5832 159.546 95.5682 159.607 95.5411C159.667 95.514 159.728 95.4779 159.782 95.4328L159.833 95.3997L160.018 96.9251L159.882 96.9913C159.579 97.1147 159.268 97.1748 158.953 97.1748C158.611 97.1748 158.324 97.0876 158.1 96.9161Z" fill="#16102B"/>
<path d="M166.865 89.8156C166.82 89.5357 166.756 89.3372 166.671 89.2198C166.587 89.1025 166.478 89.0453 166.342 89.0453C166.205 89.0453 166.087 89.1025 165.988 89.2198C165.888 89.3372 165.809 89.5388 165.752 89.8246C165.694 90.1104 165.667 90.4925 165.667 90.9739V96.9251H163.897V90.9739C163.897 90.4835 163.876 90.0954 163.83 89.8186C163.785 89.5388 163.721 89.3402 163.637 89.2228C163.552 89.1055 163.443 89.0483 163.307 89.0483C163.171 89.0483 163.056 89.1055 162.953 89.2228C162.853 89.3402 162.774 89.5418 162.717 89.8276C162.659 90.1134 162.632 90.4955 162.632 90.9769V96.9281H160.862V87.7035H162.547V88.5429C162.684 88.1638 162.865 87.887 163.095 87.7125C163.325 87.538 163.643 87.4537 164.048 87.4537C164.408 87.4537 164.705 87.55 164.941 87.7396C165.177 87.9291 165.352 88.227 165.464 88.6271C165.576 88.3353 165.709 88.1066 165.861 87.9411C166.012 87.7727 166.187 87.6493 166.384 87.5711C166.581 87.4928 166.814 87.4537 167.083 87.4537C167.455 87.4537 167.758 87.553 167.994 87.7546C168.23 87.9562 168.408 88.2751 168.523 88.7114C168.641 89.1476 168.699 89.7073 168.699 90.3872V96.9251H166.929V90.9739C166.935 90.4805 166.91 90.0954 166.865 89.8156Z" fill="#16102B"/>
<path d="M173.01 97.0575C172.813 96.9793 172.641 96.8589 172.496 96.6965C172.35 96.534 172.239 96.3294 172.16 96.0857V99.7743H170.39V87.7035H172.075V88.5429C172.175 88.2871 172.305 88.0765 172.462 87.9141C172.62 87.7516 172.795 87.6343 172.992 87.562C173.189 87.4898 173.406 87.4537 173.642 87.4537C174.127 87.4537 174.52 87.6343 174.822 87.9983C175.125 88.3624 175.349 88.9009 175.488 89.617C175.627 90.3331 175.7 91.2327 175.7 92.3158C175.7 93.423 175.63 94.3346 175.488 95.0477C175.349 95.7638 175.125 96.2963 174.822 96.6483C174.52 97.0003 174.127 97.1748 173.642 97.1748C173.419 97.1748 173.207 97.1357 173.01 97.0575ZM172.22 94.1992C172.26 94.6505 172.341 94.9965 172.465 95.2312C172.59 95.4659 172.774 95.5832 173.022 95.5832C173.27 95.5832 173.452 95.4659 173.57 95.2312C173.688 94.9965 173.763 94.6626 173.797 94.2263C173.83 93.79 173.848 93.1522 173.848 92.3158C173.848 91.4794 173.83 90.8415 173.797 90.4053C173.763 89.969 173.688 89.635 173.57 89.4004C173.452 89.1657 173.27 89.0483 173.022 89.0483C172.774 89.0483 172.59 89.1657 172.465 89.4004C172.341 89.635 172.26 89.978 172.22 90.4323C172.181 90.8836 172.16 91.5125 172.16 92.3188C172.16 93.1251 172.178 93.7479 172.22 94.1992Z" fill="#16102B"/>
<path d="M176.965 84.5507H178.886V86.5304H176.965V84.5507ZM177.049 87.7038H178.82V96.9254H177.049V87.7038Z" fill="#16102B"/>
<path d="M180.505 87.7035H182.19V88.5429C182.347 88.1638 182.556 87.887 182.813 87.7125C183.07 87.538 183.397 87.4537 183.79 87.4537C184.374 87.4537 184.816 87.6914 185.113 88.1668C185.409 88.6422 185.56 89.3823 185.56 90.3872V96.9251H183.79V90.9739C183.79 90.4835 183.763 90.0954 183.706 89.8186C183.648 89.5388 183.57 89.3402 183.47 89.2228C183.37 89.1055 183.234 89.0483 183.064 89.0483C182.895 89.0483 182.753 89.1055 182.635 89.2228C182.517 89.3402 182.426 89.5388 182.365 89.8186C182.302 90.0984 182.272 90.4835 182.272 90.9739V96.9251H180.502V87.7035H180.505Z" fill="#16102B"/>
<path d="M188.014 96.6124C187.615 96.2393 187.33 95.6978 187.164 94.9877C186.995 94.2777 186.91 93.3931 186.91 92.331C186.91 91.2359 186.992 90.3363 187.155 89.6322C187.318 88.9282 187.6 88.3896 187.999 88.0136C188.398 87.6405 188.952 87.4509 189.66 87.4509C190.323 87.4509 190.846 87.6465 191.227 88.0376C191.609 88.4287 191.875 89.0004 192.029 89.7556C192.18 90.5108 192.256 91.4736 192.256 92.6469H188.65V91.3051H190.438C190.414 90.8026 190.374 90.3814 190.311 90.0384C190.247 89.6984 190.156 89.4337 190.032 89.2411C189.908 89.0515 189.751 88.9553 189.56 88.9553C189.358 88.9553 189.191 89.0515 189.064 89.2411C188.934 89.4306 188.837 89.6984 188.768 90.0444C188.701 90.3904 188.662 90.8086 188.65 91.3021V92.6439C188.671 93.2938 188.716 93.8264 188.786 94.2446C188.852 94.6628 188.955 94.9907 189.088 95.2254C189.224 95.4601 189.403 95.5774 189.627 95.5774C189.896 95.5774 190.099 95.421 190.235 95.1081C190.371 94.7952 190.453 94.3378 190.489 93.7331L192.344 93.9497C192.265 94.5635 192.126 95.1081 191.929 95.5834C191.733 96.0588 191.445 96.4409 191.07 96.7328C190.692 97.0246 190.208 97.169 189.612 97.169C188.946 97.175 188.414 96.9885 188.014 96.6124Z" fill="#16102B"/>
<path d="M193.587 87.7035H195.273V88.5429C195.43 88.1638 195.639 87.887 195.896 87.7125C196.153 87.538 196.48 87.4537 196.873 87.4537C197.457 87.4537 197.899 87.6914 198.195 88.1668C198.492 88.6422 198.643 89.3823 198.643 90.3872V96.9251H196.873V90.9739C196.873 90.4835 196.846 90.0954 196.789 89.8186C196.731 89.5388 196.652 89.3402 196.553 89.2228C196.453 89.1055 196.317 89.0483 196.147 89.0483C195.978 89.0483 195.835 89.1055 195.717 89.2228C195.599 89.3402 195.509 89.5388 195.448 89.8186C195.385 90.0984 195.354 90.4835 195.354 90.9739V96.9251H193.584V87.7035H193.587Z" fill="#16102B"/>
<path d="M200.61 96.4197C200.111 95.9172 199.82 95.1349 199.742 94.0729L201.596 93.8562C201.642 94.4249 201.757 94.8581 201.941 95.147C202.126 95.4358 202.359 95.5832 202.64 95.5832C202.864 95.5832 203.043 95.514 203.17 95.3726C203.3 95.2342 203.363 95.0417 203.363 94.795C203.363 94.5482 203.306 94.3316 203.188 94.1421C203.07 93.9525 202.928 93.7901 202.758 93.6547C202.589 93.5193 202.347 93.3478 202.032 93.1342C201.605 92.8664 201.251 92.6076 200.97 92.3639C200.689 92.1172 200.45 91.7923 200.253 91.3831C200.056 90.9739 199.959 90.4745 199.959 89.8817C199.959 89.4004 200.062 88.9761 200.271 88.6091C200.48 88.242 200.77 87.9562 201.149 87.7546C201.524 87.553 201.959 87.4537 202.456 87.4537C203.209 87.4537 203.796 87.6974 204.216 88.1818C204.637 88.6692 204.876 89.4485 204.934 90.5196L203.164 90.655C203.139 90.1405 203.064 89.7434 202.937 89.4635C202.807 89.1837 202.631 89.0453 202.407 89.0453C202.204 89.0453 202.041 89.1236 201.917 89.28C201.793 89.4365 201.732 89.6501 201.732 89.9179C201.732 90.2097 201.796 90.4624 201.926 90.6821C202.056 90.8987 202.217 91.0852 202.407 91.2357C202.598 91.3861 202.861 91.5726 203.2 91.7983C203.614 92.0661 203.953 92.3098 204.21 92.5264C204.468 92.743 204.688 93.0319 204.867 93.3899C205.046 93.7479 205.136 94.1842 205.136 94.6987C205.136 95.4478 204.909 96.0496 204.452 96.5009C203.999 96.9522 203.369 97.1809 202.574 97.1809C201.763 97.1748 201.109 96.9221 200.61 96.4197Z" fill="#16102B"/>
<path d="M206.997 96.6124C206.598 96.2393 206.313 95.6978 206.147 94.9877C205.977 94.2777 205.893 93.3931 205.893 92.331C205.893 91.2359 205.974 90.3363 206.138 89.6322C206.301 88.9282 206.583 88.3896 206.982 88.0136C207.381 87.6405 207.935 87.4509 208.643 87.4509C209.306 87.4509 209.829 87.6465 210.21 88.0376C210.592 88.4287 210.858 89.0004 211.012 89.7556C211.163 90.5108 211.239 91.4736 211.239 92.6469H207.632V91.3051H209.421C209.396 90.8026 209.357 90.3814 209.294 90.0384C209.23 89.6984 209.139 89.4337 209.015 89.2411C208.891 89.0515 208.734 88.9553 208.543 88.9553C208.34 88.9553 208.174 89.0515 208.047 89.2411C207.917 89.4306 207.82 89.6984 207.75 90.0444C207.684 90.3904 207.645 90.8086 207.632 91.3021V92.6439C207.654 93.2938 207.699 93.8264 207.769 94.2446C207.835 94.6628 207.938 94.9907 208.071 95.2254C208.207 95.4601 208.386 95.5774 208.61 95.5774C208.879 95.5774 209.082 95.421 209.218 95.1081C209.354 94.7952 209.436 94.3378 209.472 93.7331L211.327 93.9497C211.248 94.5635 211.109 95.1081 210.912 95.5834C210.716 96.0588 210.428 96.4409 210.053 96.7328C209.675 97.0246 209.191 97.169 208.595 97.169C207.929 97.175 207.396 96.9885 206.997 96.6124Z" fill="#16102B"/>
<path d="M14.1917 35.1476C14.2764 35.289 14.1251 35.4515 13.9768 35.3823C12.5608 34.7053 8.26747 32.7376 5.46573 32.3886C2.06795 31.9674 0.579334 32.172 0.0801048 30.2344C-0.388868 28.4111 1.22682 26.979 4.2585 27.7462C10.2644 29.2596 13.3324 33.6974 14.1917 35.1476Z" fill="#53416B"/>
<path d="M15.4503 34.1486C15.42 34.2419 15.2869 34.2449 15.2597 34.1486C14.9874 33.246 14.1251 30.5502 13.1448 29.1693C11.9557 27.4964 11.2598 26.9187 11.9224 25.9138C12.5457 24.9661 13.8437 25.1015 14.7302 26.7533C16.4911 30.0237 15.7498 33.1798 15.4503 34.1486Z" fill="#17102B"/>
<path d="M13.287 36.1162C13.3778 36.1583 13.3566 36.2907 13.2598 36.3058C12.3218 36.4412 9.51404 36.8925 7.99517 37.6537C6.15559 38.5773 5.48087 39.1791 4.57621 38.3757C3.72601 37.6236 4.04975 36.3659 5.82277 35.7371C9.33553 34.4885 12.3672 35.68 13.287 36.1162Z" fill="#17102B"/>
<path d="M220.67 72.8707C220.579 72.7173 220.74 72.5397 220.9 72.618C222.431 73.3491 227.069 75.4762 230.095 75.8523C233.765 76.3096 235.375 76.087 235.913 78.1811C236.421 80.1488 234.673 81.6982 231.399 80.8708C224.912 79.2281 221.599 74.4352 220.67 72.8707Z" fill="#53416B"/>
<path d="M218.821 72.5668C218.852 72.4645 218.997 72.4645 219.027 72.5668C219.32 73.5417 220.252 76.4541 221.311 77.9464C222.597 79.7546 223.348 80.3774 222.631 81.4636C221.956 82.4865 220.555 82.3421 219.596 80.5579C217.696 77.0257 218.498 73.6139 218.821 72.5668Z" fill="#17102B"/>
<path d="M221.366 71.5469C221.269 71.5018 221.29 71.3574 221.396 71.3423C222.407 71.1979 225.444 70.7075 227.081 69.8831C229.069 68.8842 229.798 68.2373 230.776 69.1008C231.695 69.9162 231.344 71.2701 229.429 71.9531C225.635 73.304 222.361 72.0163 221.366 71.5469Z" fill="#17102B"/>
<path d="M74.1324 82.0412C73.7421 82.0412 73.3457 81.972 72.9615 81.8306L70.8496 81.0513C68.1326 80.0494 65.7544 78.6353 63.6516 76.7639C63.4822 76.788 63.3128 76.803 63.1433 76.803C62.874 76.803 62.6048 76.77 62.3415 76.7068L53.5793 74.5706H53.2283C52.0725 74.9016 50.9046 75.067 49.7458 75.067C49.4251 75.067 49.0983 75.055 48.7776 75.0279L47.7035 74.9437C46.8442 74.8745 46.0424 74.4803 45.4645 73.8425C45.4645 73.8425 44.696 72.991 44.6688 72.9609C42.4964 72.9489 40.4692 72.5488 38.6841 71.7876C36.7326 73.1565 34.3272 74.1163 31.4982 74.6518C30.4453 74.8504 29.3712 74.9527 28.3032 74.9527C24.6815 74.9527 21.2867 73.8094 18.7452 71.7304C14.473 68.2794 11.6773 62.8668 10.2038 55.2006C8.34003 45.4283 12.4367 33.899 23.7012 31.7719C24.7299 31.5763 25.7737 31.477 26.7994 31.477C32.4241 31.477 37.4103 34.4526 40.1485 39.1733C42.1424 38.4211 44.2392 38.042 46.4116 38.042C47.7973 38.042 49.1104 38.2045 50.3298 38.5234L50.3388 37.8223C50.36 36.1766 51.5824 34.7866 53.2192 34.5489L55.4945 34.2149C55.5883 34.1999 57.1284 33.9772 59.3794 33.7726C59.6911 32.1148 60.6865 30.6135 62.1933 29.7139C63.1554 29.1423 64.2416 28.8414 65.3399 28.8414C66.529 28.8414 67.6848 29.1934 68.6621 29.8433C68.8103 29.8192 69.0766 29.753 69.476 29.5514C70.1204 29.2265 70.7437 28.9256 71.3519 28.6518C71.2429 28.4081 71.137 28.1644 71.0402 27.9177C70.9373 27.674 70.8526 27.4123 70.783 27.1415C70.656 26.8797 70.547 26.6029 70.4502 26.3111C69.9933 24.894 69.6817 23.4197 69.5183 21.9154C69.4941 21.6837 69.482 21.461 69.482 21.2444C69.4457 21.0218 69.4215 20.7931 69.4064 20.5524C69.3489 19.4452 69.2672 18.5306 69.1552 17.7303C69.131 17.5738 69.1159 17.4143 69.1068 17.2519C69.0705 17.1135 69.0373 16.9751 69.01 16.8367C68.8224 15.8558 68.6409 15.3684 68.5501 15.1638C68.1356 14.9081 67.5365 14.517 66.9435 13.9062C65.3581 12.2695 64.8467 9.90163 65.6062 7.72935C66.3505 5.6022 68.2899 4.03166 70.547 3.73379C70.8405 3.69769 71.137 3.67964 71.4578 3.67964C71.9207 3.67964 72.6287 3.72176 73.5182 3.91131C73.6846 3.47806 73.8994 3.05684 74.1687 2.65969C75.3215 0.986853 77.2004 0 79.2064 0C79.4575 0 79.7208 0.0180522 80.0052 0.0541566C80.6103 0.132383 83.0247 0.574661 85.6873 2.87932C86.6464 2.30165 87.7447 1.98875 88.8551 1.98875C89.7326 1.98875 90.5858 2.17529 91.3936 2.54235C91.4088 2.54837 91.4209 2.55439 91.436 2.5604C92.8671 3.23435 97.578 6.13774 98.1922 15.1458C98.2195 15.4888 98.2134 15.8348 98.1801 16.1838C98.2316 16.5057 98.2588 16.8307 98.2588 17.1616C98.2588 18.9006 98.1136 20.7841 97.8261 22.7668C97.7868 23.0286 97.7354 23.2843 97.6658 23.534C98.6037 23.5671 99.578 23.6303 100.616 23.7326C100.761 23.7477 100.9 23.7537 101.021 23.7537C101.239 23.7537 101.387 23.7326 101.484 23.7116C102.616 22.147 104.443 21.2023 106.413 21.2023C106.779 21.2023 107.139 21.2354 107.514 21.3016C107.526 21.3046 107.541 21.3076 107.554 21.3076C110.159 21.804 112.174 23.9823 112.446 26.5999C112.528 27.34 112.824 31.0046 111.39 35.3492L112.637 35.292C112.688 35.289 112.739 35.289 112.791 35.289C114.298 35.289 115.629 36.2879 116.037 37.7411L116.101 37.9668L116.509 36.9649C117.027 35.6922 118.27 34.8678 119.635 34.8678C119.72 34.8678 119.804 34.8708 119.889 34.8768L121.853 35.0243C125.287 35.283 127.759 35.9901 129.595 37.2447L132.394 38.6828C132.854 38.9175 133.235 39.2455 133.529 39.6306C133.753 39.6637 133.976 39.6998 134.197 39.7449C134.518 38.8062 135.247 38.033 136.221 37.6719L138.07 36.9919C139.873 36.327 141.298 35.966 142.551 35.8486C142.881 35.8186 143.232 35.8035 143.589 35.8035C144.851 35.8035 146.318 35.9961 147.949 36.3752L149.909 36.8325C151.177 37.1273 152.145 38.1142 152.427 39.3448C154.224 38.406 156.233 37.8915 158.399 37.8464C158.424 37.8464 158.499 37.8464 158.508 37.8464C158.638 37.8434 158.768 37.8434 158.899 37.8434C161.292 37.8434 163.555 38.3609 165.534 39.3478C167.691 38.749 169.782 38.4451 171.757 38.4451H171.984L173.866 38.4692C174.251 38.2947 174.638 38.1443 175.028 38.0179C175.963 37.711 177.077 37.5516 178.308 37.5516C179.122 37.5516 180.338 37.6208 181.5 37.9547C181.518 37.9608 181.682 38.0089 181.703 38.0149C182.468 38.2616 183.188 38.5655 183.863 38.9296C186.126 37.1093 188.637 36.1646 190.178 35.7132C191.705 35.268 193.364 34.8588 195.152 34.8588C197.708 34.8588 199.981 35.6771 201.863 37.2507C203.85 36.0412 206.126 35.3853 208.592 35.3311C208.616 35.3311 208.691 35.3311 208.703 35.3311C208.834 35.3281 208.967 35.3281 209.097 35.3281C212.646 35.3281 215.841 36.4384 218.331 38.5414C221.78 41.4538 223.765 46.0993 224.225 52.3514L224.385 54.5447C224.422 55.0231 224.352 55.4894 224.198 55.9167L224.155 57.6918C224.074 61.1157 223.26 64.4162 221.735 67.5062L220.921 69.1579C220.352 70.3133 219.172 71.0354 217.895 71.0354C217.795 71.0354 217.699 71.0324 217.599 71.0233L213.103 70.6292C210.383 70.4246 208.032 69.9252 206.111 69.1369C206.029 69.1038 205.947 69.0677 205.871 69.0286C205.036 68.6976 204.259 68.3396 203.53 67.9454C202.304 68.6886 200.949 69.2783 199.484 69.7055C197.624 70.2471 195.935 70.5089 194.329 70.5089C193.143 70.5089 192.011 70.3614 190.949 70.0726C190.308 70.7826 189.394 71.1798 188.444 71.1798C188.344 71.1798 188.244 71.1768 188.141 71.1678L177.972 70.2591L170.783 71.5469L170.72 71.6762C170.151 72.8316 168.971 73.5536 167.694 73.5536C167.594 73.5536 167.494 73.5506 167.391 73.5416L162.907 73.1415C162.584 73.1174 162.266 73.0903 161.951 73.0572L161.918 73.2197C161.594 74.7722 160.221 75.8854 158.629 75.8914L156.263 75.9004C155.731 75.9004 155.262 75.8944 154.814 75.8854C154.454 75.8794 154.124 75.8734 153.788 75.8734C153.283 75.8734 152.856 75.8884 152.412 75.9185C151.704 75.9636 151.011 75.9847 150.4 76.0057C149.661 76.0298 148.959 76.0509 148.394 76.102C148.372 76.105 148.188 76.1171 148.167 76.1171L147.692 76.1441C146.496 76.2103 145.465 76.2675 144.424 76.2675C143.68 76.2675 143.008 76.2374 142.373 76.1742L138.482 75.8282C137.15 76.2675 135.813 76.4901 134.497 76.4901C134.167 76.4901 133.837 76.4751 133.507 76.451L132.436 76.3638C131.577 76.2946 130.778 75.8974 130.2 75.2596C130.2 75.2596 129.438 74.4141 129.417 74.3871C126.778 74.372 124.361 73.7733 122.34 72.6781L122.328 72.7052C121.777 73.8966 120.582 74.6578 119.263 74.6578H117.532C116.93 74.6578 116.276 74.5917 115.172 74.4713C114.779 74.4292 114.065 74.351 113.596 74.3148L111.938 74.706C111.677 74.7692 111.414 74.7962 111.157 74.7962C110.691 74.7962 110.237 74.7 109.82 74.5194C108.274 75.1152 106.715 75.416 105.163 75.416C104.83 75.416 104.492 75.401 104.159 75.3739L103.097 75.2837C102.244 75.2114 101.451 74.8203 100.879 74.1915L100.165 73.4062C100.138 73.3761 100.11 73.343 100.083 73.313C97.5811 73.3009 95.2453 72.7624 93.2665 71.7484L87.3938 71.1858L81.9476 72.1215L77.034 80.3924C76.4137 81.4395 75.2973 82.0412 74.1324 82.0412Z" fill="#17102B"/>
<path fill-rule="evenodd" clip-rule="evenodd" d="M209.091 38.6829C213.103 38.6829 219.965 40.4911 220.857 52.5981L221.024 54.7975L220.851 54.8456L220.785 57.6226C220.715 60.5561 220.016 63.3903 218.709 66.041L217.895 67.6928L213.378 67.2956C211.006 67.1181 208.994 66.6969 207.396 66.044L207.399 66.0289C205.832 65.4332 204.522 64.7382 203.403 63.9078C202.096 65.0421 200.456 65.9357 198.537 66.4953C196.988 66.9436 195.612 67.1632 194.329 67.1632C191.182 67.1632 189.107 65.8454 187.706 64.1425C187.718 64.2027 187.73 64.2568 187.742 64.32L188.444 67.8372L177.821 66.8894L168.508 68.5593L167.691 70.214L163.18 69.8109C161.737 69.7086 160.42 69.507 159.244 69.2152C159.198 69.6424 159.141 70.0516 159.062 70.4216L158.617 72.5488L156.251 72.5578C155.861 72.5578 155.501 72.5523 155.155 72.547L154.868 72.5428L154.818 72.542C154.467 72.5362 154.132 72.5307 153.788 72.5307C153.201 72.5307 152.702 72.5488 152.176 72.5849C151.543 72.627 150.905 72.6481 150.291 72.6661L150.199 72.6693C149.44 72.6951 148.722 72.7196 148.082 72.7775L147.982 72.7835L147.507 72.8106C146.363 72.8737 145.374 72.9279 144.427 72.9279C143.789 72.9279 143.22 72.9038 142.69 72.8497L138.04 72.4375C136.851 72.9098 135.665 73.1535 134.503 73.1535C134.267 73.1535 134.028 73.1415 133.792 73.1235L132.721 73.0362L132.004 72.2389C131.65 71.8448 131.365 71.3453 131.135 70.7917C130.579 70.9512 130.049 71.0444 129.526 71.0444C125.741 71.0444 122.754 69.6063 121.102 67.2084C120.706 68.1561 120.337 69.0015 119.992 69.7507L119.269 71.3152H117.538C117.112 71.3152 116.531 71.2551 115.541 71.1497C114.791 71.0685 113.777 70.9602 113.296 70.9512L111.163 71.4566L110.743 70.3344C108.87 71.4897 106.994 72.0764 105.169 72.0764C104.927 72.0764 104.685 72.0674 104.446 72.0463L103.384 71.9561L102.67 71.1708C102.313 70.7767 102.026 70.2742 101.793 69.7176C101.236 69.8771 100.704 69.9734 100.18 69.9734C97.8807 69.9734 95.8777 69.4408 94.2892 68.4901L87.2667 67.8191L79.391 69.173L79.6906 69.3475L74.1325 78.6926L72.0206 77.9133C68.6924 76.6827 65.9542 74.7241 63.6487 71.923C63.5125 71.7605 63.3763 71.589 63.2432 71.4145L63.1403 73.4544L53.9818 71.222H52.714C51.7216 71.5499 50.7262 71.7184 49.7428 71.7184C49.5099 71.7184 49.2769 71.7094 49.0439 71.6913L47.9728 71.6071L47.2527 70.8128C46.8957 70.4216 46.6113 69.9162 46.3783 69.3626C45.8216 69.522 45.2921 69.6153 44.7657 69.6153C42.1667 69.6153 39.9458 68.9384 38.2727 67.7379C36.5602 69.5371 34.0731 70.7556 30.8659 71.3634C30.0218 71.5228 29.1595 71.6041 28.3032 71.6041C25.4591 71.6041 22.8238 70.7315 20.8844 69.146C17.2475 66.2065 14.8331 61.4377 13.5169 54.5778C11.9557 46.4062 15.2173 36.7934 24.3306 35.0724C25.1535 34.916 25.9856 34.8378 26.7995 34.8378C32.2607 34.8378 36.9323 38.4241 38.4633 43.7736C40.905 42.2001 43.5766 41.4027 46.4116 41.4027C47.8821 41.4027 49.2255 41.6254 50.4024 42.0677C51.646 42.4558 52.7322 43.0335 53.6338 43.7706L53.7094 37.8705L55.9847 37.5366C56.149 37.5126 59.293 37.057 63.1747 36.8743C63.3006 36.8684 63.4273 36.8627 63.5548 36.8574L63.6521 37.1474L65.5028 39.4849C60.7585 39.5463 56.378 40.1873 56.378 40.1873L56.3024 45.9941L59.1465 45.3231C59.0287 46.1257 58.745 47.5562 58.4754 48.9162L58.4753 48.9168L58.4752 48.9174L58.4751 48.9177L58.475 48.9179L58.475 48.918L58.475 48.9181L58.475 48.9183L58.4749 48.9186L58.4749 48.9187C58.2322 50.1427 58.0008 51.3093 57.912 51.9092C56.6189 59.3892 55.3558 65.3292 54.8007 67.9397L54.8007 67.9398C54.7453 68.2 54.697 68.4272 54.6564 68.6195L60.6079 70.0697C60.6835 68.5804 61.095 64.9729 61.6941 61.9943C62.1812 63.8206 63.8271 67.9485 65.7363 70.2201C68.0933 73.0844 70.6378 74.5376 72.9555 75.392L75.9871 70.2923C73.3669 68.7669 71.0856 67.0188 69.2884 64.5998C67.7544 62.5178 66.5199 59.9123 65.585 57.3068C67.4942 56.8976 68.9889 56.0792 70.2626 54.8517V54.8878C72.3957 52.878 73.8178 50.0498 73.8178 46.9237C73.8178 46.5153 73.7911 46.1131 73.7378 45.72L75.0715 46.3818H75.5436C75.5059 46.3941 75.4692 46.4062 75.4335 46.4181C75.4335 46.4181 76.7255 54.003 76.8828 56.1933C77.0522 58.6063 77.3457 66.799 77.3457 66.799L83.7873 65.6918C83.5846 65.1111 83.2639 59.6443 83.2245 58.7537L83.2222 58.707V58.7069C83.1686 57.6472 83.1176 56.6379 82.8433 54.343C83.8055 52.8807 86.1473 50.3986 86.816 50.3053C87.2123 50.534 87.4695 51.3343 87.5512 52.3001C87.6934 53.9308 87.5845 55.3238 87.4544 56.8282C87.3144 58.1602 87.2753 59.6746 87.2455 60.8261V60.8264L87.2455 60.8274C87.2315 61.3685 87.2196 61.8294 87.2002 62.1535C87.1821 62.4665 87.1818 62.7728 87.1815 63.1185V63.1188V63.1189C87.181 63.6405 87.1804 64.2518 87.1185 65.1111L91.7598 65.5564C91.0367 64.3559 90.6464 62.9298 90.6464 61.3412C90.6464 60.3754 90.7614 59.4999 90.9974 58.6604C91.5178 56.765 92.5344 55.0229 93.8929 53.666C93.8949 53.6249 93.8966 53.5838 93.8983 53.5427C93.9017 53.4604 93.905 53.3782 93.9111 53.2959C93.9353 52.5949 93.9413 51.924 93.8899 51.3373C93.7537 49.7186 93.3846 48.1059 92.4467 46.8272C91.7719 45.9066 90.8037 45.1604 89.412 44.7001C88.7161 44.4985 87.2456 44.4353 86.4771 44.6911C84.6496 45.2567 82.7253 47.3267 81.9477 48.7739C81.9205 48.44 81.6841 46.696 81.5675 45.8437L86.4908 43.6534L89.8743 43.2337C90.6594 43.2914 91.7756 43.3729 92.828 43.4488C93.1504 43.6838 93.4531 43.9396 93.7355 44.2159C94.0773 43.9911 94.4235 43.7816 94.774 43.5873C95.3502 43.6274 95.7439 43.6534 95.7954 43.6534C96.0069 43.6534 101.505 42.8139 100.448 42.6041C100.229 42.5607 99.2363 42.4605 97.7775 42.3273C99.0843 41.9446 100.438 41.7518 101.832 41.7518C101.947 41.7518 102.062 41.7548 102.177 41.7578L103.045 41.0868C104.921 39.6366 107.336 38.8905 110.643 38.74L112.788 38.6438L113.992 42.9462C114.568 44.8606 115.001 46.6593 115.419 48.399L115.444 48.5033C115.575 49.0358 115.702 49.5593 115.829 50.0828C116.546 47.8534 117.463 44.6461 118.022 42.3926C118.116 42.0015 118.322 41.4449 118.845 40.1602L119.632 38.2256L121.596 38.373C124.479 38.5896 126.524 39.1613 127.834 40.121L130.842 41.6675L130.337 42.8499C130.612 42.8319 130.887 42.8229 131.166 42.8229C132.636 42.8229 133.976 43.0455 135.156 43.4878C136.037 43.7616 136.842 44.1377 137.565 44.604L137.389 40.8221L139.238 40.1421C140.76 39.5825 141.91 39.2816 142.86 39.1944C143.087 39.1733 143.332 39.1613 143.586 39.1613C144.59 39.1613 145.798 39.3237 147.177 39.6427L149.138 40.1L149.383 44.2941L149.507 46.8786C151.489 43.3193 154.632 41.2884 158.469 41.2042V41.2072L158.469 41.2072C158.611 41.2042 158.753 41.2012 158.896 41.2012C160.656 41.2012 162.968 41.5502 165.08 42.9643L166.336 42.6092C168.233 42.0707 170.057 41.7999 171.755 41.7999H171.96L174.266 41.83L174.296 42.0436C174.856 41.6946 175.446 41.4088 176.057 41.2132C176.674 41.0086 177.431 40.9063 178.305 40.9063C178.795 40.9063 179.739 40.9394 180.568 41.1771L180.659 41.2042C182.078 41.6645 183.267 42.3715 184.223 43.3253C186.299 40.6054 189.627 39.3689 191.125 38.9326C192.323 38.5836 193.718 38.2135 195.149 38.2135C198.304 38.2135 200.259 40.0007 201.469 41.8781C203.363 39.8473 205.817 38.7491 208.661 38.6859V38.6889L208.67 38.6887C208.812 38.6858 208.951 38.6829 209.091 38.6829ZM29.1776 60.3485C29.2321 59.7077 29.1262 58.7058 28.8599 57.3158L28.3365 54.5568L38.1849 53.1607C38.194 53.1517 38.2031 53.1419 38.2122 53.1322L38.2238 53.1196L38.2323 53.1107L38.2394 53.1036C37.6282 52.2341 37.2984 51.2021 37.0382 50.2694C34.4664 51.6353 32.2154 51.9543 30.0278 52.2611L27.1081 52.6703L26.9568 49.7399C26.8455 47.5898 26.7044 47.0298 26.6967 46.9994L26.6966 46.9989L26.6724 46.9087L26.6512 46.8034C26.6361 46.7221 26.6149 46.6439 26.5937 46.5717C26.5453 46.3942 26.503 46.2317 26.4757 46.0933C26.471 46.0762 26.4671 46.0598 26.4636 46.0451C26.4604 46.0315 26.4575 46.0192 26.4545 46.0091C26.4485 46.0106 26.4432 46.0113 26.4379 46.0121L26.4379 46.0121C26.4326 46.0128 26.4273 46.0136 26.4213 46.0151C25.8282 46.1294 25.0839 48.8433 25.6316 51.7256L25.6376 51.7557L25.6409 51.7727C25.8706 52.9596 26.1846 54.5826 26.6754 56.2025L26.6996 56.2898C27.096 57.7761 27.6951 59.0819 28.3486 59.8762C28.6542 60.2522 28.8841 60.3846 28.9658 60.4117C29.0445 60.3937 29.1141 60.3726 29.1776 60.3485ZM69.3701 59.4218C70.0237 60.7998 70.7317 62.0153 71.4669 63.0142C72.3231 64.1666 73.3428 65.1925 74.6226 66.1734C74.547 64.1335 74.3231 58.3056 74.19 56.377C74.1627 55.9919 74.0931 55.3902 73.9963 54.6711C73.4517 55.4443 72.8224 56.1694 72.1174 56.8344L69.3701 59.4218ZM36.4361 56.1153C36.0791 56.8073 35.7916 57.5354 35.5859 58.2906C35.3499 59.133 35.238 60.0115 35.2501 60.9683C35.2501 62.7344 35.7311 64.2959 36.6086 65.5716C35.4316 66.9737 33.4861 68.129 30.3758 68.7187C27.4591 69.2693 24.5181 68.6224 22.609 67.0639C18.5123 63.7544 16.9389 58.0469 16.1765 54.0663C15.0479 48.1573 16.8028 39.2184 24.8419 37.699C30.2063 36.6851 34.5995 39.8954 35.9006 44.5769L36.6388 47.3991C34.1548 48.9485 32.0822 49.2584 29.6496 49.6014C29.5588 47.8564 29.4348 46.7973 29.3017 46.3009C29.2725 46.1475 29.2317 45.997 29.1947 45.8604L29.1947 45.8603L29.1947 45.8603C29.1663 45.7557 29.1402 45.6593 29.1232 45.5758C28.8085 43.912 27.4409 43.0936 25.9251 43.3764C22.7784 43.9692 22.3972 49.1261 22.9841 52.219C23.2141 53.4165 23.556 55.1946 24.0945 56.9727C24.5302 58.6155 25.2624 60.3545 26.2609 61.57C27.211 62.7495 28.3546 63.2549 29.4408 63.0503C30.4121 62.8668 31.2018 62.3553 31.586 61.8438C31.9915 60.8088 32.0126 59.4399 31.5104 56.8133L36.4361 56.1153ZM53.6731 48.4701C53.1134 46.5716 51.6157 45.2327 49.522 44.5979C48.6597 44.2639 47.6128 44.0774 46.4116 44.0774C43.9034 44.0774 41.6221 44.8206 39.489 46.3099C39.3044 46.8665 39.3044 48.3919 39.5283 49.1772C39.8642 50.4047 40.203 51.557 40.9141 52.0384C41.6412 51.3434 42.3922 50.9214 43.0403 50.5572L43.0403 50.5572C43.2254 50.4532 43.4022 50.3539 43.5675 50.2543C43.9427 50.0707 46.0032 49.475 46.339 49.3998L46.3809 49.3892C47.0976 49.2068 47.3908 49.1322 47.6461 50.7026L47.7217 52.3032V53.272C47.0863 53.1216 46.1514 52.9711 45.4374 52.9711C43.5675 52.9711 41.9579 53.4555 40.6841 54.4995C39.3014 55.6519 38.3271 57.2886 37.8793 58.9283C37.6948 59.5963 37.6191 60.2642 37.6191 60.9743C37.6191 65.0691 40.9141 66.9285 44.7657 66.9285C45.4639 66.9285 46.5963 66.455 47.4691 66.0901L47.4692 66.09C47.7688 65.9648 48.0379 65.8523 48.2482 65.7761C48.2482 65.7761 48.581 68.2704 49.2557 69.0135C50.1574 69.0857 51.1437 68.9624 52.236 68.5351H52.239L52.4508 67.5242L52.5404 67.1016L52.5405 67.101C52.8808 65.4965 53.4369 62.8743 54.0816 59.5451V59.2984V59.2982C54.0816 58.4438 54.0816 57.7006 54.1209 56.0641C54.1209 55.5222 54.1413 54.9512 54.1609 54.4018C54.1791 53.8928 54.1966 53.4024 54.1966 52.9711C54.1996 51.1087 54.0483 49.5833 53.6731 48.4701ZM45.2921 62.5719C44.6174 62.5719 44.1666 61.8648 44.1666 60.2642C44.1666 59.2232 44.7657 57.0299 45.5523 57.0299C46.0758 57.0299 46.9018 57.2525 47.4978 57.8482L47.7974 58.1461L47.8367 61.0134C47.5009 62.1236 46.1908 62.5719 45.2921 62.5719ZM65.2855 44.7635C66.5593 44.8387 67.3822 45.5849 67.3822 47.0351C67.3822 49.1562 66.408 50.1972 65.7333 50.9043V50.8681C65.1342 51.4278 64.3838 51.7978 63.8241 52.0596V51.9844C64.1236 50.5703 64.762 47.3299 65.2098 44.7635H65.2855ZM106.546 58.2273L106.561 58.2785L110.001 67.4851C109.796 67.7047 109.569 67.9063 109.345 68.0387C107.551 69.1519 106.011 69.4889 104.667 69.3746C103.992 68.6344 103.657 66.1402 103.657 66.1402C103.443 66.2171 103.17 66.3312 102.867 66.4581C101.995 66.8225 100.871 67.2925 100.177 67.2925C96.3224 67.2925 93.0275 65.4332 93.0275 61.3383C93.0275 60.6313 93.1032 59.9603 93.2938 59.2894C93.7416 57.6557 94.7158 56.0159 96.1016 54.8636C97.3754 53.8196 98.985 53.3352 100.855 53.3352C101.563 53.3352 102.504 53.4856 103.139 53.633V52.6672L103.064 51.0666C102.808 49.4965 102.515 49.5708 101.796 49.7531L101.753 49.7639C101.418 49.8361 99.3571 50.4348 98.985 50.6183C98.8221 50.7157 98.6486 50.8127 98.4672 50.9142C97.8134 51.28 97.0574 51.7029 96.3255 52.4025C95.6144 51.9181 95.2756 50.7658 94.9397 49.5352C94.7158 48.7529 94.7158 47.2275 94.9064 46.6679C97.0395 45.1816 99.3208 44.4385 101.829 44.4385C102.089 44.4385 102.34 44.4475 102.586 44.4655C103.522 47.6911 104.378 50.693 105.079 53.1546L105.08 53.1569L105.13 53.3322L105.228 53.6753C105.908 56.0678 106.358 57.6498 106.546 58.2273ZM99.581 60.6253C99.581 62.2259 100.029 62.9329 100.704 62.9329C101.602 62.9329 102.912 62.4846 103.248 61.3744L103.209 58.5071L102.909 58.2093C102.313 57.6136 101.49 57.3879 100.964 57.3879C100.18 57.3879 99.581 59.5842 99.581 60.6253ZM122.228 46.2496L122.872 45.7983C124.186 44.8806 125.568 44.2007 127.015 43.7614L127.378 42.9099L126.367 42.3894C125.583 41.7185 123.898 41.2371 121.39 41.0475L121.327 41.2026C121.128 41.6903 120.707 42.7218 120.64 43.0213C120.004 45.5907 118.921 49.3486 118.131 51.6953C117.73 52.8614 117.382 53.9345 117.058 54.9302L117.058 54.9303L117.058 54.9307C116.568 56.4423 116.135 57.7756 115.662 58.9854L115.136 57.46C114.836 56.6055 114.165 54.4092 114.089 54.0752C113.588 52.3535 113.199 50.733 112.811 49.1175L112.811 49.1173L112.811 49.1167C112.385 47.3449 111.961 45.579 111.393 43.6922L110.758 41.4206C108.25 41.535 106.231 42.0164 104.694 43.2048C105.726 46.7395 106.68 50.0885 107.417 52.6739L107.417 52.6755L107.417 52.6762L107.418 52.679L107.419 52.6819L107.42 52.6844C108.125 55.1594 108.63 56.9327 108.812 57.4961L112.858 68.2913C113.25 68.1985 114.639 68.3473 115.83 68.4749C116.57 68.5542 117.234 68.6253 117.535 68.6253C118.388 66.7779 119.269 64.5756 119.995 62.6921C119.989 62.596 119.989 62.4998 119.989 62.4007V62.4003C119.989 61.4345 120.104 60.559 120.337 59.7195C120.812 57.9956 121.692 56.3979 122.875 55.1072C122.872 55.1042 122.875 55.1012 122.878 55.1012C122.981 54.8184 123.084 54.5416 123.187 54.2678C122.569 53.3525 122.264 52.2517 121.998 51.2953L121.998 51.2952L121.983 51.241C121.674 50.1459 121.599 48.1391 121.983 46.9897L122.228 46.2496ZM218.168 52.7968L207.799 55.6581C208.949 57.9056 210.939 58.733 213.923 58.4532C214.283 58.4213 215.555 58.13 217.34 57.7213L217.34 57.7212L218.086 57.5506C218.022 60.132 217.42 62.545 216.283 64.8527L213.59 64.618C211.772 64.4856 209.902 64.1697 208.416 63.5619L208.455 63.5589C207.049 63.0324 205.884 62.4186 204.934 61.7026C204.97 61.6605 204.997 61.6213 205.024 61.5762C206.519 59.2956 206.912 56.5758 206.132 53.9221C205.306 51.118 203.769 49.4421 201.999 48.4312L203.563 47.8505L202.849 45.6903C202.752 45.3984 202.652 45.1186 202.549 44.8448C204.02 42.6575 206.108 41.43 208.725 41.3728L208.685 41.3758C214.419 41.1832 217.593 45.0043 218.168 52.7968ZM208.785 46.4816C208.259 46.4966 207.357 47.2849 207.024 48.5515C206.809 49.4692 206.74 50.3327 206.803 51.0367C207.503 50.834 208.215 50.6516 208.937 50.4666C209.576 50.3029 210.223 50.1372 210.876 49.9536C210.838 49.7199 210.806 49.5052 210.777 49.3042C210.673 48.5864 210.594 48.0428 210.301 47.4293C209.89 46.641 209.418 46.4244 208.785 46.4816ZM203.844 54.5869C202.362 49.5534 197.929 49.3307 194.453 49.1773L194.325 49.1728C192.866 49.1219 192.005 49.0919 191.699 48.4281C191.321 47.4112 192.153 46.1265 193.491 45.7745C194.292 45.5789 195.633 46.1596 196.298 48.022L200.586 46.4243C198.447 39.9496 195.333 40.5092 191.884 41.5111C189.421 42.2302 186.786 43.7346 185.7 46.0362C186.235 47.2126 186.577 48.5846 186.722 50.1551C186.789 50.8592 186.783 51.6234 186.759 52.3876C188.353 53.916 190.91 54.0815 193.433 54.2078L193.595 54.218C195.409 54.3304 197.209 54.4421 197.708 56.1424C198.117 57.5355 197.497 58.9977 196.241 59.3647C195.342 59.6235 194.674 59.1993 194.462 58.757C194.438 58.7093 194.408 58.6535 194.372 58.589C194.131 58.1491 193.669 57.3052 193.69 55.8777L187.497 57.2195C188.898 62.5088 191.055 65.8756 197.772 63.9229C202.483 62.5449 205.052 58.6938 203.844 54.5869ZM184.535 61.6797C184.568 62.0462 184.599 62.3852 185.091 64.8405L177.667 64.1786C177.721 63.3205 177.718 62.7119 177.715 62.1913C177.713 61.8448 177.711 61.5373 177.727 61.2211C177.748 60.877 177.757 60.3804 177.769 59.7978V59.7977C177.791 58.6584 177.82 57.1906 177.948 55.8927C178.072 54.3883 178.169 52.9953 178.018 51.3646C177.927 50.4018 177.664 49.6045 177.267 49.3788C176.599 49.4781 174.275 51.9693 173.322 53.4406C173.612 55.7693 173.67 56.7712 173.73 57.8513C173.776 58.7449 174.133 64.2057 174.338 64.7834L169.337 65.68C169.918 63.8898 170.224 62.0545 170.269 60.1259L170.339 57.1232L170.49 57.0781L170.348 55.1435C170.024 50.7568 168.956 47.5014 167.074 45.1907C168.357 44.8297 170.112 44.4626 171.924 44.4867C171.924 44.4867 172.351 47.4382 172.393 47.8835C173.161 46.4303 175.068 44.3483 176.895 43.7706C177.661 43.5149 179.128 43.566 179.824 43.7646C183.158 44.8417 184.09 47.5947 184.35 50.3747C184.43 51.2232 184.388 52.2537 184.347 53.2715C184.327 53.7624 184.308 54.2502 184.302 54.7133C184.202 56.0672 184.317 59.3437 184.535 61.6784L184.535 61.6797ZM138.282 67.3257C138.427 62.4186 138.463 58.2756 138.388 55.661L138.082 49.0299C137.368 47.5887 136.028 46.5567 134.273 46.0272C133.411 45.6932 132.364 45.5067 131.163 45.5067C128.654 45.5067 126.376 46.2498 124.24 47.7391C124.055 48.2957 124.055 49.8211 124.279 50.6064C124.615 51.834 124.954 52.9863 125.665 53.4677C126.392 52.7726 127.143 52.3506 127.791 51.9865C127.976 51.8824 128.153 51.7831 128.319 51.6835C128.694 51.5 130.754 50.9043 131.09 50.8291L131.132 50.8184C131.849 50.636 132.142 50.5614 132.4 52.1318L132.473 53.7324V54.7012C131.837 54.5508 130.902 54.4034 130.188 54.4034C128.319 54.4034 126.709 54.8848 125.435 55.9288C124.052 57.0811 123.078 58.7209 122.627 60.3576C122.443 61.0285 122.367 61.6935 122.367 62.4035C122.367 66.4984 125.662 68.3577 129.517 68.3577C130.21 68.3577 131.335 67.8877 132.206 67.5233C132.51 67.3964 132.783 67.2823 132.996 67.2054C132.996 67.2054 133.332 69.6996 134.004 70.4428C135.253 70.5451 136.657 70.2652 138.288 69.3356L138.279 67.3649V67.3257H138.282ZM130.043 64.0011C129.368 64.0011 128.918 63.2941 128.918 61.6935C128.918 60.6525 129.52 58.4591 130.303 58.4591C130.827 58.4591 131.653 58.6818 132.249 59.2775L132.548 59.5753L132.588 62.4426C132.249 63.5528 130.939 64.0011 130.043 64.0011ZM167.969 55.3119L157.598 58.1702C158.747 60.4207 160.741 61.2481 163.724 60.9743C164.098 60.9413 165.455 60.6287 167.344 60.1932L167.885 60.0687C167.824 62.6531 167.219 65.0661 166.081 67.3738L163.392 67.1331C161.894 67.0248 160.357 66.7901 159.032 66.3659C159.008 65.039 158.883 63.8205 158.729 63.1376L158.281 61.1939L154.43 61.3955C153.682 61.4288 153.052 61.4442 152.479 61.4582L152.336 61.4617C151.177 59.503 150.575 57.409 150.372 55.2487C150.236 53.8046 150.381 52.1077 150.781 50.7267C152.112 46.4573 154.775 43.9691 158.526 43.8879L158.487 43.8909C164.221 43.6983 167.395 47.5194 167.969 55.3119ZM158.59 48.9997C158.064 49.0117 157.159 49.803 156.826 51.0697C156.611 51.9843 156.539 52.8508 156.605 53.5548C157.304 53.3529 158.013 53.1711 158.732 52.9868C159.373 52.8224 160.022 52.6561 160.678 52.4717C160.639 52.2365 160.608 52.0207 160.578 51.8187C160.475 51.1034 160.396 50.5614 160.106 49.9444C159.694 49.1591 159.222 48.9425 158.59 48.9997ZM156.418 69.8681C155.862 69.8701 155.37 69.862 154.902 69.8543H154.902C153.946 69.8385 153.088 69.8244 151.985 69.9012C151.408 69.9386 150.801 69.9578 150.193 69.977L150.193 69.977C149.385 70.0025 148.575 70.0281 147.831 70.0967L147.383 70.1214C145.615 70.2193 144.214 70.297 142.954 70.172L140.678 69.9704L140.663 67.3919C140.823 61.8469 140.836 57.9205 140.766 55.5738L140.167 42.6604C141.656 42.1128 142.542 41.9203 143.099 41.8691C143.807 41.8029 144.941 41.8872 146.554 42.2603L146.684 44.4536L147.198 55.2458C147.271 57.04 147.246 58.3256 147.182 61.6056V61.6061C147.169 62.2752 147.154 63.0274 147.138 63.8838C148.363 63.8589 149.288 63.8564 150.149 63.8541H150.149C151.475 63.8505 152.647 63.8474 154.53 63.7634L156.399 63.6672C156.657 64.7653 156.808 68.0027 156.418 69.8681Z" fill="#53416B"/>
<path fill-rule="evenodd" clip-rule="evenodd" d="M94.1561 44.2551C100.123 44.2551 105.572 40.759 107.717 35.5509C109.484 31.2695 109.133 27.3793 109.082 26.9641C108.961 25.8057 108.065 24.8399 106.906 24.6173C106.737 24.5872 106.573 24.5692 106.401 24.5692C105.414 24.5692 104.513 25.0987 104.038 25.9562C103.953 26.0825 103.179 27.1205 101.009 27.1205C100.77 27.1205 100.522 27.1085 100.274 27.0844C98.861 26.946 97.5781 26.8798 96.3497 26.8798C95.3361 26.8798 94.3951 26.928 93.5117 27.0273C93.5873 26.8558 93.6478 26.6752 93.6932 26.4797C93.8657 25.7155 94.0048 25.0505 94.1289 24.3977C94.1985 24.0336 94.1985 23.6696 94.1228 23.3205C94.3074 23.0046 94.4254 22.6737 94.4799 22.3006C94.7431 20.4833 94.8792 18.7594 94.8792 17.1738C94.8792 16.8789 94.8308 16.5811 94.7401 16.3043C94.8187 15.9944 94.846 15.6995 94.8218 15.4017C94.3225 8.00627 90.716 5.94832 89.9838 5.60232C89.6237 5.43985 89.2425 5.35561 88.8522 5.35561C88.2622 5.35561 87.6752 5.55418 87.1972 5.91823C86.3984 6.53502 86.0141 7.53691 86.1987 8.53881C86.207 8.57184 86.2147 8.6055 86.2223 8.63893L86.2223 8.63897L86.2223 8.639L86.2224 8.63928L86.2224 8.63932L86.2224 8.63935L86.2224 8.63937C86.2314 8.67887 86.2403 8.71803 86.2501 8.75544C83.3122 4.01072 79.9871 3.44207 79.5665 3.38792C79.4394 3.36987 79.3214 3.36084 79.2065 3.36084C78.3139 3.36084 77.4788 3.80011 76.9705 4.54025C76.3987 5.3887 76.3503 6.46883 76.8525 7.35639C77.1097 7.8077 77.4123 8.12662 77.6936 8.40342L77.6986 8.40854C77.9887 8.70596 78.3873 9.1147 78.5317 10.3741C75.1914 7.31427 72.3534 7.04349 71.4608 7.04349C71.214 7.04349 71.0647 7.06012 71.0049 7.06678L70.9979 7.06756C69.9904 7.20295 69.122 7.90097 68.7922 8.8457C68.4534 9.81751 68.6742 10.8706 69.3732 11.5926C69.7298 11.9592 70.1012 12.187 70.4228 12.3842L70.4321 12.3899L70.436 12.3923C70.9535 12.7083 71.7407 13.1889 72.3231 16.22C72.3564 16.3945 72.4109 16.563 72.4744 16.7225C72.4654 16.909 72.4684 17.0955 72.4956 17.2821C72.6197 18.1727 72.7104 19.1776 72.7709 20.369C72.783 20.5977 72.8133 20.8023 72.8647 20.9888C72.8436 21.1814 72.8466 21.3709 72.8678 21.5665C73.0069 22.8392 73.2702 24.0878 73.6544 25.2822C73.721 25.4868 73.8178 25.7365 73.9872 25.9953C74.0175 26.233 74.078 26.4646 74.1658 26.6752C74.4744 27.4304 74.8435 28.2037 75.2822 28.9739C75.3942 29.1665 75.5273 29.368 75.724 29.5636C75.7996 29.7862 75.9055 29.9969 76.0356 30.1984C76.0749 30.2586 76.1143 30.3188 76.1597 30.382C74.5863 30.8844 72.8829 31.6005 70.9979 32.5512C70.1235 32.9905 69.3036 33.2162 68.5502 33.2162C67.7242 33.2162 67.2129 32.9394 67.0555 32.8401C66.5775 32.4279 65.9754 32.2022 65.34 32.2022C64.8498 32.2022 64.3657 32.3346 63.93 32.5934C62.9165 33.2011 62.4263 34.4437 62.744 35.6081L62.7445 35.6101C62.7973 35.8026 63.8607 39.6827 67.1614 43.1328C69.7393 45.8316 73.491 47.3811 77.4486 47.3811C79.624 47.3811 81.8085 46.9057 83.7752 46.0091C85.5906 45.1818 86.4982 44.5198 87.173 44.0264C87.7024 43.6383 87.7569 43.5992 88.2259 43.5119C88.4104 43.4758 88.5617 43.4578 88.6737 43.4578C88.8189 43.4578 88.9551 43.4879 89.4089 43.6112L89.421 43.6144L89.421 43.6144C90.2097 43.8248 91.295 44.1143 93.2817 44.228C93.554 44.246 93.8445 44.2551 94.1561 44.2551ZM91.6191 17.4342C91.3427 17.6343 91.0683 17.833 91.0638 17.7125C91.0608 17.569 91.3358 17.0976 91.6079 16.6312C91.8781 16.168 92.1455 15.7097 92.1349 15.5823C91.7144 9.36934 88.8521 8.03649 88.8521 8.03649C88.8819 8.19446 88.9642 8.36115 89.0631 8.56115C89.467 9.37818 90.1455 10.7509 88.6312 14.3548C88.6028 14.4216 88.6984 14.8474 88.7952 15.2783L88.7952 15.2783C88.8943 15.7198 88.9947 16.1666 88.964 16.2382C88.9197 16.3381 88.7505 16.0892 88.577 15.834C88.3953 15.5667 88.2088 15.2924 88.1562 15.4048C87.812 16.1194 87.3925 16.9059 86.8825 17.7733L86.8824 17.7725C86.5949 16.5359 86.2742 15.4257 85.9263 14.4449C85.879 14.3086 85.6593 14.613 85.4403 14.9163C85.2244 15.2155 85.0092 15.5136 84.9611 15.3866C84.9065 15.242 85.0205 14.6648 85.1338 14.0911L85.1338 14.091C85.2466 13.5192 85.3589 12.9508 85.303 12.8172C82.6435 6.49592 79.2003 6.0416 79.2003 6.0416C79.2885 6.19748 79.4344 6.34483 79.6091 6.52135C80.3214 7.24094 81.5135 8.44529 81.2365 12.6878C81.2321 12.766 81.4808 13.1705 81.7341 13.5823C81.9973 14.0103 82.2654 14.4463 82.2592 14.5322C82.2489 14.6512 81.9851 14.4486 81.7144 14.2407C81.431 14.023 81.1401 13.7995 81.1246 13.9334C81.0096 14.8932 80.8311 15.9823 80.5709 17.2249C80.5728 17.2249 80.5735 17.2249 80.573 17.2257L80.5714 17.2274L80.5679 17.2221L80.5697 17.2202C80.5701 17.2198 80.5703 17.2195 80.5702 17.2193C80.5701 17.219 80.5693 17.219 80.5679 17.219C80.3682 16.8881 80.1655 16.5722 79.9658 16.2683C79.885 16.1454 79.748 16.4921 79.6115 16.8375C79.4772 17.1773 79.3434 17.516 79.2639 17.4056C79.1748 17.2795 79.1407 16.6977 79.1067 16.1177V16.1177C79.0726 15.5356 79.0386 14.9552 78.9492 14.8392C74.7708 9.3513 71.3095 9.72438 71.3095 9.72438C71.4337 9.85321 71.6116 9.96056 71.8248 10.0892C72.6972 10.6157 74.1609 11.499 74.9584 15.6696C74.9746 15.7456 75.3136 16.0737 75.661 16.41L75.661 16.4101C76.0287 16.7659 76.4058 17.131 76.4198 17.216C76.4404 17.3332 76.135 17.1995 75.8198 17.0615L75.8198 17.0615C75.4873 16.916 75.144 16.7658 75.1611 16.9001C75.2973 17.8569 75.3971 18.9521 75.4607 20.2187C75.4652 20.3184 76.1379 20.7776 76.809 21.2357L76.809 21.2357C77.4745 21.69 78.1384 22.1432 78.1474 22.2436C78.152 22.3193 77.4873 22.0337 76.8283 21.7505L76.8283 21.7505L76.8283 21.7505L76.8282 21.7505L76.8282 21.7505C76.178 21.4711 75.5333 21.194 75.5424 21.2688C75.6664 22.4 75.8994 23.4681 76.2201 24.461C76.2475 24.5441 77.1982 24.9698 78.1452 25.3938L78.1452 25.3938L78.1453 25.3938L78.1454 25.3939C79.0833 25.8138 80.0174 26.232 80.0475 26.3143C80.0887 26.4341 79.2029 26.2085 78.3265 25.9852C77.4641 25.7655 76.6108 25.5481 76.6588 25.6645C76.9432 26.3565 77.2639 27.0154 77.6149 27.6322C77.667 27.7221 78.6642 28.0954 79.6492 28.4642C80.6086 28.8234 81.5565 29.1783 81.6088 29.2629C81.6674 29.3595 80.7699 29.1682 79.8919 28.9811L79.8919 28.9811C79.0483 28.8013 78.2227 28.6253 78.2806 28.7123C78.8827 29.6149 79.5362 30.4242 80.2079 31.1433C80.5468 31.1042 80.8796 31.0831 81.2063 31.0771C81.2744 31.0771 81.3425 31.0764 81.4106 31.0756C81.4767 31.0749 81.5429 31.0741 81.6091 31.0741L81.618 31.0772C82.2808 31.0892 82.9254 31.1464 83.5579 31.2698L83.5517 31.2662L83.5542 31.2667C83.6622 31.2846 83.7658 31.3068 83.8724 31.3297L83.9242 31.3408L83.9294 31.3478C84.483 31.4741 85.0277 31.6456 85.5662 31.8592C85.7326 31.9254 85.899 31.9976 86.0624 32.0699C86.1956 31.9315 86.3317 31.8021 86.4709 31.6727C86.6524 31.5042 86.834 31.3448 87.0246 31.1943C87.433 30.8604 87.8657 30.5595 88.3226 30.2917L88.3225 30.288L88.3316 30.2827C88.4776 30.1953 88.6257 30.1118 88.7765 30.0319C88.9771 29.9258 89.1825 29.8261 89.3937 29.7322C89.6418 29.6179 89.8929 29.5186 90.1531 29.4223C90.3831 28.619 90.5918 27.8458 90.7764 27.1026C90.7976 27.0151 90.24 27.2453 89.6837 27.475L89.6836 27.475L89.6836 27.475C89.1304 27.7034 88.5783 27.9313 88.5979 27.8458C88.6267 27.7283 89.2316 27.2943 89.8355 26.8609L89.8355 26.8609C90.4381 26.4285 91.0397 25.9968 91.0669 25.8811C91.2242 25.1861 91.3603 24.5212 91.4844 23.8803C91.5195 23.6922 90.9739 23.8475 90.4316 24.0018C89.8983 24.1536 89.3682 24.3045 89.3967 24.127C89.4224 23.9798 90.0146 23.498 90.6064 23.0165L90.6065 23.0165C91.1999 22.5337 91.793 22.0512 91.8142 21.9066C92.0744 20.1104 92.1863 18.5338 92.1863 17.1559C92.1863 17.0235 91.9017 17.2296 91.6191 17.4342ZM83.818 27.3468C83.7441 27.3122 83.6635 27.2748 83.577 27.2348L83.4604 27.1807L83.4508 27.1762L83.4514 27.1748C83.4816 27.0936 83.5149 27.0124 83.5512 26.9251L83.5513 26.9248L83.5602 26.931C83.6283 26.981 83.6942 27.0289 83.7562 27.0739L83.7565 27.0741C83.8171 27.1182 83.8739 27.1595 83.9253 27.1973C83.8894 27.245 83.8565 27.2927 83.8235 27.3433H83.8205L83.818 27.3468ZM82.3433 23.7486C82.2544 23.7007 82.1627 23.6521 82.0702 23.6031L82.0701 23.6031L82.0701 23.6031C81.9798 23.5553 81.8888 23.5071 81.7993 23.459L81.79 23.454L81.7903 23.4531C81.8386 23.2969 81.89 23.1317 81.9503 22.9546L81.9566 22.9595L81.9582 22.9608C82.1785 23.1354 82.3988 23.31 82.5988 23.4674L82.5981 23.4681C82.5699 23.4992 82.5417 23.5306 82.5135 23.562C82.457 23.6249 82.4005 23.6877 82.344 23.7479L82.3433 23.7486ZM81.6725 19.1658C82.1807 19.5508 82.6495 19.8997 82.6616 19.8305C82.6802 19.7328 82.1489 19.1313 81.6177 18.5298L81.6177 18.5298L81.6177 18.5298L81.6176 18.5297L81.6176 18.5297C81.2831 18.151 80.9487 17.7724 80.7516 17.5196C81.0556 18.0316 81.3654 18.5763 81.6693 19.1597L81.6725 19.1658ZM85.6359 22.6588L85.6359 22.6588C85.6224 22.6374 85.609 22.6173 85.5959 22.5975L85.5959 22.5975L85.5959 22.5975C85.5801 22.5738 85.5647 22.5507 85.5501 22.5267C85.5418 22.5583 85.5391 22.5841 85.542 22.6015C85.5509 22.6458 85.5832 22.6611 85.6359 22.6588ZM87.0206 20.0367L87.0216 20.0382L87.0254 20.0437C87.3689 20.5381 87.6904 21.0008 87.7235 20.9438C87.7659 20.8656 87.5057 20.2458 87.2334 19.6049L87.2328 19.6035C87.1992 19.7028 87.1238 19.8526 87.0215 20.0351L87.0206 20.0367ZM86.3106 33.3785C88.8408 30.3974 92.3928 29.1865 98.815 29.64L98.8125 29.6361L98.8263 29.6376L98.8434 29.6398C98.8643 29.6425 98.8852 29.6451 98.9033 29.6451L98.9047 29.6465C99.2663 29.6728 99.6368 29.7043 100.017 29.741C104.812 30.2074 106.407 27.2378 106.407 27.2378C106.407 27.2378 106.791 30.7309 105.221 34.5309C103.384 38.9958 98.5191 41.845 93.4451 41.5532C91.7228 41.4532 90.812 41.2094 90.1099 41.0215C89.3332 40.8136 88.8119 40.6741 87.7297 40.8732C86.65 41.0784 86.2161 41.3956 85.5696 41.868L85.5693 41.8682C85.4236 41.9747 85.2671 42.089 85.0899 42.2118L85.1095 42.2182C85.0308 42.2724 84.9491 42.3266 84.8614 42.3837L84.8449 42.3777C84.5489 42.5732 84.1966 42.7882 83.7548 43.0243L83.7601 43.0396C83.6874 43.0787 83.6027 43.1208 83.521 43.16L83.5173 43.1487C83.4684 43.1739 83.4184 43.1993 83.3674 43.2249L83.3607 43.2442L83.049 43.3946L83.0549 43.3782C82.927 43.4395 82.7931 43.5021 82.6527 43.566C82.5627 43.6069 82.4725 43.6468 82.3818 43.6855L82.3836 43.6928C82.308 43.7259 82.2323 43.756 82.1566 43.7861L82.1551 43.7797C81.9158 43.8763 81.6743 43.9651 81.431 44.0462L81.4273 44.0539L81.4267 44.0541C81.318 44.0901 81.2092 44.1262 81.1005 44.1592L81.1053 44.1499C80.9988 44.1822 80.8921 44.2131 80.7851 44.2424L80.7865 44.2465C80.7172 44.2651 80.6478 44.2813 80.5784 44.2973C79.9813 44.4503 79.3768 44.5584 78.7709 44.6223L78.7711 44.6227L78.7265 44.6269C75.1583 44.9905 71.5462 43.8229 69.116 41.2794C66.2689 38.3038 65.3491 34.913 65.3491 34.913C65.3491 34.913 67.9208 37.1033 72.2172 34.94C78.6588 31.6937 82.6587 31.4018 86.3106 33.3785ZM74.0202 39.3458C75.1202 40.1626 76.9541 41.1629 79.1278 40.9243C81.6323 40.6476 83.3354 39.4226 84.3648 38.6821L84.3648 38.6821L84.3649 38.6821C84.7568 38.4001 85.0511 38.1885 85.2547 38.1263C84.3089 36.9823 83.2864 36.3403 82.2466 36.0377L82.2473 36.0413C82.1625 36.0172 82.0778 35.9931 81.9961 35.9751L81.9955 35.9712C81.6987 35.9003 81.4009 35.8558 81.1034 35.8341L81.1006 35.8397C81.0529 35.8309 81.0062 35.8293 80.9594 35.8277H80.9594C80.926 35.8265 80.8925 35.8254 80.8585 35.8216L80.8587 35.8213C80.3791 35.8059 79.9014 35.847 79.4314 35.9288L79.4365 35.936C79.4056 35.9453 79.3742 35.9505 79.3424 35.9558C79.3025 35.9624 79.2621 35.969 79.2216 35.9841L79.2122 35.97C79.0424 36.0042 78.8737 36.0435 78.7065 36.087L78.7254 36.1014C78.6286 36.1255 78.5348 36.1496 78.441 36.1767L78.4268 36.1641L78.4068 36.17L78.4383 36.1769C78.3172 36.213 78.1931 36.2521 78.0751 36.2912L78.0464 36.2821C77.8567 36.3446 77.6694 36.4115 77.485 36.4816L77.4941 36.4959C77.4763 36.5028 77.4589 36.5097 77.4418 36.5166L77.3927 36.5365C77.3594 36.55 77.3261 36.5636 77.2913 36.5771L77.2813 36.5608L77.2172 36.5865L77.2367 36.5979C77.155 36.631 77.0733 36.6641 76.9947 36.6972L76.9769 36.6854C76.4137 36.9223 75.8829 37.1806 75.3983 37.4228L75.4244 37.4314C75.3245 37.4795 75.2247 37.5306 75.1309 37.5788L75.107 37.569L75.0651 37.5901L74.8867 37.6798L74.913 37.6901L74.907 37.6932L74.9069 37.6933C74.8154 37.7402 74.7295 37.7843 74.6407 37.8255L74.6171 37.8144C74.3224 37.9603 74.0534 38.0884 73.8145 38.1866L73.8208 38.2016C73.7772 38.2186 73.7347 38.2343 73.6935 38.2497L73.6211 38.2768L73.6156 38.2637C73.3229 38.3693 73.0853 38.4162 72.9131 38.376C72.9131 38.376 73.2388 38.7371 73.8153 39.1894L73.8148 39.1735L73.815 39.1736L73.8151 39.1737C73.8816 39.2248 73.9481 39.2759 74.0206 39.33L74.0202 39.3458ZM90.0713 37.6186L90.0714 37.6186C90.5069 37.7308 91.0426 37.8689 91.6606 37.9718L91.6599 37.9701L91.6897 37.9752C91.767 37.9885 91.8427 38.0015 91.9232 38.0122L91.9233 38.0125C93.0042 38.1677 94.3125 38.1989 95.7627 37.8133C97.8923 37.2474 99.241 35.6332 99.9642 34.4727L99.9622 34.4681L99.9773 34.4438L99.9775 34.4435C100.02 34.3746 100.06 34.31 100.095 34.2454L100.098 34.252C100.458 33.637 100.625 33.196 100.625 33.195C100.284 33.4286 99.4335 33.3467 98.3319 33.2406C97.6084 33.1709 96.7764 33.0908 95.909 33.0827L95.9082 33.0874C95.8355 33.0844 95.7629 33.0844 95.6903 33.0844L95.6907 33.0823C95.4873 33.0833 95.2824 33.0887 95.0768 33.0994L95.0729 33.1025L95.064 33.1029L95.0639 33.1029L95.0638 33.1029L95.0637 33.1029L95.0637 33.1029L95.0636 33.1029L95.0635 33.1029L95.0635 33.1029C94.9424 33.1088 94.8185 33.1148 94.6946 33.1265L94.6964 33.1254L94.6855 33.1263L94.6825 33.1321C94.5827 33.1381 94.4829 33.1502 94.386 33.1622L94.3897 33.1562C94.2211 33.1757 94.0528 33.1995 93.8852 33.2283L93.8838 33.2344C93.8454 33.2344 93.8079 33.242 93.7703 33.2495L93.7702 33.2495C93.7482 33.254 93.7262 33.2584 93.704 33.2613C92.8556 33.4258 92.0311 33.7226 91.2967 34.2266L91.2969 34.2273C91.2273 34.2754 91.1577 34.3266 91.0881 34.3807L91.0875 34.3778C90.2221 35.0356 89.4975 36.0063 89.0307 37.4222C89.2446 37.4055 89.599 37.4969 90.0712 37.6185L90.0713 37.6186ZM94.6917 33.126C94.691 33.126 94.6905 33.1261 94.6901 33.1263C94.6901 33.126 94.6902 33.126 94.6917 33.126ZM94.6901 33.1263C94.6886 33.1271 94.6886 33.1291 94.6886 33.1291C94.6902 33.1274 94.6901 33.1267 94.6901 33.1263Z" fill="#53416B"/>
</g>
</svg>
