<svg width="421" height="412" viewBox="0 0 421 412" fill="none" xmlns="http://www.w3.org/2000/svg">
<path d="M313.947 65.0312L304.635 267.903L308.105 268.062L317.417 65.1901L313.947 65.0312Z" fill="#BBBDBF"/>
<path d="M257.709 191.339C272.775 217.279 303.606 233.177 333.504 230.412C329.173 234.131 324.645 236.035 319.097 237.403C324.528 240.29 328.352 242.881 333.778 245.768C327.023 246.903 322.407 245.943 316.054 245.232C320.291 247.456 323.194 251.863 325.612 255.996C309.754 248.987 293.867 244.819 277.927 236.204C261.037 227.07 246.461 212.907 241.851 200.059L257.709 191.339Z" fill="#83A329"/>
<path d="M325.613 257.405C325.42 257.405 325.222 257.364 325.041 257.282C318.869 254.552 312.563 252.212 306.467 249.948C296.915 246.397 287.036 242.729 277.251 237.444C259.551 227.873 245.127 213.384 240.511 200.531C240.249 199.797 240.627 198.982 241.368 198.72C242.102 198.453 242.918 198.837 243.18 199.576C247.574 211.812 261.474 225.696 278.597 234.952C288.202 240.145 297.987 243.783 307.452 247.293C312.225 249.069 317.121 250.885 322.005 252.905C320.152 250.215 318.024 247.852 315.396 246.472C314.796 246.158 314.498 245.454 314.702 244.807C314.901 244.155 315.542 243.742 316.212 243.818C317.278 243.934 318.292 244.062 319.277 244.185C322.803 244.621 325.799 244.988 329.191 244.831C327.99 244.138 326.842 243.463 325.712 242.793C323.45 241.454 321.113 240.069 318.421 238.643C317.902 238.369 317.611 237.799 317.681 237.222C317.75 236.64 318.176 236.163 318.747 236.023C322.757 235.034 325.945 233.799 328.748 232.105C299.753 232.926 271.12 217.261 256.474 192.043C256.083 191.368 256.311 190.501 256.987 190.111C257.669 189.721 258.531 189.948 258.922 190.623C273.609 215.911 304.206 231.686 333.358 228.991C333.97 228.939 334.553 229.282 334.792 229.847C335.031 230.411 334.879 231.069 334.413 231.471C331.062 234.347 327.472 236.326 322.798 237.816C324.325 238.683 325.752 239.528 327.151 240.354C329.412 241.693 331.744 243.073 334.43 244.499C334.967 244.784 335.258 245.378 335.165 245.972C335.066 246.571 334.599 247.037 333.999 247.142C329.005 247.986 325.146 247.718 321.026 247.235C323.299 249.534 325.146 252.398 326.819 255.262C327.128 255.792 327.064 256.462 326.65 256.916C326.399 257.242 326.009 257.405 325.613 257.405Z" fill="#658215"/>
<path d="M57.0952 91.2483C60.8718 93.018 65.4352 93.5944 69.4799 94.619L64.8641 82.5508C62.5678 84.7281 59.3915 89.0652 57.0952 91.2483Z" fill="#6B8A16"/>
<path d="M69.4794 96.034C69.3629 96.034 69.2463 96.0224 69.1297 95.9933C67.9758 95.7022 66.7752 95.4461 65.5629 95.1841C62.4915 94.5321 59.321 93.8509 56.4944 92.5294C56.069 92.3315 55.7717 91.9356 55.7018 91.4757C55.626 91.0158 55.7834 90.5443 56.1214 90.2241C57.2113 89.1878 58.5751 87.5636 59.898 85.9918C61.2676 84.3617 62.6839 82.6735 63.8844 81.5266C64.2283 81.2006 64.7062 81.0667 65.1725 81.1715C65.6329 81.2763 66.0117 81.6023 66.1865 82.0447L70.8024 94.1129C70.9889 94.6078 70.8898 95.1666 70.5343 95.5567C70.2662 95.8652 69.8757 96.034 69.4794 96.034ZM59.56 90.7247C61.6406 91.4583 63.9252 91.9473 66.1516 92.4188C66.5071 92.4945 66.8568 92.5702 67.2065 92.6459L64.339 85.1535C63.6105 85.9743 62.8296 86.8999 62.0661 87.8081C61.2268 88.8036 60.3759 89.8224 59.56 90.7247Z" fill="#577012"/>
<path d="M42.9097 103.496C46.4531 105.406 51.4653 108.223 55.0088 110.139C54.4376 105.505 52.5377 99.6015 51.9665 94.9675C49.4196 97.2438 45.4507 101.214 42.9097 103.496Z" fill="#6B8A16"/>
<path d="M55.0028 111.552C54.7697 111.552 54.5424 111.494 54.3267 111.383C52.555 110.423 43.9935 105.696 42.2276 104.741C41.8197 104.52 41.5457 104.119 41.4933 103.664C41.4408 103.21 41.6098 102.751 41.9537 102.448C43.2067 101.324 44.8503 99.7468 46.4472 98.2158C48.0557 96.6731 49.7225 95.0723 51.0106 93.9197C51.401 93.5646 51.9605 93.4656 52.4559 93.6461C52.9513 93.8324 53.301 94.2748 53.3651 94.7987C53.6449 97.0399 54.2626 99.6827 54.8629 102.238C55.4807 104.864 56.116 107.582 56.4132 109.975C56.4773 110.499 56.2442 111.017 55.8071 111.314C55.5623 111.471 55.2825 111.552 55.0028 111.552ZM45.3223 103.199C46.6803 103.944 52.013 106.889 53.132 107.507C52.8348 106.005 52.4618 104.421 52.1004 102.873C51.7041 101.179 51.2961 99.4499 50.9814 97.7966C50.1597 98.5709 46.2956 102.285 45.3223 103.199Z" fill="#577012"/>
<path d="M38.4858 121.892C42.0526 120.058 47.2513 119.301 50.2936 116.687C47.3037 114.743 42.0585 112.571 39.0686 110.627C38.7598 114.894 38.7947 117.636 38.4858 121.892Z" fill="#6B8A16"/>
<path d="M38.4856 123.307C38.2117 123.307 37.9378 123.225 37.7046 123.074C37.2792 122.794 37.0344 122.3 37.0752 121.793C37.2267 119.68 37.2967 117.945 37.3608 116.21C37.4307 114.446 37.5007 112.682 37.6522 110.534C37.6872 110.033 37.9844 109.591 38.4332 109.37C38.8819 109.143 39.4123 109.178 39.8377 109.451C41.2656 110.377 43.3171 111.401 45.3045 112.397C47.3676 113.427 49.5007 114.493 51.0626 115.512C51.4356 115.756 51.6746 116.158 51.7037 116.6C51.7329 117.043 51.5522 117.473 51.2142 117.765C49.1394 119.546 46.3186 120.501 43.591 121.42C41.9592 121.968 40.4205 122.492 39.1325 123.149C38.9285 123.254 38.7071 123.307 38.4856 123.307ZM40.3389 113.02C40.2807 114.178 40.1116 118.492 40.0475 119.668C40.9159 119.336 41.8076 119.034 42.6877 118.737C44.407 118.155 46.1729 117.561 47.6415 116.769C46.5225 116.164 45.2695 115.535 44.0398 114.918C42.7809 114.295 41.4987 113.654 40.3389 113.02Z" fill="#577012"/>
<path d="M38.6839 140.898L50.1827 132.41C46.4236 130.967 42.5537 129.82 38.6139 128.993C39.0044 132.614 38.2876 137.271 38.6839 140.898Z" fill="#6B8A16"/>
<path d="M38.6835 142.313C38.4912 142.313 38.2989 142.272 38.1182 142.196C37.652 141.992 37.3314 141.556 37.279 141.055C37.0692 139.14 37.1508 136.974 37.2323 134.89C37.3081 132.905 37.3897 130.856 37.2032 129.15C37.1508 128.702 37.3256 128.253 37.6636 127.951C38.0017 127.648 38.4621 127.52 38.905 127.613C42.9031 128.457 46.8662 129.627 50.6894 131.094C51.1731 131.281 51.5112 131.712 51.5869 132.224C51.6569 132.736 51.4412 133.243 51.0274 133.551L39.5286 142.039C39.278 142.214 38.9808 142.313 38.6835 142.313ZM40.1406 130.78C40.1755 132.154 40.1172 133.586 40.059 134.995C40.0182 136.06 39.9774 137.143 39.9774 138.185L47.2217 132.835C44.8905 132.032 42.5243 131.345 40.1406 130.78Z" fill="#577012"/>
<path d="M39.4423 162.513C43.656 159.224 47.6191 156.587 52.4622 154.322L39.145 147.01C39.349 152.134 39.2324 157.39 39.4423 162.513Z" fill="#6B8A16"/>
<path d="M39.4361 163.927C39.2322 163.927 39.034 163.886 38.8417 163.793C38.358 163.572 38.0432 163.094 38.0199 162.564C37.915 159.98 37.8917 157.331 37.8742 154.77C37.8509 152.232 37.8276 149.6 37.7285 147.062C37.7052 146.55 37.9616 146.073 38.3987 145.805C38.8359 145.537 39.3779 145.52 39.8266 145.77L53.1438 153.082C53.6101 153.338 53.8956 153.833 53.8782 154.368C53.8607 154.898 53.546 155.375 53.0622 155.602C48.7553 157.611 44.9437 160.009 40.3104 163.624C40.0598 163.828 39.7509 163.927 39.4361 163.927ZM40.6367 149.443C40.6775 151.219 40.7358 158.059 40.7708 159.724C43.7839 157.5 46.5348 155.759 49.4022 154.258L40.6367 149.443Z" fill="#577012"/>
<path d="M52.8174 183.702C53.9481 179.406 56.4017 172.239 57.5323 167.943L41.9072 173.049C45.6489 176.431 48.4988 181.088 52.8174 183.702Z" fill="#6B8A16"/>
<path d="M52.8166 185.116C52.5602 185.116 52.3096 185.046 52.0823 184.912C49.2207 183.183 47.006 180.657 44.8613 178.217C43.5558 176.733 42.3261 175.33 40.9565 174.096C40.5835 173.758 40.4145 173.246 40.5252 172.751C40.6301 172.262 40.9914 171.861 41.4693 171.703L57.0944 166.598C57.584 166.435 58.126 166.557 58.5048 166.913C58.8837 167.268 59.0352 167.803 58.9012 168.304C58.3242 170.481 57.4092 173.409 56.5233 176.244C55.6491 179.05 54.7399 181.943 54.1804 184.062C54.0697 184.493 53.755 184.848 53.3412 185.011C53.178 185.081 52.9973 185.116 52.8166 185.116ZM44.5641 173.665C45.4033 174.544 46.2017 175.458 46.9885 176.349C48.6262 178.212 50.194 179.993 51.9832 181.402C52.5136 179.568 54.9614 171.756 55.4451 170.108L44.5641 173.665Z" fill="#577012"/>
<path d="M68.4662 199.222C69.4745 194.011 69.9174 188.009 71.3569 183.183C66.4031 184.551 61.3501 185.558 56.2563 186.199C60.0388 190.751 63.6464 195.787 68.4662 199.222Z" fill="#6B8A16"/>
<path d="M68.466 200.636C68.1746 200.636 67.889 200.548 67.6442 200.374C63.5529 197.463 60.3416 193.487 57.2353 189.651C56.5417 188.795 55.854 187.945 55.1605 187.107C54.8283 186.711 54.7408 186.164 54.9332 185.686C55.1255 185.203 55.5568 184.866 56.0755 184.802C61.0876 184.173 66.0998 183.172 70.9779 181.827C71.4733 181.687 72.0036 181.833 72.365 182.2C72.7263 182.566 72.8604 183.102 72.7147 183.591C71.8346 186.536 71.3276 190.041 70.8322 193.435C70.5408 195.449 70.2319 197.539 69.8531 199.495C69.7598 199.966 69.4334 200.362 68.9905 200.537C68.8215 200.601 68.6467 200.636 68.466 200.636ZM58.9487 187.258C59.1119 187.462 59.2809 187.666 59.4441 187.869C61.9385 190.955 64.5029 194.127 67.481 196.654C67.6792 195.449 67.854 194.22 68.0289 193.015C68.4135 190.384 68.804 187.677 69.3752 185.163C65.9424 186.03 62.4514 186.728 58.9487 187.258Z" fill="#577012"/>
<path d="M84.4518 215.69C85.8914 210.992 89.0036 204.606 90.4431 199.908L71.9331 202.58C75.8438 207.109 79.9176 211.47 84.4518 215.69Z" fill="#6B8A16"/>
<path d="M84.4518 217.104C84.0963 217.104 83.7524 216.97 83.4844 216.725C79.3231 212.854 75.191 208.529 70.8549 203.505C70.5168 203.115 70.4178 202.568 70.6043 202.085C70.7849 201.602 71.2162 201.252 71.7291 201.182L90.2391 198.51C90.7228 198.429 91.2007 198.621 91.5155 198.988C91.8302 199.355 91.9351 199.861 91.7952 200.321C91.055 202.731 89.8836 205.578 88.7529 208.331C87.6456 211.026 86.5033 213.815 85.8039 216.097C85.6641 216.562 85.2852 216.923 84.819 217.051C84.6966 217.092 84.5742 217.104 84.4518 217.104ZM74.7131 203.61C77.8369 207.143 80.7918 210.235 83.8166 213.139C84.4926 211.265 85.326 209.239 86.1361 207.26C86.9171 205.362 87.7155 203.418 88.3625 201.637L74.7131 203.61Z" fill="#577012"/>
<path d="M97.7456 228.468C99.0744 223.287 100.508 216.912 101.132 211.597L86.5498 217.424C89.8718 220.446 94.4177 225.447 97.7456 228.468Z" fill="#6B8A16"/>
<path d="M97.746 229.882C97.3963 229.882 97.0582 229.753 96.7901 229.515C95.1 227.978 93.0835 225.929 91.1369 223.944C89.2136 221.988 87.2262 219.956 85.5886 218.472C85.2272 218.14 85.064 217.651 85.1456 217.174C85.233 216.696 85.5594 216.295 86.014 216.114L100.596 210.287C101.056 210.107 101.587 210.177 101.983 210.479C102.379 210.782 102.589 211.271 102.531 211.766C101.872 217.43 100.304 224.171 99.1097 228.822C98.9873 229.305 98.6202 229.684 98.1423 229.829C98.0199 229.858 97.88 229.882 97.746 229.882ZM89.132 217.913C90.42 219.165 91.8071 220.579 93.1651 221.959C94.4414 223.263 95.7469 224.59 96.9592 225.772C97.8392 222.174 98.795 217.832 99.4011 213.809L89.132 217.913Z" fill="#577012"/>
<path d="M113.238 242.904C114.648 237.764 116.67 231.488 117.067 226.173C111.419 227.471 105.311 228.63 100.276 231.494C104.373 233.933 109.508 239.924 113.238 242.904Z" fill="#6B8A16"/>
<path d="M113.236 244.318C112.916 244.318 112.607 244.213 112.351 244.01C110.835 242.799 109.145 241.157 107.356 239.417C104.669 236.803 101.895 234.108 99.5462 232.705C99.1149 232.448 98.8527 231.977 98.8585 231.476C98.8643 230.976 99.1382 230.51 99.5753 230.26C104.244 227.611 109.646 226.394 114.874 225.218L116.757 224.793C117.194 224.695 117.654 224.805 117.998 225.096C118.342 225.387 118.522 225.83 118.488 226.278C118.149 230.789 116.687 235.924 115.404 240.459C115.131 241.425 114.862 242.368 114.612 243.282C114.484 243.742 114.14 244.108 113.685 244.254C113.528 244.295 113.382 244.318 113.236 244.318ZM103.026 231.674C105.083 233.258 107.233 235.347 109.332 237.391C110.427 238.456 111.488 239.486 112.473 240.383C112.537 240.15 112.601 239.923 112.671 239.69C113.738 235.941 114.921 231.762 115.445 227.995C111.208 228.944 106.86 229.928 103.026 231.674Z" fill="#577012"/>
<path d="M82.3479 316.607C77.429 310.128 4.52536 209.699 1.6288 201.066C-0.591707 194.453 14.3399 107.478 17.9824 101.132C22.2777 93.6462 71.5076 77.3467 71.5076 77.3467C71.5076 77.3467 41.3181 105.597 39.7329 109.305C38.1476 113.014 38.5672 168.566 41.9534 172.204C45.3395 175.843 117.503 247.171 117.503 247.171L82.3479 316.607Z" fill="#95BA2F"/>
<path d="M69.7126 77.6785C69.7126 77.6785 41.3181 105.597 39.7329 109.305C38.1476 113.014 38.5614 168.566 41.9534 172.204C45.3395 175.843 117.503 247.171 117.503 247.171L114.921 251.281C89.2075 229.899 38.7771 177.979 37.151 175.086C33.0947 167.873 33.4094 110.609 34.5633 108.56C36.8421 104.509 69.7126 77.6785 69.7126 77.6785Z" fill="#B6D440"/>
<path d="M82.3479 316.607C77.429 310.128 4.52536 209.699 1.6288 201.066C-0.591707 194.453 14.3399 107.477 17.9824 101.132C18.9732 99.4033 22.3768 97.2028 26.9926 94.8452C16.2923 121.792 13.7978 179.306 16.9334 196.077C18.606 205.013 56.3488 264.413 96.2362 295.668L82.3479 316.607Z" fill="#83A329"/>
<path d="M82.3484 318.021C81.9055 318.021 81.4858 317.817 81.2178 317.462C78.0939 313.347 3.32532 210.578 0.288882 201.514C-2.30462 193.784 13.3263 106.4 16.7532 100.428C21.1942 92.6913 65.9656 77.6899 71.0594 76.0017C71.6888 75.7921 72.3824 76.0541 72.7204 76.6246C73.0584 77.1951 72.9594 77.9227 72.4698 78.3768C60.8835 89.2218 42.1054 107.361 41.0389 109.864C39.4303 114.044 40.1472 167.436 43.0088 171.261C46.3192 174.812 117.783 245.453 118.5 246.163C118.937 246.594 119.048 247.258 118.768 247.805L83.6073 317.247C83.3858 317.684 82.9545 317.975 82.4708 318.015C82.43 318.021 82.3892 318.021 82.3484 318.021ZM65.8025 80.7693C46.6047 87.4056 21.8703 97.1969 19.2127 101.831C15.4244 108.426 1.1631 195.21 2.97563 200.618C5.6041 208.453 70.6048 298.339 82.1211 313.935L115.778 247.45C107.747 239.51 44.1394 176.628 40.9165 173.165C36.5804 168.508 37.1108 111.849 38.4337 108.752C39.7509 105.673 56.734 89.344 65.8025 80.7693Z" fill="#6B8A16"/>
<path d="M167.34 343.152C165.469 362.734 165.935 382.259 169.455 401.609C175.441 403.006 187.738 405.172 195.157 410.708C193.17 405.87 182.843 396.23 183.309 396.3C190.576 397.394 197.64 399.828 204.039 403.431C199.534 398.413 192.476 394.373 186.433 391.363C193.951 390.38 200.268 390.618 207.67 392.266C208.125 392.074 192.051 385.915 182.586 386.427C184.772 378.021 187.546 366.71 190.547 358.561C186.363 356.354 183.111 352.809 179.421 349.852C175.732 346.901 172.02 343.879 167.34 343.152Z" fill="#95BA2F"/>
<path d="M189.376 357.885C185.745 355.673 182.761 352.536 179.427 349.858C176.204 347.279 172.97 344.648 169.088 343.542C168.488 343.542 167.893 343.571 167.299 343.629C166.139 356.011 165.923 368.369 166.821 380.676C173.209 372.06 180.843 364.382 189.376 357.885Z" fill="#83A329"/>
<path d="M195.035 412C194.738 412 194.44 411.907 194.19 411.72C187.936 407.058 177.661 404.787 171.518 403.431C170.598 403.227 169.753 403.041 169.007 402.866C168.459 402.738 168.033 402.296 167.934 401.743C164.56 383.208 163.843 363.41 165.801 342.895C165.836 342.505 166.034 342.15 166.343 341.912C166.652 341.673 167.042 341.574 167.433 341.632C172.422 342.406 176.292 345.509 180.033 348.507L180.191 348.629C181.362 349.572 182.499 350.574 183.6 351.546C186.048 353.706 188.362 355.749 191.095 357.193C191.724 357.524 192.01 358.264 191.765 358.933C189.183 365.959 186.712 375.541 184.731 383.243L184.311 384.878C189.09 384.995 194.743 386.345 198.875 387.539C208.614 390.35 208.83 391.311 208.952 391.823C209.104 392.493 208.742 393.191 208.107 393.459C207.833 393.57 207.536 393.599 207.25 393.535C201.673 392.295 196.661 391.858 191.194 392.196C197.424 395.613 201.859 398.896 204.983 402.371C205.444 402.884 205.467 403.664 205.036 404.199C204.605 404.741 203.841 404.886 203.235 404.549C198.176 401.696 192.779 399.624 187.149 398.361C190.361 401.719 195.006 406.761 196.352 410.05C196.597 410.638 196.41 411.313 195.909 411.703C195.647 411.901 195.344 412 195.035 412ZM170.563 400.317C171.052 400.427 171.577 400.544 172.13 400.666C177.253 401.795 184.358 403.367 190.431 406.243C188.228 403.565 185.523 400.759 183.874 399.047C181.7 396.789 181.42 396.504 181.916 395.537C182.19 394.996 182.802 394.699 183.396 394.78C187.278 395.368 191.066 396.306 194.738 397.598C192.156 395.921 189.143 394.233 185.687 392.516C185.127 392.237 184.818 391.631 184.923 391.014C185.028 390.403 185.518 389.926 186.135 389.844C189.003 389.466 191.695 389.268 194.33 389.25C190.291 388.266 185.972 387.545 182.551 387.725C182.085 387.76 181.665 387.556 181.38 387.207C181.094 386.858 180.995 386.392 181.106 385.955L181.986 382.533C183.88 375.174 186.217 366.105 188.694 359.084C186.124 357.548 183.891 355.574 181.723 353.659C180.651 352.71 179.544 351.732 178.419 350.83L178.262 350.708C175.079 348.158 172.055 345.73 168.482 344.741C166.757 364.097 167.462 382.777 170.563 400.317Z" fill="#6B8A16"/>
<path d="M122.971 307.136C105.539 316.287 89.4301 327.359 75.1396 340.899C77.2436 346.668 82.1567 358.136 81.5797 367.368C84.5462 363.061 86.9707 349.154 87.1688 349.579C90.2286 356.256 92.0586 363.486 92.5365 370.815C94.2733 364.301 93.8012 356.192 93.0144 349.491C97.9566 355.237 101.209 360.651 103.878 367.741C104.286 368.02 100.655 351.209 95.0426 343.577C103.284 340.8 114.275 336.935 122.749 334.979C122.312 330.269 123.501 325.618 123.956 320.909C124.422 316.205 124.923 311.443 122.971 307.136Z" fill="#95BA2F"/>
<path d="M118.023 320.554C115.54 317.981 112.352 316.141 108.914 315.146C100.084 320.577 91.6742 326.596 83.7363 333.267C94.3901 332.54 105.172 333.791 115.371 336.946C117.947 336.19 120.447 335.509 122.755 334.979C122.569 332.971 122.685 330.968 122.907 328.971C122.021 325.874 120.354 322.975 118.023 320.554Z" fill="#83A329"/>
<path d="M92.5417 372.229C92.4951 372.229 92.4484 372.229 92.4018 372.223C91.7141 372.153 91.1721 371.6 91.1255 370.908C90.7466 365.121 89.5286 359.475 87.5062 354.078C86.4513 358.601 84.767 365.238 82.7447 368.172C82.3833 368.695 81.7131 368.917 81.1128 368.707C80.5125 368.498 80.122 367.915 80.1628 367.281C80.6524 359.498 76.9282 349.666 74.7077 343.792C74.3755 342.913 74.0666 342.104 73.8044 341.388C73.612 340.858 73.7519 340.264 74.1599 339.88C87.8442 326.916 104.041 315.483 122.306 305.896C122.65 305.715 123.058 305.68 123.425 305.808C123.792 305.936 124.095 306.21 124.252 306.565C126.333 311.158 125.849 316.089 125.383 320.862L125.365 321.06C125.22 322.556 124.998 324.052 124.789 325.502C124.316 328.732 123.868 331.783 124.159 334.862C124.223 335.567 123.757 336.213 123.069 336.37C115.761 338.058 106.366 341.242 98.8185 343.804L97.245 344.339C99.7627 348.403 101.727 353.863 102.986 357.967C105.958 367.648 105.276 368.358 104.909 368.736C104.431 369.231 103.65 369.313 103.073 368.923C102.834 368.76 102.648 368.527 102.543 368.253C100.532 362.909 98.1541 358.479 94.8788 354.096C95.4208 361.174 95.1002 366.681 93.8996 371.193C93.7423 371.804 93.1769 372.229 92.5417 372.229ZM76.7942 341.283C76.969 341.755 77.1614 342.255 77.3595 342.785C79.2128 347.686 81.7889 354.486 82.7039 361.139C83.7413 357.833 84.6155 354.032 85.1458 351.721C85.8452 348.664 85.9385 348.274 87.0167 348.164C87.6228 348.111 88.2056 348.443 88.462 348.99C90.0939 352.559 91.3761 356.238 92.3086 360.01C92.2969 356.931 92.0638 353.496 91.615 349.66C91.5393 349.043 91.8831 348.449 92.4543 348.199C93.0254 347.954 93.6898 348.1 94.0978 348.571C95.9803 350.76 97.618 352.902 99.075 355.091C97.6879 351.173 95.9395 347.168 93.9113 344.415C93.6432 344.054 93.5674 343.582 93.7015 343.152C93.8355 342.721 94.1677 342.383 94.599 342.238L97.921 341.114C105.136 338.669 114.018 335.654 121.268 333.884C121.146 330.892 121.577 327.947 121.997 325.082C122.201 323.668 122.416 322.201 122.556 320.775L122.574 320.571C122.97 316.514 123.349 312.66 122.224 309.132C105.06 318.283 89.7908 329.093 76.7942 341.283Z" fill="#6B8A16"/>
<path d="M410.691 109.375C403.983 110.243 396.908 121.879 396.908 121.879C396.908 121.879 394.384 104.462 386.295 104.025C378.2 103.583 370.478 115.912 370.478 115.912C370.478 115.912 321.195 109.067 312.849 99.8924C304.504 90.718 308.781 66.1814 289.794 64.9531C274.967 63.9984 271.202 78.0393 271.202 78.0393C271.202 78.0393 263.328 64.1672 249.801 64.9996C236.571 65.8088 228.814 83.6568 223.202 99.2869C217.589 114.917 212.898 123.16 207.419 130.716C197.949 143.779 72.3357 309.988 74.702 314.057C78.77 321.054 208.299 368.323 214.18 365.895C224.682 361.559 272.787 184.627 272.787 184.627C272.787 184.627 413.874 196.718 409.194 151.12C409.194 151.12 419.812 147.93 419.568 129.668C419.387 115.889 417.4 108.514 410.691 109.375Z" fill="#95BA2F"/>
<path d="M243.169 68.4751C266.236 63.9345 273.714 92.2143 273.714 92.2143C273.714 92.2143 277.572 85.3859 266.592 72.1949C262.774 67.6077 254.586 63.9229 248.67 64.7728C242.767 65.6285 237.62 69.5695 243.169 68.4751Z" fill="#B6D440"/>
<path d="M418.595 123.876C417.767 115.051 415.867 109.363 410.529 110.05C406.431 110.58 403.086 114.015 400.411 117.473C400.399 117.525 399.484 120.547 399.473 120.599C402.8 117.088 406.478 113.537 411.298 114.801C415.308 115.849 417.138 119.906 418.595 123.876Z" fill="#B6D440"/>
<path d="M394.67 118.248C393.679 109.422 391.418 103.729 385.059 104.421C380.181 104.951 376.195 108.386 373.007 111.844C372.995 111.896 371.905 116.053 371.894 116.105C375.857 112.595 380.239 107.909 385.98 109.172C390.759 110.22 392.945 114.272 394.67 118.248Z" fill="#B6D440"/>
<path d="M368.082 120.302C368.362 118.719 368.793 117.211 369.306 115.744C361.817 114.644 320.432 108.229 312.849 99.8929C304.504 90.7185 308.781 66.1819 289.793 64.9536C285.551 64.68 280.119 67.8176 277.514 69.3195C286.716 65.7918 295.517 68.0563 299.322 79.0236C302.574 88.4017 303.023 98.0184 309.084 104.236C315.769 111.093 352.335 117.881 368.082 120.302Z" fill="#B6D440"/>
<path d="M409.223 151.591C407.154 151.731 406.874 151.818 405.143 151.871C384.768 187.124 263.142 172.251 249.795 163.251C256.177 171.355 264.401 178.619 272.787 184.627C272.793 184.627 412.871 196.631 409.223 151.591Z" fill="#83A329"/>
<path d="M271.785 184.627C271.785 184.627 263.037 178.992 260.519 176.774C257.85 174.422 251.025 166.354 251.025 166.354C239.422 173.957 238.274 175.627 203.089 216.551C167.905 257.474 143.515 287.431 153.539 311.106C161.564 330.054 203.649 341.714 224.205 342.913C242.021 294.079 271.785 184.627 271.785 184.627Z" fill="#E9FF57"/>
<path d="M237.364 306.559L236.513 309.254C204.465 300.086 174.602 284.223 149.022 262.574L150.852 260.414C176.146 281.83 205.677 297.507 237.364 306.559ZM160.573 238.386L158.743 240.546C183.612 261.596 212.537 277.179 243.577 286.453L244.399 283.746C213.72 274.583 185.145 259.186 160.573 238.386ZM229.986 329.274C197.407 320.332 167.048 304.388 141.137 282.459L139.307 284.619C165.492 306.78 196.166 322.9 229.077 331.957C229.374 331.073 229.677 330.182 229.986 329.274ZM199.441 150.246L197.611 152.406C219.163 170.65 243.769 184.772 270.147 194.261L270.905 191.525C244.917 182.153 220.678 168.222 199.441 150.246ZM189.725 172.28L187.895 174.44C210.334 193.429 236.065 207.982 263.672 217.459L264.442 214.734C237.219 205.368 211.849 191.007 189.725 172.28ZM180.004 194.319L178.174 196.479C201.463 216.19 228.302 231.092 257.104 240.528L257.885 237.81C229.467 228.478 202.984 213.768 180.004 194.319ZM170.289 216.353L168.459 218.512C192.558 238.91 220.463 254.185 250.413 263.552L251.212 260.839C221.64 251.577 194.085 236.494 170.289 216.353Z" fill="#95BA2F"/>
<path d="M213.726 367.339C204.82 367.339 153.842 348.735 143.27 344.84C127.657 339.089 76.4684 319.913 73.4786 314.767C72.6801 313.394 71.7709 311.834 117.317 249.604C142.075 215.777 204.465 132.375 206.266 129.884C211.546 122.596 216.22 114.521 221.862 98.8098C227.946 81.8641 236.012 64.4235 249.708 63.5853C260.613 62.9216 267.886 70.9201 270.894 75.0241C272.84 70.9492 277.73 63.5736 287.603 63.5503H287.673C301.87 63.5503 305.262 75.3268 308.263 85.7236C309.784 91.0093 311.224 96.0039 313.899 98.9437C320.322 106.011 355.582 112.362 369.79 114.393C371.719 111.57 378.684 102.192 386.377 102.617C393.237 102.989 396.419 112.787 397.666 118.253C400.353 114.574 405.412 108.63 410.517 107.978C412.802 107.687 414.742 108.211 416.281 109.538C419.434 112.269 420.844 118.288 420.996 129.657C421.206 145.473 413.6 150.642 410.704 152.04C411.047 158.082 408.949 163.455 404.45 168.019C379.325 193.528 286.058 187.101 273.86 186.141C271.89 193.359 260.811 233.718 248.793 274.042C221.908 364.237 216.686 366.391 214.722 367.2C214.501 367.293 214.163 367.339 213.726 367.339ZM76.1828 313.632C79.2542 316.502 102.846 326.911 143.69 341.976C183.915 356.815 210.829 365.087 213.732 364.563C220.9 361.361 252.937 252.27 271.43 184.26C271.61 183.602 272.24 183.143 272.916 183.224C273.953 183.311 377.029 191.816 402.422 166.034C406.618 161.773 408.372 156.941 407.79 151.265C407.72 150.59 408.139 149.961 408.792 149.769C409.177 149.647 418.379 146.55 418.158 129.692C418.076 123.271 417.592 114.422 414.422 111.675C413.495 110.871 412.365 110.586 410.878 110.784C405.936 111.419 399.997 119.545 398.127 122.619C397.818 123.125 397.217 123.387 396.635 123.271C396.046 123.154 395.603 122.677 395.516 122.089C394.857 117.566 391.902 105.755 386.226 105.44C386.109 105.434 385.987 105.429 385.87 105.429C378.824 105.429 371.76 116.553 371.685 116.664C371.387 117.135 370.834 117.397 370.292 117.316C368.258 117.036 320.403 110.289 311.813 100.841C308.695 97.4127 307.168 92.1153 305.553 86.5036C302.703 76.6074 299.754 66.3795 287.684 66.3795H287.626C276.203 66.4086 272.718 77.9405 272.572 78.4295C272.415 78.9767 271.943 79.3726 271.377 79.4424C270.818 79.5006 270.258 79.2328 269.979 78.738C269.903 78.6041 262.315 65.6402 249.895 66.4144C237.842 67.1537 230.313 83.6919 224.543 99.7703C218.79 115.796 214 124.068 208.574 131.549C206.755 134.058 200.601 142.283 192.08 153.675C161.145 195.012 79.7088 303.876 76.1828 313.632Z" fill="#6B8A16"/>
<path d="M384.629 120.529C383.783 123.33 381.802 125.21 380.199 124.727C378.596 124.244 377.984 121.583 378.824 118.783C379.669 115.983 381.65 114.102 383.253 114.585C384.856 115.069 385.468 117.729 384.629 120.529Z" fill="#577012"/>
<path d="M410.412 124.907C409.567 127.707 407.585 129.587 405.982 129.104C404.38 128.621 403.768 125.96 404.607 123.16C405.452 120.36 407.434 118.479 409.036 118.963C410.639 119.446 411.257 122.106 410.412 124.907Z" fill="#577012"/>
<path d="M273.26 186.082C273.102 186.082 272.945 186.059 272.793 186.001C264.856 183.224 254.417 172.618 248.624 164.049C248.187 163.403 248.356 162.524 249.009 162.087C249.662 161.65 250.536 161.819 250.973 162.471C256.591 170.778 266.633 180.855 273.732 183.34C274.466 183.597 274.857 184.406 274.6 185.145C274.39 185.715 273.842 186.082 273.26 186.082Z" fill="#6B8A16"/>
<path d="M274.984 93.1699C274.238 93.1699 273.615 92.5877 273.574 91.8309C273.102 83.2091 270.083 78.9069 270.054 78.8662C269.599 78.2316 269.739 77.3526 270.374 76.8927C271.004 76.4386 271.889 76.5725 272.344 77.2012C272.49 77.3991 275.882 82.1379 276.4 91.6737C276.441 92.4538 275.847 93.1233 275.066 93.164C275.037 93.1699 275.013 93.1699 274.984 93.1699Z" fill="#6B8A16"/>
<path d="M328.748 121.071C327.967 121.071 327.332 120.436 327.332 119.656C327.332 114.795 332.84 108.1 336.838 108.1C337.619 108.1 338.254 108.735 338.254 109.515C338.254 110.295 337.619 110.93 336.838 110.93C334.745 110.93 330.164 115.913 330.164 119.656C330.164 120.442 329.535 121.071 328.748 121.071Z" fill="#6B8A16"/>
<path d="M338.726 123.324C338.656 123.324 338.586 123.318 338.516 123.306C337.741 123.19 337.211 122.468 337.327 121.7C338.12 116.419 342.281 110.278 346.454 110.278C347.235 110.278 347.87 110.912 347.87 111.692C347.87 112.472 347.235 113.107 346.454 113.107C344.327 113.107 340.812 117.56 340.13 122.119C340.02 122.817 339.414 123.324 338.726 123.324Z" fill="#6B8A16"/>
<path d="M314.178 151.69C320.543 151.883 324.925 149.408 329.174 147.016C331.977 145.438 334.629 143.942 337.566 143.459C343.301 142.516 348.686 144.78 353.897 146.981C355.068 147.476 356.234 147.965 357.394 148.413C370.606 153.536 408.733 152.174 412.084 147.697C412.551 147.074 413.442 146.94 414.066 147.412C414.689 147.877 414.818 148.768 414.351 149.391C409.532 155.818 369.143 156.004 356.368 151.05C355.179 150.59 353.99 150.09 352.795 149.583C347.952 147.54 342.952 145.444 338.027 146.247C335.585 146.649 333.259 147.959 330.561 149.478C326.347 151.848 321.592 154.526 314.854 154.526C314.604 154.526 314.347 154.52 314.091 154.514" fill="#6B8A16"/>
<path d="M368.082 126.502C367.301 126.502 366.666 125.873 366.666 125.088C366.66 121.472 367.622 117.921 369.446 114.801C369.842 114.125 370.711 113.898 371.381 114.294C372.057 114.69 372.284 115.558 371.888 116.233C370.314 118.917 369.487 121.979 369.493 125.088C369.498 125.862 368.863 126.502 368.082 126.502Z" fill="#6B8A16"/>
<path d="M113.383 307.683C116.163 308.23 119.112 306.862 120.639 304.906C122.166 302.956 122.515 300.552 122.492 298.247C122.434 293.072 117.072 285.166 110.475 291.11C106.127 295.022 105.422 306.117 113.383 307.683Z" fill="#83A329"/>
<path d="M126.612 289.352C126.111 290.732 126.426 292.397 127.469 293.439C128.355 294.324 129.666 294.703 130.914 294.638C132.126 294.574 133.35 294.085 134.148 293.171C135.221 291.937 135.349 289.975 134.44 288.613C132.551 285.772 127.796 286.116 126.612 289.352Z" fill="#83A329"/>
<path d="M115.498 280.166C115.93 282.535 118.412 284.34 120.802 284.02C123.192 283.706 125.115 281.319 124.917 278.914C124.718 276.557 122.09 274.048 119.631 274.269C117.078 274.502 115.067 277.797 115.498 280.166Z" fill="#83A329"/>
<path d="M129.398 279.613C129.072 280.254 129.043 281.034 129.276 281.715C129.643 282.815 130.675 283.659 131.829 283.787C132.983 283.915 134.183 283.304 134.743 282.291C135.302 281.278 135.168 279.922 134.411 279.048C133.158 277.616 130.284 277.878 129.398 279.613Z" fill="#83A329"/>
<path d="M279.461 93.7803C280.346 99.4677 284.187 103.595 288.045 102.995C291.903 102.396 294.311 97.3021 293.43 91.6148C292.545 85.9274 288.704 81.8001 284.846 82.3997C280.987 82.9993 278.575 88.0929 279.461 93.7803Z" fill="#452800"/>
<path d="M289.992 95.201C290.237 96.7728 291.706 97.844 293.279 97.5995C294.853 97.355 295.925 95.8879 295.68 94.3161C295.436 92.7442 293.967 91.6731 292.393 91.9176C290.826 92.1621 289.747 93.6349 289.992 95.201Z" fill="#F7FFC4"/>
<path d="M286.909 91.3184C290.534 90.1307 292.824 87.1792 292.02 84.7225C291.216 82.2658 287.62 81.2412 283.995 82.4288C280.37 83.6164 278.079 86.5679 278.884 89.0246C279.688 91.4755 283.284 92.506 286.909 91.3184Z" fill="#95BA2F"/>
<path d="M245.19 98.3616C245.902 104.072 249.614 108.316 253.49 107.833C257.365 107.355 259.93 102.332 259.219 96.621C258.508 90.9103 254.795 86.6666 250.919 87.1498C247.05 87.633 244.479 92.6509 245.19 98.3616Z" fill="#452800"/>
<path d="M255.675 100.108C255.873 101.686 257.307 102.803 258.887 102.606C260.466 102.408 261.585 100.976 261.387 99.3979C261.189 97.8202 259.755 96.7025 258.176 96.9004C256.602 97.0925 255.483 98.5304 255.675 100.108Z" fill="#F7FFC4"/>
<path d="M252.715 96.1269C256.375 95.0499 258.753 92.174 258.024 89.694C257.296 87.214 253.735 86.0788 250.075 87.1558C246.415 88.2328 244.037 91.1086 244.766 93.5886C245.494 96.0687 249.049 97.2039 252.715 96.1269Z" fill="#95BA2F"/>
<path d="M247.96 44.7823C249.749 44.858 251.41 45.702 252.855 47.1515C251.252 43.6355 249.032 41.4467 246.508 41.3419C241.059 41.1207 236.239 50.6792 235.744 62.7002C235.721 63.2939 235.709 63.8761 235.709 64.4582C236.607 53.2173 241.916 44.5378 247.96 44.7823Z" fill="#65322D"/>
<path d="M307.867 28.7876L224.289 38.1621L226.331 56.3276L309.909 46.9531L307.867 28.7876Z" fill="#F7DDBD"/>
<path d="M322.647 75.3735L218.638 86.3815L214.675 52.2339L322.349 40.1548L322.647 75.3735Z" fill="#F7DDBD"/>
<path d="M300.418 42.6172C302.172 58.2007 288.429 72.5385 269.733 74.6342C251.036 76.7298 234.455 65.7975 232.701 50.2139C230.947 34.6246 244.69 20.2926 263.386 18.1969C282.083 16.0954 298.664 27.0278 300.418 42.6172Z" fill="#F7DDBD"/>
<path d="M291.419 18.0222C288.942 19.0119 286.681 20.3159 284.624 21.7946C285.329 22.1614 286.011 22.5572 286.687 22.9648C288.068 21.2241 289.659 19.5649 291.419 18.0222Z" fill="#F7951F"/>
<path d="M291.419 18.0222C288.942 19.0119 286.681 20.3159 284.624 21.7946C285.329 22.1614 286.011 22.5572 286.687 22.9648C288.068 21.2241 289.659 19.5649 291.419 18.0222Z" fill="url(#paint0_linear_31_917)"/>
<path d="M327.297 35.8176L323.27 35.0085L325.84 31.801C327.606 29.6005 330.578 28.2383 334.67 27.761C332.134 26.4687 329.139 26.7365 328.952 26.7481L324.902 27.1498L326.4 23.3485C327.851 19.652 331.662 17.4341 335.124 16.1417C333.469 15.6935 331.715 15.5712 329.885 15.7633C322.984 16.4968 317.15 21.4682 317.092 21.5148L315.221 23.1331L313.52 24.6L313.281 22.3647L313.018 19.8848C312.878 18.5867 313.345 17.3002 314.073 16.1243C311.509 16.9451 309.545 18.3014 309.516 18.3189L306.689 20.2981L305.727 16.9684C304.976 14.3546 306.485 11.3741 308.467 8.81274C302.26 10.4951 296.216 13.8249 291.419 18.022C289.654 19.5646 288.062 21.2237 286.693 22.9643C295.849 28.5119 302.604 37.9773 304.527 49.3579C306.299 57.0537 313.724 71.3915 313.724 71.3915C314.015 71.6243 314.283 71.8688 314.569 72.1075C314.819 72.5674 315.105 73.1145 315.408 73.7258C315.641 73.6559 315.903 73.5919 316.171 73.5453C316.34 73.5104 316.515 73.4813 316.702 73.4638C319.627 73.1495 323.561 74.5291 326.359 75.7516C326.26 75.3907 326.12 75.0647 325.974 74.762C325.391 73.5802 324.54 72.8468 324.371 72.7071L320.875 69.8605L324.948 68.4459L325.094 68.3935C325.689 68.1839 326.306 68.05 326.924 67.9802C329.494 67.7066 331.808 68.6671 333.685 69.942C332.828 65.9253 330.765 62.8866 329.127 60.9888C327.938 59.6092 326.971 58.835 326.86 58.7476L324.861 57.1817L326.446 55.2025C327.251 54.2012 328.305 53.4677 329.547 53.0137C330.17 52.7867 330.835 52.6295 331.546 52.5538C332.391 52.4665 333.236 52.4839 334.029 52.5713C332.169 49.2881 328.847 48.3683 328.661 48.3217L324.931 47.3379L325.881 46.1504L327.338 44.3342C328.439 42.9603 330.054 42.058 332.14 41.6331C332.537 41.5516 332.945 41.4817 333.382 41.4352C334.25 41.342 335.13 41.3304 335.958 41.3653C332.863 36.9935 327.577 35.87 327.297 35.8176Z" fill="#F4A032"/>
<path d="M330.287 46.2614C328.917 46.1625 327.414 46.1043 325.869 46.1508L324.919 47.3384L328.649 48.3223C328.836 48.3747 332.158 49.2887 334.017 52.5721C333.224 52.4847 332.379 52.4615 331.534 52.5546C330.823 52.6303 330.159 52.7875 329.535 53.0145C330.398 53.6025 331.237 54.2661 332.041 55.023C334.792 54.8192 337.648 56.0825 337.648 56.0825C336.966 49.6729 332.374 47.1056 330.287 46.2614Z" fill="#F7951F"/>
<path d="M340.008 30.1536C337.386 23.3485 328.702 24.2741 328.702 24.2741C331.004 18.4237 341.966 16.9626 341.966 16.9626C329.873 7.10715 315.478 19.6287 315.478 19.6287C315.198 17.0033 320.228 13.3708 320.228 13.3708C314.499 11.7642 308.099 16.2815 308.099 16.2815C306.94 12.2764 315.548 5.16284 315.548 5.16284C304.41 5.64601 291.658 12.4744 284.501 21.7302C284.542 21.7477 284.583 21.7768 284.624 21.7942C286.681 20.3156 288.942 19.0117 291.419 18.022C296.216 13.8249 302.254 10.4951 308.467 8.81278C306.485 11.3741 304.97 14.3546 305.727 16.9684L306.689 20.2982L309.516 18.3189C309.539 18.3015 311.509 16.9451 314.073 16.1243C313.345 17.3002 312.884 18.5867 313.018 19.8848L313.281 22.3647C313.922 22.5859 314.569 22.8421 315.221 23.1331L317.092 21.5148C317.15 21.4682 322.979 16.491 329.885 15.7634C331.721 15.5713 333.469 15.6935 335.124 16.1418C331.662 17.4341 327.851 19.652 326.4 23.3485L324.902 27.1498L328.952 26.7481C329.139 26.7307 332.14 26.4629 334.67 27.761C330.573 28.2384 327.606 29.5947 325.84 31.801L323.27 35.0085L327.297 35.8177C327.571 35.8701 332.857 36.9878 335.94 41.3595C335.113 41.3304 334.233 41.3421 333.364 41.4294C332.927 41.476 332.519 41.5458 332.123 41.6273C332.91 42.3142 333.638 43.0593 334.285 43.8685C337.193 43.7055 340.066 44.4564 340.066 44.4564C337.625 35.2705 327.763 33.3669 327.763 33.3669C331.062 29.2571 340.008 30.1536 340.008 30.1536Z" fill="#F7951F"/>
<path d="M329.115 60.9829C330.753 62.8808 332.816 65.9255 333.673 69.9365C331.796 68.6616 329.482 67.7069 326.912 67.9747C326.294 68.0445 325.677 68.1784 325.082 68.388L324.937 68.4404C325.344 69.139 325.706 69.8958 326.003 70.7225C331.458 68.9469 336.412 76.1249 336.412 76.1249C337.036 70.5187 335.351 65.9546 333.364 62.6712C332.158 62.0192 330.73 61.4079 329.115 60.9829Z" fill="#F7951F"/>
<path d="M306.147 33.3146C306.147 33.3146 323.188 33.8327 332.129 41.6274C332.525 41.5459 332.933 41.4761 333.37 41.4295C334.238 41.3364 335.118 41.3247 335.946 41.3596C332.869 36.9879 327.583 35.8702 327.303 35.8178L323.276 35.0086L325.846 31.8011C327.612 29.6007 330.584 28.2385 334.675 27.7611C332.14 26.4688 329.145 26.7366 328.958 26.7482L324.908 27.1499L326.405 23.3486C327.857 19.6521 331.668 17.4342 335.13 16.1419C333.475 15.6936 331.721 15.5714 329.891 15.7635C322.99 16.497 317.156 21.4683 317.098 21.5149L315.227 23.1332C317.244 24.0239 319.313 25.258 321.382 26.9403C321.376 26.9403 310.658 26.201 306.147 33.3146Z" fill="#F7951F"/>
<path d="M315.909 48.7699C315.909 48.7699 323.218 48.7233 329.529 53.0138C330.153 52.7868 330.817 52.6296 331.528 52.5539C332.374 52.4666 333.219 52.4841 334.011 52.5714C332.152 49.288 328.83 48.3682 328.644 48.3216L324.914 47.3378L325.864 46.1501C322.268 46.2491 318.485 46.8953 315.909 48.7699Z" fill="#F7951F"/>
<path d="M317.442 61.8505C317.442 61.8505 322.186 63.6843 324.943 68.4406L325.089 68.3882C325.683 68.1786 326.301 68.0447 326.919 67.9749C329.489 67.7012 331.803 68.6618 333.679 69.9367C332.823 65.9198 330.76 62.881 329.122 60.9831C325.864 60.1215 321.878 60.0109 317.442 61.8505Z" fill="#F7951F"/>
<path d="M304.981 16.1774C304.981 16.1774 299.252 17.0098 295.942 23.0061C295.942 23.0061 303.81 19.1173 313.286 22.3715L313.024 19.8915C312.884 18.5933 313.351 17.3067 314.079 16.1308C311.515 16.9516 309.551 18.3081 309.522 18.3255L306.695 20.3049L305.733 16.9749C304.981 14.361 306.491 11.3804 308.472 8.81885C302.266 10.5013 296.222 13.8313 291.425 18.0286C295.365 16.4452 299.853 15.6476 304.981 16.1774Z" fill="#F7951F"/>
<path d="M315.222 23.133C314.569 22.8477 313.922 22.5857 313.281 22.3645L313.52 24.6L315.222 23.133Z" fill="#F7951F"/>
<path d="M327.327 44.3345L325.87 46.1508C327.414 46.1043 328.918 46.1625 330.287 46.2614C329.664 46.0053 329.256 45.9005 329.256 45.9005C330.392 44.48 332.35 43.9735 334.291 43.8688C333.644 43.0654 332.922 42.3202 332.129 41.6274C330.043 42.0524 328.428 42.9548 327.327 44.3345Z" fill="#F7951F"/>
<path d="M320.869 69.855L324.366 72.7018C324.535 72.8357 325.38 73.575 325.969 74.7568C326.546 75.1935 326.878 75.4845 326.878 75.4845C326.849 73.7613 326.534 72.2419 326.068 70.8855C325.969 70.7981 325.905 70.7457 325.905 70.7457C325.94 70.7341 325.98 70.7283 326.015 70.7166C325.718 69.89 325.357 69.1332 324.949 68.4346L320.869 69.855Z" fill="#F7951F"/>
<path d="M329.53 53.0078C328.288 53.4561 327.233 54.1896 326.429 55.1967L324.844 57.1761L326.843 58.7421C326.954 58.8294 327.921 59.6095 329.11 60.9834C330.718 61.4084 332.146 62.0197 333.364 62.6659C331.062 58.8585 328.358 56.7628 328.358 56.7628C329.308 55.581 330.66 55.1152 332.036 55.0163C331.237 54.2595 330.392 53.5958 329.53 53.0078Z" fill="#F7951F"/>
<path d="M286.693 22.9644C295.849 28.5121 302.604 37.9775 304.527 49.3581C306.299 57.0538 313.764 71.1937 313.764 71.1937C314.056 71.4265 314.283 71.8631 314.563 72.1018C314.085 71.2344 313.741 70.6814 313.741 70.6814C319.109 70.1109 324.004 73.2777 325.963 74.7505C325.38 73.5688 324.529 72.8353 324.36 72.6956L320.863 69.849L324.937 68.4344C322.18 63.6842 317.436 61.8447 317.436 61.8447C321.871 59.9994 325.858 60.11 329.11 60.9773C327.921 59.5977 326.953 58.8235 326.843 58.7362L324.844 57.1702L326.429 55.191C327.233 54.1897 328.288 53.4563 329.529 53.0022C323.218 48.7177 315.909 48.7585 315.909 48.7585C318.485 46.8899 322.268 46.2437 325.869 46.1389L327.326 44.3227C328.428 42.9489 330.042 42.0466 332.129 41.6216C323.188 33.8269 306.147 33.3088 306.147 33.3088C310.658 26.1894 321.382 26.9345 321.382 26.9345C319.313 25.2522 317.244 24.0239 315.227 23.1274L313.525 24.5944L313.286 22.359C303.81 19.1049 295.942 22.9935 295.942 22.9935C299.252 16.9976 304.981 16.1652 304.981 16.1652C299.853 15.6354 295.365 16.4329 291.425 18.0105C289.659 19.5648 288.068 21.2239 286.693 22.9644Z" fill="#F7951F"/>
<path d="M332.04 55.0164C331.236 54.2596 330.397 53.596 329.534 53.008C323.223 48.7236 315.914 48.7643 315.914 48.7643C318.49 46.8957 322.273 46.2495 325.874 46.1447C327.419 46.0982 328.922 46.1564 330.292 46.2553C333.707 46.5057 336.254 47.047 336.254 47.047C335.741 45.8886 335.071 44.8349 334.296 43.8628C333.649 43.0595 332.926 42.3143 332.134 41.6216C323.193 33.8269 306.152 33.3088 306.152 33.3088C310.663 26.1894 321.387 26.9345 321.387 26.9345C319.318 25.2522 317.249 24.0239 315.232 23.1274C314.58 22.8422 313.933 22.5802 313.291 22.359C303.815 19.1049 295.947 22.9935 295.947 22.9935C299.257 16.9976 304.986 16.1652 304.986 16.1652C299.858 15.6354 295.37 16.4329 291.43 18.0105C288.808 19.4484 286.01 20.0421 284.635 21.7827C293.791 27.3304 302.614 37.9658 304.532 49.3464C306.304 57.0422 313.332 70.6057 313.332 70.6057C313.624 70.8386 314.288 71.8515 314.568 72.096C314.09 71.2286 313.746 70.6756 313.746 70.6756C319.114 70.1051 324.009 73.2719 325.968 74.7447C326.545 75.1813 326.877 75.4723 326.877 75.4723C326.848 73.7492 326.533 72.2299 326.067 70.8735C326.049 70.8211 326.032 70.7571 326.014 70.7047C325.717 69.8781 325.356 69.1213 324.948 68.4228C322.191 63.6726 317.447 61.8331 317.447 61.8331C321.882 59.9877 325.868 60.0983 329.121 60.9657C330.729 61.3907 332.157 62.0019 333.375 62.6481C336.266 64.1907 337.95 65.9429 337.95 65.9429C336.919 61.0356 334.698 57.5253 332.04 55.0164Z" fill="#FDDB00"/>
<path d="M326.062 70.8911C326.534 72.2475 326.842 73.767 326.872 75.4902C326.872 75.4902 326.534 75.1933 325.962 74.7625C324.004 73.2896 318.689 70.0528 313.327 70.6233C313.327 70.6233 316.119 75.2224 316.451 76.0491C317.057 75.9152 317.757 75.8977 318.508 75.9792C322.74 76.41 328.597 79.6177 328.597 79.6177C330.165 74.8731 326.848 71.5839 326.062 70.8911Z" fill="#F7951F"/>
<path d="M236.548 23.8263C230.97 20.7294 224.367 18.7444 217.945 18.4067C220.422 20.4908 222.531 23.0929 222.345 25.8056L222.1 29.2634L218.924 27.9245C218.895 27.9129 216.686 26.9989 214.011 26.7312C214.966 27.7266 215.695 28.8909 215.829 30.1832L216.091 32.6689L216.324 34.8984L214.354 33.8215L212.186 32.6339C212.116 32.599 205.373 28.9607 198.473 29.6942C196.643 29.8863 194.953 30.3811 193.432 31.1611C197.086 31.6967 201.276 33.0647 203.479 36.3712L205.735 39.7766L201.702 40.2423C201.515 40.2656 198.531 40.6324 196.322 42.4311C200.431 42.0353 203.619 42.7397 205.811 44.5268L209.028 47.1464L205.222 48.7647C205.158 48.7938 200.093 51.0059 197.954 55.9947C198.759 55.791 199.615 55.6163 200.478 55.5232C200.909 55.4766 201.329 55.4591 201.731 55.4533C203.858 55.43 205.63 55.9714 206.994 57.0833L208.783 58.5561L209.96 59.5282L206.539 61.263C206.37 61.3503 203.316 62.9395 202.185 66.5487C202.943 66.2984 203.765 66.0946 204.61 66.0073C205.321 65.9316 206.009 65.9491 206.661 66.0364C207.973 66.2169 209.156 66.7117 210.152 67.5266L212.111 69.1333L210.49 71.0776C210.403 71.1882 209.622 72.1487 208.748 73.7496C207.547 75.95 206.172 79.3555 206.178 83.4653C207.745 81.8237 209.809 80.4033 212.373 80.1297C212.991 80.0657 213.626 80.0715 214.244 80.1472L214.395 80.1646L218.661 80.7118L215.858 84.2104C215.724 84.3792 215.054 85.2757 214.727 86.5564C214.646 86.8824 214.576 87.2317 214.558 87.61C217.041 85.8287 220.591 83.6574 223.516 83.3431C223.703 83.3198 223.872 83.3198 224.047 83.3139C224.321 83.3081 224.583 83.3081 224.828 83.3314C224.997 82.6678 225.16 82.074 225.311 81.5734C225.533 81.2823 225.55 80.3742 225.789 80.0831C225.789 80.0831 230.23 65.1225 230.341 57.2288C229.822 45.6969 234.432 35.0265 242.219 27.68C240.499 26.2538 238.599 24.9673 236.548 23.8263Z" fill="#F7951F"/>
<path d="M208.778 58.5615L209.955 59.5337L206.534 61.2685C206.365 61.3559 203.311 62.9452 202.18 66.5545C202.938 66.3042 203.76 66.1005 204.605 66.0131C205.316 65.9375 206.003 65.9549 206.656 66.0422C211.925 60.5234 219.082 59.033 219.082 59.033C216.168 57.7406 212.333 57.9036 208.778 58.5615Z" fill="#F7951F"/>
<path d="M225.375 41.8717C219.466 35.8584 209.144 38.8389 209.144 38.8389C210.811 36.7607 212.571 35.1249 214.354 33.8267L212.186 32.6392C212.116 32.6043 205.373 28.966 198.473 29.6995C196.643 29.8916 194.953 30.3864 193.432 31.1664C197.086 31.702 201.276 33.07 203.479 36.3765L205.735 39.7819L201.702 40.2476C201.515 40.2709 198.531 40.6376 196.322 42.4364C200.431 42.0406 203.619 42.7449 205.811 44.5321L209.028 47.1516L205.222 48.7699C205.158 48.7991 200.093 51.0111 197.954 56C198.759 55.7962 199.615 55.6216 200.478 55.5284C200.909 55.4819 201.329 55.4644 201.731 55.4586C208.824 45.9583 225.375 41.8717 225.375 41.8717Z" fill="#F7951F"/>
<path d="M233.179 29.6478C228.68 24.484 222.904 24.8741 222.904 24.8741C227.806 23.279 232.363 23.116 236.548 23.832C230.97 20.7349 224.367 18.7498 217.945 18.4121C220.422 20.4962 222.531 23.0985 222.345 25.8114L222.1 29.2694L218.924 27.9304C218.895 27.9188 216.686 27.0048 214.011 26.737C214.967 27.7325 215.695 28.8968 215.829 30.1892L216.091 32.675C224.664 27.4938 233.179 29.6478 233.179 29.6478Z" fill="#F7951F"/>
<path d="M220.34 72.1424C215.613 71.2691 211.738 72.2181 208.742 73.7433C207.541 75.9439 206.166 79.3495 206.172 83.4596C207.74 81.8179 209.803 80.3974 212.367 80.1238C212.985 80.0598 213.62 80.0656 214.238 80.1413L214.389 80.1587C216.085 74.9367 220.34 72.1424 220.34 72.1424Z" fill="#F7951F"/>
<path d="M225.812 80.0007C220.45 80.5712 216.33 84.6988 214.727 86.55C214.646 86.876 214.576 87.2254 214.558 87.6038C217.041 85.8223 220.59 83.6509 223.516 83.3365C223.702 83.3132 223.871 83.3132 224.046 83.3074C224.448 82.7194 224.868 82.1373 225.311 81.5609C225.597 80.612 225.812 80.0007 225.812 80.0007Z" fill="#F7951F"/>
<path d="M216.085 32.6741C215.508 33.0234 214.931 33.4134 214.354 33.8326L216.324 34.9096L216.085 32.6741Z" fill="#F7951F"/>
<path d="M242.213 27.6682C242.79 27.1268 243.378 26.5971 243.984 26.0906C241.659 25.0776 239.176 24.2801 236.542 23.8318C238.599 24.967 240.499 26.2536 242.213 27.6682Z" fill="#F7951F"/>
<path d="M213.987 87.4585C213.987 87.4585 214.255 87.1034 214.721 86.5562C215.048 85.2754 215.718 84.3789 215.852 84.2101L218.655 80.7113L214.389 80.1641C214.138 80.9325 213.94 81.7475 213.824 82.615C213.865 82.6208 213.9 82.615 213.94 82.6208C213.94 82.6208 213.888 82.6848 213.806 82.7954C213.637 84.2159 213.655 85.7644 213.987 87.4585Z" fill="#F7951F"/>
<path d="M206.993 57.0888C205.624 55.9769 203.858 55.4354 201.73 55.4587C201.101 56.297 200.547 57.1761 200.087 58.1017C202.004 57.799 204.027 57.8805 205.437 59.0332C205.437 59.0332 205.058 59.2253 204.499 59.6037C205.81 59.2195 207.267 58.8527 208.777 58.5675L206.993 57.0888Z" fill="#F7951F"/>
<path d="M210.484 71.0776L212.104 69.1332L210.146 67.5265C209.15 66.7114 207.966 66.2166 206.655 66.0361C205.938 66.7871 205.251 67.6138 204.627 68.5278C205.997 68.3357 207.419 68.5045 208.59 69.4651C208.59 69.4651 206.387 72.0848 204.936 76.288C205.985 75.3973 207.255 74.5066 208.736 73.7498C209.61 72.1488 210.391 71.1883 210.484 71.0776Z" fill="#F7951F"/>
<path d="M225.311 81.5614C225.532 81.2703 225.579 80.2924 225.812 80.0013C225.812 80.0013 230.224 65.1105 230.341 57.2168C229.822 45.6849 234.432 35.0145 242.218 27.668C240.505 26.2535 238.599 24.967 236.553 23.826C232.369 23.11 227.811 23.273 222.91 24.868C222.91 24.868 228.685 24.478 233.185 29.6414C233.185 29.6414 224.67 27.4934 216.091 32.6685L216.324 34.8981L214.354 33.8211C212.571 35.1193 210.805 36.755 209.144 38.8332C209.144 38.8332 219.471 35.8586 225.375 41.8661C225.375 41.8661 208.823 45.9527 201.725 55.4472C203.852 55.4239 205.624 55.9653 206.987 57.0771L208.777 58.5499C212.326 57.8921 216.167 57.7233 219.075 59.0156C219.075 59.0156 211.918 60.5058 206.649 66.0244C207.961 66.2049 209.144 66.6997 210.14 67.5147L212.099 69.1213L210.478 71.0656C210.391 71.1762 209.61 72.1368 208.736 73.7376C211.731 72.2124 215.607 71.2636 220.334 72.1368C220.334 72.1368 216.079 74.9251 214.383 80.1527L218.649 80.6999L215.846 84.1984C215.712 84.3673 215.042 85.2637 214.715 86.5444C216.318 84.6932 220.439 80.566 225.8 79.9955C225.812 80.0013 225.596 80.6125 225.311 81.5614Z" fill="#F7951F"/>
<path d="M236.548 23.826C232.363 23.11 227.806 23.273 222.904 24.868C222.904 24.868 228.68 24.478 233.179 29.6414C233.179 29.6414 224.665 27.4934 216.086 32.6685C215.509 33.0178 214.932 33.4078 214.355 33.8269C212.571 35.1251 210.805 36.7609 209.144 38.8391C209.144 38.8391 219.472 35.8644 225.376 41.8719C225.376 41.8719 208.824 45.9585 201.725 55.453C201.096 56.2912 200.542 57.1703 200.082 58.0958C199.522 59.2077 199.097 60.3836 198.834 61.6177C198.834 61.6177 201.212 60.5582 204.499 59.5919C205.811 59.2077 207.268 58.841 208.777 58.5557C212.327 57.8979 216.167 57.7291 219.075 59.0214C219.075 59.0214 211.919 60.5117 206.65 66.0302C205.933 66.7812 205.245 67.6078 204.622 68.5217C202.553 71.5313 201.119 75.4316 201.16 80.4612C201.16 80.4612 202.436 78.3946 204.936 76.2757C205.986 75.385 207.256 74.4944 208.736 73.7376C211.732 72.2124 215.608 71.2636 220.334 72.1368C220.334 72.1368 216.08 74.9251 214.384 80.1527C214.133 80.9211 213.935 81.736 213.818 82.6034C213.813 82.6616 213.807 82.7257 213.801 82.7839C213.632 84.2043 213.644 85.7585 213.976 87.4467C213.976 87.4467 214.244 87.0916 214.71 86.5444C216.313 84.6932 220.433 80.566 225.795 79.9955C225.795 79.9955 225.58 80.6067 225.294 81.5556C225.515 81.2645 225.562 80.2865 225.795 79.9955C225.795 79.9955 230.207 65.1047 230.324 57.211C229.805 45.6791 234.415 35.0087 242.201 27.6622C242.778 27.1208 243.367 26.5911 243.973 26.0846C241.659 25.0776 239.177 24.2801 236.548 23.826Z" fill="#FDDB00"/>
<path d="M244.415 26.277C244.31 26.1837 244.205 26.0904 244.095 25.9971C244.06 26.0262 244.025 26.0554 243.99 26.0904C244.13 26.1487 244.275 26.2128 244.415 26.277Z" fill="#F7951F"/>
<path d="M210.252 16.3224C210.252 16.3224 220.165 21.4625 219.874 25.6306C219.874 25.6306 212.67 22.5628 207.402 25.3337C207.402 25.3337 213.084 27.831 213.364 30.4564C213.364 30.4564 196.655 21.2413 186.91 33.4136C186.91 33.4136 197.937 32.5346 201.416 37.7738C201.416 37.7738 192.738 38.6935 191.602 45.9003C191.602 45.9003 200.163 43.1468 204.243 46.4766C204.243 46.4766 195.005 50.4117 194.551 59.9004C194.551 59.9004 197.203 58.5615 200.082 58.1075C200.542 57.1819 201.096 56.3029 201.725 55.4646C201.317 55.4704 200.903 55.4879 200.472 55.5345C199.61 55.6276 198.747 55.7964 197.949 56.006C200.082 51.0172 205.152 48.8051 205.216 48.776L209.022 47.1577L205.805 44.5381C203.613 42.7509 200.426 42.0524 196.317 42.4424C198.526 40.6437 201.51 40.2827 201.696 40.2536L205.729 39.7879L203.474 36.3825C201.271 33.076 197.086 31.708 193.426 31.1724C194.953 30.3924 196.637 29.8976 198.467 29.7055C205.368 28.972 212.111 32.6045 212.181 32.6452L214.349 33.8328C214.926 33.4136 215.503 33.0294 216.08 32.6743L215.817 30.1886C215.683 28.8963 214.955 27.7321 213.999 26.7366C216.674 27.0044 218.883 27.9125 218.912 27.93L222.089 29.2689L222.333 25.811C222.52 23.0983 220.416 20.4962 217.933 18.4122C224.356 18.7498 230.959 20.7349 236.536 23.8318C239.165 24.28 241.648 25.0776 243.979 26.0905C244.014 26.0614 244.049 26.0264 244.084 25.9973C235.149 18.4529 221.243 14.4537 210.252 16.3224Z" fill="#F7951F"/>
<path d="M213.83 82.6156C213.947 81.7423 214.145 80.9273 214.395 80.1647L214.244 80.1472C213.62 80.0715 212.985 80.0657 212.373 80.1297C209.803 80.4034 207.746 81.8238 206.178 83.4655C206.172 79.3613 207.547 75.9498 208.748 73.7493C207.262 74.5061 205.997 75.4026 204.948 76.2875C203.695 79.9202 203.013 84.7346 204.802 90.0847C204.791 90.0789 208.119 82.0276 213.83 82.6156Z" fill="#F7951F"/>
<path d="M206.655 66.042C206.002 65.9547 205.315 65.9373 204.604 66.0129C203.759 66.1061 202.937 66.304 202.179 66.5543C203.31 62.9508 206.364 61.3557 206.533 61.2683L209.954 59.5335L208.777 58.5613C207.267 58.8407 205.81 59.2075 204.499 59.5975C202.64 60.8666 198.682 64.3363 199.364 70.7401C199.364 70.7401 201.894 68.9063 204.627 68.5279C205.251 67.6197 205.938 66.793 206.655 66.042Z" fill="#F7951F"/>
<path d="M223.516 83.337C220.59 83.6456 217.035 85.817 214.558 87.6043C214.582 87.2317 214.646 86.8824 214.727 86.5505C214.255 87.0978 213.993 87.4529 213.993 87.4529C213.661 85.7588 213.643 84.2103 213.818 82.7898C213.2 83.6339 210.648 87.5402 213.177 91.8482C213.177 91.8482 218.23 87.4762 222.275 86.1721C222.992 85.9393 223.679 85.8112 224.297 85.8112C224.449 84.9321 224.641 84.0938 224.833 83.3254C224.588 83.3021 224.326 83.3021 224.052 83.3079C223.872 83.3137 223.697 83.3196 223.516 83.337Z" fill="#F7951F"/>
<path d="M224.047 83.3078C224.321 83.302 224.583 83.302 224.828 83.3253C224.997 82.6616 225.161 82.0678 225.312 81.5671C224.869 82.1377 224.449 82.7198 224.047 83.3078Z" fill="#F7951F"/>
<path d="M258.939 0.377709C248.961 2.21723 241.74 10.4078 240.545 20.0944L283.178 12.224C278.591 3.60269 268.917 -1.46764 258.939 0.377709Z" fill="#65322D"/>
<path d="M288.89 14.9948L286.314 15.4722L286.331 15.5537L237.754 24.5248L237.737 24.4433L236.21 24.7227C234.461 25.0429 233.319 26.7603 233.645 28.5475C233.978 30.3406 235.662 31.5282 237.405 31.2022L241.583 30.4337L285.906 22.2485L290.091 21.4743C291.833 21.1541 292.981 19.4367 292.649 17.6495C292.317 15.8681 290.633 14.6746 288.89 14.9948Z" fill="#65322D"/>
<path d="M286.331 15.554L286.314 15.4725L284.705 15.7694C284.292 14.5294 283.773 13.3477 283.178 12.2183L240.546 20.0891C240.389 21.3524 240.33 22.6448 240.389 23.9488L237.737 24.4378L237.754 24.5193L286.331 15.554Z" fill="#39AB49"/>
<path d="M237.148 84.5415C235.849 64.982 241.671 49.1714 250.104 48.6126C258.287 48.0712 265.962 62.5487 267.594 81.27L237.148 84.5415Z" fill="white"/>
<path d="M275.614 80.3502C275.934 65.2033 279.653 53.8285 284.939 53.4792C290.126 53.1358 295.214 63.5035 297.591 78.0217L275.614 80.3502Z" fill="white"/>
<path d="M150.135 257.387L148.357 258.202L98.3174 166.889L100.095 166.074L150.135 257.387Z" fill="#BBBDBF"/>
<path d="M201.789 189.924C171.873 187.351 141.148 203.447 126.251 229.485C125.686 223.81 126.729 219.013 128.792 213.686C123.308 216.469 118.989 218.111 113.511 220.893C116.46 214.717 119.898 211.492 124.118 206.707C119.864 208.901 114.583 208.738 109.81 208.348C124.66 199.401 137.196 188.795 153.41 180.709C170.591 172.134 190.57 168.345 203.753 171.948L201.789 189.924Z" fill="#95BA2F"/>
<path d="M126.019 227.553C126.019 227.553 131.52 207.551 157.653 194.343C177.195 184.464 191.678 184.54 201.178 189.429C201.178 189.429 176.42 187.578 153.177 202.195C138.462 211.451 126.019 227.553 126.019 227.553Z" fill="#B6D440"/>
<path d="M126.251 230.9C126.152 230.9 126.053 230.888 125.954 230.871C125.354 230.743 124.899 230.242 124.841 229.625C124.404 225.236 124.847 221.155 126.309 216.481C124.724 217.232 123.209 217.919 121.729 218.582C119.333 219.665 116.862 220.783 114.152 222.157C113.61 222.43 112.957 222.331 112.52 221.906C112.083 221.481 111.972 220.829 112.229 220.288C114.408 215.724 116.839 212.72 119.595 209.623C116.402 210.159 112.998 210.031 109.688 209.751C109.076 209.699 108.569 209.262 108.429 208.663C108.289 208.063 108.551 207.446 109.076 207.132C114.857 203.651 120.394 199.838 125.756 196.153C134.148 190.378 142.826 184.406 152.775 179.44C170.784 170.458 190.943 166.977 204.12 170.58C204.878 170.79 205.321 171.564 205.111 172.321C204.901 173.077 204.12 173.508 203.368 173.31C190.821 169.881 171.454 173.281 154.034 181.972C144.26 186.845 135.669 192.759 127.358 198.481C123.162 201.369 118.861 204.332 114.397 207.161C117.655 207.207 120.825 206.806 123.465 205.449C124.071 205.135 124.812 205.298 125.231 205.834C125.651 206.369 125.628 207.126 125.179 207.638C124.474 208.442 123.786 209.198 123.121 209.932C120.744 212.563 118.721 214.804 116.897 217.674C118.15 217.086 119.368 216.539 120.563 216.003C122.958 214.921 125.435 213.803 128.151 212.423C128.67 212.156 129.305 212.237 129.742 212.633C130.179 213.029 130.325 213.646 130.115 214.193C128.623 218.041 127.807 221.353 127.58 224.619C143.584 200.391 172.835 186.006 201.911 188.504C202.692 188.568 203.269 189.255 203.199 190.035C203.13 190.809 202.453 191.391 201.667 191.321C172.503 188.812 141.999 204.792 127.481 230.178C127.224 230.632 126.752 230.9 126.251 230.9Z" fill="#6B8A16"/>
<path d="M143.619 177.927C137.978 180.977 130.279 179.161 125.331 175.127C119.998 170.778 118.022 170.277 104.67 172.577C101.144 173.63 97.3327 173.828 93.6202 173.153C88.0077 172.117 83.0422 169.235 79.6502 165.021C76.1534 160.684 74.7255 155.48 75.623 150.363C76.5497 145.036 79.9941 140.408 85.0762 137.661C87.8562 136.159 91.0616 135.262 94.3545 135.065C105.813 132.829 111.792 131.455 116.938 128.679C122.085 125.896 126.502 121.647 134.638 113.287C136.608 110.638 139.114 108.45 141.894 106.948C146.971 104.206 152.734 103.851 157.706 105.987C162.485 108.036 166.063 112.082 167.783 117.374C169.455 122.514 169.164 128.242 166.961 133.504C165.504 136.974 163.254 140.059 160.439 142.428C151.208 152.33 150.543 154.257 151.277 161.103C151.948 167.448 149.267 174.876 143.619 177.927Z" fill="#CB1F47"/>
<path d="M157.502 108.315C150.596 105.346 142.535 108.257 137.715 114.853C121.187 131.833 118.902 133.067 95.6308 137.602C87.4715 138.027 80.6176 143.173 79.3296 150.572C77.7794 159.438 84.8022 168.152 95.0189 170.027C98.4924 170.667 101.879 170.411 104.909 169.474C119.491 166.947 122.003 167.18 128.134 172.547C132.086 176.005 138.502 177.612 143.159 175.091C147.816 172.576 149.984 166.33 149.243 161.132C148.095 153.069 149.273 150.84 159.361 140.03C161.803 138.01 163.866 135.314 165.236 132.06C169.24 122.508 165.784 111.872 157.502 108.315Z" fill="url(#paint1_radial_31_917)"/>
<path d="M154.227 114.83C159.227 123.73 154.308 147.144 135.233 157.831C116.158 168.525 91.4522 161.691 86.8655 152.581C78.9976 136.945 103.429 145.875 122.504 135.181C141.585 124.487 149.226 105.929 154.227 114.83Z" fill="#EE384D"/>
<path d="M148.288 120.663C152.251 127.712 148.352 146.253 133.246 154.717C118.139 163.187 98.5742 157.773 94.9433 150.555C88.7131 138.173 108.062 145.246 123.169 136.776C138.281 128.312 144.331 113.613 148.288 120.663Z" fill="#CB1F47"/>
<path d="M99.3203 143.121C100.911 142.958 102.304 144.14 102.415 145.746L102.572 148.04C102.683 149.647 101.512 150.567 99.9789 150.083L95.7885 148.57C94.3023 147.947 93.2241 146.509 93.3815 145.368C93.5446 144.227 94.9201 143.295 96.447 143.284C97.9798 143.272 99.3203 143.121 99.3203 143.121Z" fill="url(#paint2_radial_31_917)"/>
<path d="M109.503 141.182C111.041 140.74 112.679 141.642 113.145 143.185L115.109 149.711C115.57 151.259 114.643 152.459 113.034 152.383L105.633 151.527C104.053 151.213 102.678 149.647 102.567 148.04L102.41 145.746C102.305 144.139 103.5 142.573 105.073 142.265L109.503 141.182Z" fill="url(#paint3_radial_31_917)"/>
<path d="M119.783 137.3C121.228 136.619 123.024 137.224 123.775 138.656L127.884 146.504C128.63 147.936 128.018 149.56 126.52 150.113L118.839 152.128C117.254 152.343 115.569 151.254 115.109 149.712L113.145 143.186C112.679 141.637 113.524 139.908 115.022 139.343L119.783 137.3Z" fill="url(#paint4_radial_31_917)"/>
<path d="M141.393 121.14C140.35 122.357 140.53 124.173 141.789 125.174L143.584 126.612C144.843 127.619 146.265 127.183 146.743 125.652L147.886 121.349C148.218 119.778 147.652 118.066 146.627 117.548C145.601 117.03 144.039 117.629 143.159 118.881C142.279 120.127 141.393 121.14 141.393 121.14Z" fill="url(#paint5_radial_31_917)"/>
<path d="M133.991 128.387C132.75 129.394 132.552 131.257 133.56 132.515L137.809 137.847C138.811 139.111 140.332 139.029 141.183 137.673L144.703 131.112C145.344 129.639 144.843 127.613 143.584 126.606L141.789 125.168C140.53 124.166 138.555 124.254 137.407 125.366L133.991 128.387Z" fill="url(#paint6_radial_31_917)"/>
<path d="M124.934 134.61C123.547 135.408 123.023 137.23 123.775 138.662L127.884 146.51C128.629 147.942 130.32 148.361 131.631 147.447L137.669 142.289C138.753 141.107 138.817 139.11 137.809 137.847L133.56 132.514C132.552 131.251 130.652 130.96 129.329 131.862L124.934 134.61Z" fill="url(#paint7_radial_31_917)"/>
<path d="M126.992 115.714C129.3 120.552 124.812 127.497 116.979 131.222C109.146 134.948 100.923 134.04 98.6147 129.202C96.3068 124.359 100.794 117.42 108.627 113.694C116.466 109.963 124.684 110.871 126.992 115.714Z" fill="#CB1F47"/>
<path d="M125.989 114.969C128.046 119.283 123.809 125.587 116.536 129.045C109.262 132.503 101.692 131.804 99.6401 127.491C97.5828 123.172 101.82 116.873 109.093 113.415C116.367 109.957 123.932 110.65 125.989 114.969Z" fill="#EE384D"/>
<defs>
<linearGradient id="paint0_linear_31_917" x1="272.677" y1="22.2603" x2="332.89" y2="15.8528" gradientUnits="userSpaceOnUse">
<stop stop-color="#FAAA44"/>
<stop offset="1" stop-color="#FDDB00"/>
</linearGradient>
<radialGradient id="paint1_radial_31_917" cx="0" cy="0" r="1" gradientUnits="userSpaceOnUse" gradientTransform="translate(129.427 149.803) rotate(-28.3973) scale(39.2268 39.5754)">
<stop stop-color="white"/>
<stop offset="1" stop-color="white"/>
</radialGradient>
<radialGradient id="paint2_radial_31_917" cx="0" cy="0" r="1" gradientUnits="userSpaceOnUse" gradientTransform="translate(98.4522 146.634) rotate(-27.5818) scale(4.30557 4.30283)">
<stop stop-color="white"/>
<stop offset="1" stop-color="white"/>
</radialGradient>
<radialGradient id="paint3_radial_31_917" cx="0" cy="0" r="1" gradientUnits="userSpaceOnUse" gradientTransform="translate(108.775 147.515) rotate(-27.5818) scale(6.28056 6.27656)">
<stop stop-color="white"/>
<stop offset="1" stop-color="white"/>
</radialGradient>
<radialGradient id="paint4_radial_31_917" cx="0" cy="0" r="1" gradientUnits="userSpaceOnUse" gradientTransform="translate(119.933 145.084) rotate(-27.5818) scale(6.9672 6.96277)">
<stop stop-color="white"/>
<stop offset="1" stop-color="white"/>
</radialGradient>
<radialGradient id="paint5_radial_31_917" cx="0" cy="0" r="1" gradientUnits="userSpaceOnUse" gradientTransform="translate(144.768 122.529) rotate(152.418) scale(4.30604 4.3033)">
<stop stop-color="white"/>
<stop offset="1" stop-color="white"/>
</radialGradient>
<radialGradient id="paint6_radial_31_917" cx="0" cy="0" r="1" gradientUnits="userSpaceOnUse" gradientTransform="translate(139.603 131.501) rotate(152.418) scale(6.28015 6.27616)">
<stop stop-color="white"/>
<stop offset="1" stop-color="white"/>
</radialGradient>
<radialGradient id="paint7_radial_31_917" cx="0" cy="0" r="1" gradientUnits="userSpaceOnUse" gradientTransform="translate(131.239 139.266) rotate(152.418) scale(6.96755 6.96313)">
<stop stop-color="white"/>
<stop offset="1" stop-color="white"/>
</radialGradient>
</defs>
</svg>
