<svg width="402" height="372" viewBox="0 0 402 372" fill="none" xmlns="http://www.w3.org/2000/svg">
<path d="M149.816 170.081C118.927 182.608 96.6818 213.953 95.128 247.129C91.6966 241.817 90.2982 236.562 89.6443 230.277C85.6302 235.782 82.1924 239.573 78.1783 245.079C77.9647 237.504 79.7386 232.591 81.4867 225.744C78.3855 230.051 73.0831 232.552 68.1626 234.564C78.3207 218.266 85.3518 201.497 97.2904 185.354C109.948 168.251 127.784 154.454 142.649 151.366L149.816 170.081Z" fill="#83A329"/>
<path d="M95.1345 248.696C94.61 248.696 94.1051 248.431 93.8137 247.974C91.1593 243.867 89.5277 239.618 88.6084 234.274C87.4236 235.808 86.2712 237.246 85.1447 238.651C83.3254 240.921 81.4414 243.274 79.4538 245.994C79.0588 246.542 78.3531 246.775 77.7186 246.568C77.0777 246.368 76.631 245.788 76.6115 245.118C76.4562 239.522 77.3431 235.331 78.502 230.889C75.621 233.03 72.1831 234.609 68.7712 236.008C68.1432 236.266 67.4116 236.092 66.9713 235.57C66.5311 235.054 66.4793 234.306 66.8354 233.732C70.7912 227.389 74.3391 220.838 77.7704 214.508C83.1506 204.586 88.712 194.329 96.0409 184.42C109.307 166.491 127.48 152.913 142.345 149.825C143.193 149.651 144.028 150.193 144.203 151.037C144.384 151.882 143.834 152.713 142.986 152.894C128.84 155.834 111.404 168.934 98.5723 186.276C91.3729 196.005 85.8698 206.165 80.5414 215.99C77.8546 220.948 75.0966 226.035 72.1184 231.076C75.362 229.452 78.2949 227.485 80.2177 224.823C80.658 224.21 81.4737 223.997 82.16 224.313C82.8463 224.629 83.2088 225.39 83.0211 226.118C82.7297 227.266 82.4319 228.356 82.1471 229.419C81.1241 233.217 80.2566 236.44 79.907 240.186C80.8522 238.974 81.778 237.82 82.6909 236.685C84.5102 234.416 86.3942 232.063 88.3818 229.342C88.7638 228.813 89.4306 228.575 90.0651 228.749C90.6931 228.916 91.1528 229.452 91.224 230.103C91.6966 234.648 92.5642 238.329 93.995 241.662C97.5559 209.711 119.212 180.796 149.234 168.625C150.036 168.296 150.956 168.683 151.286 169.488C151.616 170.288 151.228 171.203 150.425 171.532C120.313 183.743 98.2292 214.862 96.7207 247.2C96.6883 247.883 96.2157 248.464 95.5553 248.638C95.4064 248.676 95.2704 248.696 95.1345 248.696Z" fill="#658215"/>
<path d="M383.253 58.6328C381.525 54.3521 381.169 49.2783 380.288 44.7461L393.399 50.5999C390.828 52.9982 385.817 56.2346 383.253 58.6328Z" fill="#6B8A16"/>
<path d="M383.253 60.1997C383.143 60.1997 383.027 60.1868 382.917 60.161C382.405 60.0514 381.991 59.6968 381.797 59.2133C380.502 56.0091 379.945 52.4569 379.414 49.0271C379.2 47.6732 378.993 46.3323 378.747 45.0429C378.637 44.4691 378.851 43.8824 379.317 43.515C379.777 43.1539 380.405 43.0766 380.936 43.3151L394.046 49.1689C394.525 49.3817 394.868 49.8201 394.952 50.3423C395.043 50.858 394.862 51.3867 394.48 51.7413C393.133 52.9984 391.171 54.4554 389.275 55.8673C387.449 57.2276 385.552 58.6331 384.335 59.7742C384.03 60.0514 383.648 60.1997 383.253 60.1997ZM382.334 47.3767L382.515 48.55C382.904 51.0385 383.299 53.5915 383.985 55.9382C385.04 55.0937 386.225 54.2169 387.384 53.353C388.439 52.5665 389.521 51.7671 390.479 51.0063L382.334 47.3767Z" fill="#577012"/>
<path d="M368 69.8701C366.427 65.6989 365.281 61.4246 363.708 57.2534L378.767 61.2376C375.873 63.681 370.894 67.4332 368 69.8701Z" fill="#6B8A16"/>
<path d="M368 71.4431C367.87 71.4431 367.734 71.4237 367.605 71.3915C367.113 71.2625 366.705 70.9015 366.53 70.4244C365.727 68.3034 365.028 66.1308 364.355 64.0355C363.694 61.9789 363.008 59.8579 362.238 57.8078C362.031 57.2598 362.147 56.6409 362.542 56.2089C362.937 55.7705 363.546 55.59 364.115 55.7447L379.175 59.7225C379.738 59.8708 380.178 60.3221 380.308 60.8894C380.437 61.4567 380.236 62.0499 379.79 62.4302C378.32 63.668 376.306 65.254 374.364 66.7819C372.441 68.2969 370.447 69.8636 369.023 71.0691C368.731 71.3141 368.369 71.4431 368 71.4431ZM366.187 59.5355C366.588 60.7282 368.246 65.8536 368.725 67.2461C369.871 66.3242 374.442 62.7268 375.394 61.966L366.187 59.5355Z" fill="#577012"/>
<path d="M353.892 81.107C353.477 76.6908 352.364 72.1586 351.665 67.4072C355.271 69.0319 360.489 72.2231 364.102 73.8477C360.288 76.6779 357.699 78.2832 353.892 81.107Z" fill="#6B8A16"/>
<path d="M353.892 82.6735C353.678 82.6735 353.458 82.6284 353.251 82.5382C352.733 82.3061 352.377 81.8161 352.325 81.2552C352.086 78.6764 351.6 76.0654 351.082 73.3061C350.739 71.4687 350.389 69.5733 350.104 67.6457C350.02 67.0784 350.253 66.511 350.713 66.1629C351.173 65.8212 351.781 65.7503 352.306 65.9888C354.164 66.8269 356.43 68.0648 358.625 69.2639C360.774 70.4372 362.988 71.6428 364.743 72.4358C365.254 72.6614 365.598 73.145 365.656 73.6929C365.714 74.2474 365.481 74.7889 365.034 75.1177C363.118 76.5425 361.506 77.6578 359.894 78.7731C358.307 79.8756 356.715 80.9715 354.831 82.377C354.552 82.5704 354.222 82.6735 353.892 82.6735ZM353.704 70.1665C353.859 71.0303 354.015 71.8878 354.177 72.7323C354.526 74.6278 354.87 76.4522 355.128 78.2703C356.158 77.5353 360.03 74.8598 361.059 74.1184C359.79 73.4609 358.437 72.7259 357.116 72.0038C355.977 71.3785 354.811 70.7467 353.704 70.1665Z" fill="#577012"/>
<path d="M350.616 98.5848C346.434 96.0189 342.446 93.337 338.263 90.7711C342.284 88.8177 346.46 87.1866 350.739 85.8972C350.649 89.9395 350.707 94.5426 350.616 98.5848Z" fill="#6B8A16"/>
<path d="M350.616 100.151C350.331 100.151 350.04 100.074 349.794 99.9192C347.696 98.6363 339.526 93.3885 337.435 92.1055C336.949 91.8025 336.658 91.2674 336.69 90.6937C336.716 90.1263 337.059 89.6106 337.57 89.3656C341.656 87.3799 345.935 85.7102 350.28 84.4014C350.765 84.2531 351.283 84.3499 351.691 84.6529C352.092 84.9559 352.326 85.4329 352.313 85.9358C352.267 87.9473 352.235 96.5926 352.19 98.617C352.177 99.1778 351.866 99.6872 351.367 99.9579C351.134 100.087 350.875 100.151 350.616 100.151ZM341.552 90.9709C342.808 91.7638 347.819 94.9809 349.088 95.7803C349.101 94.6134 349.114 89.4172 349.134 88.0504C346.563 88.9014 344.025 89.8749 341.552 90.9709Z" fill="#577012"/>
<path d="M349.289 119.608C344.485 116.12 339.992 113.348 334.527 111.021L349.043 102.434C348.998 108.113 349.321 113.922 349.289 119.608Z" fill="#6B8A16"/>
<path d="M349.283 121.175C348.952 121.175 348.629 121.072 348.357 120.872C343.08 117.042 338.755 114.528 333.899 112.459C333.356 112.226 332.987 111.711 332.948 111.124C332.909 110.537 333.207 109.977 333.712 109.674L348.227 101.086C348.713 100.796 349.321 100.796 349.813 101.073C350.305 101.357 350.61 101.879 350.603 102.446C350.584 105.27 350.655 108.184 350.726 111.002C350.798 113.832 350.869 116.759 350.849 119.621C350.843 120.208 350.513 120.743 349.982 121.007C349.768 121.117 349.529 121.175 349.283 121.175ZM337.92 110.834C341.164 112.388 344.271 114.212 347.703 116.565C347.683 114.728 347.489 107.159 347.47 105.18L337.92 110.834Z" fill="#577012"/>
<path d="M348.849 140.225C344.505 137.892 336.813 134.449 332.469 132.115L348.467 123.354C348.376 128.937 350.001 134.765 348.849 140.225Z" fill="#6B8A16"/>
<path d="M348.849 141.792C348.59 141.792 348.331 141.728 348.104 141.605C345.961 140.451 342.918 138.994 339.973 137.582C337.001 136.157 333.926 134.681 331.724 133.501C331.219 133.231 330.902 132.702 330.896 132.128C330.896 131.554 331.206 131.026 331.711 130.748L347.709 121.987C348.195 121.716 348.797 121.729 349.276 122.019C349.755 122.309 350.047 122.825 350.04 123.386C350.008 125.423 350.215 127.48 350.429 129.659C350.785 133.237 351.154 136.938 350.39 140.561C350.286 141.044 349.963 141.45 349.509 141.657C349.296 141.747 349.069 141.792 348.849 141.792ZM335.81 132.077C337.512 132.928 345.715 136.86 347.612 137.821C347.832 135.306 347.567 132.695 347.295 129.962C347.166 128.653 347.03 127.312 346.958 125.971L335.81 132.077Z" fill="#577012"/>
<path d="M346.486 163.19C342.672 159.102 338.179 155.299 333.427 152.34C338.561 149.851 343.514 146.995 348.234 143.797C348.428 150.347 347.981 156.807 346.486 163.19Z" fill="#6B8A16"/>
<path d="M346.486 164.756C346.052 164.756 345.638 164.582 345.333 164.253C341.462 160.108 337.059 156.446 332.598 153.661C332.113 153.358 331.834 152.816 331.86 152.249C331.892 151.682 332.229 151.173 332.741 150.921C337.791 148.478 342.705 145.641 347.347 142.495C347.826 142.173 348.434 142.134 348.946 142.398C349.457 142.656 349.788 143.178 349.801 143.746C350.014 151.005 349.425 157.478 348.007 163.538C347.878 164.099 347.444 164.55 346.881 164.698C346.758 164.743 346.622 164.756 346.486 164.756ZM336.573 152.526C339.688 154.673 342.731 157.2 345.553 159.979C346.324 155.821 346.699 151.43 346.706 146.685C343.43 148.794 340.037 150.747 336.573 152.526Z" fill="#577012"/>
<path d="M324.246 181.589C323.055 176.78 321.158 171.603 319.967 166.793L342.349 168.321C337.001 173.318 330.326 176.864 324.246 181.589Z" fill="#6B8A16"/>
<path d="M324.246 183.156C324.072 183.156 323.897 183.13 323.735 183.072C323.23 182.898 322.848 182.485 322.725 181.97C322.142 179.61 321.359 177.089 320.608 174.659C319.844 172.183 319.054 169.624 318.445 167.174C318.322 166.69 318.445 166.175 318.769 165.788C319.093 165.407 319.578 165.201 320.083 165.233L342.465 166.761C343.087 166.806 343.631 167.212 343.838 167.799C344.051 168.386 343.89 169.043 343.436 169.469C340.147 172.544 336.327 175.11 332.637 177.592C330.177 179.249 327.626 180.964 325.224 182.827C324.933 183.04 324.589 183.156 324.246 183.156ZM322.045 168.508C322.531 170.236 323.074 172.003 323.612 173.73C324.143 175.445 324.687 177.199 325.172 178.933C327.069 177.547 328.992 176.251 330.87 174.994C333.518 173.215 336.062 171.5 338.425 169.624L322.045 168.508Z" fill="#577012"/>
<path d="M303.833 195.257C303.38 189.351 303.16 183.543 303.51 177.631L318.336 186.786C314.121 189.435 308.055 192.601 303.833 195.257Z" fill="#6B8A16"/>
<path d="M303.833 196.823C303.594 196.823 303.348 196.765 303.127 196.656C302.635 196.411 302.305 195.921 302.266 195.373C301.736 188.468 301.632 182.801 301.943 177.534C301.975 176.986 302.299 176.49 302.791 176.238C303.283 175.98 303.872 176.006 304.345 176.296L319.171 185.451C319.631 185.735 319.909 186.237 319.916 186.779C319.916 187.321 319.644 187.823 319.184 188.114C317.041 189.461 314.412 190.95 311.868 192.388C309.356 193.806 306.76 195.276 304.681 196.585C304.422 196.74 304.131 196.823 303.833 196.823ZM304.966 180.371C304.85 184.078 304.934 188.049 305.225 192.575C306.844 191.621 313.752 187.714 315.338 186.773L304.966 180.371Z" fill="#577012"/>
<path d="M283.523 210.22C282.273 204.45 280.409 197.391 280.286 191.485C286.475 193.258 293.474 196.23 298.893 199.699C294.199 202.155 287.841 207.145 283.523 210.22Z" fill="#6B8A16"/>
<path d="M283.523 211.787C283.335 211.787 283.141 211.755 282.953 211.684C282.461 211.497 282.092 211.071 281.982 210.555C281.762 209.543 281.522 208.486 281.276 207.403C280.124 202.31 278.816 196.54 278.706 191.524C278.693 191.028 278.926 190.551 279.321 190.248C279.716 189.945 280.234 189.848 280.713 189.983C287.401 191.898 294.51 195.044 299.735 198.384C300.207 198.687 300.479 199.215 300.46 199.77C300.434 200.324 300.117 200.827 299.618 201.091C296.161 202.903 291.752 206.139 287.867 208.995C286.637 209.898 285.472 210.755 284.429 211.497C284.164 211.69 283.847 211.787 283.523 211.787ZM281.982 193.639C282.338 197.829 283.4 202.51 284.352 206.707C284.416 206.99 284.481 207.268 284.539 207.545C285.012 207.197 285.504 206.836 286.003 206.468C289.162 204.147 292.652 201.581 295.792 199.66C291.72 197.339 286.806 195.199 281.982 193.639Z" fill="#577012"/>
<path d="M261.071 225.132C260.773 218.865 260.093 212.405 259.795 206.139C265.978 208.473 272.336 211.168 278.519 213.501C272.155 217.492 267.144 220.69 261.071 225.132Z" fill="#6B8A16"/>
<path d="M261.071 226.699C260.838 226.699 260.611 226.647 260.397 226.544C259.873 226.299 259.53 225.783 259.504 225.203C259.355 222.089 259.109 218.866 258.869 215.752C258.63 212.612 258.377 209.363 258.228 206.21C258.203 205.681 258.449 205.179 258.876 204.869C259.303 204.56 259.86 204.489 260.358 204.669C263.46 205.836 275.994 210.871 279.082 212.032C279.639 212.244 280.034 212.747 280.092 213.34C280.151 213.934 279.872 214.507 279.367 214.823C273.029 218.801 268.069 221.954 262.009 226.389C261.731 226.595 261.401 226.699 261.071 226.699ZM261.498 208.467C261.64 210.813 262.34 219.949 262.482 222.179C266.768 219.13 270.627 216.622 275.036 213.843C272.861 212.999 263.848 209.382 261.498 208.467Z" fill="#577012"/>
<path d="M240.068 237.665L241.027 219.936L255.879 228.059C250.518 231.972 245.954 234.59 240.068 237.665Z" fill="#6B8A16"/>
<path d="M240.068 239.231C239.77 239.231 239.479 239.148 239.22 238.986C238.741 238.683 238.469 238.148 238.495 237.587C238.65 234.596 239.298 222.85 239.453 219.858C239.479 219.323 239.783 218.833 240.262 218.569C240.735 218.305 241.311 218.305 241.784 218.562L256.636 226.686C257.109 226.944 257.413 227.421 257.452 227.956C257.484 228.491 257.245 229.007 256.811 229.322C251.34 233.313 246.627 236.001 240.8 239.051C240.567 239.173 240.321 239.231 240.068 239.231ZM242.464 222.514L241.784 234.983C245.707 232.875 249.191 230.831 252.933 228.233L242.464 222.514Z" fill="#577012"/>
<path d="M345.127 164.157C349.102 157.4 347.367 85.3105 352.559 81.4423C357.751 77.5742 400.65 42.954 400.417 46.4483C400.184 49.9425 378.735 82.6479 374.992 85.9101C371.25 89.1722 392.188 196.856 385.908 208.28C384.322 211.161 326.675 269.152 284.521 313.752L236.521 238.432C242.93 237.459 341.151 170.92 345.127 164.157Z" fill="#95BA2F"/>
<path d="M242.076 247.168C261.065 235.821 347.943 179.223 351.064 165.768C354.43 151.25 353.304 91.4995 356.67 86.4709C358.431 83.8406 368.79 72.0362 378.269 61.3794C366.997 70.0312 355.136 79.5276 352.559 81.4488C347.367 85.3169 349.102 157.4 345.127 164.163C341.152 170.92 242.924 237.465 236.514 238.445L242.076 247.168Z" fill="#B6D440"/>
<path d="M400.417 46.4483C400.423 46.371 400.378 46.3387 400.345 46.3C388.109 58.3752 369.262 77.4646 366.77 82.9316C363.034 91.1192 374.753 176.354 370.505 198.345C367.327 214.823 295.87 270.151 269.617 290.375L284.52 313.758C326.675 269.158 384.328 211.168 385.908 208.286C392.194 196.862 371.25 89.1787 374.992 85.9166C378.734 82.648 400.184 49.9426 400.417 46.4483Z" fill="#83A329"/>
<path d="M284.521 315.318C284.469 315.318 284.424 315.318 284.372 315.312C283.886 315.267 283.452 315.003 283.194 314.59L235.193 239.27C234.908 238.825 234.869 238.264 235.09 237.781C235.31 237.297 235.756 236.962 236.281 236.878C243.04 235.576 340.497 168.928 343.773 163.357C345.411 160.572 346.078 142.231 346.661 126.042C347.729 96.5863 348.564 82.461 351.627 80.1788C352.676 79.3987 355.395 77.2583 358.833 74.5506C396.532 44.8753 399.336 43.9405 401.058 44.8366C401.686 45.1654 402.042 45.8166 401.997 46.5451C401.705 50.9225 380.133 83.009 376.242 86.8901C375.387 89.9266 378.424 111.459 381.104 130.491C387.002 172.338 390.9 202.471 387.294 209.028C386.478 210.51 376.902 220.406 351.769 246.246C331.738 266.831 306.812 292.458 285.667 314.822C285.362 315.144 284.948 315.318 284.521 315.318ZM238.851 239.18L284.76 311.212C305.614 289.183 329.905 264.213 349.503 244.073C367.748 225.325 383.5 209.131 384.542 207.506C387.909 201.382 382.166 160.669 377.977 130.942C372.668 93.2919 372.066 86.3872 373.956 84.7433C377.116 81.9904 392.848 58.0078 397.536 49.2463C389.728 54.2363 369.25 70.3601 360.775 77.0327C357.182 79.8629 354.585 81.9066 353.504 82.7125C351.29 85.0398 350.429 108.816 349.801 126.178C349.011 148.078 348.422 161.668 346.486 164.963C342.828 171.158 254.998 231.431 238.851 239.18Z" fill="#6B8A16"/>
<path d="M286.391 329.205C292.652 319.593 240.146 100.822 223.403 44.0241C218.204 26.3788 206.641 3.93696 191.977 2.66691C176.976 1.36462 167.841 16.5021 167.841 16.5021C167.841 16.5021 164.053 1.95774 149.991 1.56448C127.571 0.932679 130.497 29.5958 120.973 39.5241C111.45 49.4524 56.522 55.6415 56.522 55.6415C56.522 55.6415 48.2867 41.7741 39.2874 42.0384C30.2882 42.2963 26.9928 61.5082 26.9928 61.5082C26.9928 61.5082 19.4696 48.4209 12.0436 47.2734C4.61764 46.1258 2.20273 54.2361 1.6071 69.4896C0.817233 89.7007 12.5227 93.5302 12.5227 93.5302C7.34979 133.708 106.264 135.835 146.463 135.049C146.463 135.049 88.4272 281.73 94.5972 322.5C96.7273 336.613 279.917 339.146 286.391 329.205Z" fill="#95BA2F"/>
<path d="M201.909 8.75295C174.775 0.520197 162.526 32.381 162.526 32.381C162.526 32.381 159.871 25.5988 172.684 11.5251C177.138 6.63191 185.84 2.66058 192.366 3.88551C198.886 5.11043 207.917 10.5774 201.909 8.75295Z" fill="#B6D440"/>
<path d="M58.6324 60.8959C58.3864 59.1294 58.6907 56.3637 58.1792 54.7197C66.5375 53.8236 112.757 48.5113 121.537 39.608C131.196 29.8087 127.512 2.47361 148.638 1.93851C153.358 1.81602 159.256 5.52301 162.078 7.29593C152.017 2.99581 141.128 5.20711 136.427 17.1727C132.413 27.4104 131.3 37.8674 124.308 44.4884C116.59 51.7928 76.2165 58.8973 58.6324 60.8959Z" fill="#B6D440"/>
<path d="M3.18701 63.3778C4.16464 53.6107 7.36945 46.9768 13.3 47.7697C17.845 48.3822 20.4801 52.5534 23.4324 56.4022C23.4453 56.4602 24.4359 59.8126 24.4488 59.8707C20.7779 55.9638 16.712 52.0054 11.3512 53.3721C6.88388 54.5132 4.82503 58.9939 3.18701 63.3778Z" fill="#B6D440"/>
<path d="M29.3364 57.5692C31.4989 47.9697 34.7102 41.9805 41.7413 43.502C47.1345 44.6689 52.6571 49.9747 55.8036 54.1652C55.8101 54.2297 57.2733 59.7032 56.8913 59.5742C52.8837 55.229 46.7136 47.9246 40.1421 48.6209C34.6713 49.2075 31.7449 53.4109 29.3364 57.5692Z" fill="#B6D440"/>
<path d="M154.814 130.807C147.162 147.762 115.943 283.419 138.765 310.458C161.58 337.496 219.654 332.087 231.069 309.71C242.483 287.332 223.066 152.075 207.67 129.807C195.279 111.891 162.739 113.239 154.814 130.807Z" fill="#E9FF57"/>
<path d="M257.464 216.287L258.027 219.388C240.527 225.848 222.16 229.974 203.546 231.708C177.047 234.177 150.049 231.837 124.282 224.719L124.955 221.702C168.423 233.719 215.478 231.889 257.464 216.287ZM262.242 243.029L261.692 239.921C216.909 257.161 166.144 258.585 120.015 244.125L119.361 247.168C147.181 255.871 176.665 258.875 205.54 256.187C224.95 254.388 244.075 249.972 262.242 243.029ZM268.788 287.7C219.246 307.705 161.968 308.111 111.637 288.822L110.705 291.768C142.138 303.817 176.244 308.278 209.541 305.177C230.233 303.25 250.621 298.402 269.843 290.633L268.788 287.7ZM130.07 199.035L129.383 202.058C152.982 207.732 177.474 209.46 201.546 207.222C219.35 205.566 236.921 201.73 253.735 195.747L253.165 192.639C214.048 206.636 170.722 208.783 130.07 199.035ZM115.289 266.393L114.654 269.455C144.417 279.854 176.328 283.593 207.541 280.686C227.702 278.809 247.571 274.129 266.36 266.708L265.822 263.582C218.353 282.478 163.898 283.445 115.289 266.393ZM140.785 153.042L140.066 156.085C159.055 159.296 178.433 160.018 197.551 158.239C213.685 156.736 229.625 153.429 244.988 148.375L244.412 145.287C211.283 156.246 175.383 158.838 140.785 153.042ZM135.346 176.168L134.647 179.185C155.986 183.549 177.934 184.742 199.545 182.731C216.521 181.151 233.283 177.567 249.371 172.054L248.802 168.979C212.649 181.428 173.039 183.839 135.346 176.168Z" fill="#95BA2F"/>
<path d="M12.6393 94.7424C14.8794 95.2904 16.6598 95.8126 18.5438 96.1994C31.4147 135.577 159.146 123.418 175.48 116.14C167.452 125.075 158.602 130.091 148.275 135.042C148.269 135.049 5.33628 139.684 12.6393 94.7424Z" fill="#83A329"/>
<path d="M46.2861 76.6201C54.0941 76.6201 59.4613 79.7856 64.2134 82.5835C67.1722 84.3242 69.723 85.8264 72.4293 86.3357C77.8871 87.3478 83.4874 85.1301 88.9128 82.9897C90.253 82.4611 91.5867 81.9324 92.9139 81.4553C107.177 76.2849 149.253 79.547 156.194 83.8536C156.932 84.3113 157.158 85.2784 156.699 86.0133C156.239 86.7483 155.268 86.9675 154.53 86.5162C148.962 83.0606 107.701 79.431 93.9951 84.4016C92.6938 84.8722 91.3925 85.388 90.0847 85.9037C84.2449 88.2117 78.2044 90.6036 71.8596 89.4173C68.6095 88.8113 65.7025 87.0964 62.6208 85.2848C57.9593 82.5384 53.0712 79.6631 46.0725 79.7598C28.4624 79.9081 22.519 86.2325 16.226 92.9309C15.4297 93.7819 14.6269 94.6329 13.7982 95.4774C13.1896 96.0964 12.1926 96.1092 11.571 95.5032C10.9495 94.8972 10.9366 93.9044 11.5451 93.2855C12.3609 92.4538 13.1443 91.6157 13.9277 90.7841C20.3955 83.8987 27.0834 76.7813 46.0466 76.6201C46.1178 76.6201 46.202 76.6201 46.2861 76.6201Z" fill="#6B8A16"/>
<path d="M177.843 31.6525C176.562 37.8996 178.964 43.6632 183.211 44.5271C187.458 45.3909 191.945 41.0328 193.227 34.7857C194.508 28.5386 192.107 22.775 187.859 21.9112C183.612 21.0473 179.132 25.4054 177.843 31.6525Z" fill="#452800"/>
<path d="M188.267 37.1839C187.911 38.9053 189.031 40.5879 190.76 40.9425C192.488 41.2971 194.178 40.1818 194.534 38.4604C194.89 36.7391 193.77 35.0564 192.042 34.7018C190.307 34.3537 188.617 35.4626 188.267 37.1839Z" fill="#F7FFC4"/>
<path d="M137.515 25.3539C136.233 31.601 138.635 37.3646 142.883 38.2285C147.13 39.0924 151.617 34.7342 152.898 28.4871C154.18 22.24 151.778 16.4765 147.531 15.6126C143.284 14.7487 138.797 19.1068 137.515 25.3539Z" fill="#452800"/>
<path d="M147.933 30.8918C147.577 32.6132 148.697 34.2958 150.425 34.6504C152.154 35.005 153.844 33.8897 154.2 32.1683C154.556 30.447 153.436 28.7644 151.707 28.4098C149.979 28.0552 148.289 29.1641 147.933 30.8918Z" fill="#F7FFC4"/>
<path d="M146.23 25.6699C150.464 25.8375 153.992 23.652 154.109 20.796C154.219 17.94 150.878 15.4837 146.644 15.3225C142.41 15.1549 138.881 17.3404 138.765 20.1964C138.648 23.0524 141.989 25.5022 146.23 25.6699Z" fill="#95BA2F"/>
<path d="M186.765 31.8459C191 32.0135 194.528 29.828 194.645 26.972C194.761 24.116 191.414 21.6597 187.18 21.4985C182.945 21.3309 179.417 23.5164 179.3 26.3724C179.184 29.2284 182.525 31.6783 186.765 31.8459Z" fill="#95BA2F"/>
<path d="M161.457 32.9613C161.367 32.9613 161.276 32.9548 161.185 32.9355C160.331 32.7872 159.761 31.9749 159.91 31.1239C161.677 21.1376 166.676 14.6584 166.889 14.3876C167.42 13.7042 168.411 13.5817 169.097 14.1168C169.783 14.6455 169.906 15.6319 169.375 16.3152C169.33 16.3733 164.636 22.4914 163.011 31.6719C162.869 32.4262 162.208 32.9613 161.457 32.9613Z" fill="#6B8A16"/>
<path d="M37.0797 65.5506C37.4681 68.7676 39.2745 71.1981 41.1197 70.9725C42.9649 70.7533 44.1497 67.9682 43.7612 64.7511C43.3728 61.5341 41.5664 59.1036 39.7212 59.3228C37.876 59.5485 36.6977 62.3335 37.0797 65.5506Z" fill="#577012"/>
<path d="M8.02326 65.4087C8.41172 68.6257 10.2181 71.0498 12.0633 70.8306C13.9085 70.6114 15.0933 67.8263 14.7048 64.6093C14.3163 61.3922 12.51 58.9617 10.6648 59.1874C8.82608 59.413 7.64127 62.1917 8.02326 65.4087Z" fill="#577012"/>
<path d="M99.2266 63.5262H99.1619C98.2943 63.4875 97.621 62.759 97.6533 61.8951C97.731 60.0899 96.734 57.5885 95.0571 55.3708C93.3867 53.1659 91.5804 51.9668 90.661 51.9281C89.7934 51.8894 89.1201 51.1609 89.1525 50.297C89.1913 49.4331 89.9488 48.782 90.7905 48.7949C92.8817 48.8851 95.4197 50.6322 97.5692 53.4818C99.6992 56.2927 100.903 59.4904 100.793 62.024C100.761 62.8686 100.062 63.5262 99.2266 63.5262Z" fill="#6B8A16"/>
<path d="M88.0518 65.557C87.2554 65.557 86.5756 64.9639 86.4914 64.158C85.9476 59.0842 82.2507 53.9911 79.8876 53.8944C79.02 53.8558 78.3467 53.1273 78.379 52.2634C78.4114 51.3995 79.143 50.7354 80.0171 50.7612C84.6462 50.9546 88.9776 57.9431 89.6121 63.8227C89.7027 64.6802 89.0812 65.4538 88.2136 65.5505C88.1618 65.5505 88.11 65.557 88.0518 65.557Z" fill="#6B8A16"/>
<path d="M146.158 136.686C145.401 136.686 144.734 136.145 144.611 135.378C144.468 134.527 145.051 133.721 145.906 133.579C154.148 132.225 167.07 123.141 174.807 115.153C175.416 114.528 176.406 114.515 177.034 115.115C177.662 115.714 177.675 116.707 177.073 117.333C169.097 125.578 155.643 135.158 146.424 136.68C146.333 136.68 146.242 136.686 146.158 136.686Z" fill="#6B8A16"/>
<path d="M267.422 316.292C264.275 316.356 261.31 314.3 260.015 311.882C258.72 309.465 258.798 306.776 259.264 304.262C260.319 298.627 267.707 291.026 273.78 298.769C277.787 303.862 276.434 316.105 267.422 316.292Z" fill="#83A329"/>
<path d="M256.454 293.773C256.739 295.372 256.072 297.132 254.739 298.066C253.599 298.866 252.097 299.027 250.737 298.718C249.423 298.415 248.174 297.654 247.481 296.5C246.542 294.946 246.782 292.78 248.038 291.471C250.647 288.738 255.781 290.021 256.454 293.773Z" fill="#83A329"/>
<path d="M270.381 285.869C269.455 288.37 266.392 289.866 263.841 289.066C261.284 288.267 259.64 285.295 260.319 282.716C260.986 280.182 264.346 277.945 266.994 278.655C269.74 279.396 271.306 283.367 270.381 285.869Z" fill="#83A329"/>
<path d="M255.282 282.62C255.522 283.38 255.399 284.231 255.017 284.934C254.402 286.062 253.113 286.791 251.825 286.713C250.543 286.636 249.339 285.74 248.924 284.528C248.51 283.316 248.911 281.859 249.908 281.053C251.546 279.725 254.641 280.563 255.282 282.62Z" fill="#83A329"/>
<path d="M59.112 67.807H59.0796C58.212 67.7877 57.5193 67.0721 57.5387 66.2082C57.6099 62.7655 56.7553 59.3551 55.0655 56.3572C54.6382 55.6029 54.9101 54.6488 55.6741 54.2233C56.4316 53.7978 57.3898 54.0686 57.8171 54.8229C59.7788 58.3107 60.7694 62.2755 60.6917 66.2726C60.6658 67.1236 59.9666 67.807 59.112 67.807Z" fill="#6B8A16"/>
<path d="M216.967 336.799C175.474 336.799 127.299 334.137 106.6 329.675C97.6529 327.748 93.4705 325.607 93.0367 322.732C87.2163 284.257 136.673 155.743 144.138 136.654C104.406 137.285 37.4809 134.732 16.9186 111.917C12.3412 106.836 10.3018 100.983 10.8392 94.497C7.66033 92.8724 -0.646173 86.9283 0.0401011 69.4248C0.525672 56.8533 2.26078 50.2323 5.83458 47.2925C7.58264 45.8612 9.74505 45.3326 12.283 45.7258C17.935 46.5962 23.3864 53.3139 26.2609 57.4657C27.7953 51.4507 31.6087 40.6908 39.2354 40.4716C47.762 40.2459 55.2657 50.7931 57.3246 53.9779C73.1606 52.1277 112.498 46.0869 119.827 38.4472C122.877 35.2689 124.618 29.7825 126.457 23.9738C130.083 12.5305 134.258 -0.421427 150.023 0.0105188C160.991 0.319972 166.209 8.62364 168.255 13.1816C171.712 8.7268 180.064 0.0685413 192.106 1.11295C207.47 2.44102 219.376 24.8248 224.905 43.5855C233.444 72.5581 251.08 143.004 265.045 203.96C283.141 282.922 290.761 325.349 287.699 330.056C284.65 334.749 253.379 336.799 216.967 336.799ZM146.456 133.488C146.967 133.488 147.453 133.74 147.751 134.159C148.049 134.591 148.113 135.139 147.926 135.629C147.349 137.092 90.1168 282.387 96.1508 322.268C96.1508 322.268 96.4875 323.938 104.373 325.943C142.591 335.658 279.483 335.529 285.07 328.354C290.379 318.168 240.158 106.417 221.894 44.4622C216.229 25.2374 204.737 5.34215 191.841 4.22682C177.979 3.02125 169.271 17.1659 169.187 17.3077C168.863 17.8492 168.248 18.1393 167.614 18.0491C166.986 17.9588 166.474 17.5075 166.313 16.8951C166.17 16.3471 162.622 3.48543 149.939 3.1244C149.719 3.11795 149.499 3.11795 149.285 3.11795C136.363 3.11795 132.854 14.1874 129.461 24.9022C127.506 31.0719 125.661 36.8935 122.1 40.6005C112.298 50.8254 58.9625 56.9435 56.6965 57.2014C56.088 57.2788 55.4794 56.9758 55.1686 56.4407C55.0909 56.3117 47.3024 43.3147 39.339 43.6048C33.0136 43.7853 29.4074 56.7824 28.5528 61.7723C28.4428 62.4235 27.9313 62.9328 27.2774 63.0488C26.6235 63.1648 25.9696 62.8554 25.6394 62.2881C23.6453 58.8325 17.2811 49.6714 11.8103 48.8268C10.1529 48.569 8.89692 48.8526 7.84809 49.7165C4.24838 52.6692 3.465 62.4557 3.1866 69.5538C2.46148 88.2113 12.6002 91.8989 13.0275 92.0472C13.7332 92.2857 14.1799 92.9949 14.0893 93.7298C13.3059 99.8222 14.9957 105.089 19.2687 109.828C40.1548 133.005 115.146 134.101 146.437 133.482H146.456V133.488Z" fill="#6B8A16"/>
<path d="M136.021 325.433L86.1743 356.566C83.3515 349.906 81.079 343.188 80.0107 336.019C93.5745 324.331 106.413 313.12 121.861 304.158L136.021 325.433Z" fill="#83A329"/>
<path d="M86.1743 358.132C86.0125 358.132 85.8571 358.107 85.7017 358.061C85.2615 357.92 84.9054 357.597 84.7241 357.178C81.4092 349.345 79.4151 342.692 78.4504 336.251C78.3727 335.723 78.567 335.188 78.9748 334.84L80.2762 333.718C93.4968 322.32 105.979 311.553 121.065 302.811C121.816 302.373 122.78 302.631 123.214 303.378C123.648 304.126 123.395 305.087 122.644 305.519C107.818 314.119 95.4392 324.789 82.335 336.09L81.6941 336.645C82.5811 342.092 84.2579 347.753 86.9124 354.264L135.179 324.118C135.91 323.654 136.882 323.88 137.348 324.615C137.807 325.35 137.587 326.317 136.849 326.774L87.0031 357.907C86.757 358.055 86.4657 358.132 86.1743 358.132Z" fill="#658215"/>
<path d="M247.411 331.159C230.461 341.977 206.247 355.238 189.303 366.062C186.429 359.119 184.104 352.111 183.017 344.639C196.852 332.448 215.673 322.913 231.432 313.571L247.411 331.159Z" fill="#95BA2F"/>
<path d="M189.303 367.629C189.148 367.629 188.986 367.603 188.831 367.558C188.384 367.416 188.028 367.087 187.847 366.662C184.467 358.5 182.434 351.576 181.456 344.865C181.379 344.343 181.573 343.814 181.968 343.466C192.884 333.853 206.609 326.014 219.888 318.432C223.559 316.337 227.165 314.274 230.623 312.224C231.367 311.779 232.332 312.024 232.779 312.765C233.225 313.507 232.979 314.474 232.235 314.912C228.765 316.969 225.139 319.038 221.455 321.14C208.577 328.496 195.273 336.09 184.7 345.245C185.606 350.957 187.329 356.895 190.054 363.722C198.251 358.552 208.059 352.814 217.564 347.25C227.67 341.338 238.12 335.227 246.569 329.83C247.301 329.36 248.272 329.573 248.744 330.301C249.211 331.03 249.003 331.997 248.272 332.467C239.771 337.896 229.295 344.02 219.163 349.951C209.057 355.863 198.607 361.975 190.158 367.371C189.892 367.545 189.601 367.629 189.303 367.629Z" fill="#6B8A16"/>
<path d="M77.2529 363.155C59.7592 364.141 44.5703 325.801 40.5044 301.754C49.6074 306.95 57.7262 315.299 63.8186 323.802C63.9287 309.935 65.3336 296.255 69.2571 289.833C74.5855 298.208 78.0622 312.269 79.3506 321.108C86.4724 311.431 86.0775 304.352 93.3741 296.255C99.6542 318.716 98.3335 361.968 77.2529 363.155Z" fill="#95BA2F"/>
<path d="M76.5862 364.741C57.4997 364.741 42.6929 324.131 38.9571 302.018C38.8536 301.419 39.1125 300.819 39.6111 300.471C40.1096 300.123 40.7635 300.097 41.2944 300.4C48.604 304.571 55.9653 311.173 62.3426 319.225C62.6728 308.24 63.9741 295.481 67.9235 289.021C68.2083 288.557 68.7133 288.273 69.2572 288.267C69.7751 288.28 70.306 288.538 70.5974 288.995C75.3042 296.396 78.5868 307.904 80.2636 316.943C82.1477 313.848 83.3584 310.999 84.5432 308.214C86.4078 303.836 88.1623 299.697 92.2088 295.204C92.5908 294.778 93.18 294.598 93.7368 294.727C94.2936 294.856 94.7403 295.281 94.8957 295.829C99.5184 312.378 100.47 342.898 90.2212 357.153C86.8221 361.885 82.4843 364.412 77.3437 364.715C77.0912 364.734 76.8322 364.741 76.5862 364.741ZM42.6993 304.958C47.7623 330.224 62.4915 362.4 77.1689 361.594C81.3189 361.369 84.8475 359.254 87.6638 355.334C95.9316 343.833 96.8121 317.678 92.6232 299.659C90.2082 302.921 88.8551 306.106 87.4372 309.439C85.7862 313.326 84.077 317.343 80.6262 322.03C80.2507 322.545 79.5968 322.771 78.9752 322.623C78.3537 322.468 77.8875 321.959 77.7969 321.327C76.5085 312.533 73.472 300.922 69.3608 293.147C66.9005 299.201 65.5021 309.89 65.392 323.809C65.3855 324.486 64.9388 325.085 64.2913 325.292C63.6504 325.504 62.9317 325.259 62.5368 324.711C56.6645 316.517 49.7175 309.613 42.6993 304.958Z" fill="#6B8A16"/>
<path d="M181.379 370.414C163.885 371.4 148.69 333.06 144.624 309.013C153.727 314.209 161.846 322.558 167.938 331.062C168.048 317.194 169.453 303.514 173.377 297.093C178.705 305.467 182.182 319.528 183.47 328.367C190.592 318.69 190.197 311.611 197.487 303.514C203.774 325.975 202.46 369.228 181.379 370.414Z" fill="#95BA2F"/>
<path d="M180.706 372C161.619 372 146.812 331.391 143.077 309.278C142.973 308.678 143.232 308.079 143.731 307.73C144.229 307.382 144.883 307.35 145.414 307.66C152.724 311.831 160.085 318.432 166.462 326.485C166.792 315.499 168.1 302.74 172.043 296.281C172.328 295.816 172.839 295.533 173.383 295.526C173.921 295.526 174.432 295.804 174.717 296.255C179.424 303.662 182.706 315.164 184.383 324.202C186.267 321.108 187.484 318.258 188.663 315.473C190.527 311.096 192.282 306.957 196.328 302.47C196.71 302.044 197.306 301.864 197.856 301.986C198.413 302.115 198.86 302.541 199.015 303.089C203.638 319.638 204.59 350.158 194.347 364.406C190.948 369.138 186.61 371.671 181.47 371.974C181.211 371.994 180.958 372 180.706 372ZM146.819 312.218C151.824 337.167 166.281 368.873 180.732 368.873C180.913 368.873 181.101 368.867 181.282 368.86C185.432 368.641 188.961 366.52 191.783 362.594C200.051 351.093 200.932 324.937 196.743 306.925C194.328 310.187 192.975 313.372 191.557 316.705C189.906 320.592 188.197 324.609 184.746 329.296C184.37 329.811 183.716 330.037 183.095 329.889C182.473 329.734 182.007 329.225 181.917 328.593C180.628 319.799 177.592 308.195 173.48 300.413C171.02 306.467 169.622 317.156 169.512 331.075C169.505 331.752 169.065 332.351 168.411 332.558C167.764 332.77 167.051 332.525 166.656 331.977C160.784 323.777 153.837 316.872 146.819 312.218Z" fill="#6B8A16"/>
<path d="M195.83 62.3656C195.83 64.8026 193.848 66.7754 191.401 66.7754C188.954 66.7754 186.973 64.8026 186.973 62.3656C186.973 59.9287 188.954 52.2891 191.401 52.2891C193.842 52.2891 195.83 59.9287 195.83 62.3656Z" fill="#8FB4F2"/>
<path d="M191.401 67.562C188.526 67.562 186.183 65.2347 186.183 62.3658C186.183 60.0384 188.08 51.5027 191.401 51.5027C194.716 51.5027 196.619 60.0384 196.619 62.3658C196.613 65.2282 194.276 67.562 191.401 67.562ZM191.401 53.0693C189.873 53.0693 187.756 59.5227 187.756 62.3658C187.756 64.3644 189.394 65.9954 191.401 65.9954C193.408 65.9954 195.046 64.3644 195.046 62.3658C195.046 59.5227 192.922 53.0693 191.401 53.0693Z" fill="#5F88CF"/>
<path d="M221.486 241.423C221.215 239.309 221.81 237.02 223.358 235.557C224.614 234.37 226.388 233.816 228.116 233.848C230.35 233.893 232.532 234.828 234.299 236.156C234.358 236.201 234.416 236.24 234.474 236.285C234.85 236.582 235.316 237.014 235.665 237.343C236.352 238.032 236.967 238.696 237.523 239.354C242.191 244.834 242.988 249.489 251.301 259.133C251.676 259.565 252.058 260.004 252.466 260.461C252.764 260.797 253.068 261.138 253.386 261.48C253.761 261.886 254.15 262.312 254.545 262.737C254.668 262.866 254.791 263.001 254.92 263.137C255.121 263.35 255.322 263.556 255.529 263.775C255.36 263.607 255.037 263.594 254.57 263.781C253.515 264.207 252.149 265.477 251.521 266.618C251.171 267.256 251.12 267.721 251.333 267.927C251.12 267.721 250.9 267.514 250.686 267.314C250.55 267.185 250.42 267.056 250.284 266.934C249.87 266.547 249.469 266.167 249.067 265.806C248.718 265.49 248.375 265.18 248.038 264.877C247.598 264.484 247.17 264.11 246.749 263.749C237.154 255.452 232.473 254.588 227.041 249.991C226.349 249.405 225.637 248.754 224.905 248.025C224.737 247.845 224.504 247.619 224.348 247.432C224.186 247.239 224.031 247.045 223.875 246.845C223.752 246.691 223.636 246.529 223.519 246.362C222.477 244.885 221.713 243.203 221.486 241.423Z" fill="#ED912E"/>
<path d="M249.054 265.799C249.021 265.529 249.125 265.148 249.377 264.684C250.051 263.446 251.514 262.073 252.653 261.622C252.945 261.506 253.184 261.461 253.372 261.48C253.748 261.886 254.136 262.312 254.531 262.737C254.343 262.698 254.078 262.731 253.754 262.86C252.647 263.298 251.229 264.626 250.582 265.825C250.329 266.289 250.232 266.663 250.264 266.928C249.856 266.534 249.449 266.16 249.054 265.799Z" fill="#349E44"/>
<path d="M246.737 263.736C246.704 263.446 246.808 263.04 247.08 262.544C247.792 261.229 249.352 259.765 250.57 259.282C250.854 259.165 251.1 259.12 251.295 259.127C251.67 259.559 252.052 259.997 252.46 260.455C252.272 260.442 252.033 260.487 251.748 260.603C250.576 261.074 249.061 262.486 248.368 263.762C248.122 264.22 248.012 264.594 248.032 264.871C247.585 264.478 247.158 264.104 246.737 263.736Z" fill="#FEED3F"/>
<path d="M223.869 246.833C223.934 246.194 224.212 245.401 224.711 244.473C226.465 241.237 230.298 237.646 233.276 236.459C233.652 236.311 233.989 236.208 234.299 236.15C234.358 236.195 234.416 236.234 234.474 236.279C234.85 236.575 235.316 237.007 235.665 237.336C236.352 238.026 236.967 238.69 237.524 239.348C237.135 239.38 236.682 239.496 236.17 239.702C233.283 240.85 229.573 244.318 227.87 247.464C227.326 248.476 227.055 249.327 227.035 249.979C226.342 249.392 225.63 248.741 224.899 248.012C224.73 247.832 224.497 247.606 224.342 247.419C224.173 247.232 224.018 247.039 223.869 246.833Z" fill="#ED3B89"/>
<path d="M249.326 282.658C249.229 282.381 249.131 282.097 249.047 281.813C249.047 281.813 249.047 281.807 249.047 281.801C248.711 280.698 248.465 279.563 248.322 278.422C248.018 276.082 248.147 273.697 248.808 271.382C249.967 267.314 252.777 264.033 256.59 262.182C261.29 259.907 266.871 260.371 271.585 262.318C276.266 264.252 280.338 267.843 282.895 272.169C285.511 276.598 286.89 282.194 285.556 287.145C284.838 289.872 283.478 292.354 281.426 294.308C277.535 298.021 271.934 299.014 266.761 298.028C263.757 297.454 260.831 296.139 258.344 294.372C255.819 292.58 253.774 290.414 251.974 287.912C250.873 286.294 249.973 284.521 249.326 282.658Z" fill="#F49C2E"/>
<path d="M266.528 260.893C266.865 260.951 267.312 261.016 267.648 261.087L268.833 261.377C269.358 261.538 270.063 261.751 270.581 261.931C269.804 261.648 268.717 261.699 267.351 262.125C267.234 261.396 267.098 261.113 266.528 260.893Z" fill="#ED3B89"/>
<path d="M261.608 262.46C263.699 262.17 265.084 262.047 267.338 262.137C267.046 262.228 266.742 262.337 266.425 262.466C264.677 263.169 262.767 264.316 260.87 265.754C261.329 263.859 261.452 263.33 261.608 262.46Z" fill="#ED3B89"/>
<path d="M249.403 282.916L249.306 282.639C249.203 282.31 249.119 282.039 249.047 281.82C249.047 281.82 249.047 281.813 249.047 281.807C248.711 280.705 248.465 279.57 248.322 278.429L250.834 276.965L249.527 280.376C249.319 280.917 249.209 281.498 249.248 282.078C249.261 282.284 249.293 282.477 249.339 282.658C249.345 282.748 249.371 282.832 249.403 282.916Z" fill="#ED3B89"/>
<path d="M272.543 263.35C272.265 263.163 272.168 263.008 272.329 262.982C272.679 262.924 274.136 263.653 274.039 263.839C274.019 263.878 273.935 263.872 273.883 263.872C273.475 263.82 272.867 263.562 272.543 263.35Z" fill="#46C3D5"/>
<path d="M266.205 265.767C265.758 265.348 266.282 264.729 267.13 264.684C267.933 264.639 268.432 265.129 268.043 265.587C267.953 265.69 267.862 265.748 267.765 265.806C267.092 266.154 266.451 265.993 266.205 265.767Z" fill="#46C3D5"/>
<path d="M255.723 266.902C257.555 266.412 258.733 266.128 260.857 265.754C258.617 267.45 256.396 269.545 254.499 271.763C254.926 269.816 255.134 268.946 255.723 266.902Z" fill="#ED3B89"/>
<path d="M254.493 271.776C253.243 272.085 252 272.414 250.757 272.723L250.828 276.965C251.767 275.244 253.036 273.478 254.493 271.776Z" fill="#ED3B89"/>
<path d="M259.018 271.511C258.565 270.905 259.484 269.758 260.339 269.861C260.896 269.925 261.194 270.59 260.449 271.337C259.84 271.879 259.258 271.827 259.018 271.511Z" fill="#46C3D5"/>
<path d="M253.178 278.726C252.744 277.965 253.43 276.637 254.136 276.888C254.57 277.043 254.725 277.823 254.272 278.571C253.845 279.164 253.392 279.093 253.178 278.726Z" fill="#46C3D5"/>
<path d="M254.343 290.917L254.971 291.568L255.418 292.006C254.156 290.801 254.408 288.106 256.454 284.379C260.086 277.778 267.972 270.441 274.077 267.998C276.809 266.902 278.719 266.973 279.671 267.978L279.231 267.527L278.583 266.895C274.517 263.614 261.556 272.865 255.47 283.387C253.476 287.023 253.184 289.672 254.343 290.917Z" fill="#FEED3F"/>
<path d="M275.67 297.667C276.007 297.557 276.454 297.389 276.79 297.267C277.328 297.048 277.392 297.015 278.202 296.616C278.571 296.422 278.61 296.396 279.231 296.023C279.516 295.842 279.535 295.829 280.04 295.468C280.273 295.294 280.28 295.288 280.72 294.939C280.927 294.772 280.927 294.772 281.316 294.411C281.504 294.237 281.504 294.237 281.873 293.869C282.054 293.682 282.054 293.682 282.41 293.283C282.598 293.07 282.598 293.07 282.947 292.619C283.142 292.361 283.142 292.361 283.511 291.826C283.731 291.49 283.731 291.49 284.126 290.807C284.605 289.917 284.844 289.311 285.11 288.609L285.278 288.112C285.984 285.933 284.903 284.972 282.449 285.959C279.497 287.139 275.683 290.684 273.929 293.876C272.265 296.906 273.055 298.524 275.67 297.667ZM282.268 289.64C283.944 288.97 284.495 289.891 283.498 291.71C282.501 293.521 280.332 295.539 278.661 296.21C276.991 296.88 276.434 295.958 277.431 294.14C278.428 292.328 280.591 290.311 282.268 289.64Z" fill="#ED3B89"/>
<path d="M264.651 297.583C265.279 297.802 266.14 298.008 266.781 298.17C263.11 297.248 261.394 295.617 259.814 293.289C261.252 292.78 261.821 292.528 265.525 290.91C265.531 290.91 265.531 290.917 265.538 290.917C265.046 287.758 265.266 285.179 265.81 281.794C272.044 280.092 275.262 280.241 276.991 280.318C278.04 277.481 279.425 274.786 280.526 271.969C284.462 274.258 285.272 277.61 285.667 279.215L285.641 279.074C285.505 278.468 285.285 277.668 285.116 277.069C283.705 272.872 281.245 271.453 279.613 270.519C278.616 273.381 277.198 276.076 276.123 278.906C271.973 278.751 268.095 279.622 264.521 280.589C263.744 284.947 263.764 287.371 264.062 290.072C260.494 291.626 259.801 291.903 258.371 292.374C260.378 295.958 263.155 297.016 264.651 297.583Z" fill="#349E44"/>
<path d="M103.254 226.305C104.076 224.339 104.108 221.973 103.001 220.155C102.108 218.685 100.541 217.679 98.8641 217.26C96.6952 216.719 94.345 217.041 92.2862 217.86C92.2149 217.886 92.1502 217.911 92.0855 217.937C91.6452 218.124 91.0819 218.421 90.6546 218.646C89.8065 219.13 89.0425 219.613 88.3303 220.097C82.3739 224.158 80.3733 228.439 69.8007 235.557C69.3281 235.873 68.836 236.201 68.3245 236.53C67.949 236.775 67.567 237.02 67.1656 237.271C66.6995 237.568 66.2139 237.871 65.7154 238.174C65.56 238.271 65.4046 238.361 65.2492 238.458C65.0032 238.606 64.7507 238.761 64.4917 238.909C64.6989 238.793 65.0161 238.87 65.4175 239.173C66.3239 239.857 67.3016 241.443 67.6059 242.713C67.7742 243.422 67.6965 243.88 67.4375 244.028C67.703 243.886 67.962 243.744 68.2209 243.602C68.3893 243.512 68.5447 243.428 68.713 243.338C69.218 243.074 69.7036 242.816 70.1827 242.571C70.6035 242.358 71.0114 242.145 71.4193 241.946C71.9502 241.681 72.4616 241.43 72.9602 241.191C84.4198 235.711 89.159 236.105 95.6205 233.1C96.4492 232.713 97.3038 232.275 98.2037 231.766C98.4109 231.637 98.6958 231.476 98.8965 231.34C99.1037 231.198 99.3044 231.05 99.5051 230.895C99.6669 230.773 99.8223 230.65 99.9777 230.522C101.376 229.38 102.561 227.962 103.254 226.305Z" fill="#ED912E"/>
<path d="M70.1956 242.571C70.2992 242.319 70.2992 241.926 70.1762 241.41C69.8589 240.037 68.8101 238.329 67.826 237.594C67.5735 237.407 67.3533 237.297 67.1656 237.271C66.6994 237.568 66.2139 237.871 65.7153 238.174C65.9096 238.187 66.1556 238.29 66.434 238.496C67.3792 239.212 68.4022 240.862 68.7065 242.191C68.823 242.7 68.823 243.093 68.7194 243.338C69.2309 243.074 69.7165 242.816 70.1956 242.571Z" fill="#349E44"/>
<path d="M72.9797 241.191C73.0897 240.92 73.0897 240.501 72.9602 239.953C72.6236 238.496 71.5035 236.672 70.4611 235.892C70.2151 235.705 69.995 235.595 69.8072 235.557C69.3346 235.873 68.8425 236.201 68.3311 236.53C68.5123 236.569 68.7325 236.672 68.9785 236.859C69.9885 237.62 71.0697 239.38 71.3999 240.792C71.5164 241.294 71.5229 241.688 71.4323 241.946C71.9632 241.681 72.4747 241.43 72.9797 241.191Z" fill="#FEED3F"/>
<path d="M99.5182 230.895C99.6217 230.264 99.5699 229.426 99.3304 228.4C98.5017 224.816 95.7501 220.348 93.1927 218.421C92.869 218.182 92.5712 217.995 92.2928 217.853C92.2215 217.879 92.1568 217.905 92.0921 217.931C91.6518 218.118 91.0885 218.414 90.6612 218.64C89.8131 219.123 89.0491 219.607 88.3369 220.09C88.6995 220.226 89.1074 220.458 89.5476 220.787C92.0273 222.656 94.6883 226.976 95.4976 230.457C95.7565 231.572 95.7889 232.469 95.6335 233.1C96.4622 232.713 97.3169 232.275 98.2168 231.766C98.424 231.637 98.7089 231.476 98.9096 231.34C99.1167 231.198 99.3174 231.05 99.5182 230.895Z" fill="#ED3B89"/>
<path d="M65.4699 258.759C65.6382 258.514 65.8066 258.269 65.962 258.018C65.962 258.018 65.9684 258.011 65.9684 258.005C66.5835 257.025 67.1273 256 67.5676 254.936C68.4805 252.757 68.992 250.423 68.9661 248.019C68.9272 243.789 67.082 239.889 63.9031 237.104C59.9732 233.674 54.47 232.656 49.4005 233.294C44.3699 233.932 39.4883 236.324 35.882 239.825C32.1852 243.409 29.3688 248.444 29.3429 253.569C29.3106 256.387 29.9709 259.14 31.4277 261.564C34.1987 266.167 39.3329 268.597 44.5836 269.01C47.633 269.248 50.8055 268.746 53.6736 267.695C56.5806 266.631 59.1315 265.077 61.527 263.137C63.0096 261.86 64.3498 260.384 65.4699 258.759Z" fill="#F49C2E"/>
<path d="M54.638 233.249C54.3013 233.216 53.8481 233.165 53.505 233.139L52.2878 233.107C51.7375 233.126 51.0059 233.145 50.4556 233.184C51.2778 233.113 52.3137 233.448 53.5179 234.222C53.8287 233.545 54.0294 233.307 54.638 233.249Z" fill="#ED3B89"/>
<path d="M58.9761 236.047C57.0402 235.221 55.7324 234.738 53.5376 234.229C53.7966 234.396 54.062 234.583 54.3339 234.789C55.8295 235.924 57.3704 237.536 58.8207 239.418C58.8725 237.471 58.8919 236.93 58.9761 236.047Z" fill="#ED3B89"/>
<path d="M65.3267 258.985L65.495 258.74C65.6827 258.45 65.8317 258.211 65.9611 258.018C65.9611 258.018 65.9676 258.011 65.9676 258.005C66.5827 257.025 67.1265 256 67.5668 254.936L65.5338 252.866L65.8899 256.503C65.9482 257.083 65.9029 257.669 65.7086 258.217C65.6374 258.417 65.5597 258.591 65.4691 258.759C65.4238 258.843 65.3785 258.914 65.3267 258.985Z" fill="#ED3B89"/>
<path d="M48.1897 234.035C48.5069 233.932 48.6429 233.803 48.494 233.732C48.1703 233.584 46.5776 233.906 46.6164 234.106C46.6229 234.145 46.7071 234.164 46.7524 234.177C47.1667 234.241 47.8207 234.158 48.1897 234.035Z" fill="#46C3D5"/>
<path d="M53.6605 238.032C54.2044 237.742 53.8612 237.007 53.0584 236.743C52.2944 236.491 51.6859 236.833 51.9384 237.375C51.9966 237.497 52.0678 237.574 52.1455 237.658C52.7023 238.174 53.3692 238.187 53.6605 238.032Z" fill="#46C3D5"/>
<path d="M63.4694 241.881C61.8314 240.927 60.7696 240.347 58.8208 239.425C60.53 241.649 62.1163 244.254 63.3593 246.89C63.4694 244.905 63.4953 244.002 63.4694 241.881Z" fill="#ED3B89"/>
<path d="M63.3657 246.903C64.4858 247.528 65.5994 248.173 66.7194 248.798L65.5282 252.867C65.075 250.971 64.3239 248.927 63.3657 246.903Z" fill="#ED3B89"/>
<path d="M59.0733 245.459C59.669 244.988 59.0927 243.647 58.2316 243.519C57.6813 243.435 57.2152 243.996 57.7331 244.911C58.1799 245.601 58.7561 245.704 59.0733 245.459Z" fill="#46C3D5"/>
<path d="M62.7888 253.956C63.4104 253.337 63.0931 251.88 62.3486 251.932C61.8889 251.964 61.5263 252.68 61.7723 253.518C62.0313 254.201 62.491 254.253 62.7888 253.956Z" fill="#46C3D5"/>
<path d="M58.4388 265.406L57.6619 265.87L57.1116 266.173C58.6525 265.341 59.1186 262.679 58.1345 258.546C56.3864 251.223 50.7149 242.074 45.4771 238.11C43.1334 236.337 41.2688 235.905 40.084 236.62L40.6278 236.304L41.4242 235.866C46.2152 233.771 56.2699 246.097 59.3452 257.844C60.3099 261.873 59.8826 264.51 58.4388 265.406Z" fill="#FEED3F"/>
<path d="M36.0761 266.315C35.7783 266.122 35.3963 265.844 35.105 265.638C34.6453 265.29 34.587 265.238 33.9137 264.639C33.6094 264.355 33.577 264.323 33.0785 263.794C32.8519 263.549 32.839 263.53 32.444 263.046C32.2627 262.821 32.2563 262.808 31.9325 262.357C31.7772 262.137 31.7772 262.137 31.4923 261.693C31.3563 261.473 31.3563 261.473 31.1038 261.022C30.9743 260.79 30.9743 260.79 30.7413 260.313C30.6183 260.055 30.6183 260.055 30.3981 259.533C30.2751 259.23 30.2751 259.23 30.0615 258.617C29.9384 258.237 29.9384 258.237 29.7377 257.476C29.5111 256.496 29.4464 255.845 29.3687 255.097L29.3363 254.575C29.2327 252.286 30.5341 251.648 32.6318 253.241C35.1633 255.155 37.9019 259.578 38.7501 263.117C39.5658 266.47 38.3745 267.83 36.0761 266.315ZM31.8419 256.838C30.4046 255.748 29.6277 256.496 30.1068 258.508C30.5859 260.519 32.1462 263.034 33.5835 264.117C35.0208 265.206 35.7977 264.458 35.3186 262.447C34.8395 260.435 33.2792 257.928 31.8419 256.838Z" fill="#ED3B89"/>
<path d="M46.7265 269.126C46.0661 269.171 45.1791 269.145 44.5187 269.132C48.2998 269.203 50.391 268.088 52.534 266.257C51.2844 265.387 50.7989 264.993 47.6588 262.46C47.6523 262.46 47.6523 262.46 47.6458 262.46C48.9601 259.539 49.4263 256.993 49.8018 253.589C44.2403 250.307 41.0938 249.605 39.4105 249.231C39.1515 246.22 38.5299 243.254 38.2127 240.25C33.8101 241.423 32.1397 244.441 31.3369 245.891L31.4017 245.762C31.693 245.214 32.1203 244.499 32.4376 243.963C34.9172 240.282 37.6624 239.567 39.4817 239.09C39.6824 242.113 40.3363 245.079 40.6276 248.096C44.6676 249.037 48.1767 250.9 51.3686 252.77C50.9672 257.18 50.3068 259.514 49.3033 262.041C52.3333 264.471 52.9289 264.923 54.185 265.754C51.2844 268.688 48.3192 268.971 46.7265 269.126Z" fill="#349E44"/>
<path d="M204.687 74.4279C204.687 76.8649 202.705 78.8376 200.258 78.8376C197.811 78.8376 195.83 76.8649 195.83 74.4279C195.83 71.991 197.811 64.3513 200.258 64.3513C202.705 64.3449 204.687 71.991 204.687 74.4279Z" fill="#8FB4F2"/>
<path d="M200.258 79.6177C197.383 79.6177 195.04 77.2904 195.04 74.4215C195.04 72.0941 196.937 63.5583 200.258 63.5583C203.573 63.5583 205.476 72.0941 205.476 74.4215C205.476 77.2904 203.133 79.6177 200.258 79.6177ZM200.258 65.1314C198.73 65.1314 196.613 71.5848 196.613 74.4279C196.613 76.4265 198.251 78.0575 200.258 78.0575C202.265 78.0575 203.903 76.4265 203.903 74.4279C203.903 71.5848 201.786 65.1314 200.258 65.1314Z" fill="#5F88CF"/>
<path d="M223.008 163.892C239.162 192.949 236.727 231.257 217.026 258.05C223.047 256.058 227.45 252.841 231.917 248.354C231.574 255.149 231.859 260.248 231.516 267.044C236.455 261.28 238.171 256.348 241.123 249.92C240.826 255.207 243.377 260.474 245.94 265.116C248.304 246.078 253.399 228.626 254.273 208.602C255.199 187.372 250.006 165.485 240.379 153.796L223.008 163.892Z" fill="#95BA2F"/>
<path d="M240.061 154.525C250.854 186.218 254.078 202.271 243.706 258.392C245.668 261.183 244.418 259.217 246.387 262.015C251.424 235.918 254.525 217.595 253.301 195.057C252.744 184.755 251.462 173.776 246.794 164.995C244.677 161.023 246.089 158.574 240.061 154.525Z" fill="#B6D440"/>
<path d="M231.522 268.617C231.328 268.617 231.127 268.578 230.939 268.507C230.311 268.262 229.917 267.643 229.949 266.973C230.124 263.614 230.137 260.603 230.15 257.702C230.156 255.903 230.169 254.072 230.208 252.132C226.116 255.723 222.18 258.005 217.525 259.546C216.877 259.759 216.159 259.533 215.757 258.978C215.356 258.43 215.356 257.683 215.757 257.128C234.967 231.005 237.375 192.975 221.629 164.653C221.209 163.899 221.48 162.945 222.244 162.526C223.002 162.107 223.96 162.377 224.381 163.138C240.081 191.382 238.722 227.421 221.357 254.524C224.569 252.828 227.566 250.501 230.804 247.258C231.263 246.794 231.962 246.671 232.558 246.929C233.154 247.193 233.523 247.793 233.497 248.444C233.322 251.803 233.309 254.814 233.296 257.721C233.29 259.172 233.283 260.648 233.257 262.183C235.342 259.049 236.702 256 238.294 252.409C238.741 251.403 239.201 250.365 239.699 249.289C240.01 248.605 240.774 248.244 241.506 248.418C242.237 248.599 242.742 249.276 242.697 250.03C242.516 253.305 243.558 256.67 245.06 259.958C245.921 254.175 246.976 248.489 248.012 242.951C250.058 231.972 252.175 220.619 252.7 208.55C253.639 187.03 248.323 165.93 239.155 154.809C238.605 154.138 238.702 153.152 239.376 152.604C240.049 152.056 241.04 152.152 241.59 152.823C251.217 164.511 256.811 186.444 255.84 208.692C255.303 220.987 253.166 232.449 251.101 243.532C249.78 250.604 248.42 257.921 247.494 265.335C247.41 266.006 246.899 266.554 246.232 266.683C245.565 266.805 244.885 266.496 244.555 265.896C242.775 262.673 241.104 259.294 240.204 255.832C238.307 260.016 236.359 263.827 232.713 268.088C232.409 268.423 231.969 268.617 231.522 268.617Z" fill="#6B8A16"/>
</svg>
