<svg width="517" height="383" viewBox="0 0 517 383" fill="none" xmlns="http://www.w3.org/2000/svg">
<path d="M316.978 328.113C337.824 330.021 358.602 329.449 379.181 325.608C380.643 319.226 382.898 306.094 388.759 298.165C383.617 300.303 373.408 311.352 373.476 310.855C374.61 303.099 377.168 295.561 380.978 288.719C375.656 293.547 371.388 301.086 368.21 307.542C367.132 299.532 367.361 292.789 369.084 284.89C368.879 284.406 362.387 301.57 362.975 311.663C354.018 309.37 341.975 306.455 333.283 303.292C330.948 307.766 327.193 311.246 324.059 315.193C320.937 319.145 317.734 323.122 316.978 328.113Z" fill="#83A329"/>
<path d="M339.428 330.81C331.97 330.81 324.387 330.462 316.705 329.754C316.29 329.716 315.912 329.511 315.658 329.182C315.404 328.853 315.293 328.436 315.355 328.026C316.154 322.706 319.444 318.568 322.615 314.565L322.752 314.398C323.749 313.142 324.808 311.924 325.837 310.75C328.129 308.127 330.291 305.654 331.815 302.733C332.168 302.062 332.955 301.763 333.661 302.012C341.157 304.74 351.379 307.332 359.593 309.42L361.303 309.855C361.408 304.759 362.821 298.718 364.072 294.312C367.021 283.915 368.043 283.679 368.594 283.549C369.313 283.375 370.056 283.766 370.335 284.45C370.453 284.736 370.484 285.052 370.416 285.357C369.115 291.311 368.675 296.661 369.059 302.484C372.67 295.822 376.146 291.081 379.832 287.737C380.377 287.24 381.207 287.215 381.777 287.675C382.353 288.135 382.514 288.949 382.155 289.595C379.144 295.002 376.957 300.757 375.638 306.772C379.2 303.329 384.54 298.364 388.04 296.91C388.666 296.649 389.384 296.841 389.806 297.376C390.221 297.91 390.233 298.656 389.83 299.203C384.887 305.896 382.52 316.865 381.102 323.415C380.891 324.397 380.693 325.292 380.513 326.087C380.377 326.671 379.912 327.125 379.324 327.237C366.544 329.617 353.194 330.81 339.428 330.81ZM318.669 326.895C339.274 328.648 359.147 327.821 377.8 324.44C377.918 323.918 378.035 323.359 378.165 322.769C379.349 317.3 380.99 309.718 384.02 303.224C381.176 305.585 378.203 308.488 376.387 310.252C373.996 312.583 373.693 312.875 372.664 312.353C372.088 312.061 371.76 311.415 371.853 310.775C372.46 306.636 373.445 302.59 374.802 298.675C373.03 301.44 371.246 304.653 369.431 308.351C369.139 308.947 368.489 309.277 367.838 309.171C367.188 309.065 366.68 308.543 366.587 307.885C366.178 304.833 365.955 301.962 365.924 299.153C364.89 303.466 364.14 308.071 364.351 311.719C364.382 312.204 364.177 312.664 363.806 312.974C363.434 313.279 362.938 313.391 362.474 313.273L358.862 312.353C351.013 310.364 341.343 307.91 333.847 305.287C332.224 308.034 330.136 310.426 328.104 312.745C327.101 313.894 326.06 315.081 325.112 316.281L324.976 316.448C322.275 319.848 319.71 323.079 318.669 326.895Z" fill="#6B8A16"/>
<path d="M505.725 35.6997C515.383 41.2617 520.928 45.0278 507.516 83.2473C494.104 121.467 488.733 168.84 483.368 187.142C478.003 205.444 454.394 219.98 452.244 216.208C450.101 212.442 464.585 95.6267 479.075 73.0181C493.565 50.4158 505.725 35.6997 505.725 35.6997Z" fill="#76A0EB"/>
<path d="M453.651 218.321C451.984 218.321 451.241 217.494 450.937 216.96C449.221 213.939 453.985 176.304 457.938 151.446C461.741 127.495 469.386 85.354 477.811 72.2102C492.183 49.7819 504.449 34.8856 504.573 34.7426L505.385 33.7607L506.487 34.3946C517.304 40.6216 522.322 45.6492 508.947 83.7569C500.367 108.199 495.163 136.021 490.988 158.381C488.72 170.493 486.769 180.959 484.824 187.577C479.868 204.475 460.75 217.531 454.332 218.283C454.084 218.308 453.861 218.321 453.651 218.321ZM453.57 215.307C454.109 215.307 455.447 215.095 457.901 213.871C465.18 210.229 478.133 199.64 481.918 186.72C483.814 180.244 485.759 169.853 488.008 157.822C492.208 135.363 497.43 107.409 506.091 82.7563C518.704 46.83 514.299 42.4673 506.079 37.6573C503.142 41.3114 492.505 54.853 480.332 73.8446C474.466 83.0049 467.447 111.033 461.085 150.744C455.955 182.842 453.087 211.137 453.57 215.307Z" fill="#5F88CF"/>
<path d="M325.249 19.3741C330.18 7.83371 340.99 2.14739 353.869 6.45408C366.749 10.7608 444.018 30.8586 469.777 31.5733C495.535 32.288 508.414 32.6484 511.277 41.2618C514.139 49.8752 490.35 78.9407 481.225 121.467C475.433 148.463 472.62 199.205 457.077 214.058C445.808 224.821 427.564 200.957 383.921 193.779C340.278 186.602 283.036 162.197 278.743 149.277C274.45 136.357 308.076 88.9896 314.519 64.5851C320.956 40.1867 323.105 24.3955 325.249 19.3741Z" fill="#8FB4F2"/>
<path d="M450.293 218.339C445.059 218.339 438.746 215.288 430.668 211.379C419.604 206.028 404.457 198.695 383.673 195.277C339.478 188.006 281.822 163.341 277.312 149.762C274.673 141.82 284.009 124.22 294.813 103.842C302.432 89.4681 310.319 74.6029 313.057 64.2059C316.408 51.5158 318.614 41.0629 320.218 33.4314C321.754 26.1356 322.77 21.3193 323.861 18.7775C329.3 6.0501 341.262 0.649652 354.34 5.01849C366.178 8.97716 443.875 29.3423 469.814 30.0632C496.241 30.7965 509.504 31.1693 512.695 40.7833C514.138 45.121 510.353 52.7152 504.623 64.2059C497.523 78.4435 487.804 97.9448 482.687 121.784C481.163 128.899 479.837 137.73 478.431 147.077C474.429 173.7 469.9 203.878 458.105 215.145C455.763 217.401 453.192 218.339 450.293 218.339ZM345.475 6.52862C337.223 6.52862 330.341 11.2765 326.63 19.9707C325.663 22.239 324.617 27.1982 323.167 34.0591C321.55 41.7217 319.338 52.218 315.968 64.9827C313.137 75.7215 305.171 90.7359 297.47 105.266C287.868 123.375 277.938 142.099 280.168 148.811C283.996 160.339 338.425 184.781 384.156 192.294C405.368 195.781 420.743 203.226 431.975 208.657C444.786 214.853 451.161 217.631 456.036 212.97C467.082 202.418 471.728 171.488 475.457 146.636C476.87 137.239 478.201 128.365 479.75 121.156C484.948 96.938 494.767 77.2441 501.934 62.8636C506.94 52.8271 510.892 44.8973 509.845 41.7465C507.318 34.1337 494.754 33.7857 469.733 33.0896C443.535 32.3625 365.299 11.8731 353.392 7.88961C350.66 6.96986 348.002 6.52862 345.475 6.52862Z" fill="#5F88CF"/>
<path d="M32.7048 363.437C30.3135 367.184 28.9258 373.498 27.2842 377.631C31.7445 376.562 37.4563 375.089 41.9166 374.02C39.9342 371.298 34.6933 366.165 32.7048 363.437Z" fill="#6B8A16"/>
<path d="M27.2905 379.147C26.8568 379.147 26.4418 378.961 26.1506 378.625C25.7851 378.196 25.6798 377.606 25.8904 377.078C26.4294 375.71 26.9498 374.082 27.5011 372.361C28.61 368.868 29.7623 365.258 31.4411 362.629C31.7075 362.206 32.1659 361.951 32.6615 361.933C33.1757 361.927 33.6279 362.15 33.9253 362.554C34.8669 363.847 36.6696 365.811 38.4166 367.712C40.3061 369.769 42.0902 371.708 43.1371 373.144C43.4345 373.554 43.5088 374.082 43.3354 374.555C43.1619 375.027 42.7655 375.381 42.2699 375.499C40.0645 376.027 29.8924 378.569 27.6436 379.11C27.5259 379.128 27.4082 379.147 27.2905 379.147ZM32.9527 366.146C31.9739 368.24 31.1623 370.788 30.3694 373.281C30.1278 374.045 29.8862 374.791 29.6508 375.512C31.1561 375.139 37.667 373.517 39.2467 373.125C38.3485 372.087 37.2643 370.913 36.205 369.757C35.028 368.477 33.8943 367.24 32.9527 366.146Z" fill="#577012"/>
<path d="M18.9333 346.751C16.7279 350.43 14.8695 355.669 12.6641 359.348C17.62 358.969 24.1743 358.254 29.1302 357.875C26.8319 355.053 21.2317 349.572 18.9333 346.751Z" fill="#6B8A16"/>
<path d="M12.6644 360.858C12.144 360.858 11.6608 360.59 11.382 360.143C11.0846 359.658 11.0846 359.055 11.3758 358.571C12.4351 356.806 13.4511 354.575 14.4299 352.424C15.4459 350.193 16.4928 347.888 17.6451 345.974C17.8991 345.551 18.3389 345.278 18.8283 345.247C19.3177 345.203 19.7947 345.414 20.1045 345.8C21.2196 347.167 23.2019 349.255 25.1286 351.281C27.0862 353.344 29.1181 355.476 30.3013 356.93C30.6545 357.365 30.7412 357.962 30.5182 358.477C30.2951 358.993 29.8057 359.347 29.2482 359.391C26.7764 359.584 15.2724 360.671 12.7821 360.864C12.7449 360.858 12.7077 360.858 12.6644 360.858ZM19.2124 349.367C18.5124 350.728 17.8371 352.219 17.1743 353.674C16.5734 354.991 15.9601 356.34 15.322 357.614C17.0628 357.458 24.3294 356.768 26.0206 356.625C25.079 355.6 20.3089 350.585 19.2124 349.367Z" fill="#577012"/>
<path d="M8.65012 333.296C6.84119 337.168 5.16237 340.586 4.30127 344.774C8.08018 344.47 12.206 343.911 15.9849 343.612C13.476 339.809 11.1591 337.093 8.65012 333.296Z" fill="#6B8A16"/>
<path d="M4.30114 346.285C3.87369 346.285 3.45863 346.098 3.17366 345.775C2.85772 345.421 2.73382 344.936 2.82675 344.47C3.66926 340.368 5.26136 336.975 6.94638 333.383L7.2871 332.656C7.51632 332.159 7.99952 331.829 8.53848 331.792C9.09603 331.755 9.60401 332.01 9.90137 332.463C11.1342 334.328 12.3484 335.968 13.5254 337.559C14.721 339.175 15.96 340.847 17.2362 342.78C17.5273 343.227 17.5707 343.792 17.3353 344.271C17.0999 344.749 16.6353 345.073 16.1025 345.116C14.2254 345.265 12.2678 345.483 10.304 345.694C8.31546 345.912 6.32069 346.129 4.41885 346.278C4.38168 346.285 4.33831 346.285 4.30114 346.285ZM8.89779 336.323C7.84465 338.597 6.9278 340.741 6.26494 343.084C7.49154 342.966 12.1935 342.45 13.29 342.344C12.5528 341.3 9.64738 337.385 8.89779 336.323Z" fill="#577012"/>
<path d="M15.2784 319.394C10.6694 318.468 6.11612 317.753 1.50708 316.821C3.04343 320.83 5.06297 325.186 7.21881 328.896C9.8021 325.988 12.6951 322.309 15.2784 319.394Z" fill="#6B8A16"/>
<path d="M7.21877 330.407C7.16921 330.407 7.11965 330.407 7.07009 330.4C6.58689 330.351 6.15944 330.077 5.91784 329.655C3.83014 326.05 1.76103 321.688 0.100787 317.362C-0.0974514 316.846 0.00166767 316.269 0.354779 315.846C0.707891 315.423 1.26544 315.231 1.8044 315.336C4.10891 315.802 13.265 317.443 15.5695 317.909C16.0961 318.015 16.5298 318.4 16.7032 318.91C16.8767 319.425 16.759 319.985 16.3997 320.389C15.1235 321.831 13.7668 323.465 12.4101 325.093C11.0534 326.728 9.65338 328.412 8.34006 329.891C8.05509 330.226 7.64622 330.407 7.21877 330.407ZM3.93545 318.835C5.02576 321.433 6.23997 323.981 7.48515 326.286C8.34625 325.273 11.6543 321.296 12.4287 320.376C11.0039 320.115 5.3479 319.096 3.93545 318.835Z" fill="#577012"/>
<path d="M43.7628 290.235C38.4661 289.465 33.8261 288.433 28.833 286.494L32.7544 301.216C36.3227 297.506 40.2007 293.945 43.7628 290.235Z" fill="#6B8A16"/>
<path d="M32.7604 302.727C32.6365 302.727 32.5064 302.708 32.3825 302.677C31.8559 302.541 31.4471 302.13 31.3046 301.608L27.377 286.88C27.2283 286.333 27.408 285.743 27.8292 285.363C28.2505 284.984 28.8514 284.873 29.378 285.078C33.7949 286.793 38.1624 287.887 43.9732 288.732C44.5308 288.813 45.0016 289.198 45.1812 289.739C45.3671 290.273 45.2308 290.87 44.8405 291.28C43.044 293.15 41.1483 295.002 39.3084 296.798C37.4871 298.582 35.6039 300.421 33.8383 302.261C33.5533 302.565 33.1631 302.727 32.7604 302.727ZM31.032 288.893L33.5286 298.271C34.749 297.041 39.5005 292.405 40.6342 291.261C37.0721 290.646 34.0056 289.888 31.032 288.893Z" fill="#577012"/>
<path d="M58.4078 276.253C53.8979 274.83 46.402 271.853 41.8921 270.43L46.5259 287.327C50.3172 283.518 55.4156 280.721 58.4078 276.253Z" fill="#6B8A16"/>
<path d="M46.5319 288.843C46.4018 288.843 46.2779 288.825 46.1478 288.794C45.6275 288.657 45.2248 288.253 45.0823 287.737L40.4423 270.84C40.2936 270.305 40.4547 269.734 40.8512 269.354C41.2476 268.969 41.8238 268.832 42.3503 269C44.6363 269.721 47.709 270.846 50.6763 271.934C53.6127 273.009 56.6483 274.121 58.866 274.817C59.3183 274.96 59.6776 275.308 59.8386 275.755C59.9935 276.203 59.9316 276.7 59.6652 277.098C57.6828 280.056 54.8889 282.293 52.1879 284.456C50.54 285.767 48.9913 287.01 47.6098 288.402C47.3125 288.688 46.9284 288.843 46.5319 288.843ZM44.0973 272.76L47.3249 284.537C48.3037 283.685 49.3134 282.877 50.2984 282.088C52.3614 280.441 54.3375 278.863 55.9234 277.023C54.003 276.364 45.8195 273.369 44.0973 272.76Z" fill="#577012"/>
<path d="M28.9632 304.846C24.3604 303.777 16.6539 301.391 12.051 300.315L17.9734 316.809C21.4549 312.713 24.9737 309.476 28.9632 304.846Z" fill="#6B8A16"/>
<path d="M17.9732 318.319C17.8865 318.319 17.7935 318.313 17.7006 318.294C17.174 318.201 16.7342 317.828 16.5546 317.318L10.6322 300.831C10.4463 300.309 10.5578 299.731 10.9234 299.315C11.2889 298.905 11.8526 298.731 12.3916 298.849C14.727 299.389 17.8741 300.272 20.9096 301.13C23.9203 301.975 27.0302 302.851 29.2975 303.373C29.8117 303.491 30.2268 303.87 30.3878 304.38C30.5489 304.883 30.4436 305.436 30.0967 305.834C28.0709 308.183 26.1815 310.165 24.3478 312.086C22.5327 313.987 20.8229 315.777 19.1131 317.791C18.8281 318.126 18.4068 318.319 17.9732 318.319ZM14.4235 302.472L18.5245 313.894C19.7202 312.571 20.9282 311.309 22.1796 309.998C23.4805 308.637 24.8124 307.238 26.1877 305.71C24.3044 305.219 16.189 302.938 14.4235 302.472Z" fill="#577012"/>
<path d="M74.3164 260.772C68.9887 260.151 63.5 258.846 58.5193 256.864C59.4981 262.252 60.0928 267.714 60.291 273.189C65.47 269.603 70.2215 265.57 74.3164 260.772Z" fill="#6B8A16"/>
<path d="M60.2912 274.699C60.062 274.699 59.8266 274.643 59.6159 274.538C59.1265 274.289 58.8044 273.792 58.7858 273.245C58.5938 267.863 57.999 262.438 57.0388 257.137C56.9397 256.596 57.1441 256.043 57.5654 255.695C57.9867 255.347 58.569 255.26 59.077 255.459C63.7603 257.323 69.0942 258.641 74.4962 259.269C75.0475 259.331 75.5183 259.697 75.7228 260.219C75.9272 260.741 75.8281 261.332 75.4626 261.754C71.5722 266.31 66.8888 270.455 61.1461 274.432C60.8921 274.612 60.5885 274.699 60.2912 274.699ZM60.4398 259.188C61.0284 262.885 61.4372 266.62 61.6602 270.362C65.3338 267.652 68.518 264.849 71.2996 261.885C67.5454 261.276 63.8656 260.369 60.4398 259.188Z" fill="#577012"/>
<path d="M97.0082 258.87C94.6355 254.203 92.2566 248.312 89.8778 243.645C85.8201 248.902 82.2828 253.88 78.2251 259.138C85.8511 259.511 90.9991 258.902 97.0082 258.87Z" fill="#6B8A16"/>
<path d="M83.1625 260.772C81.6014 260.772 79.9536 260.741 78.157 260.654C77.5995 260.623 77.0977 260.288 76.8623 259.778C76.6269 259.269 76.695 258.666 77.0419 258.218C79.0677 255.596 86.6627 245.354 88.6946 242.725C89.0106 242.315 89.5062 242.091 90.0265 242.147C90.5407 242.197 90.9929 242.502 91.2283 242.968C92.4302 245.335 93.6506 248.033 94.8214 250.643C95.9799 253.222 97.1817 255.888 98.3525 258.193C98.5879 258.659 98.5693 259.219 98.2968 259.666C98.0242 260.114 97.541 260.387 97.0206 260.393C94.8648 260.406 92.839 260.487 90.7018 260.58C88.3167 260.667 85.8821 260.772 83.1625 260.772ZM81.2049 257.734C84.6865 257.796 87.6724 257.678 90.5717 257.553C91.9408 257.497 93.2603 257.441 94.6046 257.404C93.7497 255.621 90.423 248.231 89.5991 246.498C88.1247 248.443 82.5926 255.9 81.2049 257.734Z" fill="#577012"/>
<path d="M118.87 258.1C116.293 253.01 113.567 248.12 110.327 243.421L102.782 258.361C107.558 258.442 114.088 258.019 118.87 258.1Z" fill="#6B8A16"/>
<path d="M104.052 259.884C103.606 259.884 103.172 259.877 102.751 259.871C102.23 259.865 101.753 259.585 101.487 259.144C101.221 258.697 101.196 258.144 101.431 257.684L108.977 242.744C109.218 242.272 109.689 241.955 110.216 241.917C110.736 241.892 111.256 242.129 111.554 242.564C114.441 246.746 117.185 251.469 120.196 257.416C120.437 257.889 120.413 258.454 120.128 258.902C119.849 259.349 119.347 259.585 118.827 259.61C116.473 259.567 113.617 259.66 110.854 259.741C108.555 259.809 106.177 259.884 104.052 259.884ZM110.507 246.404L105.229 256.857C107.001 256.838 114.596 256.609 116.392 256.59C114.373 252.718 112.452 249.4 110.507 246.404Z" fill="#577012"/>
<path d="M141.612 258.336C139.4 253.097 136.947 246.504 133.782 241.781C129.922 246.597 126.087 252.811 123.771 258.535C128.795 257.876 136.532 258.299 141.612 258.336Z" fill="#6B8A16"/>
<path d="M123.764 260.051C123.3 260.051 122.86 259.84 122.575 259.461C122.247 259.038 122.172 258.467 122.371 257.969C124.607 252.451 128.435 246.044 132.605 240.836C132.902 240.463 133.348 240.252 133.844 240.27C134.321 240.289 134.76 240.538 135.027 240.935C137.722 244.944 139.89 250.214 141.798 254.856C142.207 255.85 142.603 256.814 142.993 257.74C143.192 258.206 143.142 258.746 142.857 259.169C142.578 259.591 142.046 259.821 141.593 259.84C140.367 259.834 138.985 259.803 137.523 259.765C132.902 259.66 127.667 259.542 123.956 260.027C123.888 260.045 123.826 260.051 123.764 260.051ZM133.645 244.416C130.727 248.312 128.07 252.712 126.168 256.801C129.693 256.577 133.844 256.671 137.598 256.758L139.338 256.795C139.233 256.534 139.128 256.279 139.016 256.018C137.437 252.178 135.683 247.914 133.645 244.416Z" fill="#577012"/>
<path d="M169.848 257.255C166.614 252.153 163.567 246.684 160.333 241.582C156.783 246.839 153.308 252.476 149.758 257.733C156.944 257.361 162.637 257.106 169.848 257.255Z" fill="#6B8A16"/>
<path d="M149.758 259.244C149.219 259.244 148.717 258.951 148.445 258.473C148.166 257.976 148.191 257.361 148.507 256.882C150.272 254.272 157.297 243.378 159.081 240.73C159.366 240.308 159.85 240.078 160.351 240.065C160.859 240.072 161.33 240.333 161.597 240.768C163.226 243.341 164.83 246.038 166.379 248.648C167.915 251.233 169.507 253.905 171.106 256.441C171.403 256.907 171.422 257.503 171.149 257.988C170.877 258.473 170.362 258.759 169.805 258.759C162.613 258.61 156.988 258.864 149.826 259.237C149.808 259.244 149.758 259.244 149.758 259.244ZM160.289 244.36C158.951 246.386 153.896 254.216 152.676 256.074C157.663 255.832 162.08 255.676 167.11 255.707C165.983 253.874 161.479 246.292 160.289 244.36Z" fill="#577012"/>
<path d="M192.633 255.303L182.071 241.861L174.947 256.472C181.309 256.59 186.327 256.13 192.633 255.303Z" fill="#6B8A16"/>
<path d="M176.867 258.001C176.229 258.001 175.585 257.994 174.922 257.982C174.408 257.97 173.937 257.702 173.664 257.261C173.398 256.82 173.373 256.273 173.596 255.807L180.72 241.196C180.95 240.73 181.402 240.413 181.916 240.358C182.436 240.308 182.938 240.519 183.26 240.923L193.823 254.365C194.157 254.794 194.238 255.366 194.033 255.869C193.829 256.372 193.37 256.727 192.838 256.795C187.219 257.535 182.467 258.001 176.867 258.001ZM182.374 244.683L177.357 254.98C181.712 254.955 185.571 254.645 189.808 254.135L182.374 244.683Z" fill="#577012"/>
<path d="M196.102 330.872C180.361 328.722 94.6851 312.39 86.8113 315.261C78.9437 318.132 48.1735 336.254 47.2814 339.486C45.7513 345.017 52.4418 380.409 49.7842 381.471C47.1018 382.546 7.21254 333.743 6.50013 330.151C5.78771 326.566 71.6089 261.251 76.6144 259.815C81.62 258.38 203.97 254.794 203.97 254.794L196.102 330.872Z" fill="#95BA2F"/>
<path d="M200.916 254.881C181.966 255.446 81.1556 258.516 76.6209 259.815C71.6092 261.251 5.78796 326.566 6.50657 330.152C6.965 332.439 23.3072 353.065 35.8086 367.464C36.3414 367.302 41.4708 372.317 41.4708 372.317C39.3274 369.359 15.3096 334.098 16.2512 330.332C17.4035 325.702 73.8022 270.175 79.3033 267.621C84.6186 265.147 195.477 269.771 200.043 266.813C200.043 266.813 200.117 259.554 200.916 254.881Z" fill="#B6D440"/>
<path d="M196.784 324.316C195.434 315.784 192.789 307.437 191.989 305.567C190.379 301.801 97.0085 299.11 86.8117 302.335C76.6148 305.567 42.2701 332.482 39.5877 335.707C36.9052 338.939 45.4914 371.236 48.1738 379.849L50.3854 379.352C50.8005 371.491 45.9499 344.271 47.2818 339.48C48.1738 336.248 78.9441 318.126 86.8117 315.255C94.6793 312.384 180.361 328.716 196.103 330.866L196.784 324.316Z" fill="#83A329"/>
<path d="M49.6914 383C49.14 383 48.6878 382.752 48.5019 382.652C43.3044 379.831 5.92411 334.943 5.03204 330.45C4.84619 329.518 4.3506 327.038 38.3608 293.107C41.799 289.676 72.0737 259.548 76.2119 258.361C81.2546 256.913 191.394 253.644 203.933 253.277L205.655 253.228L197.447 332.575L195.904 332.364C191.673 331.786 182.573 330.214 171.063 328.225C143.687 323.502 92.7276 314.721 87.338 316.672C78.8509 319.767 50.3294 336.981 48.7064 339.989C48.1055 342.195 49.2453 351.778 50.2551 360.23C52.4729 378.843 52.4915 382.012 50.3542 382.87C50.1188 382.963 49.8958 383 49.6914 383ZM8.07376 330.089C10.3411 334.856 41.5388 373.33 48.917 379.309C49.0905 375.953 48.0497 367.221 47.2567 360.597C45.8753 349.007 45.0885 341.779 45.8319 339.082C47.0709 334.614 79.6501 316.268 86.2973 313.845C91.9718 311.769 129.866 318.058 171.564 325.255C181.798 327.019 190.118 328.455 194.764 329.151L202.297 256.347C153.277 257.795 80.6784 260.256 77.0296 261.263C71.7144 263.308 11.3261 323.626 8.07376 330.089Z" fill="#6B8A16"/>
<path d="M467.85 104.178C460.831 102.612 449.55 111.729 449.55 111.729C449.55 111.729 453.335 93.3334 445.399 89.9527C437.47 86.5782 425.284 96.1486 425.284 96.1486C425.284 96.1486 378.5 71.4022 373.482 59.1658C368.464 46.9293 376.406 21.1638 361.737 14.7006C347.278 8.33069 337.409 22.5931 337.409 22.5931C337.409 22.5931 335.73 6.5844 322.027 2.13478C309.866 -1.81146 293.667 13.2588 281.958 26.5393C269.816 40.3108 257.271 50.5835 235.453 113.027C211.534 181.462 174.315 315.79 190.378 333.731C206.12 351.318 343.493 337.317 347.067 329.424C350.406 322.06 334.436 164.142 332.286 143.013C373.885 158.4 443.045 178.467 451.247 145.529C451.247 145.529 463.012 146.182 469.38 127.756C474.187 113.866 474.869 105.738 467.85 104.178Z" fill="#95BA2F"/>
<path d="M312.995 3.40246C337.682 7.16848 334.343 37.0792 334.343 37.0792C334.343 37.0792 340.593 31.8154 334.374 14.9615C332.212 9.10121 326.58 3.09795 320.416 1.78668C314.252 0.475405 307.097 2.50135 312.995 3.40246Z" fill="#B6D440"/>
<path d="M470.643 121.771C473.035 112.617 473.208 106.216 467.627 104.955C463.346 103.991 458.749 106.21 454.815 108.702C454.784 108.752 451.024 111.728 450.993 111.778C456.092 109.174 462.311 106.974 466.666 110.001C470.29 112.518 470.637 117.259 470.643 121.771Z" fill="#B6D440"/>
<path d="M448.85 108.733C451.08 99.5231 451.216 92.3577 444.613 90.7295C439.551 89.4804 434.317 91.469 429.875 93.7746C429.838 93.8243 425.724 97.3853 425.687 97.435C431.145 94.8311 439.192 91.9227 444.47 95.2848C448.856 98.0689 448.571 104.116 448.85 108.733Z" fill="#B6D440"/>
<path d="M420.762 99.9395C421.623 98.4542 423.203 97.0932 424.25 95.813C417.169 91.9724 377.267 70.5198 372.733 59.3895C367.746 47.1344 377.205 22.4253 361.346 15.0051C357.251 13.0911 350.641 14.3402 347.494 14.8995C357.97 14.7193 365.937 20.2129 365.738 32.5985C365.571 43.1944 363.316 53.0942 367.101 61.546C371.277 70.8616 405.919 91.7611 420.762 99.9395Z" fill="#B6D440"/>
<path d="M331.511 142.596C331.511 142.596 323.464 135.866 321.184 133.579C318.508 130.894 310.318 118.235 310.318 118.235C301.726 130.267 294.596 143.261 275.397 197.539C256.206 251.811 243.512 291.019 262.524 310.744C277.745 326.529 325.694 321.427 346.534 314.721C345.468 259.244 331.511 142.596 331.511 142.596Z" fill="#E9FF57"/>
<path d="M450.485 147.338C448.385 146.661 447.264 146.723 445.535 146.095C421.251 173.818 320.955 128.464 310.442 117.427C313.527 125.369 319.964 132.094 328.55 141.384C328.556 141.384 436.949 186.067 450.485 147.338Z" fill="#83A329"/>
<path d="M343.895 274.003L344.081 277.017C308.788 280.199 273.093 275.88 239.43 264.153L240.421 261.3C273.713 272.903 309.005 277.166 343.895 274.003ZM241.61 235.628L240.619 238.481C273.353 249.884 308.008 254.29 342.34 251.599L342.111 248.585C308.187 251.245 273.948 246.895 241.61 235.628ZM345.289 299.458C309.557 303.075 273.341 298.861 239.238 286.979L238.247 289.831C272.709 301.838 309.303 306.107 345.413 302.478C345.376 301.484 345.332 300.483 345.289 299.458ZM246.35 132.914L245.358 135.766C273.725 145.654 303.535 150.265 333.333 149.575L333.029 146.561C303.671 147.214 274.301 142.652 246.35 132.914ZM245.166 158.592L244.175 161.445C273.706 171.736 304.799 176.341 335.811 175.167L335.526 172.159C304.947 173.29 274.283 168.741 245.166 158.592ZM243.977 184.271L242.986 187.123C273.632 197.8 305.963 202.33 338.14 200.659L337.874 197.651C306.125 199.285 274.221 194.805 243.977 184.271ZM242.794 209.949L241.802 212.802C273.521 223.858 307.048 228.345 340.333 226.163L340.085 223.155C307.215 225.299 274.115 220.862 242.794 209.949Z" fill="#95BA2F"/>
<path d="M241.734 343.681C216.515 343.681 195.13 341.301 189.263 334.75C172.549 316.082 210.177 180.81 234.04 112.536C254.087 55.1698 266.638 41.2927 277.708 29.0438C278.761 27.8817 279.802 26.7258 280.843 25.545C298.288 5.75785 312.307 -2.60694 322.498 0.70542C333.227 4.18557 337.031 14.0667 338.307 19.231C342.154 15.2226 350.951 8.29961 362.343 13.321C372.54 17.8141 372.751 30.6223 372.943 41.9266C373.048 48.3338 373.154 54.393 374.876 58.594C378.741 68.0153 411.686 87.1748 425.154 94.3712C428.103 92.2334 438.485 85.3663 445.994 88.5668C452.715 91.4255 452.35 102.419 451.619 108.36C455.633 105.638 462.844 101.518 468.184 102.705C470.581 103.239 472.328 104.47 473.382 106.365C475.544 110.249 474.775 116.8 470.811 128.272C465.297 144.224 455.819 146.661 452.418 147.009C450.677 152.844 446.954 157.312 441.329 160.295C419.126 172.066 371.215 158.86 334.033 145.281C338.573 189.914 351.744 322.794 348.442 330.071C347.977 331.102 346.732 333.837 322.436 337.584C300.989 340.878 269.103 343.681 241.734 343.681ZM317.796 3.00481C309.116 3.00481 297.47 11.2329 283.085 27.5461C282.038 28.7331 280.985 29.8952 279.926 31.0697C269.048 43.1073 256.72 56.7483 236.871 113.537C209.149 192.872 177.034 316.579 191.493 332.737C197.131 339.032 221.972 341.804 259.625 340.331C303.584 338.616 343.17 332.097 345.729 328.753C347.909 323.353 339.8 231.645 330.78 143.187C330.724 142.671 330.941 142.161 331.356 141.838C331.765 141.515 332.317 141.434 332.8 141.614C363.006 152.788 417.1 169.723 439.91 157.623C445.164 154.839 448.391 150.768 449.785 145.181C449.958 144.479 450.627 144.019 451.327 144.038C451.743 144.057 462.082 144.28 467.955 127.277C470.191 120.802 472.917 111.741 470.742 107.832C470.104 106.688 469.082 105.999 467.521 105.651C462.348 104.501 453.477 110.498 450.491 112.903C449.996 113.301 449.308 113.344 448.763 113.015C448.224 112.686 447.945 112.045 448.075 111.424C449.054 106.645 450.38 93.7125 444.81 91.3447C438.975 88.8589 429.41 94.8311 426.213 97.3418C425.749 97.7085 425.104 97.7644 424.584 97.4909C422.651 96.4718 377.255 72.3468 372.088 59.7437C370.149 55.0082 370.044 48.6818 369.926 41.9763C369.746 31.076 369.554 19.8028 361.129 16.0865C347.996 10.3069 339.019 22.9225 338.642 23.4631C338.282 23.9789 337.638 24.2151 337.031 24.0597C336.424 23.9044 335.972 23.3823 335.91 22.7609C335.891 22.6117 334.15 7.66573 321.562 3.58276C320.379 3.19746 319.121 3.00481 317.796 3.00481Z" fill="#6B8A16"/>
<path d="M315.559 39.6521C315.058 39.6521 314.556 39.6086 314.06 39.5154C311.694 39.0742 309.519 37.5703 308.094 35.3765C306.67 33.1828 306.18 30.5789 306.738 28.2298C306.93 27.4219 307.741 26.9185 308.553 27.1112C309.364 27.3038 309.86 28.1179 309.668 28.932C309.296 30.4795 309.643 32.2257 310.616 33.7297C311.588 35.2274 313.044 36.259 314.599 36.5449C316.16 36.8369 317.882 36.3957 319.326 35.3392C320.769 34.2828 321.711 32.7788 321.915 31.2003C322.021 30.3738 322.77 29.7834 323.6 29.8953C324.424 30.0009 325.007 30.7591 324.901 31.5856C324.592 33.9845 323.204 36.2404 321.098 37.7816C319.437 38.9996 317.48 39.6521 315.559 39.6521Z" fill="#452800"/>
<path d="M352.054 47.7246C351.552 47.7246 351.05 47.6811 350.555 47.5879C348.188 47.1529 346.014 45.6428 344.589 43.449C343.164 41.2553 342.675 38.6514 343.232 36.3023C343.424 35.4944 344.236 34.9972 345.047 35.1837C345.859 35.3763 346.354 36.1904 346.162 37.0045C345.791 38.552 346.138 40.2983 347.11 41.8022C348.083 43.2999 349.539 44.3315 351.094 44.6174C352.655 44.9095 354.377 44.4682 355.82 43.4117C357.264 42.3553 358.205 40.8451 358.41 39.2666C358.515 38.4401 359.271 37.8559 360.095 37.9616C360.919 38.0672 361.501 38.8254 361.396 39.6519C361.086 42.0508 359.698 44.3066 357.592 45.8478C355.926 47.0783 353.968 47.7246 352.054 47.7246Z" fill="#452800"/>
<path d="M352.079 109.796C358.286 112.487 363.595 111.766 368.731 111.063C372.12 110.604 375.322 110.162 378.414 110.84C384.447 112.157 388.877 116.532 393.164 120.764C394.124 121.715 395.084 122.66 396.051 123.561C407.09 133.84 445.282 147.499 450.362 144.386C451.074 143.951 451.997 144.175 452.431 144.883C452.864 145.592 452.641 146.524 451.935 146.959C451.062 147.499 449.711 147.742 447.995 147.742C435.457 147.742 403.392 134.523 394 125.773C393.009 124.847 392.03 123.884 391.045 122.915C387.062 118.987 382.948 114.923 377.763 113.792C375.192 113.226 372.38 113.611 369.121 114.059C363.837 114.78 357.846 115.594 350.871 112.574" fill="#6B8A16"/>
<path d="M438.294 108.553C436.361 111.001 433.666 112.083 432.272 110.976C430.878 109.87 431.318 106.987 433.251 104.538C435.184 102.09 437.879 101.008 439.272 102.115C440.666 103.221 440.226 106.104 438.294 108.553Z" fill="#577012"/>
<path d="M462.045 123.045C460.112 125.494 457.418 126.575 456.024 125.469C454.63 124.363 455.07 121.479 457.002 119.031C458.935 116.582 461.63 115.501 463.024 116.607C464.418 117.719 463.978 120.597 462.045 123.045Z" fill="#577012"/>
<path d="M335.581 38.1606C335.42 38.1606 335.259 38.1357 335.104 38.0798C334.318 37.8126 333.89 36.9612 334.157 36.1657C337.081 27.4218 335.786 21.9717 335.774 21.9157C335.575 21.1078 336.058 20.2875 336.864 20.0824C337.669 19.8774 338.487 20.3621 338.691 21.1638C338.753 21.4186 340.246 27.4529 337.013 37.1165C336.796 37.7628 336.207 38.1606 335.581 38.1606Z" fill="#6B8A16"/>
<path d="M381.659 85.4844C381.474 85.4844 381.288 85.4471 381.102 85.3788C380.327 85.0743 379.95 84.1918 380.259 83.4212C381.158 81.1467 383.462 78.81 386.423 77.1693C389.422 75.5038 392.321 74.957 394.186 75.6965C394.96 76.0072 395.338 76.8835 395.028 77.6603C394.718 78.4309 393.845 78.8162 393.077 78.5055C392.253 78.1761 390.208 78.5241 387.885 79.8105C385.55 81.1032 383.704 82.9178 383.059 84.5398C382.824 85.124 382.26 85.4844 381.659 85.4844Z" fill="#6B8A16"/>
<path d="M390.623 91.6431C390.363 91.6431 390.103 91.5748 389.868 91.438C389.149 91.0155 388.907 90.0957 389.322 89.3748C392.178 84.4467 398.702 79.9908 402.827 81.6377C403.602 81.9422 403.98 82.8247 403.67 83.5953C403.366 84.3721 402.487 84.7512 401.712 84.4404C399.612 83.6077 394.39 86.6404 391.924 90.8912C391.652 91.3759 391.144 91.6431 390.623 91.6431Z" fill="#6B8A16"/>
<path d="M418.736 106.353C418.55 106.353 418.364 106.315 418.185 106.247C417.41 105.942 417.032 105.066 417.336 104.289C418.748 100.704 421.096 97.5528 424.126 95.1788C424.776 94.6692 425.724 94.7811 426.238 95.4399C426.752 96.0986 426.635 97.0432 425.978 97.559C423.37 99.6036 421.35 102.313 420.136 105.402C419.907 105.992 419.337 106.353 418.736 106.353Z" fill="#6B8A16"/>
<path d="M332.676 144.846C332.459 144.846 332.236 144.796 332.026 144.697C323.966 140.806 314.203 128.309 309.104 118.533C308.72 117.794 309.005 116.88 309.742 116.495C310.48 116.11 311.39 116.395 311.774 117.135C316.718 126.612 326.134 138.501 333.339 141.981C334.088 142.341 334.404 143.242 334.039 143.994C333.773 144.529 333.234 144.846 332.676 144.846Z" fill="#6B8A16"/>
<path d="M309.873 77.623C307.073 84.6951 299.087 88.1504 292.038 85.3415C284.988 82.5325 281.543 74.5219 284.343 67.4497C287.144 60.3776 295.129 56.9223 302.179 59.7313C309.228 62.5402 312.673 70.5508 309.873 77.623Z" fill="#FFC1B8"/>
<path d="M216.62 312.204C219.631 312.136 222.381 310.029 223.515 307.649C224.655 305.262 224.469 302.677 223.912 300.278C222.666 294.897 215.288 287.887 209.799 295.599C206.194 300.664 207.997 312.403 216.62 312.204Z" fill="#83A329"/>
<path d="M226.154 290.056C225.949 291.609 226.662 293.275 227.975 294.12C229.096 294.841 230.54 294.934 231.828 294.58C233.074 294.232 234.232 293.449 234.851 292.305C235.688 290.77 235.366 288.695 234.108 287.483C231.5 284.96 226.643 286.408 226.154 290.056Z" fill="#83A329"/>
<path d="M212.519 283.027C213.51 285.401 216.496 286.706 218.906 285.829C221.316 284.947 222.765 282.02 222.003 279.565C221.26 277.154 217.952 275.14 215.455 275.936C212.86 276.762 211.521 280.659 212.519 283.027Z" fill="#83A329"/>
<path d="M226.811 279.261C226.619 280.006 226.767 280.821 227.164 281.479C227.796 282.542 229.066 283.188 230.286 283.058C231.513 282.927 232.622 282.014 232.968 280.827C233.315 279.64 232.869 278.26 231.878 277.521C230.261 276.315 227.337 277.253 226.811 279.261Z" fill="#83A329"/>
<path d="M275.107 162.538C292.806 176.471 324.165 186.669 344.385 185.526C367.368 184.227 379.634 174.744 391.677 164.16C389.36 169.175 388.047 174.508 387.254 177.031C392.972 174.576 394.774 173.961 402.915 171.581C398.281 177.18 397.221 178.615 393.393 182.63C399.638 182.369 403.026 182.935 409.271 182.673C384.578 193.232 379.634 200.689 354.526 205.114C331.58 209.16 289.337 202.355 264.129 181.431L275.107 162.538Z" fill="#95BA2F"/>
<path d="M388.926 167.585L387.749 167.547C376.858 176.701 364.89 184.37 344.391 185.526C325.001 186.62 295.395 177.279 277.386 164.216L275.881 164.173C279.369 171.17 306.286 187.322 327.571 189.653C351.67 192.294 377.119 186.247 388.926 167.585Z" fill="#B6D440"/>
<path d="M340.092 207.768C315.504 207.768 283.439 199.416 263.175 182.593C262.537 182.058 262.444 181.108 262.977 180.467C263.504 179.827 264.458 179.734 265.096 180.269C289.076 200.174 330.056 207.892 354.272 203.623C370.354 200.789 377.831 196.806 388.183 191.293C392.234 189.137 396.676 186.769 402.19 184.19L401.292 184.165C398.838 184.084 396.528 184.016 393.461 184.146C392.823 184.184 392.278 183.817 392.024 183.258C391.77 182.698 391.881 182.034 392.309 181.592C395.047 178.727 396.36 177.174 398.615 174.446C394.167 175.807 392.148 176.583 387.855 178.429C387.316 178.659 386.69 178.553 386.25 178.162C385.817 177.764 385.649 177.149 385.823 176.59C385.984 176.074 386.17 175.434 386.38 174.7C386.814 173.209 387.359 171.32 388.053 169.269C376.859 178.572 364.847 185.893 344.472 187.042C323.533 188.242 292.007 177.77 274.178 163.732C273.521 163.216 273.409 162.265 273.924 161.612C274.438 160.954 275.379 160.842 276.036 161.358C293.078 174.775 324.332 185.147 344.298 184.028C366.538 182.773 378.463 173.774 390.686 163.036C391.225 162.563 392.012 162.532 392.581 162.961C393.151 163.39 393.343 164.154 393.046 164.807C391.491 168.169 390.382 171.742 389.602 174.414C393.312 172.892 395.759 172.115 402.499 170.139C403.131 169.952 403.819 170.201 404.178 170.76C404.544 171.313 404.5 172.041 404.079 172.556L401.793 175.328C399.799 177.752 398.56 179.256 396.93 181.058C398.529 181.058 399.966 181.108 401.384 181.151C403.831 181.232 406.148 181.3 409.215 181.17C409.946 181.126 410.584 181.636 410.745 182.344C410.906 183.059 410.534 183.78 409.865 184.066C401.279 187.738 395.072 191.045 389.595 193.965C379.399 199.397 371.345 203.691 354.792 206.606C350.369 207.376 345.407 207.768 340.092 207.768Z" fill="#6B8A16"/>
<path d="M249.038 342.022C275.528 349.143 298.238 350.591 319.14 349.485C321.42 343.345 325.403 328.412 332.249 321.308C326.872 322.756 315.306 332.37 315.448 331.886C317.585 324.347 321.104 317.207 325.769 310.924C319.865 315.013 314.649 321.93 310.659 327.914C310.635 319.829 311.737 313.18 314.475 305.573C314.339 305.064 305.666 321.234 304.929 331.314C282.819 326.578 261.583 304.225 246.808 304.075L249.038 342.022Z" fill="#95BA2F"/>
<path d="M306.719 351.325C287.094 351.325 268.354 348.777 248.654 343.476C247.849 343.258 247.372 342.432 247.589 341.624C247.806 340.816 248.636 340.337 249.435 340.555C272.635 346.794 294.478 349.174 318.075 348.019C318.409 347.08 318.769 345.986 319.171 344.787C321.036 339.206 323.625 331.469 327.293 325.422C324.096 327.411 320.639 329.99 318.558 331.544C315.888 333.539 315.547 333.787 314.599 333.135C314.067 332.768 313.831 332.084 314.005 331.463C315.145 327.436 316.65 323.558 318.502 319.854C316.384 322.359 314.197 325.317 311.917 328.741C311.545 329.294 310.864 329.543 310.232 329.35C309.6 329.157 309.16 328.573 309.16 327.908C309.148 324.826 309.303 321.955 309.637 319.164C308.051 323.303 306.707 327.772 306.441 331.413C306.41 331.848 306.193 332.252 305.84 332.513C305.493 332.774 305.047 332.88 304.619 332.78C293.307 330.357 282.163 323.396 272.331 317.25C262.779 311.284 253.765 305.648 246.796 305.579C245.966 305.573 245.297 304.89 245.303 304.057C245.309 303.23 245.99 302.559 246.814 302.559C254.626 302.596 263.572 308.221 273.923 314.69C283.061 320.401 293.363 326.839 303.622 329.449C304.353 324.347 306.583 318.412 308.429 314.131C312.71 304.212 313.751 304.107 314.314 304.051C315.033 303.988 315.733 304.455 315.925 305.163C316.006 305.461 315.993 305.784 315.888 306.077C313.825 311.813 312.691 317.051 312.307 322.881C316.755 316.753 320.819 312.502 324.908 309.675C325.515 309.252 326.333 309.339 326.847 309.867C327.361 310.402 327.41 311.228 326.971 311.819C323.278 316.784 320.367 322.21 318.273 327.989C322.256 325.043 328.197 320.824 331.852 319.836C332.509 319.662 333.197 319.941 333.537 320.525C333.878 321.11 333.791 321.855 333.32 322.34C327.98 327.877 324.387 338.628 322.008 345.738C321.457 347.391 320.968 348.839 320.54 349.989C320.33 350.554 319.809 350.939 319.208 350.97C315.002 351.213 310.839 351.325 306.719 351.325Z" fill="#6B8A16"/>
</svg>
