<svg width="456" height="167" viewBox="0 0 456 167" fill="none" xmlns="http://www.w3.org/2000/svg">
<path d="M345.25 153.126L343.116 149.672C342.911 149.335 342.632 149.078 342.28 148.902C341.943 148.741 341.525 148.66 341.026 148.66L343.204 147.802C343.659 147.802 344.055 147.854 344.392 147.956C344.729 148.059 345.03 148.228 345.294 148.462C345.558 148.697 345.807 149.02 346.042 149.43L347.648 151.982L345.25 153.126ZM341.048 148.66C339.919 148.66 338.892 148.477 337.968 148.11C337.059 147.729 336.274 147.186 335.614 146.482C334.969 145.778 334.47 144.935 334.118 143.952C333.766 142.97 333.59 141.877 333.59 140.674C333.59 139.457 333.766 138.364 334.118 137.396C334.47 136.414 334.969 135.578 335.614 134.888C336.274 134.184 337.059 133.649 337.968 133.282C338.892 132.901 339.919 132.71 341.048 132.71C342.177 132.71 343.197 132.901 344.106 133.282C345.03 133.649 345.815 134.177 346.46 134.866C347.12 135.556 347.626 136.392 347.978 137.374C348.33 138.342 348.506 139.435 348.506 140.652C348.506 141.87 348.33 142.97 347.978 143.952C347.626 144.935 347.12 145.778 346.46 146.482C345.815 147.186 345.03 147.729 344.106 148.11C343.197 148.477 342.177 148.66 341.048 148.66ZM341.048 146.24C342.001 146.24 342.808 146.02 343.468 145.58C344.143 145.14 344.656 144.502 345.008 143.666C345.375 142.83 345.558 141.833 345.558 140.674C345.558 139.501 345.382 138.504 345.03 137.682C344.678 136.846 344.165 136.216 343.49 135.79C342.815 135.35 342.001 135.13 341.048 135.13C340.109 135.13 339.303 135.35 338.628 135.79C337.953 136.216 337.433 136.846 337.066 137.682C336.714 138.504 336.538 139.501 336.538 140.674C336.538 141.833 336.714 142.83 337.066 143.666C337.433 144.502 337.953 145.14 338.628 145.58C339.303 146.02 340.109 146.24 341.048 146.24Z" fill="#351F52"/>
<path d="M413.201 148.44V132.93H416.017V148.44H413.201Z" fill="#351F52"/>
<path d="M380.494 148.66C378.368 148.66 376.74 148.11 375.61 147.01C374.496 145.896 373.938 144.253 373.938 142.082V132.93H376.754V142.06C376.754 143.454 377.07 144.502 377.7 145.206C378.346 145.896 379.277 146.24 380.494 146.24C381.712 146.24 382.636 145.896 383.266 145.206C383.897 144.502 384.212 143.454 384.212 142.06V132.93H387.006V142.082C387.006 144.253 386.456 145.896 385.356 147.01C384.256 148.11 382.636 148.66 380.494 148.66Z" fill="#351F52"/>
<path d="M443.704 148.44V146.372L452.548 134.382V135.284H443.704V132.93H455.188V134.998L446.344 146.966V146.086H455.518V148.44H443.704Z" fill="#351F52"/>
<path d="M401.61 102.934C401.545 105.238 399.495 107.072 397.011 107.072H393.735C392.488 107.072 391.305 106.611 390.437 105.779C389.57 104.958 389.103 103.846 389.136 102.694L390.253 66.6857C390.318 64.5115 392.151 62.7382 394.494 62.5679L397.748 62.3374C399.05 62.2473 400.33 62.6681 401.285 63.4996C402.228 64.3312 402.749 65.4934 402.716 66.6957L401.61 102.934Z" fill="#FA068A"/>
<path d="M51.7018 112.451C52.5383 113.166 53.657 113.528 54.7853 113.455L57.6838 113.265C59.8724 113.13 61.5551 111.42 61.526 109.385L61.4967 107.657C61.4773 106.608 61.0007 105.604 60.1642 104.889C59.3277 104.174 58.2091 103.812 57.0808 103.885L54.1822 104.075C51.9937 104.21 50.3109 105.92 50.3401 107.955L50.3692 109.683C50.3887 110.732 50.8653 111.736 51.7018 112.451Z" fill="#8048E2"/>
<path d="M421.936 112.451C420.98 113.166 419.702 113.528 418.413 113.455L415.1 113.265C412.599 113.13 410.676 111.42 410.709 109.385L410.742 107.657C410.765 106.608 411.309 105.604 412.265 104.889C413.221 104.174 414.5 103.812 415.789 103.885L419.102 104.075C421.603 104.21 423.526 105.92 423.493 107.955L423.459 109.683C423.437 110.732 422.892 111.736 421.936 112.451Z" fill="#761979"/>
<path d="M243.979 130.283C244.637 130.819 245.516 131.091 246.402 131.036L248.68 130.894C250.399 130.792 251.721 129.51 251.698 127.983L251.675 126.688C251.66 125.901 251.286 125.148 250.628 124.612C249.971 124.076 249.092 123.804 248.206 123.859L245.928 124.001C244.209 124.103 242.887 125.385 242.909 126.912L242.932 128.207C242.948 128.994 243.322 129.747 243.979 130.283Z" fill="#FFFF00"/>
<path d="M379.362 102.338C379.152 104.624 377.14 106.351 374.772 106.27L355.079 105.61C352.637 105.528 350.709 103.547 350.782 101.17L352.061 59.3612C352.134 57.065 354.052 55.2159 356.421 55.1752L358.548 55.1346C359.869 55.1143 361.137 55.6528 361.996 56.6281C362.855 57.5933 363.233 58.8836 363.023 60.1536C361.786 67.4587 359.753 81.124 359.837 91.2738C359.858 93.6411 361.839 95.5512 364.281 95.5512H375.097C376.344 95.5512 377.528 96.0592 378.377 96.9533C379.215 97.8474 379.635 99.0361 379.53 100.245L379.362 102.338Z" fill="#16AA9B"/>
<path d="M308.041 108.402C302.858 103.509 301.544 96.5388 302.191 90.4604C302.201 77.2095 300.938 66.0049 308.678 59.1363C315.255 53.2909 324.521 54.3344 332.352 59.1363C341.001 64.4448 339.758 69.9154 340.283 82.7611C340.536 89.032 340.495 95.3535 338.555 101.483C335.484 111.127 317.347 117.205 308.041 108.402ZM313.972 89.4777C313.972 94.8976 314.346 102.486 322.823 102.891C328.916 103.185 330.492 97.9875 330.795 94.614C332.372 77.1993 333.231 64.769 323.217 65.0324C312.709 65.3059 314.417 76.4699 314.245 80.2385C314.104 83.3081 313.972 86.398 313.972 89.4777Z" fill="#872E8C"/>
<path d="M267.255 106.541C267.141 107.763 266.069 108.69 264.821 108.669C263.625 108.649 262.491 108.15 261.67 107.295C260.858 106.44 260.432 105.289 260.494 104.118L262.751 62.2991C262.876 60.059 264.717 58.2873 267.005 58.2058L286.892 57.5338C289.243 57.4523 291.24 59.1833 291.448 61.4743L291.635 63.5821C291.739 64.7938 291.323 65.9851 290.491 66.8812C289.659 67.7772 288.473 68.2863 287.236 68.2863H276.325C274.037 68.2863 272.123 70.0071 271.925 72.2371L271.696 74.8132C271.592 76.0147 271.998 77.1959 272.83 78.0817C273.652 78.9676 274.817 79.4869 276.044 79.4971L278.852 79.5276C281.151 79.5582 283.054 81.3095 283.2 83.5598L283.533 88.3659C283.574 89.0175 283.346 89.659 282.888 90.1274C282.43 90.5958 281.796 90.8707 281.13 90.8707H272.778C270.5 90.8707 268.597 92.561 268.378 94.7807L267.255 106.541Z" fill="#F12964"/>
<path d="M91.8284 103.01C92.0047 103.844 91.7972 104.719 91.2681 105.402C90.7391 106.086 89.9299 106.518 89.0481 106.589L83.1347 107.061C81.5475 107.192 80.1158 106.116 79.8357 104.598L78.1758 95.5417C77.8127 93.5313 76.0076 92.0738 73.9016 92.0738H68.3721C66.4114 92.0738 64.6892 93.3504 64.1809 95.1798L63.6103 97.2404C63.2161 98.6678 61.7948 99.6026 60.2698 99.4317L54.6677 98.8085C53.7444 98.708 52.9248 98.2054 52.4269 97.4515C51.9289 96.6976 51.8044 95.7628 52.0845 94.9084L62.1061 64.8336C63.3925 60.9636 67.1168 58.3301 71.3184 58.3301H76.3084C79.8876 58.3301 82.9791 60.7727 83.6949 64.1802L91.8284 103.01ZM76.3084 85.3492L72.5944 65.0547L66.9301 85.3492H76.3084Z" fill="#872E8C"/>
<path d="M453.795 103.01C453.972 103.844 453.764 104.719 453.235 105.402C452.706 106.086 451.897 106.518 451.015 106.589L445.102 107.061C443.514 107.192 442.083 106.116 441.802 104.598L440.143 95.5417C439.78 93.5313 437.974 92.0738 435.868 92.0738H430.339C428.378 92.0738 426.656 93.3504 426.148 95.1798L425.577 97.2404C425.183 98.6678 423.762 99.6026 422.237 99.4317L416.634 98.8085C415.711 98.708 414.892 98.2054 414.394 97.4515C413.896 96.6976 413.771 95.7628 414.051 94.9084L424.073 64.8336C425.359 60.9636 429.084 58.3301 433.285 58.3301H438.275C441.854 58.3301 444.946 60.7727 445.662 64.1802L453.795 103.01ZM438.275 85.3492L434.561 65.0547L428.897 85.3492H438.275Z" fill="#F85126"/>
<path d="M110.714 115.727C110.512 115.706 109.498 115.604 108.271 115.47C105.341 115.141 103.12 112.673 103.059 109.68L102.279 68.0121C102.248 66.5108 102.816 65.0711 103.85 64.0016C104.884 62.9322 106.294 62.3254 107.774 62.3254H111.302V62.346C137.796 63.1275 138.151 79.3856 127.424 88.4246C133.233 91.921 140.736 103.192 131.489 110.75C125.964 115.264 117.518 116.272 110.714 115.727ZM111.475 71.8478L111.728 85.5042C116.96 85.2985 123.895 83.2213 123.692 77.7196C123.49 72.0227 117.021 71.8787 111.475 71.8478ZM125.061 99.2222C125.274 93.1653 117.528 92.7539 111.87 92.6203L112.124 106.328C115.348 106.349 118.633 106.287 121.502 104.744C123.621 103.603 124.97 101.69 125.061 99.2222Z" fill="#16AA9B"/>
<path d="M177.632 96.6319C179.233 96.6319 180.741 97.3276 181.76 98.5175C182.78 99.7074 183.185 101.281 182.884 102.803C182.478 104.85 180.616 106.312 178.464 106.272L150.676 105.768C149.23 105.738 147.847 105.143 146.859 104.114C145.871 103.086 145.351 101.714 145.435 100.302L147.598 60.6528C147.743 57.9705 149.979 55.8327 152.756 55.7419L170.893 55.1369C173.742 55.0461 176.165 57.1234 176.405 59.8763L176.425 60.1183C176.561 61.5704 176.051 63.0023 175.042 64.0712C174.033 65.1401 172.598 65.7552 171.101 65.7552H161.294C158.975 65.7552 157.072 67.5098 156.947 69.7584L156.812 72.3702C156.749 73.5298 157.176 74.6693 157.997 75.5163C158.819 76.3634 159.963 76.8575 161.159 76.8675L162.885 76.8877C165.672 76.918 167.971 79.0255 168.158 81.728L168.22 82.6052C168.324 84.0371 167.804 85.4489 166.785 86.4976C165.776 87.5463 164.362 88.1413 162.875 88.1413H160.14C157.789 88.1413 155.855 89.9261 155.73 92.195C155.668 93.3546 156.094 94.484 156.916 95.321C157.737 96.1579 158.881 96.6319 160.067 96.6319H177.632Z" fill="#F85126"/>
<path d="M235.423 125.254C237.547 125.101 239.537 126.346 240.303 128.334C240.629 129.171 240.568 130.099 240.16 130.894C239.741 131.69 239.006 132.261 238.139 132.465C233.025 133.689 223.44 134.902 218.683 128.477C209.915 116.627 223.828 101.584 206.955 98.9831C206.608 99.0239 206.261 99.0647 205.934 99.1055V112.578C205.934 117.136 202.239 120.839 197.666 120.839H197.533C195.236 120.839 193.369 118.972 193.369 116.678V59.5149C193.369 57.312 195.155 55.5171 197.37 55.5171C197.37 55.5171 211.834 53.7426 224.011 57.8322C236.189 61.9218 235.24 78.1476 231.82 88.1727C230.33 92.5275 224.287 95.2403 217.928 96.923C222.419 97.5043 227.819 99.0035 227.819 102.828C227.819 109.375 224.389 120.42 228.584 123.551C230.718 125.173 233.362 125.407 235.423 125.254ZM205.934 64.9915V90.1206C219.03 89.6719 223.205 80.4014 219.643 71.8857C217.305 66.3071 210.874 65.0629 205.934 64.9915Z" fill="#FFA322"/>
<path d="M27.0352 79.1289C42.4604 85.578 47.7602 102.008 32.1391 112.685C17.4976 122.686 0 106.768 0 96.7155C0 95.7942 0.752712 95.0367 1.69101 95.0367H6.73303C10.713 95.0367 14.1157 97.8108 14.9096 101.68C15.4664 104.413 17.1471 106.932 21.4777 106.84C26.5094 106.727 28.1179 102.468 28.5303 98.5479C28.9221 94.7808 26.2825 91.1877 21.7148 89.2632L15.9098 86.8166C8.36218 83.633 3.73258 77.8596 3.73258 71.6152V68.5442C5.78445 56.2192 24.7978 55.82 33.5414 63.2314C35.1396 64.5928 35.7273 66.7937 34.9953 68.7591C34.2632 70.7246 32.3763 72.0246 30.2729 72.0246C27.757 72.0246 25.6329 70.2025 25.2617 67.7355C24.5709 63.2006 20.6425 62.2896 17.4358 64.7259C14.0641 67.3056 14.6209 73.9082 22.0035 76.9997L27.0352 79.1289Z" fill="#FFA322"/>
<path d="M96.4345 36.1873C99.448 32.0589 105.534 32.9473 107.389 37.7877C109.244 42.6281 105.477 47.7885 100.608 47.0775C95.7393 46.3666 93.421 40.3156 96.4345 36.1873Z" fill="#F12964"/>
<path d="M176.185 161.219C168.537 170.684 153.775 168.103 149.613 156.571C145.452 145.041 155.011 133.209 166.821 135.275C178.63 137.34 183.834 151.753 176.185 161.219Z" fill="#F12964"/>
<path d="M191.054 14.0569C186.487 18.8152 178.239 17.0676 176.206 10.9118C174.176 4.75607 179.884 -1.19139 186.484 0.20601C193.083 1.60341 195.621 9.29856 191.054 14.0569Z" fill="#16AA9B"/>
<path d="M300.862 124.725C298.229 128.371 292.904 127.592 291.276 123.323C289.648 119.054 292.941 114.497 297.201 115.12C301.461 115.743 303.496 121.079 300.862 124.725Z" fill="#FFA322"/>
<path d="M401.658 57.4368C399.145 61.1804 393.799 60.6017 392.032 56.3967C390.267 52.1909 393.407 47.5121 397.685 47.9743C401.963 48.4366 404.171 53.6932 401.658 57.4368Z" fill="#FA068A"/>
<path d="M352.495 26.4704C350.299 30.3227 344.167 30.6464 341.459 27.0554C338.75 23.4626 341.494 18.6482 346.4 18.3888C351.304 18.1276 354.69 22.6182 352.495 26.4704Z" fill="#F85126"/>
</svg>
