<svg width="568" height="209" viewBox="0 0 568 209" fill="none" xmlns="http://www.w3.org/2000/svg">
<path d="M428.848 188.686L426.714 185.232C426.509 184.895 426.23 184.638 425.878 184.462C425.541 184.301 425.123 184.22 424.624 184.22L426.802 183.362C427.257 183.362 427.653 183.413 427.99 183.516C428.327 183.619 428.628 183.787 428.892 184.022C429.156 184.257 429.405 184.579 429.64 184.99L431.246 187.542L428.848 188.686ZM424.646 184.22C423.517 184.22 422.49 184.037 421.566 183.67C420.657 183.289 419.872 182.746 419.212 182.042C418.567 181.338 418.068 180.495 417.716 179.512C417.364 178.529 417.188 177.437 417.188 176.234C417.188 175.017 417.364 173.924 417.716 172.956C418.068 171.973 418.567 171.137 419.212 170.448C419.872 169.744 420.657 169.209 421.566 168.842C422.49 168.461 423.517 168.27 424.646 168.27C425.775 168.27 426.795 168.461 427.704 168.842C428.628 169.209 429.413 169.737 430.058 170.426C430.718 171.115 431.224 171.951 431.576 172.934C431.928 173.902 432.104 174.995 432.104 176.212C432.104 177.429 431.928 178.529 431.576 179.512C431.224 180.495 430.718 181.338 430.058 182.042C429.413 182.746 428.628 183.289 427.704 183.67C426.795 184.037 425.775 184.22 424.646 184.22ZM424.646 181.8C425.599 181.8 426.406 181.58 427.066 181.14C427.741 180.7 428.254 180.062 428.606 179.226C428.973 178.39 429.156 177.393 429.156 176.234C429.156 175.061 428.98 174.063 428.628 173.242C428.276 172.406 427.763 171.775 427.088 171.35C426.413 170.91 425.599 170.69 424.646 170.69C423.707 170.69 422.901 170.91 422.226 171.35C421.551 171.775 421.031 172.406 420.664 173.242C420.312 174.063 420.136 175.061 420.136 176.234C420.136 177.393 420.312 178.39 420.664 179.226C421.031 180.062 421.551 180.7 422.226 181.14C422.901 181.58 423.707 181.8 424.646 181.8Z" fill="white"/>
<path d="M516.694 184V168.49H519.51V184H516.694Z" fill="white"/>
<path d="M474.14 184.22C472.013 184.22 470.385 183.67 469.256 182.57C468.141 181.455 467.584 179.813 467.584 177.642V168.49H470.4V177.62C470.4 179.013 470.715 180.062 471.346 180.766C471.991 181.455 472.923 181.8 474.14 181.8C475.357 181.8 476.281 181.455 476.912 180.766C477.543 180.062 477.858 179.013 477.858 177.62V168.49H480.652V177.642C480.652 179.813 480.102 181.455 479.002 182.57C477.902 183.67 476.281 184.22 474.14 184.22Z" fill="white"/>
<path d="M555.034 184V181.932L563.878 169.942V170.844H555.034V168.49H566.518V170.558L557.674 182.526V181.646H566.848V184H555.034Z" fill="white"/>
<path d="M502.614 128.822C502.532 131.705 499.966 134 496.858 134H492.758C491.197 134 489.717 133.423 488.631 132.383C487.545 131.354 486.961 129.963 487.002 128.521L488.4 83.4568C488.482 80.7359 490.776 78.5166 493.708 78.3034L497.781 78.015C499.41 77.9022 501.012 78.4288 502.206 79.4695C503.387 80.5102 504.039 81.9647 503.998 83.4693L502.614 128.822Z" fill="#FA068A"/>
<path d="M64.7046 140.732C65.7515 141.626 67.1515 142.079 68.5636 141.989L72.1911 141.751C74.9301 141.581 77.036 139.441 76.9995 136.894L76.9629 134.732C76.9386 133.419 76.3421 132.162 75.2952 131.268C74.2484 130.374 72.8485 129.921 71.4364 130.011L67.8088 130.249C65.0699 130.419 62.9639 132.559 63.0004 135.106L63.0369 137.268C63.0613 138.581 63.6577 139.838 64.7046 140.732Z" fill="#8048E2"/>
<path d="M528.052 140.732C526.856 141.626 525.256 142.079 523.642 141.989L519.496 141.751C516.366 141.581 513.959 139.441 514.001 136.894L514.042 134.732C514.07 133.419 514.752 132.162 515.948 131.268C517.145 130.374 518.745 129.921 520.359 130.011L524.504 130.249C527.635 130.419 530.041 132.559 530 135.106L529.958 137.268C529.93 138.581 529.248 139.838 528.052 140.732Z" fill="#761979"/>
<path d="M305.339 163.049C306.162 163.72 307.262 164.059 308.372 163.991L311.222 163.813C313.374 163.686 315.028 162.081 315 160.171L314.971 158.549C314.952 157.564 314.483 156.622 313.661 155.951C312.838 155.28 311.738 154.941 310.629 155.009L307.779 155.187C305.626 155.314 303.972 156.919 304 158.829L304.029 160.451C304.048 161.436 304.517 162.378 305.339 163.049Z" fill="#FFFF00"/>
<path d="M474.77 128.076C474.508 130.937 471.99 133.098 469.026 132.997L444.38 132.17C441.324 132.068 438.911 129.589 439.003 126.613L440.603 74.2902C440.695 71.4166 443.095 69.1024 446.059 69.0516L448.722 69.0007C450.374 68.9753 451.961 69.6492 453.037 70.8698C454.112 72.0778 454.585 73.6926 454.322 75.282C452.775 84.4243 450.23 101.526 450.335 114.229C450.361 117.191 452.84 119.582 455.896 119.582H469.432C470.993 119.582 472.475 120.218 473.538 121.337C474.587 122.456 475.111 123.943 474.98 125.456L474.77 128.076Z" fill="#16AA9B"/>
<path d="M385.512 135.664C379.025 129.541 377.381 120.818 378.191 113.211C378.203 96.6273 376.623 82.6049 386.309 74.0089C394.541 66.6934 406.137 67.9992 415.937 74.0089C426.761 80.6524 425.206 87.4988 425.863 103.575C426.179 111.423 426.129 119.335 423.701 127.005C419.857 139.075 397.159 146.682 385.512 135.664ZM392.935 111.981C392.935 118.764 393.403 128.26 404.012 128.767C411.637 129.135 413.61 122.631 413.989 118.409C415.962 96.6146 417.037 81.0581 404.505 81.3877C391.354 81.7301 393.491 95.7018 393.276 100.418C393.099 104.26 392.935 108.127 392.935 111.981Z" fill="#872E8C"/>
<path d="M334.469 133.336C334.325 134.865 332.985 136.025 331.423 136C329.926 135.974 328.507 135.35 327.479 134.279C326.463 133.209 325.93 131.769 326.008 130.303L328.832 77.9673C328.988 75.1638 331.292 72.9464 334.156 72.8445L359.045 72.0035C361.987 71.9015 364.486 74.0678 364.746 76.9351L364.98 79.5729C365.111 81.0893 364.59 82.5803 363.549 83.7017C362.507 84.8231 361.023 85.4602 359.474 85.4602H345.819C342.956 85.4602 340.561 87.6138 340.313 90.4046L340.027 93.6286C339.897 95.1323 340.404 96.6105 341.446 97.7191C342.474 98.8278 343.932 99.4777 345.468 99.4904L348.983 99.5287C351.859 99.5669 354.241 101.759 354.424 104.575L354.84 110.59C354.892 111.405 354.606 112.208 354.033 112.794C353.46 113.38 352.666 113.725 351.833 113.725H341.381C338.53 113.725 336.148 115.84 335.874 118.618L334.469 133.336Z" fill="#F12964"/>
<path d="M114.923 128.917C115.144 129.961 114.884 131.055 114.222 131.911C113.56 132.766 112.547 133.307 111.443 133.395L104.043 133.987C102.056 134.15 100.265 132.804 99.9142 130.905L97.8368 119.57C97.3824 117.054 95.1233 115.23 92.4877 115.23H85.5675C83.1137 115.23 80.9584 116.828 80.3222 119.117L79.6082 121.696C79.1148 123.482 77.3361 124.652 75.4275 124.439L68.4165 123.659C67.261 123.533 66.2353 122.904 65.6121 121.96C64.9889 121.017 64.8331 119.847 65.1836 118.778L77.7256 81.1391C79.3355 76.2959 83.9965 73 89.2548 73H95.4998C99.9791 73 103.848 76.0569 104.744 80.3214L114.923 128.917ZM95.4998 106.814L90.8518 81.4158L83.7628 106.814H95.4998Z" fill="#872E8C"/>
<path d="M567.923 128.917C568.144 129.961 567.884 131.055 567.222 131.911C566.56 132.766 565.547 133.307 564.443 133.395L557.043 133.987C555.057 134.15 553.265 132.804 552.914 130.905L550.837 119.57C550.382 117.054 548.123 115.23 545.488 115.23H538.568C536.114 115.23 533.959 116.828 533.322 119.117L532.608 121.696C532.115 123.482 530.336 124.652 528.428 124.439L521.417 123.659C520.261 123.533 519.235 122.904 518.612 121.96C517.989 121.017 517.833 119.847 518.184 118.778L530.726 81.1391C532.336 76.2959 536.997 73 542.255 73H548.5C552.979 73 556.848 76.0569 557.744 80.3214L567.923 128.917ZM548.5 106.814L543.852 81.4158L536.763 106.814H548.5Z" fill="#F85126"/>
<path d="M138.559 144.832C138.305 144.806 137.036 144.677 135.501 144.51C131.834 144.098 129.055 141.01 128.978 137.265L128.001 85.1169C127.963 83.2379 128.674 81.4362 129.968 80.0977C131.263 78.7593 133.026 78 134.879 78H139.295V78.0257C172.451 79.0038 172.895 99.3507 159.47 110.663C166.741 115.039 176.131 129.144 164.559 138.603C157.643 144.253 147.073 145.514 138.559 144.832ZM139.51 89.9173L139.828 107.008C146.375 106.751 155.055 104.151 154.801 97.2658C154.547 90.136 146.451 89.9559 139.51 89.9173ZM156.514 124.176C156.78 116.596 147.086 116.081 140.005 115.914L140.323 133.069C144.358 133.095 148.469 133.018 152.06 131.087C154.712 129.659 156.4 127.265 156.514 124.176Z" fill="#16AA9B"/>
<path d="M222.306 120.934C224.31 120.934 226.197 121.805 227.473 123.294C228.748 124.783 229.256 126.752 228.878 128.658C228.371 131.22 226.041 133.049 223.347 132.999L188.571 132.368C186.761 132.33 185.03 131.586 183.794 130.298C182.558 129.011 181.907 127.295 182.011 125.528L184.718 75.9067C184.9 72.5498 187.699 69.8744 191.174 69.7608L213.872 69.0036C217.438 68.89 220.47 71.4897 220.77 74.9349L220.796 75.2378C220.965 77.0551 220.327 78.8471 219.065 80.1848C217.802 81.5225 216.006 82.2923 214.132 82.2923H201.859C198.957 82.2923 196.575 84.4882 196.419 87.3024L196.249 90.571C196.171 92.0222 196.705 93.4483 197.733 94.5084C198.761 95.5684 200.193 96.1868 201.69 96.1994L203.85 96.2247C207.338 96.2625 210.215 98.9001 210.449 102.282L210.527 103.38C210.657 105.172 210.006 106.939 208.731 108.251C207.468 109.564 205.698 110.308 203.837 110.308H200.414C197.473 110.308 195.052 112.542 194.896 115.382C194.818 116.833 195.351 118.246 196.38 119.294C197.408 120.341 198.839 120.934 200.323 120.934H222.306Z" fill="#F85126"/>
<path d="M294.632 156.755C297.289 156.564 299.78 158.121 300.738 160.61C301.147 161.657 301.07 162.818 300.559 163.814C300.035 164.809 299.116 165.524 298.03 165.779C291.63 167.311 279.634 168.83 273.681 160.789C262.708 145.958 280.12 127.132 259.003 123.877C258.569 123.928 258.135 123.979 257.726 124.03V140.891C257.726 146.596 253.101 151.229 247.378 151.229H247.212C244.338 151.229 242 148.893 242 146.021V74.4827C242 71.7258 244.236 69.4794 247.008 69.4794C247.008 69.4794 265.109 67.2586 280.35 72.3767C295.59 77.4948 294.402 97.8014 290.122 110.348C288.257 115.798 280.695 119.193 272.736 121.299C278.357 122.026 285.115 123.903 285.115 128.689C285.115 136.883 280.822 150.706 286.073 154.624C288.743 156.653 292.051 156.947 294.632 156.755ZM257.726 81.3366V112.786C274.116 112.224 279.34 100.622 274.882 89.9647C271.957 82.9831 263.909 81.426 257.726 81.3366Z" fill="#FFA322"/>
<path d="M33.8345 99.0296C53.139 107.101 59.7717 127.663 40.222 141.025C21.8982 153.541 0 133.62 0 121.039C0 119.886 0.942016 118.938 2.11629 118.938H8.42636C13.4073 118.938 17.6657 122.41 18.6593 127.253C19.3561 130.673 21.4595 133.825 26.8792 133.709C33.1764 133.569 35.1894 128.239 35.7056 123.332C36.196 118.618 32.8925 114.121 27.176 111.713L19.911 108.651C10.4652 104.667 4.67131 97.4411 4.67131 89.6263V85.7829C7.23922 70.3583 31.0343 69.8587 41.977 79.1339C43.9771 80.8378 44.7126 83.5922 43.7964 86.0519C42.8802 88.5117 40.5188 90.1387 37.8864 90.1387C34.7378 90.1387 32.0795 87.8583 31.615 84.7708C30.7504 79.0955 25.834 77.9553 21.8208 81.0044C17.6012 84.2328 18.298 92.496 27.5373 96.3649L33.8345 99.0296Z" fill="#FFA322"/>
<path d="M120.687 45.2882C124.459 40.1216 132.075 41.2335 134.397 47.2912C136.719 53.3489 132.004 59.8071 125.911 58.9174C119.817 58.0276 116.916 50.4549 120.687 45.2882Z" fill="#F12964"/>
<path d="M220.496 201.765C210.924 213.61 192.449 210.38 187.24 195.948C182.032 181.518 193.995 166.711 208.775 169.296C223.556 171.881 230.068 189.918 220.496 201.765Z" fill="#F12964"/>
<path d="M239.103 17.5922C233.388 23.5472 223.065 21.36 220.521 13.6561C217.98 5.95221 225.125 -1.49102 233.383 0.257821C241.642 2.00666 244.818 11.6371 239.103 17.5922Z" fill="#16AA9B"/>
<path d="M376.528 156.093C373.233 160.655 366.568 159.68 364.531 154.338C362.493 148.996 366.614 143.292 371.946 144.072C377.277 144.851 379.824 151.53 376.528 156.093Z" fill="#FFA322"/>
<path d="M502.674 71.8819C499.529 76.567 492.837 75.8428 490.627 70.5803C488.418 65.3167 492.347 59.4612 497.701 60.0397C503.055 60.6182 505.818 67.1968 502.674 71.8819Z" fill="#FA068A"/>
<path d="M441.146 33.1277C438.398 37.9488 430.723 38.354 427.334 33.8599C423.945 29.3634 427.379 23.3383 433.519 23.0136C439.656 22.6867 443.894 28.3067 441.146 33.1277Z" fill="#F85126"/>
</svg>
