<svg width="487" height="390" viewBox="0 0 487 390" fill="none" xmlns="http://www.w3.org/2000/svg">
<g clip-path="url(#clip0_70_242)">
<path d="M162.108 333.902C135.011 326.386 113.313 302.184 108.776 274.419C106.417 279.229 105.761 283.785 105.827 289.137C101.928 284.896 98.6716 282.044 94.7739 277.799C95.3366 284.192 97.3007 288.153 99.4336 293.742C96.4176 290.423 91.7288 288.833 87.4128 287.623C97.5148 300.342 105.039 313.768 116.62 326.182C128.891 339.335 145.185 349.201 157.935 350.343L162.108 333.902Z" fill="#83A329"/>
<path d="M153.239 350.935C141.273 348.234 127.022 339.283 115.647 327.094C108.539 319.475 102.88 311.387 97.4025 303.56C93.9092 298.565 90.3023 293.405 86.3677 288.457C86.0106 288.007 85.9859 287.374 86.3011 286.896C86.6174 286.413 87.2177 286.185 87.7672 286.354C90.7622 287.192 93.794 288.19 96.4174 289.706C95.0093 286.084 93.861 282.65 93.448 277.92C93.3969 277.354 93.7135 276.82 94.2355 276.591C94.7576 276.362 95.3671 276.488 95.7486 276.905C97.6804 279.004 99.4861 280.795 101.232 282.527C102.31 283.6 103.417 284.695 104.561 285.872C104.811 281.28 105.761 277.552 107.581 273.835C107.833 273.315 108.398 273.023 108.967 273.106C109.53 273.189 109.989 273.634 110.084 274.204C114.51 301.272 136.048 325.292 162.465 332.622C163.17 332.82 163.586 333.553 163.389 334.253C163.19 334.959 162.435 335.354 161.752 335.177C135.414 327.871 114.452 305.661 108.35 279.122C107.477 282.066 107.109 285.248 107.157 289.118C107.162 289.668 106.831 290.164 106.32 290.368C105.81 290.572 105.225 290.434 104.857 290.032C102.925 287.933 101.12 286.142 99.3734 284.409C98.4998 283.546 97.6138 282.663 96.7043 281.735C97.3647 284.852 98.4049 287.478 99.6303 290.572C99.9716 291.438 100.329 292.331 100.683 293.268C100.912 293.863 100.681 294.538 100.14 294.876C99.5989 295.213 98.8946 295.11 98.4641 294.637C96.5955 292.58 93.9437 291.214 91.0685 290.168C94.0536 294.118 96.8572 298.127 99.595 302.033C105.017 309.781 110.621 317.794 117.603 325.278C130.045 338.615 145.925 347.935 158.066 349.023C158.793 349.098 159.332 349.735 159.267 350.465C159.203 351.195 158.555 351.732 157.825 351.668C156.338 351.54 154.81 351.29 153.239 350.935Z" fill="#658215"/>
<path d="M162.114 333.905C135.014 326.385 113.311 302.183 108.77 274.421C106.411 279.23 105.756 283.785 105.822 289.136C101.922 284.896 98.6657 282.044 94.7671 277.798C95.3308 284.191 97.2956 288.152 99.4294 293.74C96.4127 290.421 91.7234 288.83 87.4069 287.621C97.5114 300.34 105.038 313.764 116.622 326.179C128.895 339.332 145.192 349.2 157.943 350.343L162.114 333.905Z" fill="#83A329"/>
<path d="M153.631 350.994C141.664 348.291 127.41 339.339 116.033 327.15C108.923 319.53 103.262 311.443 97.7834 303.615C94.2892 298.621 90.6814 293.461 86.7458 288.513C86.3886 288.063 86.3637 287.43 86.6789 286.953C86.9952 286.47 87.5954 286.241 88.145 286.41C91.1404 287.249 94.1725 288.247 96.7963 289.764C95.3875 286.142 94.2386 282.708 93.8249 277.978C93.7738 277.412 94.0903 276.879 94.6124 276.65C95.1345 276.42 95.744 276.547 96.1256 276.963C98.0578 279.063 99.8639 280.854 101.61 282.586C102.689 283.659 103.796 284.754 104.94 285.931C105.189 281.34 106.139 277.612 107.959 273.896C108.211 273.377 108.775 273.084 109.344 273.168C109.907 273.25 110.366 273.695 110.461 274.266C114.892 301.331 136.435 325.351 162.855 332.684C163.56 332.882 163.976 333.615 163.779 334.315C163.58 335.02 162.825 335.415 162.142 335.239C135.801 327.93 114.834 305.719 108.728 279.182C107.855 282.126 107.488 285.308 107.537 289.177C107.541 289.727 107.211 290.223 106.7 290.427C106.189 290.631 105.605 290.493 105.237 290.091C103.304 287.991 101.498 286.201 99.7518 284.468C98.8779 283.604 97.9917 282.721 97.082 281.793C97.7429 284.91 98.7836 287.536 100.01 290.629C100.351 291.496 100.709 292.389 101.062 293.325C101.292 293.92 101.06 294.596 100.52 294.933C99.9788 295.27 99.2744 295.167 98.8439 294.694C96.9749 292.637 94.3226 291.271 91.4471 290.224C94.433 294.174 97.2374 298.184 99.9759 302.089C105.4 309.837 111.005 317.85 117.988 325.335C130.433 338.672 146.316 347.992 158.457 349.082C159.185 349.157 159.724 349.794 159.659 350.524C159.595 351.254 158.947 351.791 158.217 351.727C156.729 351.598 155.202 351.349 153.631 350.994Z" fill="#658215"/>
<path d="M366.712 214.544C362.808 214.686 358.664 213.501 354.798 212.9L363.218 204.183C364.397 206.908 365.538 211.818 366.712 214.544Z" fill="#6B8A16"/>
<path d="M366.057 215.882C363.36 215.882 360.619 215.347 357.965 214.828C356.824 214.604 355.694 214.385 354.591 214.211C354.1 214.134 353.696 213.79 353.537 213.32C353.379 212.851 353.499 212.332 353.843 211.977L362.268 203.26C362.579 202.943 363.027 202.801 363.458 202.878C363.895 202.96 364.261 203.249 364.435 203.659C365.052 205.09 365.653 207.067 366.232 208.978C366.789 210.819 367.368 212.725 367.924 214.019C368.099 214.424 368.061 214.882 367.826 215.254C367.591 215.625 367.193 215.854 366.751 215.871C366.527 215.876 366.292 215.882 366.057 215.882ZM357.485 212.026C357.818 212.091 358.146 212.157 358.479 212.217C360.57 212.627 362.716 213.047 364.779 213.178C364.414 212.102 364.048 210.912 363.698 209.743C363.376 208.678 363.043 207.591 362.716 206.608L357.485 212.026Z" fill="#577012"/>
<path d="M373.925 230.655C370.168 231.005 366.417 230.983 362.666 231.332L369.267 219.967C370.616 222.867 372.571 227.755 373.925 230.655Z" fill="#6B8A16"/>
<path d="M362.661 232.659C362.213 232.659 361.787 232.43 361.542 232.048C361.274 231.627 361.263 231.097 361.514 230.666L368.115 219.295C368.361 218.869 368.831 218.623 369.322 218.634C369.814 218.656 370.256 218.951 370.463 219.399C371.151 220.868 371.998 222.861 372.817 224.789C373.625 226.695 374.46 228.662 375.126 230.093C375.306 230.486 375.29 230.939 375.077 231.316C374.864 231.693 374.476 231.939 374.05 231.977C372.145 232.152 370.218 232.239 368.361 232.321C366.532 232.403 364.637 232.485 362.786 232.654C362.743 232.659 362.705 232.659 362.661 232.659ZM369.109 222.872L365.074 229.819C366.139 229.754 370.698 229.557 371.937 229.475C371.441 228.339 369.519 223.823 369.109 222.872Z" fill="#577012"/>
<path d="M371.239 248.083C368.842 245.188 364.818 242.96 363.158 239.585C366.45 239.006 371.594 238.727 374.88 238.148C373.581 241.939 372.544 244.293 371.239 248.083Z" fill="#6B8A16"/>
<path d="M371.239 249.411C370.846 249.411 370.474 249.236 370.218 248.93C369.344 247.876 368.219 246.898 367.023 245.866C365.091 244.189 363.092 242.458 361.967 240.175C361.782 239.798 361.787 239.361 361.973 238.99C362.164 238.618 362.513 238.356 362.928 238.285C364.621 237.99 366.789 237.766 368.885 237.553C370.933 237.346 373.057 237.127 374.651 236.849C375.11 236.767 375.585 236.936 375.891 237.297C376.196 237.652 376.289 238.143 376.136 238.591C375.481 240.503 374.891 242.048 374.296 243.599C373.717 245.123 373.133 246.647 372.489 248.526C372.331 248.979 371.943 249.312 371.473 249.4C371.397 249.405 371.321 249.411 371.239 249.411ZM365.396 240.601C366.314 241.732 367.515 242.775 368.765 243.856C369.42 244.424 370.087 244.998 370.714 245.598C371.097 244.555 372.533 240.787 372.898 239.782C371.708 239.929 366.581 240.454 365.396 240.601Z" fill="#577012"/>
<path d="M364.283 263.463C361.929 260.055 359.767 256.614 357.414 253.206C361.181 253.059 364.965 253.217 368.711 253.676C367.258 256.773 365.735 260.361 364.283 263.463Z" fill="#6B8A16"/>
<path d="M364.283 264.79C363.846 264.79 363.436 264.577 363.191 264.217C362.006 262.496 357.49 255.648 356.322 253.96C356.049 253.561 356.011 253.042 356.229 252.611C356.447 252.179 356.879 251.895 357.365 251.879C361.187 251.732 365.063 251.89 368.869 252.354C369.289 252.403 369.666 252.655 369.868 253.026C370.076 253.397 370.092 253.845 369.906 254.233C369.18 255.784 366.204 262.474 365.484 264.026C365.282 264.457 364.867 264.747 364.392 264.785C364.354 264.79 364.321 264.79 364.283 264.79ZM359.882 254.479C360.575 255.516 363.343 259.711 364.053 260.77C364.457 259.88 366.243 255.855 366.729 254.79C364.457 254.577 362.17 254.49 359.882 254.479Z" fill="#577012"/>
<path d="M355.688 282.535C353.27 278.144 350.829 274.414 347.482 270.678L361.651 269.269C359.587 273.611 357.752 278.188 355.688 282.535Z" fill="#6B8A16"/>
<path d="M355.688 283.862C355.208 283.862 354.76 283.6 354.525 283.174C351.866 278.351 349.464 274.878 346.494 271.557C346.161 271.186 346.062 270.656 346.248 270.192C346.428 269.727 346.854 269.4 347.351 269.35L361.52 267.941C361.989 267.887 362.459 268.105 362.737 268.498C363.016 268.892 363.054 269.4 362.852 269.831C361.831 271.983 360.848 274.239 359.893 276.418C358.926 278.624 357.932 280.907 356.89 283.103C356.677 283.551 356.229 283.846 355.732 283.862H355.688ZM350.146 271.748C352.068 274.102 353.794 276.614 355.568 279.64C356.213 278.215 358.784 272.333 359.467 270.82L350.146 271.748Z" fill="#577012"/>
<path d="M336.262 295.713C336.868 291.59 337.392 284.501 337.998 280.383L349.584 290.536C345.112 292.076 340.946 295.053 336.262 295.713Z" fill="#6B8A16"/>
<path d="M336.262 297.041C335.912 297.041 335.574 296.899 335.322 296.648C335.028 296.353 334.891 295.932 334.951 295.517C335.251 293.48 335.535 290.645 335.814 287.898C336.092 285.135 336.382 282.273 336.687 280.186C336.758 279.706 337.086 279.302 337.539 279.132C337.998 278.963 338.506 279.061 338.871 279.378L350.458 289.526C350.813 289.837 350.976 290.318 350.884 290.782C350.791 291.246 350.463 291.628 350.015 291.781C348.383 292.344 346.805 293.103 345.134 293.906C342.388 295.222 339.549 296.582 336.447 297.024C336.387 297.035 336.322 297.041 336.262 297.041ZM338.997 283.021C338.811 284.616 338.042 292.256 337.823 294.037C339.887 293.48 341.891 292.519 343.988 291.514C344.992 291.033 346.019 290.536 347.067 290.088L338.997 283.021Z" fill="#577012"/>
<path d="M317.506 303.125C319.308 298.554 320.635 293.551 321.186 288.668C325.118 291.798 329.267 294.649 333.608 297.183C328.465 299.81 323.152 301.896 317.506 303.125Z" fill="#6B8A16"/>
<path d="M317.506 304.452C317.124 304.452 316.753 304.283 316.496 303.983C316.18 303.611 316.092 303.092 316.272 302.634C318.102 297.997 319.346 293.114 319.865 288.515C319.92 288.035 320.231 287.625 320.673 287.439C321.121 287.254 321.629 287.325 322.005 287.625C325.871 290.706 329.999 293.535 334.269 296.031C334.689 296.276 334.94 296.73 334.924 297.216C334.908 297.702 334.635 298.139 334.203 298.363C328.514 301.274 323.141 303.256 317.785 304.42C317.698 304.441 317.599 304.452 317.506 304.452ZM322.191 291.132C321.656 294.469 320.788 297.898 319.619 301.252C323.289 300.28 326.991 298.898 330.84 297.068C327.864 295.239 324.97 293.251 322.191 291.132Z" fill="#577012"/>
<path d="M298.959 310.777C299.193 306.179 299.013 301.039 299.253 296.435L314.7 304.709C309.802 307.451 304.304 308.505 298.959 310.777Z" fill="#6B8A16"/>
<path d="M298.959 312.104C298.691 312.104 298.424 312.022 298.2 311.864C297.823 311.602 297.61 311.165 297.637 310.706C297.752 308.434 297.768 305.976 297.785 303.595C297.796 301.187 297.812 298.696 297.932 296.364C297.954 295.911 298.211 295.501 298.604 295.277C298.997 295.053 299.483 295.048 299.881 295.261L315.328 303.535C315.754 303.764 316.021 304.207 316.027 304.693C316.032 305.179 315.77 305.627 315.35 305.862C312.314 307.566 309.032 308.647 305.855 309.69C303.753 310.384 301.579 311.099 299.477 311.99C299.308 312.072 299.133 312.104 298.959 312.104ZM300.493 298.609C300.449 300.253 300.411 307.08 300.362 308.784C301.929 308.194 303.496 307.675 305.019 307.172C307.383 306.391 309.655 305.643 311.817 304.671L300.493 298.609Z" fill="#577012"/>
<path d="M282.393 317.14C283.081 312.066 283.943 307.118 285.298 302.186L295.874 312.64C291.915 314.109 286.351 315.671 282.393 317.14Z" fill="#6B8A16"/>
<path d="M282.398 318.467C282.103 318.467 281.809 318.368 281.568 318.177C281.203 317.888 281.022 317.424 281.082 316.965C281.885 311.028 282.819 306.222 284.02 301.842C284.145 301.388 284.5 301.033 284.959 300.908C285.412 300.782 285.904 300.913 286.237 301.246L296.813 311.7C297.135 312.017 297.271 312.481 297.179 312.923C297.086 313.366 296.769 313.732 296.343 313.89C294.334 314.638 291.899 315.414 289.54 316.162C287.22 316.899 284.812 317.669 282.868 318.39C282.71 318.439 282.551 318.467 282.398 318.467ZM286.002 304.753C285.238 307.871 284.593 311.257 284.014 315.157C285.516 314.644 291.937 312.601 293.433 312.093L286.002 304.753Z" fill="#577012"/>
<path d="M264.642 324.223C265.101 319.242 265.396 313.065 266.794 308.265C271.32 311.263 275.732 314.42 279.215 318.593C274.722 320.368 268.896 322.831 264.642 324.223Z" fill="#6B8A16"/>
<path d="M264.642 325.55C264.348 325.55 264.053 325.452 263.818 325.261C263.468 324.982 263.283 324.546 263.321 324.103C263.403 323.224 263.479 322.312 263.556 321.372C263.916 316.965 264.331 311.973 265.521 307.893C265.642 307.489 265.942 307.161 266.34 307.019C266.739 306.877 267.181 306.926 267.531 307.161C271.724 309.941 276.507 313.278 280.236 317.746C280.509 318.074 280.608 318.511 280.504 318.926C280.4 319.341 280.1 319.674 279.707 319.832C278.549 320.291 277.304 320.793 276.016 321.312C272.379 322.781 268.251 324.447 265.057 325.49C264.921 325.529 264.779 325.55 264.642 325.55ZM267.613 310.411C266.832 313.895 266.499 317.948 266.198 321.591C266.177 321.831 266.16 322.071 266.138 322.306C268.907 321.312 272.117 320.018 275.016 318.849L276.966 318.063C274.132 315.031 270.774 312.552 267.613 310.411Z" fill="#577012"/>
<path d="M261.989 399.724C268.612 395.939 368.405 336.097 374.078 329.707C378.424 324.818 397.583 244.271 396.781 237.455C395.836 229.41 359.418 197.241 359.418 197.241C359.418 197.241 375.022 232.725 375.022 236.505C375.022 240.284 354.214 288.073 349.955 289.963C345.697 291.852 257.255 326.861 257.255 326.861L261.989 399.724Z" fill="#95BA2F"/>
<path d="M360.832 198.192C360.832 198.192 375.022 232.726 375.022 236.51C375.022 240.295 354.214 288.079 349.955 289.968C345.697 291.858 257.255 326.867 257.255 326.867L257.965 331.362C287.995 322.372 350.561 296.118 353.029 294.223C359.177 289.493 379.991 239.962 379.751 237.767C379.281 233.436 360.832 198.192 360.832 198.192Z" fill="#B6D440"/>
<path d="M261.989 399.724C268.612 395.939 368.405 336.097 374.078 329.707C378.424 324.818 397.583 244.271 396.781 237.455C396.562 235.598 394.444 232.452 391.332 228.716C390.633 255.904 371.61 306.451 362.732 319.772C358.004 326.867 303.611 364.24 257.735 376.54L261.989 399.724Z" fill="#83A329"/>
<path d="M261.989 401.057C261.77 401.057 261.557 401.002 261.361 400.898C260.957 400.68 260.695 400.27 260.667 399.817L255.939 326.959C255.901 326.386 256.239 325.851 256.774 325.638C257.659 325.288 345.238 290.618 349.42 288.756C353.27 286.516 373.543 240.705 373.701 236.505C373.701 233.954 364.195 211.398 358.205 197.776C357.954 197.208 358.134 196.537 358.637 196.171C359.139 195.799 359.827 195.832 360.297 196.247C364.064 199.573 397.119 228.995 398.097 237.302C398.85 243.714 380.149 324.868 375.072 330.591C369.126 337.287 266.859 398.473 262.649 400.876C262.442 400.997 262.213 401.057 261.989 401.057ZM258.642 327.751L263.168 397.501C278.833 388.282 367.941 334.617 373.079 328.833C376.633 324.835 396.284 244.702 395.454 237.619C394.87 232.638 377.157 215.09 363.059 202.304C367.711 213.042 376.344 233.375 376.344 236.515C376.344 239.678 355.94 288.766 350.49 291.186C346.445 292.983 268.486 323.852 258.642 327.751Z" fill="#6B8A16"/>
<path d="M271.309 492.815C278.172 485.95 255.224 281.2 251.44 231.2C250.266 215.667 244.691 195.038 232.816 191.412C220.673 187.698 210.468 198.632 210.468 198.632C210.468 198.632 209.911 185.918 198.379 183.116C179.995 178.654 177.353 202.914 167.743 209.462C158.133 216.011 111.739 211.483 111.739 211.483C111.739 211.483 107.399 198.545 99.9294 197.179C92.46 195.814 86.3557 211.15 86.3557 211.15C86.3557 211.15 82.4573 198.987 76.5331 196.732C70.609 194.476 67.1855 200.773 64.0023 213.307C59.7872 229.916 68.758 235.143 68.758 235.143C57.4011 267.525 138.619 286.678 171.909 293.096C171.909 293.096 107.191 466.326 113.339 476.731C119.487 487.141 264.216 499.91 271.309 492.815Z" fill="#95BA2F"/>
<path d="M239.941 198.195C219.013 186.605 203.288 210.849 203.288 210.849C203.288 210.849 202.294 204.765 215.349 195.355C219.886 192.083 227.765 190.325 232.93 192.482C238.085 194.645 244.577 200.762 239.941 198.195Z" fill="#B6D440"/>
<path d="M112.558 216.213C112.668 214.711 113.405 212.466 113.274 211.013C120.328 211.74 159.384 215.465 168.196 209.632C177.893 203.214 179.679 179.915 197.205 183.181C201.12 183.913 205.33 188.02 207.345 189.986C199.804 184.65 190.435 184.568 184.445 193.662C179.324 201.439 176.561 209.905 169.627 214.165C161.972 218.862 127.415 217.649 112.558 216.213Z" fill="#B6D440"/>
<path d="M66.3885 208.517C68.9219 200.598 72.7331 195.661 77.4833 197.365C81.1251 198.67 82.5611 202.592 84.3193 206.295C84.3193 206.349 84.5486 209.298 84.5486 209.348C82.2117 205.464 79.5581 201.472 74.8952 201.658C71.0022 201.822 68.5124 205.169 66.3885 208.517Z" fill="#B6D440"/>
<path d="M88.982 208.305C92.46 200.735 96.1674 196.333 101.693 198.829C105.935 200.746 109.555 206.109 111.412 210.14C111.406 210.194 111.647 214.99 111.352 214.809C108.813 210.506 105.013 203.367 99.4707 202.788C94.8625 202.313 91.7066 205.279 88.982 208.305Z" fill="#B6D440"/>
<path d="M179.078 296.012C171.314 309.715 134.404 421.683 151.428 446.282C168.453 470.881 217.642 470.881 228.994 452.907C240.345 434.928 234.71 319.322 223.539 299.328C214.552 283.238 187.121 281.823 179.078 296.012Z" fill="#E9FF57"/>
<path d="M265.183 376.183L265.429 378.843C248.934 382.917 231.86 384.954 214.754 384.954C190.413 384.954 166.018 380.858 143.162 372.829L144.03 370.339C182.594 383.889 225.609 386.041 265.183 376.183ZM267.247 399.116L267.012 396.456C224.751 407.478 178.396 404.692 137.62 388.87L136.763 391.388C161.355 400.913 187.951 405.768 214.481 405.768C232.308 405.763 250.108 403.545 267.247 399.116ZM269.382 437.309C222.551 450.291 170.348 446.135 126.16 425.905L125.057 428.319C152.657 440.952 183.332 447.396 213.93 447.396C232.941 447.396 251.921 444.906 270.097 439.87L269.382 437.309ZM150.631 351.617L149.747 354.112C170.757 360.754 192.908 364.135 215.027 364.135C231.385 364.135 247.716 362.278 263.54 358.553L263.288 355.888C226.466 364.632 186.821 363.037 150.631 351.617ZM131.407 407.276L130.566 409.81C156.779 420.919 185.527 426.577 214.197 426.577C232.723 426.577 251.216 424.196 268.967 419.411L268.748 416.73C223.894 428.936 174.219 425.474 131.407 407.276ZM164.32 313.669L163.402 316.176C180.421 320.376 198.008 322.512 215.573 322.512C230.397 322.512 245.199 320.977 259.619 317.919L259.363 315.27C228.257 321.911 195.338 321.277 164.32 313.669ZM157.391 332.747L156.495 335.232C175.556 340.59 195.442 343.32 215.3 343.32C230.894 343.32 246.466 341.616 261.596 338.23L261.339 335.592C227.35 343.26 191.063 342.179 157.391 332.747Z" fill="#95BA2F"/>
<path d="M68.6434 236.169C70.3906 237.016 71.772 237.764 73.2571 238.414C76.9208 273.303 184.429 285.684 199.182 282.527C190.986 288.519 182.802 291.118 173.405 293.407C173.405 293.412 54.693 272.123 68.6434 236.169Z" fill="#83A329"/>
<path d="M252.133 496.207C228.268 496.207 188.983 492.749 164.38 489.636C132.133 485.557 114.579 481.444 112.198 477.408C111.062 475.485 108.043 470.373 139.067 380.579C152.728 341.032 167.164 302.058 170.124 294.101C137.287 287.672 82.1351 273.773 69.1457 251.156C66.2683 246.142 65.6185 240.932 67.2019 235.651C64.865 233.745 59.0665 227.365 62.7192 212.98C65.1763 203.302 68.0646 197.813 71.8047 195.71C73.6557 194.667 75.6977 194.481 77.8708 195.153C82.5064 196.578 85.302 203.061 86.6615 207.278C89.0694 202.515 94.0162 194.754 100.164 195.874C107.235 197.168 111.559 207.245 112.7 210.243C126.088 211.494 159.597 213.406 166.995 208.365C170.075 206.267 172.477 202.024 175.021 197.534C180.034 188.692 185.707 178.67 198.691 181.821C207.667 184 210.506 191.494 211.391 195.481C215.016 192.564 223.441 187.157 233.203 190.139C245.641 193.941 251.511 214.58 252.761 231.101C253.81 244.963 256.349 270.883 259.286 300.9C271.456 425.228 276.807 489.188 272.237 493.754C270.496 495.502 262.873 496.207 252.133 496.207ZM75.392 197.42C74.5839 197.42 73.825 197.622 73.0988 198.031C70.1176 199.702 67.4913 204.957 65.2855 213.64C61.3925 228.971 69.102 233.81 69.4351 234.007C69.9756 234.329 70.2213 234.995 70.0138 235.591C68.2885 240.501 68.758 245.165 71.4444 249.84C84.5812 272.718 146.252 286.804 172.16 291.796C172.542 291.872 172.876 292.107 173.067 292.451C173.258 292.79 173.29 293.199 173.154 293.565C148.218 360.311 110.238 468.877 114.486 476.064C115.9 478.462 129.839 482.591 164.718 487.009C212.33 493.039 266.542 495.546 270.354 491.903C274.722 485.737 263.414 370.208 256.654 301.168C253.717 271.135 251.172 245.198 250.124 231.309C248.846 214.383 242.879 195.879 232.439 192.69C221.224 189.254 211.505 198.921 211.412 199.02C211.041 199.397 210.484 199.517 209.993 199.326C209.501 199.134 209.168 198.676 209.141 198.146C209.119 197.693 208.475 186.939 198.079 184.41C187.044 181.734 182.114 190.434 177.342 198.85C174.639 203.618 172.089 208.119 168.502 210.566C158.608 217.305 113.536 213.001 111.619 212.81C111.101 212.761 110.658 212.406 110.489 211.915C110.445 211.794 106.307 199.702 99.6946 198.495C94.4584 197.534 89.1786 207.671 87.5897 211.652C87.3768 212.193 86.8253 212.543 86.252 212.483C85.6732 212.433 85.1873 212.013 85.0617 211.445C84.3192 208.075 81.4472 199.036 77.0955 197.698C76.5004 197.507 75.9325 197.42 75.392 197.42Z" fill="#6B8A16"/>
<path d="M132.247 246.388C132.034 251.964 132.155 254.733 132.75 261.352C137.358 257.442 139.225 254.624 142.987 251.199C138.914 247.961 136.392 246.759 132.247 246.388Z" fill="#F2FFA3"/>
<path d="M88.1194 243.019C89.4189 248.223 90.0086 250.468 91.7831 256.148C95.8727 251.692 97.9366 249.37 101.24 245.504C96.5279 245.121 92.411 244.171 88.1194 243.019Z" fill="#F2FFA3"/>
<path d="M166.209 262.03C163.451 262.03 160.339 261.713 156.752 260.981C150.189 259.643 146.274 256.033 142.813 252.844C140.683 250.883 138.843 249.184 136.697 248.294C132.384 246.492 127.366 247.349 122.512 248.169C121.316 248.371 120.121 248.573 118.941 248.742C106.263 250.517 72.1378 240.419 67.1692 235.629C66.6396 235.121 66.6286 234.28 67.1364 233.75C67.6442 233.22 68.4851 233.209 69.0147 233.717C72.995 237.562 106.394 247.819 118.575 246.115C119.733 245.951 120.901 245.755 122.07 245.558C127.295 244.673 132.701 243.756 137.724 245.847C140.301 246.923 142.392 248.851 144.614 250.894C147.972 253.991 151.45 257.191 157.287 258.382C171.844 261.353 177.861 257.158 184.232 252.718C185.04 252.155 185.854 251.587 186.684 251.036C187.295 250.626 188.12 250.796 188.524 251.402C188.933 252.013 188.764 252.838 188.158 253.242C187.339 253.789 186.547 254.34 185.75 254.897C180.694 258.414 175.507 262.03 166.209 262.03Z" fill="#6B8A16"/>
<path d="M202.573 211.172C202.409 211.172 202.24 211.139 202.076 211.074C201.399 210.801 201.071 210.025 201.344 209.348C204.566 201.385 209.835 196.895 210.053 196.704C210.615 196.235 211.451 196.306 211.92 196.868C212.395 197.431 212.324 198.266 211.762 198.736C211.713 198.78 206.761 203.018 203.801 210.342C203.594 210.861 203.102 211.172 202.573 211.172Z" fill="#6B8A16"/>
<path d="M199.16 247.841C196.659 254.045 199.662 261.102 205.865 263.597C212.068 266.099 219.122 263.095 221.617 256.891C224.118 250.686 221.115 243.63 214.912 241.134C208.715 238.638 201.661 241.642 199.16 247.841Z" fill="#FFC1B8"/>
<path d="M93.9616 216.278C93.7105 219.009 94.7752 221.341 96.3367 221.483C97.8983 221.625 99.3671 219.528 99.6128 216.797C99.8639 214.066 98.7992 211.734 97.2377 211.592C95.6761 211.445 94.2073 213.542 93.9616 216.278Z" fill="#577012"/>
<path d="M70.0194 211.052C69.7682 213.783 70.8329 216.115 72.3945 216.257C73.9561 216.399 75.4248 214.301 75.6705 211.571C75.9217 208.84 74.857 206.508 73.2954 206.366C71.7393 206.224 70.2705 208.321 70.0194 211.052Z" fill="#577012"/>
<path d="M145.854 225.558C145.745 225.558 145.635 225.541 145.521 225.514C144.811 225.334 144.385 224.607 144.565 223.897C145.439 220.495 142.452 214.897 140.552 214.411C139.842 214.23 139.416 213.504 139.597 212.794C139.782 212.084 140.498 211.658 141.213 211.838C144.838 212.772 148.267 220.14 147.131 224.558C146.984 225.159 146.443 225.558 145.854 225.558Z" fill="#6B8A16"/>
<path d="M136.282 225.274C136.239 225.274 136.19 225.274 136.146 225.268C135.414 225.192 134.89 224.542 134.961 223.81C135.403 219.512 133.258 214.64 131.33 214.143C130.62 213.963 130.194 213.236 130.375 212.526C130.555 211.816 131.281 211.39 131.991 211.571C135.78 212.543 138.117 219.097 137.604 224.078C137.527 224.766 136.954 225.274 136.282 225.274Z" fill="#6B8A16"/>
<path d="M172.341 294.439C172.084 294.439 171.838 294.434 171.592 294.423C170.861 294.39 170.293 293.767 170.326 293.035C170.359 292.304 170.992 291.752 171.713 291.768C178.745 292.096 191.014 286.842 198.805 281.583C199.417 281.173 200.236 281.331 200.645 281.938C201.055 282.544 200.896 283.368 200.285 283.778C192.504 289.043 180.252 294.439 172.341 294.439Z" fill="#6B8A16"/>
<path d="M112.012 222.051C111.914 222.051 111.81 222.04 111.707 222.019C110.991 221.849 110.549 221.139 110.718 220.424C111.385 217.584 111.281 214.613 110.418 211.822C110.2 211.123 110.593 210.38 111.292 210.161C111.991 209.943 112.733 210.336 112.952 211.035C113.956 214.274 114.076 217.726 113.301 221.025C113.159 221.636 112.613 222.051 112.012 222.051Z" fill="#6B8A16"/>
<path d="M221.852 211.783C220.149 216.906 221.585 221.996 225.057 223.149C228.53 224.301 232.723 221.084 234.421 215.956C236.125 210.833 234.689 205.743 231.216 204.59C227.749 203.438 223.556 206.655 221.852 211.783Z" fill="#452800"/>
<path d="M230.02 217.48C229.551 218.895 230.315 220.424 231.729 220.894C233.143 221.363 234.672 220.599 235.142 219.184C235.611 217.77 234.847 216.24 233.433 215.771C232.019 215.301 230.49 216.066 230.02 217.48Z" fill="#F7FFC4"/>
<path d="M232.324 208.288C232.477 208.288 236.037 207.507 237.32 203.585C237.32 203.585 235.431 210.778 232.991 211.139C230.55 211.494 236.747 210.642 238.456 208.359C238.456 208.359 236.037 212.275 233.613 212.777C231.194 213.274 237.244 212.919 238.456 211.423C238.456 211.423 236.321 214.394 234.967 213.586L230.834 214.421L232.324 208.288Z" fill="#452800"/>
<path d="M182.141 203.553C180.438 208.676 181.874 213.766 185.346 214.918C188.819 216.071 193.012 212.854 194.71 207.725C196.414 202.603 194.978 197.512 191.505 196.36C188.038 195.208 183.845 198.424 182.141 203.553Z" fill="#452800"/>
<path d="M190.31 209.249C189.84 210.664 190.604 212.193 192.019 212.663C193.433 213.132 194.961 212.368 195.431 210.953C195.901 209.539 195.136 208.009 193.722 207.54C192.308 207.07 190.779 207.835 190.31 209.249Z" fill="#F7FFC4"/>
<path d="M185.035 198.55C184.882 198.55 181.322 197.769 180.039 193.848C180.039 193.848 181.928 201.041 184.369 201.401C186.81 201.756 180.612 200.904 178.903 198.621C178.903 198.621 181.322 202.537 183.746 203.04C186.165 203.537 180.116 203.182 178.903 201.685C178.903 201.685 181.038 204.656 182.392 203.848L186.526 204.683L185.035 198.55Z" fill="#452800"/>
<path d="M269.817 196.914C269.817 196.914 278.822 161.737 304.689 155.966C330.555 150.196 341.886 166.926 341.162 180.731C340.371 195.8 336.727 212.293 336.727 212.293L338.846 213.456C338.846 213.456 358.292 181.001 344.522 159.128C330.751 137.256 302.864 133.784 283.822 139.657C264.779 145.529 255.63 187.074 255.63 187.074L269.817 196.914Z" fill="#8842C2"/>
<path d="M227.052 181.866C227.052 181.866 232.955 151.623 260.626 137.721C289.12 123.404 310.082 145.414 314.01 163.962C317.937 182.511 307.063 209.891 307.063 209.891L303.597 209.13C303.597 209.13 308.243 177.585 302.566 162.195C297.376 148.115 286.308 147.86 274.293 156.299C262.278 164.738 257.712 188.597 257.712 188.597L227.052 181.866Z" fill="#AD6EE0"/>
<path d="M160.328 172.846C160.328 172.846 166.933 137.142 145.877 121.069C124.821 104.997 107.504 115.435 102.362 128.27C96.7475 142.28 93.126 158.778 93.126 158.778L90.7138 158.946C90.7138 158.946 86.6981 121.34 108.388 107.253C130.078 93.1633 156.851 101.695 171.67 115.002C186.488 128.308 177.339 169.853 177.339 169.853L160.328 172.846Z" fill="#8842C2"/>
<path d="M205.469 177.109C205.469 177.109 212.817 147.183 193.539 122.974C173.689 98.0424 145.413 109.242 134.055 124.435C122.696 139.627 121.064 169.036 121.064 169.036L124.529 169.797C124.529 169.797 133.566 139.216 145.185 127.624C155.812 117.017 165.967 121.421 173.328 134.114C180.689 146.807 174.808 170.377 174.808 170.377L205.469 177.109Z" fill="#AD6EE0"/>
<path d="M254.823 67.389C254.823 67.389 259.925 119.74 241.552 181.241L213.377 184.501L192.747 172.754C192.747 172.754 206.115 123.889 216.343 98.585C226.572 73.2833 235.525 61.6512 235.525 61.6512L243.058 67.5976L254.823 67.389Z" fill="#8842C2"/>
<path d="M254.819 67.3928C253.125 63.0541 246.928 64.7286 244.868 64.2762C242.808 63.8238 238.883 61.1624 235.997 61.2433C233.111 61.3242 233.133 100.976 233.133 100.976L236.618 101.741C236.618 101.741 256.091 70.6509 254.819 67.3928Z" fill="#AD6EE0"/>
<path d="M153.518 172.733C153.372 173.439 153.683 174.151 153.987 174.796C154.886 176.728 155.868 178.865 156.77 180.787C161.156 175.868 167.883 173.271 174.473 172.984C181.06 172.697 187.622 174.673 193.378 177.891C199.74 181.45 203.907 185.794 210.243 188.217C211.425 188.67 212.691 189.056 214.06 189.357C215.132 189.592 216.171 189.755 217.18 189.849C224.319 190.563 230.088 188.201 237.657 187.617C244.227 187.106 251.011 188.06 256.87 191.081C262.729 194.103 267.779 199.285 269.694 205.59C271.314 204.219 273.084 202.689 274.712 201.312C275.257 200.854 275.834 200.334 276.004 199.635C276.298 198.376 275.087 197.246 273.887 196.756C272.687 196.266 271.3 196.054 270.365 195.152C269.798 194.608 269.464 193.874 269.108 193.175C268.252 191.496 267.075 189.838 265.3 189.212C264.031 188.766 262.555 188.885 261.432 188.152C260.167 187.313 259.673 185.588 258.35 184.852C257.146 184.186 255.593 184.539 254.341 183.981C252.923 183.334 252.153 181.648 250.692 181.133C249.028 180.541 247.24 181.692 245.472 181.645C243.064 181.577 241.031 179.304 238.639 179.574C237.039 179.751 235.668 181.066 234.06 180.982C232.996 180.932 232.07 180.269 231.051 179.986C228.872 179.373 226.671 180.492 224.734 181.749L206.695 176.68C205.622 175.229 204.315 174.012 202.582 173.731C201.538 173.56 200.417 173.774 199.433 173.374C197.937 172.777 197.245 171.008 195.868 170.177C193.802 168.928 191.011 170.142 188.795 169.195C187.162 168.492 186.031 166.702 184.271 166.542C182.719 166.395 181.32 167.605 179.763 167.598C178.383 167.58 177.128 166.609 175.758 166.709C174.241 166.819 173.077 168.182 171.574 168.414C170.24 168.607 168.957 167.881 167.617 167.755C165.744 167.577 163.97 168.589 162.497 169.757C161.878 170.241 161.268 170.768 160.525 171.025C159.291 171.45 157.949 171.063 156.654 171.005C155.345 170.946 153.781 171.464 153.518 172.733Z" fill="#FFAD3B"/>
<path d="M207.269 161.729C208.367 160.128 210.491 159.436 212.417 159.718C214.335 159.988 216.061 161.105 217.438 162.462C217.981 161.216 217.848 159.686 217.082 158.556C216.325 157.427 214.962 156.725 213.598 156.753C214.082 155.779 215.35 155.378 216.421 155.588C217.5 155.791 218.424 156.471 219.257 157.182C219.257 157.182 222.018 150.015 222.202 150.893C222.378 151.768 222.146 157.816 222.146 157.816C223.2 157.52 224.316 157.288 225.381 157.555C226.447 157.815 227.424 158.707 227.46 159.797C226.234 159.2 224.702 159.267 223.531 159.972C222.37 160.679 221.598 162.01 221.577 163.371C223.397 162.714 225.423 162.423 227.287 162.983C229.145 163.532 230.788 165.051 231.115 166.965C231.44 168.878 230.144 171.032 228.22 171.322C229.207 169.008 227.406 165.993 224.909 165.753C223.899 165.656 222.801 166.002 222.201 166.817C221.533 167.717 221.607 168.948 221.824 170.052C222.51 173.486 224.178 176.727 225.991 179.722C225.597 180.406 225.176 181.092 224.728 181.756C222.672 184.813 220.061 187.608 217.177 189.847C214.786 189.749 212.476 189.197 210.242 188.216C208.424 184.668 207.178 180.657 206.692 176.689C206.641 176.277 206.597 175.864 206.562 175.455C209.467 173.497 212.341 171.255 214.407 168.423C215.068 167.512 215.642 166.424 215.423 165.328C215.221 164.338 214.369 163.564 213.412 163.229C211.038 162.398 208.143 164.383 208.06 166.895C206.442 165.828 206.171 163.33 207.269 161.729Z" fill="#FFC813"/>
<path d="M211.262 177.918C213.151 175.943 216.927 172.001 217.391 172.103C217.837 172.201 219.692 177.372 220.61 179.765C220.687 179.968 220.813 180.168 220.789 180.387C220.763 180.61 220.612 180.794 220.464 180.964C218.535 183.161 216.561 185.048 214.17 186.733C214.089 186.791 213.997 186.851 213.897 186.845C213.725 186.833 213.633 186.641 213.574 186.477C212.773 184.146 211.865 181.399 211.063 179.067C210.978 178.82 210.894 178.549 210.983 178.304C211.04 178.152 211.152 178.033 211.262 177.918Z" fill="#AD6EE0"/>
<path d="M214.99 183.424C215.46 183.541 217.216 183.224 218.631 182.931C217.261 184.316 215.815 185.575 214.17 186.732C214.089 186.79 213.998 186.85 213.897 186.844C213.725 186.833 213.633 186.64 213.575 186.476C212.773 184.145 211.865 181.398 211.063 179.066C210.978 178.819 210.894 178.548 210.983 178.304C211.037 178.155 211.151 178.036 211.261 177.921C212.073 177.074 213.233 175.861 214.329 174.765C214.321 177.619 214.38 183.271 214.99 183.424Z" fill="#FF539E"/>
<path d="M156.778 180.779C156.778 180.779 151.542 211.762 160.064 224.293C166.609 233.92 177.622 236.329 183.399 234.003C189.18 231.67 195.798 228.347 205.061 230.381C214.324 232.415 218.929 238.203 223.195 242.741C227.464 247.274 237.574 252.485 247.735 246.337C260.709 238.486 269.694 205.574 269.694 205.574C267.778 199.273 262.729 194.09 256.87 191.07C251.012 188.05 244.226 187.095 237.659 187.606C230.093 188.19 224.322 190.551 217.183 189.838C216.173 189.741 215.134 189.581 214.064 189.346C212.697 189.046 211.432 188.659 210.247 188.206C203.912 185.784 199.745 181.441 193.384 177.884C187.627 174.667 181.067 172.691 174.48 172.978C167.893 173.265 161.166 175.862 156.778 180.779ZM217.808 219.189C217.808 219.189 220.254 209.069 229.762 207.253C240.092 205.282 246.028 213.054 253.209 213.885C253.209 213.885 249.751 225.977 237.274 226.54C225.869 227.059 220.302 222.251 217.808 219.189ZM168.287 195.237C175.146 197.489 183.799 192.921 192.347 199.037C200.214 204.668 198.185 214.88 198.185 214.88C194.632 216.615 187.56 218.647 177.429 213.399C166.34 207.661 168.287 195.237 168.287 195.237Z" fill="#FFC813"/>
<path d="M217.811 219.194C219.938 209.065 228.925 203.809 238.842 206.729C243.921 208.09 248.203 211.856 253.361 212.599L254.915 212.768C254.642 213.602 254.313 214.891 253.943 215.652C251.415 221.867 245.646 226.974 238.788 227.444C231.117 228.119 222.323 225.789 217.811 219.194ZM217.811 219.194C222.808 224.528 230.253 226.082 237.268 225.523C238.96 225.312 240.649 225.051 242.193 224.385C246.879 222.574 250.396 218.225 251.961 213.53L253.062 215.178C247.514 214.415 243.292 210.572 238.16 208.894C228.996 205.832 221.096 210.324 217.811 219.194Z" fill="#8842C2"/>
<path d="M198.181 214.876C200.494 204.783 194.565 196.27 184.333 194.755C179.154 193.863 173.683 195.485 168.691 193.999L167.22 193.504C167.123 194.384 166.864 195.679 166.879 196.522C166.582 203.981 170.06 210.97 176.923 214.274C183.408 217.526 191.739 218.754 198.181 214.876C191.403 217.619 183.999 215.913 177.864 212.469C176.419 211.567 174.993 210.626 173.873 209.375C170.379 205.768 169.021 200.349 169.567 195.433L167.878 196.465C171.536 197.608 175.269 197.093 178.912 196.935C190.66 195.875 199.07 202.736 198.181 214.876Z" fill="#8842C2"/>
<path d="M171.714 219.185C170.966 216.964 167.905 212.852 166.549 211.29C165.937 210.576 163.866 208.498 163.718 208.624C163.512 208.8 169.513 215.821 170.755 219.507C171.314 221.161 171.513 222.455 172.75 224.331C175.488 228.468 179.621 228.569 179.647 228.345C179.657 228.267 179.297 228.167 178.676 227.962C176.491 227.259 174.733 225.768 173.534 223.826C172.426 222.019 172.295 220.919 171.714 219.185Z" fill="#FFAD3B"/>
<path d="M166.184 223.384C167.97 222.37 170.778 223.321 172.596 224.65C174.07 225.761 174.84 226.678 174.966 226.569C175.151 226.428 172.51 222.1 167.975 221.984C166.206 221.945 164.666 222.72 164.198 224.446C163.493 226.959 165.665 228.934 167.527 228.359C168.424 228.103 169.001 227.175 168.934 226.365C168.876 225.749 168.56 225.535 168.527 225.575C168.454 225.616 168.612 225.886 168.542 226.355C168.273 228.23 165.806 228.037 165.187 226.342C164.809 225.391 165.141 223.959 166.184 223.384Z" fill="#FFAD3B"/>
<path d="M161.646 184.641C163.548 186.841 161.155 192.408 161.432 192.589C161.791 192.843 163.794 188.348 163.269 185.768C162.99 184.4 162.007 183.149 160.632 182.951C158.235 182.562 157.062 185.177 158.361 186.427C158.961 187.004 159.88 186.989 160.444 186.559C160.857 186.227 160.847 185.897 160.795 185.89C160.722 185.855 160.595 186.08 160.242 186.222C159.688 186.435 159.141 186.263 158.888 185.943C158.22 185.202 158.938 183.636 160.464 183.929C160.908 184.005 161.317 184.26 161.646 184.641Z" fill="#FFAD3B"/>
<path d="M168.71 188.381C166.226 188.1 162.712 190.648 161.764 192.518C161.555 192.93 161.524 193.192 161.582 193.217C161.717 193.277 162.19 192.451 163.421 191.544C169.34 186.986 171.148 190.719 169.83 192.128C169.183 192.805 168.135 192.726 167.794 191.853C167.649 191.503 167.724 191.26 167.647 191.231C167.606 191.196 167.361 191.418 167.41 191.944C167.644 194.021 171.046 193.629 171.157 191.139C171.228 189.852 170.49 188.595 168.71 188.381Z" fill="#FFAD3B"/>
<path d="M202.837 195.304C197.864 197.126 188.648 190.751 188.482 190.998C189.293 191.874 194.736 196.04 199.878 196.61C202.507 196.899 204.208 196.013 205.924 194.408C209.887 190.639 212.583 194.242 211.409 196.027C210.628 197.248 209.326 196.939 209.307 197.024C209.256 197.15 209.928 197.37 210.567 197.213C214 196.356 212.212 190.739 207.862 191.999C205.804 192.553 204.909 194.591 202.837 195.304Z" fill="#FFAD3B"/>
<path d="M184.193 226.619C178.545 229.517 176.197 226.35 176.002 226.527C175.804 226.667 177.334 229.1 181.128 228.669C183.535 228.44 185.788 226.882 187.754 225.719C191.88 223.258 192.787 223.953 192.774 223.57C192.785 223.426 190.871 222.994 187.295 224.908C186.314 225.429 185.289 226.06 184.193 226.619Z" fill="#FFAD3B"/>
<path d="M183.857 224.244C182.029 223.249 181.856 220.851 182.883 220.22C183.23 219.995 183.745 220.023 183.928 220.469C184.054 220.777 183.921 220.984 183.979 221.032C184.159 221.201 184.718 220.097 183.798 219.603C182.701 218.996 181.116 220.182 181.373 222.253C181.653 224.44 183.79 226.07 186.741 225.687C189.093 225.37 191.421 223.668 191.334 223.491C191.105 223.031 186.928 225.952 183.857 224.244Z" fill="#FFAD3B"/>
<path d="M179.357 232.083C174.986 234.112 172.357 229.584 174.135 228.672C174.419 228.52 174.762 228.527 174.995 228.604C175.492 228.76 175.535 229.142 175.615 229.122C175.724 229.12 175.709 228.539 175.157 228.245C174.277 227.75 173.117 228.224 172.915 229.527C172.404 232.512 177.291 235.769 181.869 231.59C182.732 230.736 184.246 229.08 185.966 227.222C186.933 226.205 188.565 224.99 188.428 224.821C188.281 224.64 186.11 226.137 185.471 226.705C181.832 230.029 181.273 231.195 179.357 232.083Z" fill="#FFAD3B"/>
<path d="M175.634 225.044C175.013 223.938 175.016 222.682 175.782 221.67C176.786 220.284 178.656 220.487 179.038 221.477C179.403 222.39 178.669 222.884 178.72 222.973C178.717 223.211 179.877 222.586 179.579 221.315C179.369 220.36 178.13 219.626 176.78 219.969C175.388 220.31 174.321 221.68 174.201 223.191C173.975 226.145 177.032 229.073 181.894 228.145C183.069 227.915 184.948 227.249 184.889 227.057C184.777 226.622 177.952 229.259 175.634 225.044Z" fill="#FFAD3B"/>
<path d="M169.605 217.284C170.778 218.282 171.072 219.295 171.229 219.235C171.524 219.154 170.669 215.946 167.424 215.279C165.381 214.863 163.246 215.746 162.179 217.18C161.145 218.555 161.687 220.089 163.132 220.444C165.513 221.059 166.37 217.932 166.022 217.861C165.844 217.819 165.071 220.205 163.364 219.636C160.572 218.724 165.702 214.007 169.605 217.284Z" fill="#FFAD3B"/>
<path d="M171.955 215.261C169.838 217.372 171.496 221.611 171.856 221.52C172.305 221.409 170.906 217.71 172.662 215.985C173.198 215.459 173.864 215.404 174.286 215.629C175.038 215.99 174.917 217.275 173.895 217.169C173.639 217.155 173.492 217.047 173.434 217.096C173.383 217.125 173.427 217.365 173.782 217.545C174.253 217.771 174.934 217.649 175.313 217.128C176.499 215.497 173.87 213.359 171.955 215.261Z" fill="#FFAD3B"/>
<path d="M158.822 194.908C159.055 196.485 158.399 201.254 158.91 201.27C159.159 201.277 160.1 196.68 159.819 194.74C159.491 192.621 157.591 192.03 156.518 193.089C155.758 193.828 155.986 195.073 156.807 195.624C157.12 195.829 157.34 195.816 157.362 195.76C157.394 195.691 157.244 195.576 157.074 195.333C155.876 193.677 158.376 192.388 158.822 194.908Z" fill="#FFAD3B"/>
<path d="M189.532 222.084C188.504 220.783 190.389 219.382 191.298 220.308C191.569 220.578 191.485 220.838 191.555 220.865C191.777 220.973 191.976 219.823 190.841 219.465C189.964 219.204 188.83 219.729 188.462 220.781C188.082 221.849 188.8 223.254 190.365 223.794C191.564 224.189 193.827 223.381 194.994 223.371C200.112 223.277 200.869 224.621 201.071 224.344C201.169 224.257 199.835 222.464 194.989 222.405C192.789 222.372 190.775 223.723 189.532 222.084Z" fill="#FFAD3B"/>
<path d="M199.414 198.732C198.869 196.928 197.588 195.767 196.57 195.221C195.531 194.667 194.783 194.675 194.762 194.793C194.678 195.086 197.517 195.929 198.437 198.994C198.912 200.721 196.738 201.338 196.184 199.245C196.116 198.968 196.098 198.792 196.023 198.778C195.688 198.702 195.449 200.824 197.043 201.351C198.382 201.775 199.947 200.682 199.414 198.732Z" fill="#FFAD3B"/>
<path d="M205.34 204.47C205.266 201.378 203.621 198.417 200.798 196.828C199.115 195.886 197.214 195.706 197.19 195.899C197.136 196.147 200.891 196.613 203.036 200.141C204.554 202.606 204.569 205.496 203.965 206.718C202.691 209.393 198.934 206.686 201.932 203.439C202.357 202.997 202.637 202.777 202.597 202.712C202.564 202.658 202.213 202.762 201.675 203.139C199.586 204.638 199.52 207.251 201.33 208.392C202.888 209.39 205.421 208.328 205.34 204.47Z" fill="#FFAD3B"/>
<path d="M206.854 202.553C206.21 202.528 205.518 201.543 205.19 201.126C201.534 196.693 201.115 197.116 204.411 201.64C205.033 202.533 205.685 203.464 206.793 203.561C207.672 203.61 208.785 202.887 209.161 201.503C209.685 199.584 208.342 198.186 207.087 198.481C206.68 198.583 206.549 198.792 206.584 198.838C206.622 198.902 206.813 198.838 207.117 198.872C209.233 199.096 208.414 202.566 206.854 202.553Z" fill="#FFAD3B"/>
<path d="M208.74 207.78C207.733 205.266 204.836 201.894 204.61 202.043C204.26 202.273 206.926 205.955 207.796 208.143C208.61 210.195 207.637 211.439 206.716 211.439C205.681 211.446 205.506 210.473 205.391 210.469C205.105 210.406 205.197 211.917 206.658 212.153C208.201 212.381 209.815 210.497 208.74 207.78Z" fill="#FFAD3B"/>
<path d="M190.675 225.261C192.056 224.031 194.881 223.5 196.711 223.763C198.366 223.978 200.1 224.188 200.206 224.049C200.346 223.896 197.676 222.352 193.654 222.971C186.189 224.192 188.494 231.123 192.242 229.498C193.682 228.844 194.08 227.136 193.861 227.081C193.685 227.031 193.283 228.417 191.986 228.83C190.036 229.495 188.711 227.029 190.675 225.261Z" fill="#FFAD3B"/>
<path d="M200.532 224.275C201.921 225.234 204.665 226.013 204.745 225.78C204.825 225.567 202.335 224.643 201.032 223.602C199.826 222.635 198.831 220.862 198.999 219.165C199.191 216.914 200.956 215.833 201.898 216.242C202.843 216.631 203.119 217.857 202.246 218.649C201.913 218.96 201.632 219.026 201.647 219.107C201.647 219.161 201.976 219.243 202.477 218.969C204.702 217.676 202.735 214.253 200.237 215.54C197.316 216.991 197.048 221.829 200.532 224.275Z" fill="#FFAD3B"/>
<path d="M204.563 225.755C204.849 225.197 195.742 221.728 195.177 225.438C194.829 227.692 198.075 228.671 199.112 227.243C199.386 226.857 199.263 226.568 199.21 226.585C199.131 226.579 199.089 226.792 198.827 226.97C197.959 227.568 196.374 227.066 196.145 226.07C195.426 223.065 204.383 226.123 204.563 225.755Z" fill="#FFAD3B"/>
<path d="M185.902 192.578C187.909 189.146 183.355 184.48 182.772 184.874C182.755 184.972 186.746 189.178 185.03 192.068C184.027 193.815 181.944 193.648 181.182 192.296C180.513 191.147 181.076 190.282 180.89 190.183C180.723 190.085 179.972 191.243 180.542 192.611C181.391 194.691 184.472 195.011 185.902 192.578Z" fill="#FFAD3B"/>
<path d="M194.944 192.943C191.809 192.962 189.133 190.598 186.931 188.345C185.202 186.538 184.314 185.242 184.181 185.328C183.845 185.526 188.95 193.984 194.951 193.954C200.19 193.941 201.803 187.817 198.437 186.679C197.179 186.205 195.943 186.898 195.772 188.123C195.674 188.835 196.079 189.269 196.147 189.218C196.221 189.182 195.753 187.963 196.818 187.352C197.582 186.904 198.908 187.372 199.222 188.626C199.753 190.686 197.679 192.982 194.944 192.943Z" fill="#FFAD3B"/>
<path d="M165.643 185.456C163.508 189.944 158.546 194.495 159.394 199.837C159.532 200.723 159.762 201.17 159.817 201.154C159.895 201.133 159.799 200.659 159.786 199.807C159.69 194.315 164.205 190.828 166.557 185.89C167.39 184.132 168.646 181.09 168.216 179.184C167.858 177.485 166.12 176.323 164.526 176.716C163.192 177.05 162.265 178.333 162.456 179.535C162.728 181.363 164.659 181.641 164.66 181.42C164.68 181.33 164.142 181.329 163.58 180.741C162.77 179.877 162.84 178.657 163.768 177.917C165.102 176.812 167.021 177.794 167.306 179.381C167.632 180.987 166.344 183.978 165.643 185.456Z" fill="#FFAD3B"/>
<path d="M177.036 181.138C174.805 180.808 173.376 180.714 171.342 181.737C167.08 183.916 164.994 187.78 165.187 187.912C165.346 188.023 166.626 186.138 168.058 184.971C172.304 181.505 174.248 181.736 176.868 182.137C180.535 182.737 182.387 184.285 185.01 187.065C186.741 188.94 187.78 190.162 187.901 190.063C187.998 189.986 187.169 188.624 185.548 186.593C183.055 183.549 180.891 181.765 177.036 181.138Z" fill="#FFAD3B"/>
<path d="M176.497 183.358C168.914 179.651 163.59 190.218 163.736 190.309C164.036 190.521 167.35 185.153 170.801 183.922C172.357 183.374 174.333 183.421 176.054 184.266C180.348 186.346 178.128 190.855 175.008 189.96C173.819 189.623 173.176 188.706 173.007 188.044C172.819 187.366 172.982 186.958 172.903 186.931C172.78 186.824 172.164 188.13 173.186 189.484C174.097 190.677 175.804 191.191 177.216 190.621C180.026 189.483 180.556 185.339 176.497 183.358Z" fill="#FFAD3B"/>
<path d="M188.203 184.122C186.486 185.731 184.761 184.367 182.367 183.265C180.735 182.551 179.736 182.1 179.664 182.214C179.585 182.334 180.485 183.02 182.042 183.902C184.168 185.107 185.359 185.993 186.85 185.828C189.287 185.535 190.726 182.838 189.77 180.788C188.943 178.854 186.88 178.229 185.741 178.944C184.768 179.553 184.936 180.657 185.103 180.575C185.178 180.568 185.414 178.992 186.99 179.381C188.863 179.775 189.939 182.465 188.203 184.122Z" fill="#FFAD3B"/>
<path d="M176.347 180.085C181.033 178.456 179.36 174.036 176.453 174.195C174.529 174.292 173.903 176.341 174.083 176.411C174.155 176.441 174.307 176.165 174.652 175.767C176.673 173.432 179.662 176.289 177.736 178.185C176.833 179.083 175.104 179.355 173.912 179.77C169.042 181.411 166.035 185.55 166.235 185.722C166.488 185.957 169.658 182.176 174.224 180.711C174.871 180.497 175.594 180.347 176.347 180.085Z" fill="#FFAD3B"/>
<path d="M159.328 203.402C160.47 206.339 162.668 207.852 165.707 211.51C167.356 213.497 168.295 214.809 168.453 214.712C168.595 214.628 167.92 213.137 166.419 210.968C163.965 207.415 161.555 205.678 160.51 202.953C158.827 198.515 162.41 195.903 163.858 198.311C164.322 199.042 164.076 199.998 163.416 200.65C162.933 201.106 162.514 201.167 162.531 201.272C162.521 201.336 163.004 201.468 163.714 201.041C164.774 200.359 165.21 198.987 164.639 197.881C162.779 194.161 157.095 197.496 159.328 203.402Z" fill="#FFAD3B"/>
<path d="M158.696 208.564C159.351 207.467 160.847 207.125 162.408 208.152C163.369 208.814 163.865 209.425 163.96 209.34C164.022 209.292 163.703 208.573 162.728 207.72C161.1 206.372 158.967 206.592 158.046 208.171C156.909 210.052 158.475 212.438 160.247 212.079C161.57 211.806 161.635 210.431 161.431 210.466C161.331 210.468 161.22 211.467 160.17 211.548C158.925 211.671 157.869 209.906 158.696 208.564Z" fill="#FFAD3B"/>
<path d="M164.475 206.223C164.19 208.373 167.05 212.998 167.408 212.742C167.653 212.574 163.918 206.629 165.733 205.388C166.294 204.995 167.054 205.232 167.319 205.838C167.609 206.463 167.184 207.31 166.391 207.179C166.085 207.133 165.943 206.984 165.897 207.021C165.859 207.036 165.923 207.288 166.308 207.46C167.918 208.104 168.851 205.346 166.9 204.588C165.855 204.191 164.657 204.85 164.475 206.223Z" fill="#FFAD3B"/>
<path d="M240.038 234.197C241.65 232.494 246.156 230.044 248.043 229.194C248.899 228.802 251.652 227.783 251.733 227.959C251.847 228.206 243.449 232.066 240.773 234.892C239.571 236.159 238.847 237.25 236.935 238.435C232.711 241.043 228.917 239.403 228.988 239.19C229.012 239.115 229.381 239.175 230.03 239.249C232.309 239.525 234.532 238.909 236.436 237.648C238.203 236.472 238.782 235.528 240.038 234.197Z" fill="#FFAD3B"/>
<path d="M243.298 240.327C242.103 238.658 239.154 238.346 236.946 238.79C235.141 239.182 234.056 239.692 233.988 239.54C233.879 239.335 238.094 236.511 242.26 238.306C243.883 239.011 244.955 240.36 244.654 242.122C244.238 244.699 241.437 245.582 239.988 244.28C239.282 243.672 239.148 242.588 239.549 241.881C239.86 241.346 240.237 241.285 240.25 241.335C240.299 241.402 240.042 241.582 239.909 242.036C239.365 243.851 241.686 244.71 242.959 243.43C243.7 242.724 244.003 241.286 243.298 240.327Z" fill="#FFAD3B"/>
<path d="M263.683 207.061C261.032 208.262 260.864 214.318 260.537 214.366C260.104 214.446 260.175 209.527 261.735 207.405C262.563 206.28 263.981 205.556 265.312 205.952C267.652 206.602 267.618 209.468 265.914 210.058C265.127 210.331 264.299 209.932 263.965 209.305C263.729 208.831 263.877 208.536 263.93 208.552C264.011 208.551 264.032 208.808 264.292 209.084C264.706 209.51 265.275 209.583 265.639 209.399C266.556 209.006 266.563 207.283 265.054 206.91C264.617 206.792 264.141 206.853 263.683 207.061Z" fill="#FFAD3B"/>
<path d="M255.7 207.496C258.072 208.281 260.192 212.065 260.267 214.16C260.283 214.621 260.202 214.872 260.139 214.87C259.99 214.868 259.909 213.921 259.172 212.582C255.714 205.966 252.504 208.597 253.109 210.428C253.412 211.313 254.396 211.68 255.073 211.031C255.351 210.774 255.386 210.522 255.467 210.528C255.52 210.514 255.649 210.818 255.383 211.274C254.297 213.062 251.375 211.281 252.32 208.974C252.794 207.776 253.992 206.944 255.7 207.496Z" fill="#FFAD3B"/>
<path d="M221.814 199.474C225.562 203.211 236.606 201.285 236.653 201.579C235.549 202.035 228.857 203.536 223.95 201.899C221.443 201.061 220.271 199.544 219.387 197.368C217.373 192.287 213.412 194.427 213.728 196.54C213.924 197.975 215.236 198.24 215.217 198.325C215.211 198.461 214.508 198.38 213.994 197.97C211.238 195.753 215.221 191.403 218.64 194.37C220.276 195.734 220.23 197.958 221.814 199.474Z" fill="#FFAD3B"/>
<path d="M225.588 235.715C229.498 240.711 232.96 238.82 233.062 239.062C233.184 239.272 230.773 240.84 227.509 238.859C225.421 237.644 224.03 235.286 222.735 233.407C220.023 229.445 218.908 229.695 219.08 229.353C219.131 229.218 221.05 229.628 223.492 232.863C224.164 233.746 224.828 234.749 225.588 235.715Z" fill="#FFAD3B"/>
<path d="M226.893 233.7C228.97 233.561 230.135 231.458 229.468 230.455C229.248 230.105 228.768 229.915 228.415 230.243C228.171 230.47 228.205 230.713 228.132 230.733C227.897 230.811 227.853 229.575 228.897 229.511C230.147 229.42 231.088 231.16 229.985 232.932C228.811 234.8 226.187 235.385 223.669 233.801C221.666 232.529 220.269 230.009 220.421 229.885C220.821 229.562 223.388 233.964 226.893 233.7Z" fill="#FFAD3B"/>
<path d="M227.686 242.702C230.801 246.375 235.09 243.365 233.859 241.793C233.666 241.536 233.351 241.398 233.107 241.371C232.591 241.304 232.391 241.633 232.327 241.581C232.229 241.534 232.487 241.013 233.111 240.978C234.118 240.897 234.972 241.813 234.608 243.08C233.817 246.004 228.013 246.914 225.614 241.202C225.189 240.066 224.51 237.928 223.73 235.521C223.278 234.193 222.307 232.406 222.503 232.31C222.712 232.207 224.054 234.476 224.396 235.259C226.3 239.801 226.32 241.093 227.686 242.702Z" fill="#FFAD3B"/>
<path d="M234.022 237.872C235.05 237.128 235.575 235.986 235.305 234.747C234.976 233.068 233.193 232.47 232.431 233.208C231.715 233.884 232.174 234.64 232.09 234.7C231.993 234.917 231.203 233.863 232.008 232.834C232.599 232.056 234.032 231.908 235.114 232.785C236.234 233.677 236.629 235.368 236.101 236.79C235.065 239.566 231.06 240.944 227.036 238.065C226.066 237.364 224.64 235.973 224.775 235.823C225.059 235.475 230.144 240.727 234.022 237.872Z" fill="#FFAD3B"/>
<path d="M242.751 233.357C241.266 233.772 240.574 234.568 240.456 234.448C240.224 234.251 242.347 231.697 245.573 232.45C247.602 232.929 249.169 234.624 249.535 236.373C249.897 238.054 248.759 239.22 247.299 238.937C244.879 238.497 245.415 235.301 245.761 235.381C245.94 235.418 245.639 237.907 247.427 238.106C250.346 238.447 247.671 232.017 242.751 233.357Z" fill="#FFAD3B"/>
<path d="M241.467 230.534C242.502 233.337 239.216 236.49 238.928 236.257C238.566 235.968 241.391 233.197 240.522 230.895C240.256 230.193 239.675 229.865 239.197 229.892C238.363 229.904 237.932 231.121 238.905 231.453C239.143 231.547 239.321 231.511 239.354 231.579C239.388 231.627 239.247 231.827 238.85 231.842C238.326 231.849 237.76 231.454 237.634 230.822C237.244 228.845 240.53 228.005 241.467 230.534Z" fill="#FFAD3B"/>
<path d="M261.935 217.566C261.061 218.9 259.653 223.503 259.182 223.303C258.953 223.206 260.03 218.638 261.1 216.995C262.289 215.209 264.262 215.468 264.791 216.879C265.171 217.868 264.44 218.903 263.464 219.059C263.093 219.115 262.899 219.011 262.903 218.95C262.903 218.875 263.087 218.833 263.344 218.684C265.125 217.681 263.399 215.465 261.935 217.566Z" fill="#FFAD3B"/>
<path d="M222.648 229.359C224.129 228.608 223.006 226.547 221.792 227.008C221.433 227.139 221.399 227.41 221.325 227.405C221.078 227.41 221.38 226.283 222.561 226.433C223.467 226.564 224.275 227.515 224.168 228.624C224.064 229.753 222.822 230.728 221.175 230.562C219.919 230.419 218.205 228.738 217.151 228.239C212.544 226.01 211.292 226.913 211.224 226.577C211.173 226.457 213.137 225.388 217.56 227.364C219.569 228.256 220.83 230.326 222.648 229.359Z" fill="#FFAD3B"/>
<path d="M223.48 204.021C224.732 202.612 226.383 202.094 227.536 202.024C228.712 201.957 229.387 202.277 229.357 202.393C229.31 202.694 226.379 202.27 224.255 204.668C223.099 206.037 224.813 207.507 226.195 205.839C226.374 205.616 226.464 205.464 226.538 205.483C226.874 205.554 226.199 207.58 224.531 207.391C223.137 207.215 222.176 205.567 223.48 204.021Z" fill="#FFAD3B"/>
<path d="M215.691 206.746C217.057 203.97 219.794 201.971 223.024 201.711C224.948 201.56 226.749 202.194 226.689 202.379C226.635 202.627 223.031 201.477 219.601 203.781C217.187 205.383 215.959 208.001 215.995 209.362C216.027 212.325 220.574 211.441 219.218 207.237C219.017 206.657 218.855 206.341 218.919 206.299C218.972 206.263 219.247 206.505 219.577 207.073C220.843 209.309 219.805 211.708 217.683 211.985C215.852 212.239 213.997 210.214 215.691 206.746Z" fill="#FFAD3B"/>
<path d="M215.123 204.371C215.718 204.617 216.76 204.013 217.233 203.772C222.414 201.279 222.617 201.838 217.725 204.564C216.784 205.115 215.801 205.687 214.755 205.311C213.937 204.988 213.23 203.865 213.471 202.451C213.801 200.49 215.607 199.783 216.622 200.576C216.949 200.839 216.98 201.084 216.93 201.111C216.868 201.154 216.721 201.016 216.431 200.919C214.414 200.235 213.699 203.728 215.123 204.371Z" fill="#FFAD3B"/>
<path d="M211.215 208.325C213.185 206.465 217.232 204.617 217.375 204.847C217.596 205.202 213.629 207.428 211.919 209.05C210.319 210.571 210.679 212.108 211.515 212.494C212.452 212.934 213.019 212.124 213.125 212.169C213.411 212.232 212.693 213.564 211.267 213.167C209.773 212.728 209.1 210.342 211.215 208.325Z" fill="#FFAD3B"/>
<path d="M220.275 231.764C219.539 230.069 217.198 228.404 215.425 227.876C213.833 227.377 212.171 226.843 212.133 226.672C212.07 226.474 215.142 226.191 218.533 228.438C224.797 232.672 219.792 237.999 217.072 234.953C216.04 233.757 216.397 232.04 216.619 232.082C216.799 232.11 216.582 233.536 217.586 234.455C219.077 235.874 221.315 234.191 220.275 231.764Z" fill="#FFAD3B"/>
<path d="M211.74 226.738C210.076 227.026 207.258 226.584 207.283 226.34C207.3 226.112 209.949 226.316 211.569 225.917C213.07 225.544 214.718 224.351 215.278 222.741C216.05 220.617 214.902 218.896 213.875 218.873C212.853 218.831 212.088 219.828 212.548 220.912C212.72 221.334 212.947 221.512 212.899 221.579C212.877 221.628 212.544 221.565 212.204 221.106C210.727 219.001 213.951 216.718 215.678 218.932C217.72 221.472 215.93 225.976 211.74 226.738Z" fill="#FFAD3B"/>
<path d="M207.463 226.394C207.438 225.768 217.163 226.433 216.117 230.037C215.485 232.229 212.127 231.759 211.786 230.027C211.7 229.563 211.933 229.352 211.974 229.389C212.048 229.417 211.997 229.628 212.159 229.899C212.696 230.805 214.345 231.014 214.972 230.206C216.888 227.779 207.47 226.803 207.463 226.394Z" fill="#FFAD3B"/>
<path d="M238.329 204.098C237.95 200.142 244.045 197.815 244.408 198.416C244.382 198.512 238.992 200.659 239.335 204.001C239.512 206.007 241.473 206.727 242.732 205.82C243.823 205.057 243.675 204.036 243.886 204.023C244.079 204.005 244.274 205.37 243.182 206.374C241.534 207.906 238.603 206.906 238.329 204.098Z" fill="#FFAD3B"/>
<path d="M229.966 200.639C232.803 201.97 236.226 200.945 239.172 199.822C241.501 198.906 242.852 198.101 242.935 198.235C243.158 198.555 234.97 204.095 229.535 201.554C224.784 199.348 225.893 193.113 229.427 193.491C230.768 193.587 231.599 194.734 231.239 195.917C231.029 196.605 230.479 196.829 230.439 196.754C230.387 196.69 231.324 195.78 230.614 194.78C230.108 194.053 228.709 193.923 227.897 194.929C226.552 196.577 227.467 199.529 229.966 200.639Z" fill="#FFAD3B"/>
<path d="M259.71 206.125C259.763 211.094 262.355 217.304 259.341 221.798C258.844 222.545 258.447 222.854 258.404 222.816C258.342 222.765 258.628 222.375 258.998 221.607C261.392 216.661 258.758 211.604 258.697 206.136C258.679 204.192 258.818 200.904 260.009 199.354C261.047 197.962 263.113 197.635 264.395 198.66C265.466 199.522 265.768 201.074 265.09 202.086C264.075 203.631 262.206 203.075 262.297 202.873C262.317 202.783 262.805 203.008 263.563 202.71C264.661 202.265 265.11 201.128 264.579 200.068C263.832 198.505 261.677 198.593 260.752 199.914C259.781 201.236 259.695 204.49 259.71 206.125Z" fill="#FFAD3B"/>
<path d="M251.181 197.429C253.345 198.065 254.682 198.578 256.098 200.358C259.052 204.121 259.322 208.503 259.091 208.542C258.9 208.575 258.53 206.328 257.72 204.669C255.322 199.745 253.46 199.14 250.914 198.406C247.333 197.415 245.001 198.045 241.453 199.469C239.093 200.447 237.637 201.121 237.569 200.981C237.513 200.869 238.837 199.98 241.162 198.816C244.707 197.098 247.421 196.384 251.181 197.429Z" fill="#FFAD3B"/>
<path d="M250.74 199.673C259.182 199.483 259.574 211.305 259.404 211.327C259.042 211.394 258.289 205.133 255.673 202.57C254.491 201.421 252.678 200.636 250.761 200.682C245.989 200.772 246.11 205.795 249.318 206.289C250.539 206.481 251.508 205.918 251.939 205.388C252.395 204.851 252.418 204.412 252.501 204.421C252.658 204.375 252.668 205.819 251.172 206.62C249.844 207.322 248.078 207.074 247.036 205.965C244.961 203.754 246.223 199.771 250.74 199.673Z" fill="#FFAD3B"/>
<path d="M239.789 195.458C240.671 197.638 242.81 197.121 245.447 197.125C247.231 197.16 248.324 197.169 248.342 197.303C248.363 197.444 247.258 197.69 245.474 197.838C243.037 198.042 241.584 198.348 240.301 197.573C238.211 196.286 238.038 193.236 239.767 191.775C241.331 190.366 243.466 190.663 244.2 191.789C244.826 192.749 244.21 193.68 244.093 193.537C244.029 193.499 244.476 191.97 242.882 191.662C241.016 191.236 238.909 193.227 239.789 195.458Z" fill="#FFAD3B"/>
<path d="M252.247 196.763C248.678 193.321 252.053 190.01 254.626 191.372C256.332 192.266 256.039 194.388 255.846 194.376C255.768 194.373 255.745 194.059 255.6 193.553C254.747 190.587 250.833 191.929 251.784 194.456C252.227 195.65 253.682 196.621 254.589 197.497C258.321 201.026 259.312 206.044 259.058 206.115C258.73 206.223 257.441 201.463 253.911 198.221C253.416 197.756 252.821 197.316 252.247 196.763Z" fill="#FFAD3B"/>
<path d="M257.908 225.061C255.637 227.249 253.007 227.702 248.71 229.749C246.379 230.862 244.975 231.661 244.872 231.506C244.78 231.37 246.019 230.3 248.292 228.959C252.012 226.762 254.929 226.195 257.023 224.159C260.415 220.835 258.261 216.963 255.935 218.542C255.206 219.012 255.028 219.982 255.353 220.851C255.6 221.466 255.955 221.698 255.896 221.786C255.877 221.848 255.383 221.766 254.918 221.081C254.243 220.018 254.423 218.59 255.406 217.825C258.657 215.227 262.416 220.635 257.908 225.061Z" fill="#FFAD3B"/>
<path d="M256.316 230.013C256.183 228.743 254.968 227.806 253.12 228.084C251.969 228.282 251.262 228.63 251.213 228.513C251.176 228.443 251.767 227.924 253.011 227.558C255.055 227.016 256.899 228.11 257.072 229.929C257.313 232.112 254.889 233.622 253.431 232.554C252.345 231.752 252.864 230.477 253.034 230.594C253.124 230.638 252.805 231.591 253.724 232.104C254.801 232.737 256.501 231.577 256.316 230.013Z" fill="#FFAD3B"/>
<path d="M252.054 225.466C251.409 227.536 246.872 230.538 246.652 230.155C246.5 229.9 252.388 226.068 251.263 224.181C250.919 223.589 250.129 223.487 249.634 223.925C249.108 224.371 249.138 225.319 249.913 225.531C250.21 225.618 250.401 225.542 250.427 225.595C250.456 225.625 250.291 225.827 249.87 225.821C248.138 225.731 248.45 222.837 250.539 222.966C251.653 223.043 252.465 224.143 252.054 225.466Z" fill="#FFAD3B"/>
<path d="M206.486 223.937C206.637 223.916 206.781 223.886 206.926 223.859C207.934 223.227 210.326 220.787 210.709 220.14C210.852 219.815 210.82 219.917 210.798 219.565C210.573 218.657 208.73 214.807 208.474 214.92C208.234 215.025 209.913 219.274 209.939 219.685C209.924 219.878 207.774 221.906 206.747 222.763C206.024 221.234 205.093 218.763 205.143 218.632C205.334 218.276 208.65 215.117 208.474 214.92C208.264 214.683 204.931 217.515 204.413 218.163C204.243 218.473 204.259 218.368 204.252 218.722C204.331 219.499 205.469 222.681 206.124 223.683C206.241 223.765 206.358 223.852 206.486 223.937Z" fill="#FFAD3B"/>
<path d="M197.269 133.809C197.332 133.823 197.399 133.819 197.464 133.793C197.63 133.724 197.71 133.533 197.64 133.369C193.45 123.29 185.261 115.114 175.17 110.933C175.008 110.865 174.814 110.942 174.745 111.109C174.675 111.275 174.754 111.464 174.92 111.534C184.853 115.649 192.914 123.698 197.037 133.619C197.081 133.719 197.17 133.788 197.269 133.809Z" fill="#E6ECEF"/>
<path d="M245.134 66.1676C246.571 66.4832 248.038 66.6426 249.495 66.6299C249.674 66.6293 249.818 66.4815 249.817 66.302C249.817 66.1225 249.676 65.9784 249.489 65.9798C245.963 66.0052 242.365 65.0072 239.358 63.1647C239.204 63.0719 239.005 63.1178 238.91 63.2715C238.817 63.4257 238.865 63.625 239.017 63.7174C240.885 64.8639 242.974 65.6932 245.134 66.1676Z" fill="#E6ECEF"/>
<path d="M311.107 190.925C311.269 190.961 311.436 190.865 311.486 190.704C313.123 185.423 313.652 179.728 313.016 174.236C312.996 174.057 312.833 173.929 312.656 173.951C312.477 173.971 312.349 174.134 312.371 174.311C312.996 179.714 312.478 185.317 310.865 190.511C310.811 190.683 310.907 190.865 311.08 190.917C311.089 190.921 311.098 190.923 311.107 190.925Z" fill="#E6ECEF"/>
<path d="M322.639 143.759C322.774 143.789 322.92 143.728 322.992 143.603C323.081 143.448 323.028 143.25 322.871 143.158C317.881 140.319 312.208 138.926 306.469 139.126C306.291 139.132 306.149 139.283 306.154 139.463C306.16 139.641 306.31 139.783 306.491 139.778C312.112 139.58 317.662 140.945 322.55 143.725C322.577 143.74 322.608 143.752 322.639 143.759Z" fill="#E6ECEF"/>
<path d="M219.727 180.312C219.79 180.326 219.857 180.322 219.922 180.294C220.089 180.224 220.166 180.034 220.096 179.868L218.004 174.894C217.935 174.727 217.744 174.65 217.58 174.72C217.414 174.79 217.336 174.98 217.406 175.147L219.498 180.12C219.541 180.224 219.628 180.291 219.727 180.312Z" fill="#E6ECEF"/>
<path d="M230.047 168.74C230.202 168.774 230.365 168.69 230.42 168.534C230.731 167.69 230.669 166.709 230.249 165.912C229.83 165.114 229.058 164.506 228.183 164.286C228.02 164.245 227.832 164.348 227.789 164.522C227.746 164.697 227.851 164.873 228.025 164.916C228.723 165.093 229.341 165.578 229.677 166.215C230.012 166.853 230.064 167.635 229.813 168.312C229.75 168.479 229.837 168.666 230.005 168.729C230.018 168.734 230.031 168.737 230.047 168.74Z" fill="#E6ECEF"/>
<path d="M222.857 159.89C222.976 159.916 223.106 159.874 223.186 159.769C223.673 159.13 224.563 158.797 225.349 158.96C225.525 158.997 225.699 158.884 225.733 158.707C225.769 158.534 225.658 158.363 225.484 158.325C224.441 158.11 223.309 158.531 222.666 159.374C222.556 159.517 222.585 159.721 222.726 159.828C222.769 159.861 222.812 159.88 222.857 159.89Z" fill="#E6ECEF"/>
<path d="M221.426 156.979C221.446 156.983 221.467 156.986 221.491 156.986C221.669 156.99 221.818 156.848 221.823 156.668L221.889 153.524C221.893 153.346 221.751 153.197 221.571 153.193C221.392 153.189 221.243 153.33 221.238 153.511L221.172 156.654C221.168 156.811 221.278 156.946 221.426 156.979Z" fill="#E6ECEF"/>
<path d="M208.458 162.41C208.564 162.433 208.679 162.402 208.762 162.318C209.77 161.275 211.291 160.739 212.73 160.916C214.169 161.092 215.515 161.985 216.236 163.243C216.325 163.399 216.523 163.452 216.68 163.364C216.836 163.275 216.89 163.075 216.801 162.921C215.978 161.49 214.449 160.474 212.81 160.273C211.171 160.071 209.441 160.682 208.294 161.869C208.169 161.997 208.173 162.203 208.301 162.328C208.346 162.371 208.399 162.397 208.458 162.41Z" fill="#E6ECEF"/>
<path d="M224.646 179.575C224.734 179.594 224.827 179.577 224.906 179.521C225.052 179.416 225.087 179.214 224.982 179.068C223.063 176.388 221.67 173.27 220.955 170.052C220.916 169.876 220.744 169.767 220.568 169.804C220.392 169.843 220.283 170.018 220.323 170.191C221.056 173.494 222.486 176.693 224.453 179.445C224.499 179.514 224.57 179.558 224.646 179.575Z" fill="#E6ECEF"/>
<path d="M221.323 184.16C221.444 184.187 221.574 184.143 221.654 184.037L224.861 179.744C224.968 179.6 224.94 179.396 224.793 179.288C224.652 179.182 224.445 179.209 224.338 179.353L221.131 183.647C221.024 183.791 221.052 183.995 221.198 184.102C221.235 184.132 221.278 184.15 221.323 184.16Z" fill="#E6ECEF"/>
<path d="M264.049 138.739C264.118 138.754 264.191 138.747 264.259 138.715C275.595 133.215 290.09 135.214 299.508 143.582C299.64 143.701 299.848 143.69 299.967 143.556C300.086 143.421 300.075 143.216 299.941 143.097C290.333 134.559 275.543 132.519 263.977 138.131C263.816 138.209 263.747 138.404 263.827 138.565C263.871 138.657 263.954 138.718 264.049 138.739Z" fill="#E6ECEF"/>
<path d="M115.92 105.575C115.983 105.589 116.05 105.585 116.113 105.559C124.482 102.11 133.875 101.627 142.546 104.194C142.714 104.245 142.899 104.147 142.951 103.974C143.003 103.802 142.903 103.622 142.731 103.57C133.906 100.959 124.369 101.453 115.865 104.957C115.699 105.024 115.619 105.214 115.689 105.381C115.73 105.484 115.819 105.553 115.92 105.575Z" fill="#E6ECEF"/>
<path d="M243.879 71.655C244.017 71.6852 244.165 71.6234 244.236 71.4928L246.122 67.9968C246.206 67.8385 246.148 67.6418 245.99 67.5574C245.836 67.4719 245.635 67.5313 245.55 67.6896L243.664 71.1834C243.58 71.3417 243.638 71.5384 243.797 71.6227C243.822 71.6377 243.85 71.6486 243.879 71.655Z" fill="#303332"/>
<path d="M241.032 71.0291C241.208 71.0677 241.381 70.9571 241.419 70.7816L241.967 68.296C242.005 68.1205 241.895 67.9476 241.719 67.9091C241.543 67.8705 241.37 67.9811 241.332 68.1565L240.785 70.6422C240.746 70.8154 240.859 70.991 241.032 71.0291Z" fill="#303332"/>
<path d="M267.179 196.651C267.271 196.671 267.373 196.651 267.453 196.586C268.268 195.93 269.114 195.293 269.969 194.693C270.116 194.59 270.15 194.386 270.047 194.24C269.943 194.092 269.74 194.057 269.594 194.162C268.728 194.772 267.871 195.418 267.045 196.081C266.904 196.194 266.883 196.399 266.996 196.538C267.042 196.597 267.107 196.635 267.179 196.651Z" fill="#303332"/>
<path d="M260.989 190.666C261.109 190.692 261.236 190.65 261.316 190.547L262.681 188.795C262.792 188.654 262.767 188.448 262.623 188.339C262.484 188.23 262.276 188.253 262.167 188.396L260.801 190.148C260.69 190.289 260.716 190.493 260.859 190.604C260.899 190.637 260.942 190.656 260.989 190.666Z" fill="#303332"/>
<path d="M254.054 186.277C254.183 186.305 254.319 186.255 254.397 186.138L255.529 184.426C255.628 184.276 255.587 184.076 255.436 183.977C255.286 183.878 255.083 183.918 254.987 184.069L253.854 185.78C253.755 185.931 253.798 186.131 253.947 186.23C253.979 186.253 254.016 186.269 254.054 186.277Z" fill="#303332"/>
<path d="M244.351 184.909C244.472 184.936 244.605 184.892 244.683 184.784C245.386 183.828 246.083 182.863 246.779 181.898L246.898 181.733C247.003 181.586 246.97 181.383 246.823 181.278C246.679 181.173 246.476 181.206 246.371 181.351L246.252 181.515C245.556 182.48 244.86 183.443 244.159 184.398C244.051 184.542 244.084 184.747 244.229 184.852C244.265 184.881 244.306 184.899 244.351 184.909Z" fill="#303332"/>
<path d="M234.11 184.416C234.251 184.447 234.401 184.381 234.468 184.247C235.186 182.848 236.055 181.549 237.05 180.387C237.167 180.25 237.151 180.046 237.014 179.929C236.876 179.814 236.673 179.828 236.555 179.965C235.527 181.164 234.629 182.506 233.889 183.95C233.807 184.109 233.87 184.304 234.031 184.387C234.056 184.402 234.083 184.41 234.11 184.416Z" fill="#303332"/>
<path d="M162.775 173.71C162.845 173.725 162.92 173.718 162.989 173.684C163.15 173.604 163.217 173.408 163.136 173.249C162.668 172.299 162.16 171.355 161.628 170.439C161.537 170.282 161.339 170.232 161.184 170.32C161.03 170.411 160.977 170.61 161.066 170.764C161.589 171.666 162.09 172.599 162.554 173.536C162.599 173.629 162.683 173.69 162.775 173.71Z" fill="#303332"/>
<path d="M170.906 170.872C170.951 170.882 171.001 170.883 171.051 170.871C171.225 170.831 171.334 170.655 171.295 170.481L170.789 168.318C170.749 168.144 170.573 168.035 170.399 168.074C170.225 168.114 170.115 168.29 170.155 168.464L170.658 170.627C170.689 170.754 170.789 170.846 170.906 170.872Z" fill="#303332"/>
<path d="M179.044 169.795C179.083 169.803 179.122 169.805 179.164 169.8C179.34 169.772 179.464 169.606 179.436 169.43L179.127 167.403C179.1 167.225 178.936 167.104 178.758 167.131C178.579 167.157 178.458 167.324 178.485 167.5L178.794 169.528C178.814 169.664 178.916 169.767 179.044 169.795Z" fill="#303332"/>
<path d="M188.427 172.622C188.47 172.631 188.517 172.632 188.562 172.623C188.737 172.586 188.853 172.416 188.816 172.24C188.567 171.013 188.326 169.781 188.087 168.547C188.053 168.37 187.883 168.254 187.707 168.291C187.529 168.325 187.416 168.496 187.449 168.671C187.689 169.905 187.93 171.14 188.178 172.369C188.207 172.498 188.306 172.595 188.427 172.622Z" fill="#303332"/>
<path d="M197.931 176.467C197.958 176.472 197.986 176.474 198.014 176.473C198.195 176.466 198.333 176.314 198.327 176.136C198.259 174.513 198.008 172.92 197.58 171.401C197.533 171.228 197.35 171.129 197.179 171.176C197.005 171.226 196.904 171.404 196.953 171.577C197.367 173.046 197.61 174.587 197.677 176.163C197.681 176.315 197.791 176.436 197.931 176.467Z" fill="#303332"/>
<path d="M198.314 213.376C198.336 213.38 198.359 213.383 198.383 213.384C198.562 213.383 198.71 213.238 198.709 213.059C198.711 212.925 198.611 199.803 186.265 197.092C185.997 197.033 185.723 196.98 185.443 196.93C183.711 196.628 181.016 196.725 178.167 196.828C174.885 196.947 171.504 197.076 169.539 196.564C169.436 196.539 169.339 196.56 169.26 196.62C169.181 196.681 169.134 196.774 169.131 196.873C169.128 197.047 169.064 201.176 170.354 204.292C170.422 204.458 170.61 204.537 170.778 204.468C170.945 204.398 171.024 204.21 170.954 204.044C169.946 201.603 169.8 198.402 169.784 197.288C171.859 197.708 175.074 197.593 178.189 197.479C181.005 197.378 183.666 197.281 185.33 197.573C197.967 199.779 198.059 212.517 198.058 213.057C198.057 213.213 198.167 213.343 198.314 213.376Z" fill="#303332"/>
<path d="M241.471 224.94C241.523 224.951 241.58 224.949 241.633 224.933C248.305 222.958 251.587 215.477 251.723 215.16C251.761 215.072 251.757 214.972 251.715 214.887C251.672 214.802 251.593 214.74 251.499 214.717C249.907 214.336 248.546 213.495 246.97 212.522C244.973 211.288 242.486 209.751 238.638 208.654C229.896 206.164 226.224 209.137 226.071 209.264C225.934 209.38 225.915 209.583 226.032 209.72C226.148 209.856 226.352 209.875 226.49 209.761C226.525 209.731 230.076 206.892 238.46 209.278C242.222 210.349 244.564 211.795 246.63 213.072C248.128 213.998 249.44 214.807 250.965 215.246C250.235 216.739 247.036 222.656 241.449 224.31C241.277 224.362 241.179 224.54 241.23 224.715C241.265 224.833 241.361 224.915 241.471 224.94Z" fill="#303332"/>
<path d="M171.371 233.721C171.538 233.758 171.706 233.658 171.755 233.492C171.802 233.318 171.702 233.14 171.529 233.091C171.373 233.047 156.041 228.457 155.588 206.193C155.583 206.012 155.435 205.869 155.257 205.875C155.077 205.878 154.935 206.028 154.938 206.206C155.403 228.972 171.194 233.67 171.354 233.715C171.358 233.718 171.365 233.72 171.371 233.721Z" fill="#303332"/>
<path d="M214.102 190.393C215.874 190.782 217.704 190.892 219.495 190.69C219.674 190.671 219.802 190.51 219.782 190.331C219.763 190.152 219.602 190.025 219.423 190.044C215.113 190.528 210.568 189.143 207.26 186.344C207.122 186.229 206.918 186.246 206.801 186.383C206.685 186.52 206.702 186.724 206.839 186.842C208.907 188.591 211.439 189.808 214.102 190.393Z" fill="#303332"/>
<path d="M97.8073 137.835C97.9929 137.871 98.1624 137.755 98.1966 137.579C99.4572 131.038 102.353 124.854 106.572 119.698C106.686 119.558 106.664 119.355 106.527 119.24C106.389 119.127 106.181 119.148 106.068 119.286C101.781 124.525 98.8377 130.807 97.556 137.455C97.5241 137.632 97.634 137.797 97.8073 137.835Z" fill="#303332"/>
<path d="M301.727 160.814C301.808 160.832 301.893 160.82 301.968 160.773C302.121 160.679 302.167 160.477 302.073 160.327C300.359 157.558 298.587 154.694 295.976 152.588C293.054 150.229 289.435 149.387 286.53 150.389C286.361 150.448 286.271 150.631 286.328 150.802C286.388 150.971 286.573 151.061 286.742 151.004C289.961 149.894 293.412 151.355 295.567 153.095C298.091 155.133 299.834 157.948 301.52 160.67C301.568 160.744 301.644 160.796 301.727 160.814Z" fill="#303332"/>
<path d="M343.213 177.429C343.238 177.435 343.266 177.438 343.294 177.438C343.472 177.432 343.614 177.281 343.608 177.103C343.389 170.34 340.121 163.752 334.869 159.483C334.731 159.371 334.526 159.392 334.412 159.532C334.299 159.672 334.32 159.875 334.46 159.988C339.57 164.141 342.748 170.549 342.961 177.126C342.964 177.273 343.071 177.398 343.213 177.429Z" fill="#303332"/>
<path d="M228.499 189.303C228.55 189.314 228.605 189.312 228.66 189.298C242.37 185.283 255.764 188.217 263.619 196.955C263.74 197.088 263.946 197.1 264.078 196.981C264.211 196.861 264.223 196.656 264.104 196.521C256.078 187.595 242.427 184.587 228.476 188.675C228.305 188.725 228.206 188.906 228.255 189.08C228.291 189.196 228.386 189.278 228.499 189.303Z" fill="#303332"/>
<path d="M162.361 176.158C162.428 176.172 162.5 176.167 162.566 176.134C174.83 170.494 190.58 173.399 200.018 183.041C200.146 183.168 200.35 183.173 200.477 183.045C200.606 182.92 200.609 182.713 200.482 182.586C190.857 172.754 174.796 169.793 162.293 175.543C162.13 175.618 162.059 175.811 162.134 175.976C162.179 176.071 162.264 176.136 162.361 176.158Z" fill="#303332"/>
<path d="M144.144 129.345C144.28 129.375 144.422 129.317 144.495 129.191C146.69 125.453 150.728 122.803 155.032 122.276C159.337 121.749 163.895 123.349 166.924 126.449C167.052 126.576 167.256 126.581 167.384 126.453C167.513 126.328 167.516 126.121 167.388 125.994C164.218 122.752 159.453 121.079 154.95 121.63C150.447 122.18 146.224 124.952 143.93 128.862C143.839 129.016 143.892 129.217 144.047 129.307C144.081 129.324 144.113 129.338 144.144 129.345Z" fill="#303332"/>
<path d="M242.223 178.308C242.387 178.344 242.555 178.247 242.605 178.083C247.026 163.187 250.327 147.822 252.419 132.421C252.444 132.242 252.313 132.077 252.14 132.056C251.962 132.03 251.8 132.155 251.775 132.334C249.688 147.703 246.394 163.034 241.983 177.899C241.931 178.072 242.03 178.252 242.203 178.304C242.207 178.305 242.216 178.307 242.223 178.308Z" fill="#303332"/>
<path d="M195.35 164.729C195.514 164.765 195.682 164.667 195.732 164.504L205.081 132.687C205.131 132.514 205.034 132.335 204.861 132.285C204.701 132.236 204.508 132.333 204.458 132.506L195.109 164.322C195.059 164.495 195.157 164.675 195.33 164.725C195.334 164.725 195.341 164.727 195.35 164.729Z" fill="#303332"/>
<path d="M262.793 173.212C262.955 173.247 263.12 173.154 263.172 172.993C265.706 165.087 271.332 158.257 278.61 154.253C278.768 154.168 278.823 153.97 278.738 153.812C278.65 153.654 278.452 153.598 278.296 153.684C270.873 157.767 265.135 164.733 262.552 172.796C262.498 172.968 262.592 173.149 262.762 173.205C262.773 173.207 262.782 173.209 262.793 173.212Z" fill="#303332"/>
<path d="M176.447 160.01C176.632 160.046 176.804 159.928 176.836 159.753C178.137 152.827 177.567 145.66 175.185 139.027C175.124 138.857 174.935 138.769 174.768 138.831C174.599 138.891 174.511 139.079 174.57 139.248C176.912 145.773 177.472 152.823 176.194 159.636C176.163 159.806 176.275 159.972 176.447 160.01Z" fill="#303332"/>
<path d="M240.883 94.6404C241.016 94.6696 241.158 94.6135 241.232 94.4907L252.031 76.4386C252.123 76.2845 252.073 76.0848 251.918 75.9942C251.764 75.9014 251.564 75.9518 251.471 76.1059L240.673 94.158C240.58 94.3121 240.63 94.5118 240.785 94.6024C240.816 94.6211 240.849 94.633 240.883 94.6404Z" fill="#303332"/>
<path d="M232.85 91.8795C232.873 91.8844 232.898 91.8876 232.922 91.8858C233.101 91.8852 233.247 91.7379 233.244 91.5581C233.2 83.8582 233.682 76.0829 234.677 68.446C234.7 68.2671 234.579 68.1063 234.396 68.0825C234.219 68.0601 234.055 68.1844 234.032 68.3633C233.034 76.0277 232.55 83.8332 232.595 91.5616C232.595 91.7197 232.706 91.8479 232.85 91.8795Z" fill="#303332"/>
<path d="M232.502 190.864C232.56 190.877 232.624 190.875 232.686 190.851C235.565 189.777 238.695 189.448 241.735 189.893C241.913 189.921 242.077 189.796 242.105 189.618C242.13 189.44 241.994 189.273 241.829 189.249C238.68 188.786 235.441 189.129 232.46 190.239C232.293 190.302 232.206 190.49 232.269 190.657C232.306 190.767 232.396 190.841 232.502 190.864Z" fill="#303332"/>
<path d="M195.83 182.117C195.936 182.14 196.053 182.11 196.133 182.026C196.258 181.897 196.254 181.691 196.126 181.566C193.935 179.455 191.256 177.81 188.38 176.81C188.214 176.752 188.024 176.841 187.966 177.009C187.907 177.178 187.996 177.365 188.165 177.424C190.953 178.392 193.548 179.988 195.673 182.035C195.721 182.077 195.774 182.105 195.83 182.117Z" fill="#303332"/>
<path d="M213.507 186.791C213.565 186.804 213.629 186.802 213.689 186.779C213.858 186.718 213.944 186.531 213.88 186.362C212.596 182.908 211.243 178.979 211.269 178.496C211.349 178.301 212.294 177.108 213.156 176.087C213.272 175.95 213.255 175.746 213.118 175.629C212.983 175.514 212.776 175.53 212.659 175.667C211.775 176.713 210.705 178.033 210.63 178.375C210.491 179.007 212.43 184.329 213.27 186.589C213.311 186.694 213.401 186.768 213.507 186.791Z" fill="#303332"/>
<path d="M238.877 249.938C238.922 249.948 238.967 249.949 239.014 249.938C248.685 247.884 256.942 240.499 260.048 231.121C260.105 230.952 260.013 230.767 259.841 230.71C259.677 230.655 259.487 230.746 259.43 230.917C256.393 240.078 248.326 247.296 238.878 249.302C238.702 249.339 238.589 249.512 238.628 249.688C238.656 249.817 238.755 249.912 238.877 249.938Z" fill="#303332"/>
<path d="M212.812 234.089C212.94 234.117 213.077 234.065 213.154 233.949C213.254 233.799 213.21 233.598 213.062 233.5C207.966 230.153 201.569 228.611 195.508 229.264C195.329 229.284 195.199 229.444 195.219 229.623C195.239 229.802 195.397 229.931 195.578 229.912C201.492 229.274 207.734 230.779 212.706 234.044C212.737 234.065 212.774 234.08 212.812 234.089Z" fill="#303332"/>
<path d="M299.603 209.729C301.985 207.509 308.933 208.303 310.722 211.928C312.511 215.552 310.842 220.195 308.114 221.938C305.385 223.682 300.289 222.402 298.318 219.788C296.346 217.173 297.568 211.625 299.603 209.729Z" fill="#FFC813"/>
<path d="M296.634 213.029C297.349 212.552 311.606 215.307 311.977 216.075C312.351 216.844 312.096 219.051 311.29 219.197C310.483 219.343 297.129 216.411 296.531 215.956C295.936 215.505 296.135 213.366 296.634 213.029Z" fill="#FFC813"/>
<path d="M309.598 213.485C308.781 211.803 306.992 210.695 305.114 210.761C304.695 210.776 304.661 210.127 305.08 210.112C307.171 210.041 309.231 211.248 310.145 213.135C310.325 213.508 309.779 213.862 309.598 213.485Z" fill="white"/>
<path d="M303.744 218.115C306.196 218.654 308.66 219.155 310.063 219.388C310.241 219.418 310.407 219.296 310.436 219.121C310.466 218.943 310.345 218.775 310.169 218.748C307.528 218.312 301.113 216.914 298.125 216.123C297.931 216.071 297.773 216.181 297.727 216.355C297.682 216.529 297.784 216.707 297.958 216.752C299.374 217.125 301.554 217.634 303.744 218.115Z" fill="#303332"/>
<path d="M298.019 213.365C298.03 213.367 298.042 213.369 298.056 213.37C301.15 213.698 308.698 215.172 311.125 216.01C311.292 216.068 311.479 215.979 311.54 215.809C311.599 215.64 311.507 215.454 311.338 215.396C308.883 214.548 301.249 213.057 298.127 212.725C297.949 212.707 297.789 212.835 297.768 213.014C297.748 213.18 297.859 213.329 298.019 213.365Z" fill="#303332"/>
<path d="M332.113 211.715C334.258 209.716 340.514 210.432 342.126 213.694C343.738 216.956 342.233 221.138 339.777 222.71C337.321 224.279 332.73 223.127 330.956 220.773C329.18 218.421 330.28 213.424 332.113 211.715Z" fill="#FFC813"/>
<path d="M329.441 214.689C330.083 214.259 342.922 216.739 343.258 217.433C343.595 218.125 343.367 220.114 342.639 220.244C341.912 220.375 329.887 217.734 329.349 217.326C328.811 216.917 328.991 214.991 329.441 214.689Z" fill="#FFC813"/>
<path d="M340.345 214.095C339.323 212.946 337.849 212.249 336.305 212.231C335.888 212.227 335.851 211.577 336.27 211.582C337.98 211.603 339.646 212.337 340.785 213.618C341.062 213.927 340.625 214.409 340.345 214.095Z" fill="white"/>
<path d="M335.835 219.301C338.044 219.787 340.264 220.239 341.526 220.448C341.703 220.477 341.87 220.356 341.899 220.181C341.928 220.003 341.807 219.835 341.631 219.808C339.255 219.416 333.48 218.156 330.789 217.445C330.611 217.396 330.436 217.502 330.391 217.676C330.345 217.85 330.448 218.028 330.622 218.074C331.899 218.409 333.864 218.869 335.835 219.301Z" fill="#303332"/>
<path d="M330.682 215.024C330.693 215.026 330.704 215.029 330.718 215.03C333.503 215.325 340.297 216.652 342.481 217.406C342.645 217.463 342.835 217.375 342.894 217.204C342.952 217.035 342.861 216.85 342.692 216.791C340.433 216.012 333.666 214.691 330.787 214.384C330.609 214.366 330.449 214.494 330.428 214.673C330.411 214.837 330.522 214.989 330.682 215.024Z" fill="#303332"/>
<path d="M127.92 172.003C126.69 168.99 120.05 166.801 116.903 169.342C113.756 171.882 113.32 176.796 115.064 179.522C116.808 182.247 121.972 183.22 124.86 181.672C127.748 180.124 128.97 174.576 127.92 172.003Z" fill="#FFC813"/>
<path d="M129.225 176.243C128.778 175.51 114.679 172.038 114.019 172.58C113.356 173.121 112.66 175.231 113.331 175.702C114.002 176.173 127.356 179.105 128.09 178.943C128.822 178.783 129.539 176.758 129.225 176.243Z" fill="#FFC813"/>
<path d="M126.166 173.054C124.791 171.436 122.837 170.426 120.719 170.244C120.304 170.208 120.446 169.573 120.858 169.61C123.071 169.801 125.172 170.885 126.606 172.578C126.874 172.891 126.438 173.374 126.166 173.054Z" fill="white"/>
<path d="M120.639 177.881C122.828 178.362 125.021 178.814 126.465 179.067C126.642 179.099 126.81 178.98 126.842 178.803C126.873 178.63 126.76 178.466 126.591 178.429C123.531 177.892 117.121 176.474 114.541 175.761C114.37 175.714 114.189 175.816 114.142 175.987C114.094 176.16 114.197 176.339 114.368 176.386C115.736 176.767 118.184 177.342 120.639 177.881Z" fill="#303332"/>
<path d="M127.827 175.968C127.987 176.003 128.151 175.914 128.205 175.754C128.263 175.585 128.172 175.4 128.001 175.341C125.025 174.333 117.472 172.488 114.886 172.229C114.708 172.211 114.547 172.341 114.53 172.519C114.512 172.696 114.644 172.857 114.822 172.875C117.375 173.132 124.845 174.957 127.794 175.956C127.805 175.963 127.816 175.966 127.827 175.968Z" fill="#303332"/>
<path d="M97.1844 159.064C96.0774 156.352 90.0973 154.381 87.2637 156.667C84.4296 158.955 84.0384 163.379 85.6081 165.835C87.1778 168.29 91.8293 169.165 94.4287 167.771C97.0303 166.378 98.1308 161.381 97.1844 159.064Z" fill="#FFC813"/>
<path d="M98.361 162.882C97.9584 162.222 85.2617 159.094 84.6652 159.584C84.0686 160.074 83.4404 161.972 84.0462 162.395C84.6519 162.818 96.6767 165.459 97.3368 165.314C97.9968 165.169 98.6416 163.345 98.361 162.882Z" fill="#FFC813"/>
<path d="M95.4664 159.93C94.5086 158.693 93.0794 157.881 91.5331 157.655C91.1191 157.595 91.261 156.961 91.6729 157.021C93.3928 157.273 94.9525 158.21 96.0132 159.58C96.271 159.911 95.7225 160.257 95.4664 159.93Z" fill="white"/>
<path d="M90.6199 164.39C92.5908 164.823 94.5675 165.229 95.8678 165.458C96.045 165.49 96.2128 165.371 96.2447 165.194C96.2766 165.017 96.1852 164.853 95.9805 164.817C93.2388 164.335 87.4657 163.057 85.146 162.418C84.961 162.368 84.7939 162.473 84.7467 162.644C84.6991 162.818 84.8015 162.996 84.973 163.043C86.2059 163.385 88.4103 163.904 90.6199 164.39Z" fill="#303332"/>
<path d="M97.0959 162.667C97.2558 162.702 97.4195 162.613 97.4737 162.452C97.5321 162.283 97.4406 162.098 97.2694 162.039C94.5268 161.111 87.8314 159.475 85.452 159.236C85.2741 159.218 85.1133 159.348 85.0954 159.526C85.0775 159.703 85.2074 159.864 85.3876 159.882C87.6839 160.113 94.4081 161.758 97.0631 162.655C97.0711 162.661 97.0824 162.664 97.0959 162.667Z" fill="#303332"/>
<path d="M240.509 102.409C239.158 99.0979 231.859 96.6935 228.402 99.4844C224.945 102.278 224.467 107.675 226.382 110.672C228.3 113.668 233.974 114.735 237.146 113.035C240.318 111.335 241.663 105.238 240.509 102.409Z" fill="#FFC813"/>
<path d="M241.944 107.071C241.452 106.267 225.958 102.451 225.232 103.045C224.504 103.64 223.738 105.959 224.477 106.475C225.215 106.993 239.889 110.216 240.696 110.036C241.502 109.86 242.289 107.635 241.944 107.071Z" fill="#FFC813"/>
<path d="M238.321 103.155C237.318 101.803 235.7 100.938 234.014 100.862C233.598 100.844 233.562 100.194 233.98 100.213C235.911 100.3 237.716 101.251 238.869 102.804C239.12 103.142 238.569 103.49 238.321 103.155Z" fill="white"/>
<path d="M232.516 108.841C234.921 109.369 237.332 109.863 238.916 110.143C239.093 110.175 239.261 110.056 239.293 109.879C239.325 109.702 239.238 109.539 239.029 109.502C235.682 108.916 228.632 107.355 225.799 106.572C225.621 106.524 225.447 106.627 225.4 106.798C225.352 106.972 225.454 107.15 225.626 107.197C227.131 107.613 229.82 108.248 232.516 108.841Z" fill="#303332"/>
<path d="M240.416 106.738C240.576 106.773 240.74 106.684 240.794 106.523C240.853 106.354 240.761 106.169 240.59 106.11C237.32 105.003 229.024 102.977 226.185 102.693C226.007 102.675 225.846 102.805 225.828 102.983C225.81 103.161 225.945 103.323 226.12 103.34C228.93 103.622 237.142 105.629 240.383 106.728C240.392 106.732 240.403 106.735 240.416 106.738Z" fill="#303332"/>
<path d="M250.977 335.263C277.924 327.23 299.155 302.617 303.16 274.771C305.61 279.535 306.353 284.077 306.39 289.43C310.207 285.116 313.408 282.202 317.224 277.883C316.784 284.286 314.896 288.283 312.87 293.912C315.822 290.536 320.48 288.856 324.772 287.565C314.915 300.475 307.649 314.041 296.308 326.675C284.291 340.06 268.189 350.236 255.464 351.621L250.977 335.263Z" fill="#83A329"/>
<path d="M260.17 352.124C272.082 349.195 286.159 339.972 297.298 327.568C304.26 319.815 309.763 311.621 315.089 303.689C318.486 298.629 321.993 293.401 325.833 288.379C326.181 287.922 326.194 287.289 325.869 286.817C325.544 286.34 324.939 286.123 324.393 286.302C321.415 287.198 318.403 288.254 315.809 289.82C317.147 286.172 318.23 282.716 318.552 277.978C318.592 277.412 318.265 276.884 317.739 276.665C317.213 276.446 316.606 276.584 316.232 277.007C314.341 279.143 312.57 280.968 310.857 282.734C309.8 283.827 308.714 284.943 307.593 286.141C307.255 281.555 306.234 277.846 304.343 274.165C304.081 273.65 303.511 273.368 302.944 273.463C302.382 273.556 301.932 274.01 301.848 274.582C297.941 301.729 276.867 326.157 250.595 333.99C249.894 334.202 249.492 334.942 249.703 335.639C249.915 336.34 250.678 336.721 251.357 336.531C277.55 328.723 298.083 306.116 303.676 279.465C304.605 282.393 305.034 285.567 305.06 289.437C305.066 289.986 305.406 290.477 305.92 290.671C306.435 290.865 307.017 290.716 307.377 290.307C309.268 288.171 311.039 286.346 312.752 284.58C313.609 283.7 314.478 282.8 315.369 281.855C314.769 284.984 313.779 287.63 312.613 290.746C312.288 291.619 311.948 292.519 311.612 293.462C311.395 294.061 311.639 294.732 312.186 295.059C312.733 295.386 313.435 295.27 313.857 294.789C315.686 292.697 318.311 291.28 321.165 290.179C318.257 294.185 315.53 298.248 312.868 302.205C307.595 310.055 302.146 318.174 295.308 325.79C283.124 339.363 267.425 348.984 255.308 350.304C254.582 350.393 254.056 351.04 254.134 351.769C254.212 352.498 254.87 353.022 255.599 352.944C257.084 352.787 258.606 352.508 260.17 352.124Z" fill="#658215"/>
<path d="M250.97 335.265C277.921 327.229 299.157 302.616 303.166 274.772C305.616 279.535 306.359 284.078 306.395 289.429C310.213 285.115 313.414 282.201 317.231 277.882C316.79 284.284 314.901 288.281 312.875 293.909C315.827 290.534 320.485 288.854 324.778 287.561C314.919 300.471 307.65 314.037 296.306 326.671C284.287 340.056 268.182 350.234 255.456 351.621L250.97 335.265Z" fill="#95BA2F"/>
<path d="M259.779 352.19C271.692 349.259 285.772 340.035 296.914 327.631C303.877 319.877 309.382 311.684 314.709 303.753C318.107 298.692 321.616 293.465 325.456 288.442C325.804 287.985 325.817 287.352 325.493 286.88C325.167 286.404 324.563 286.187 324.017 286.366C321.038 287.262 318.025 288.318 315.431 289.885C316.77 286.237 317.853 282.781 318.176 278.044C318.217 277.477 317.89 276.95 317.364 276.731C316.837 276.512 316.23 276.65 315.857 277.074C313.965 279.21 312.194 281.035 310.481 282.8C309.423 283.893 308.337 285.01 307.215 286.208C306.878 281.622 305.858 277.914 303.967 274.233C303.705 273.718 303.135 273.437 302.568 273.531C302.006 273.625 301.556 274.078 301.472 274.65C297.56 301.795 276.481 326.223 250.207 334.059C249.505 334.271 249.103 335.012 249.314 335.708C249.526 336.409 250.289 336.79 250.968 336.6C277.164 328.789 297.702 306.182 303.299 279.533C304.228 282.46 304.656 285.634 304.681 289.503C304.688 290.053 305.028 290.543 305.542 290.737C306.057 290.931 306.639 290.782 306.999 290.373C308.89 288.237 310.662 286.412 312.375 284.646C313.232 283.766 314.101 282.866 314.993 281.921C314.392 285.05 313.402 287.695 312.235 290.811C311.91 291.684 311.57 292.584 311.234 293.527C311.016 294.126 311.26 294.797 311.807 295.124C312.355 295.45 313.057 295.334 313.478 294.853C315.308 292.761 317.933 291.344 320.788 290.243C317.879 294.249 315.151 298.312 312.488 302.268C307.213 310.119 301.763 318.237 294.924 325.854C282.737 339.426 267.035 349.049 254.917 350.371C254.191 350.46 253.664 351.107 253.743 351.835C253.821 352.564 254.479 353.089 255.208 353.011C256.693 352.853 258.215 352.574 259.779 352.19Z" fill="#658215"/>
</g>
<g filter="url(#filter0_f_70_242)">
<path d="M6.08556 92.895C6.94029 91.2041 14.7203 91.3603 21.1745 91.6795C23.779 84.6308 27.0499 76.0204 28.5305 76C29.9573 75.9797 33.2214 84.5358 35.8058 91.9171C41.9436 91.8017 49.8044 91.9239 50.8812 93.8321C51.9446 95.7266 45.6587 100.983 40.3082 105.179C42.6974 112.255 45.8269 122.067 44.0905 122.835C41.385 124.016 33.6992 118.631 28.12 114.217C22.0158 118.088 13.8319 122.515 12.1359 121.293C10.2784 119.955 13.5762 110.999 16.2682 104.29C11.1197 99.9436 5.21738 94.613 6.08556 92.895Z" fill="#FFC813"/>
</g>
<g filter="url(#filter1_f_70_242)">
<path d="M405.086 72.895C405.94 71.2041 413.72 71.3603 420.175 71.6795C422.779 64.6308 426.05 56.0204 427.531 56C428.957 55.9797 432.221 64.5358 434.806 71.9171C440.944 71.8017 448.804 71.9239 449.881 73.8321C450.945 75.7266 444.659 80.9825 439.308 85.1791C441.697 92.2549 444.827 102.067 443.091 102.835C440.385 104.016 432.699 98.6312 427.12 94.2174C421.016 98.088 412.832 102.515 411.136 101.293C409.278 99.9554 412.576 90.9986 415.268 84.2895C410.12 79.9436 404.217 74.613 405.086 72.895Z" fill="#FFC813"/>
</g>
<g filter="url(#filter2_f_70_242)">
<path d="M60.9524 273.706C60.4776 272.734 56.1553 272.824 52.5697 273.007C51.1227 268.958 49.3056 264.012 48.483 264C47.6903 263.988 45.877 268.904 44.4412 273.144C41.0313 273.078 36.6642 273.148 36.0659 274.244C35.4752 275.332 38.9674 278.352 41.9398 280.762C40.6125 284.827 38.8739 290.464 39.8385 290.905C41.3416 291.584 45.6115 288.49 48.7111 285.955C52.1023 288.178 56.6489 290.722 57.5911 290.019C58.623 289.251 56.791 284.106 55.2954 280.251C58.1557 277.755 61.4347 274.693 60.9524 273.706Z" fill="#FFC813"/>
</g>
<g filter="url(#filter3_f_70_242)">
<path d="M480.952 360.706C480.478 359.734 476.155 359.824 472.57 360.007C471.123 355.958 469.306 351.012 468.483 351C467.69 350.988 465.877 355.904 464.441 360.144C461.031 360.078 456.664 360.148 456.066 361.244C455.475 362.332 458.967 365.352 461.94 367.762C460.613 371.827 458.874 377.464 459.839 377.905C461.342 378.584 465.612 375.49 468.711 372.955C472.102 375.178 476.649 377.722 477.591 377.019C478.623 376.251 476.791 371.106 475.295 367.251C478.156 364.755 481.435 361.693 480.952 360.706Z" fill="#FFC813"/>
</g>
<defs>
<filter id="filter0_f_70_242" x="-3.05176e-05" y="70" width="57" height="59" filterUnits="userSpaceOnUse" color-interpolation-filters="sRGB">
<feFlood flood-opacity="0" result="BackgroundImageFix"/>
<feBlend mode="normal" in="SourceGraphic" in2="BackgroundImageFix" result="shape"/>
<feGaussianBlur stdDeviation="3" result="effect1_foregroundBlur_70_242"/>
</filter>
<filter id="filter1_f_70_242" x="399" y="50" width="57" height="59" filterUnits="userSpaceOnUse" color-interpolation-filters="sRGB">
<feFlood flood-opacity="0" result="BackgroundImageFix"/>
<feBlend mode="normal" in="SourceGraphic" in2="BackgroundImageFix" result="shape"/>
<feGaussianBlur stdDeviation="3" result="effect1_foregroundBlur_70_242"/>
</filter>
<filter id="filter2_f_70_242" x="30" y="258" width="37" height="39" filterUnits="userSpaceOnUse" color-interpolation-filters="sRGB">
<feFlood flood-opacity="0" result="BackgroundImageFix"/>
<feBlend mode="normal" in="SourceGraphic" in2="BackgroundImageFix" result="shape"/>
<feGaussianBlur stdDeviation="3" result="effect1_foregroundBlur_70_242"/>
</filter>
<filter id="filter3_f_70_242" x="450" y="345" width="37" height="39" filterUnits="userSpaceOnUse" color-interpolation-filters="sRGB">
<feFlood flood-opacity="0" result="BackgroundImageFix"/>
<feBlend mode="normal" in="SourceGraphic" in2="BackgroundImageFix" result="shape"/>
<feGaussianBlur stdDeviation="3" result="effect1_foregroundBlur_70_242"/>
</filter>
<clipPath id="clip0_70_242">
<rect width="377" height="390" fill="white" transform="translate(41)"/>
</clipPath>
</defs>
</svg>
