<svg width="588" height="313" viewBox="0 0 588 313" fill="none" xmlns="http://www.w3.org/2000/svg">
<g clip-path="url(#clip0_45_2118)">
<path d="M133.184 138.625C133.223 138.465 133.575 136.905 133.619 136.738C136.059 127.799 138.397 119.256 142.973 111.77C143.679 110.617 144.433 109.485 145.234 108.287C146.698 106.094 148.214 103.825 149.479 101.302C154.577 91.1281 154.355 78.5989 148.899 68.6097C147.46 65.9781 145.75 63.6383 144.095 61.3775C142.71 59.4863 141.401 57.6965 140.314 55.8341C138.939 53.476 136.816 48.9007 138.015 44.7328C138.863 41.7887 141.319 39.178 143.844 36.7929C148.235 32.6523 153.037 28.907 158.117 25.6559L159.163 24.9887C160.385 23.7923 157.892 20.3947 155.641 21.78C150.31 25.1925 145.298 29.1014 140.695 33.446C137.683 36.2871 134.745 39.4792 133.6 43.4607C132.185 48.3812 133.77 53.7281 136.348 58.1522C138.912 62.5525 142.43 66.3463 144.871 70.8168C149.593 79.4632 149.79 90.433 145.376 99.2385C143.591 102.799 141.135 105.971 139.057 109.369C134.15 117.396 131.439 126.547 128.962 135.622C128.185 138.466 127.876 141.329 129.171 144.39L132.367 142.859C132.565 140.814 133.184 138.625 133.184 138.625Z" fill="#FFC813"/>
<path d="M261.103 65.8065C261.768 61.205 261.044 55.9513 257.489 52.9608C254.622 50.5475 250.62 50.1561 246.886 49.8724C242.803 49.5593 238.719 49.2463 234.636 48.9332C228.829 48.4897 222.029 47.42 219.353 42.2445C218.477 40.5519 218.187 38.6083 218.187 36.7005C218.18 26.7343 231.658 11.8177 232.313 11.2307C232.968 10.6436 231.485 8.99674 228.992 9C228.383 9 227.304 9.84465 227.304 9.84465C220.109 17.5834 213.582 26.0919 213.592 36.707C213.595 39.6323 214.159 42.2086 215.274 44.361C219.425 52.3835 229.84 53.1825 234.288 53.5217L242.073 54.1185L246.537 54.4609C249.903 54.7185 252.829 55.0479 254.534 56.4861C256.684 58.296 256.987 62.1508 256.554 65.1511C256.284 67.0132 255.791 68.9079 255.267 70.9136C254.599 73.4736 253.908 76.1217 253.618 78.9719C252.735 87.65 255.651 95.7931 258.988 102.814C258.988 102.814 260.653 105.616 261.739 106.871L265.525 106.203C261.334 97.9227 257.255 88.6707 258.193 79.435C258.662 74.8074 260.438 70.4081 261.103 65.8065Z" fill="#FFC813"/>
<path d="M267.558 112.695C265.153 111.525 255.482 107.403 242.02 109.451C220.474 112.741 214.57 129.507 200.88 133.495C187.184 137.497 183.847 127.165 162.386 129.168C142.221 131.053 128.476 147.482 126.883 149.469C126.062 145.043 125.697 142.467 125.697 142.467C125.697 142.467 139.676 124.025 160.919 122.078C182.162 120.131 185.489 130.466 199.023 126.507C212.559 122.557 218.356 105.821 239.664 102.592C255.104 100.257 265.525 106.202 265.525 106.202C265.525 106.202 266.343 108.534 267.558 112.695Z" fill="#FFAD3B"/>
<path d="M267.558 112.696C265.154 111.525 255.482 107.403 242.02 109.451C220.474 112.742 214.57 129.507 200.88 133.496C187.184 137.497 183.847 127.166 162.386 129.168C142.221 131.053 128.476 147.483 126.883 149.469C130.721 169.9 144.532 229.854 178.793 258.781C220.471 293.969 253.843 271.323 265.372 248.289C289.854 199.391 273.665 133.401 267.558 112.696ZM145.982 169.969C152.427 172.206 167.883 163.228 182.179 169.189C196.471 175.141 201.108 192.187 199.99 192.566C155.21 207.746 145.982 169.969 145.982 169.969ZM227.735 250.631C196.468 258.996 174.358 225.706 174.358 225.706C174.358 225.706 194.073 234.932 222.586 226.436C251.093 217.944 259.096 200.852 259.096 200.852C259.096 200.852 259.008 242.253 227.735 250.631ZM225.789 186.301C224.583 186.519 220.214 168.948 230.247 156.393C240.28 143.847 258.91 144.055 263.671 138.802C263.671 138.805 274.307 177.231 225.789 186.301Z" fill="#FFC813"/>
<path d="M208.01 214.177C209.9 206.054 222.547 201.654 227.78 209.021C220.562 208.398 214.394 211.386 208.01 214.177Z" fill="#FFAD3B"/>
<path d="M199.99 192.566C184.055 199.776 164.507 200.05 152.228 185.916C147.318 180.502 144.274 173.644 142.697 166.545L146.734 167.8C149.035 168.394 151.498 167.761 153.887 167.353C156.595 166.835 159.388 166.212 162.242 165.762C174.517 163.541 186.379 166.346 194.02 176.785C196.989 180.874 199.254 185.495 200.104 190.482C200.15 191.085 200.417 192.112 199.99 192.566C200.228 192.311 200.055 191.881 200.023 191.571C199.456 189.203 198.328 186.986 197.139 184.879C189.419 171.616 177.848 166.897 162.982 170.073C160.287 170.569 157.589 171.215 154.78 171.811C151.577 172.372 148.719 173.161 145.232 172.137L148.214 169.421C149.634 174.375 152.219 179.113 155.51 183.075C166.54 196.583 184.336 196.593 199.99 192.566Z" fill="#FFAD3B"/>
<path d="M174.358 225.706C199.28 232.316 231.065 225.696 251.047 209.344C254.028 206.827 256.828 204.068 259.096 200.852C254.361 212.149 243.744 219.94 232.945 225.004C214.951 232.978 192.192 235.169 174.358 225.706Z" fill="#FFAD3B"/>
<path d="M259.099 200.852C259.839 216.724 255.407 234.09 243.128 245.008C230.377 256.25 210.943 256.918 196.65 248.201C187.406 242.778 179.731 234.879 174.358 225.702C181.123 233.526 189.146 240.423 198.342 245.035C207.329 249.522 217.603 251.084 227.298 248.354C248.042 242.915 256.678 220.272 259.099 200.852Z" fill="#FFAD3B"/>
<path d="M225.789 186.301C225.427 186.222 225.317 185.749 225.16 185.459C224.254 183.065 223.954 180.479 223.762 177.939C222.798 165.791 227.858 153.64 238.771 147.395C243.861 144.27 249.681 142.421 255.224 140.543C257.597 139.656 260.171 138.968 261.97 137.259L264.88 134.213L265.883 138.188C268.673 149.987 265.58 163.27 256.981 171.955C248.694 180.326 237.09 184.174 225.789 186.301ZM225.789 186.301C234.164 184.68 242.548 181.686 249.313 176.387C260.539 167.862 264.622 152.798 261.455 139.414L265.372 140.344C262.736 142.976 259.764 143.716 256.586 144.773C253.738 145.637 250.942 146.331 248.225 147.205C242.802 148.888 237.536 151.073 233.287 154.771C226.682 160.403 223.671 169.368 223.925 177.932C224.062 180.633 224.257 183.463 225.404 185.948C225.499 186.089 225.597 186.294 225.789 186.301Z" fill="#FFAD3B"/>
<path d="M136.291 150.74C136.16 151.549 135.401 152.097 134.593 151.97C133.785 151.839 133.237 151.08 133.364 150.271C133.495 149.462 134.254 148.914 135.062 149.045C135.87 149.175 136.421 149.932 136.291 150.74Z" fill="#FFAD3B"/>
<path d="M143.381 145.432C143.251 146.241 142.492 146.788 141.684 146.661C140.875 146.531 140.328 145.771 140.455 144.962C140.582 144.153 141.345 143.606 142.153 143.733C142.961 143.863 143.512 144.623 143.381 145.432Z" fill="#FFAD3B"/>
<path d="M150.899 140.738C150.769 141.547 150.009 142.095 149.201 141.968C148.393 141.837 147.846 141.078 147.976 140.269C148.106 139.46 148.866 138.912 149.674 139.039C150.482 139.17 151.029 139.933 150.899 140.738Z" fill="#FFAD3B"/>
<path d="M159.437 138.108C159.499 137.291 158.887 136.579 158.071 136.517C157.254 136.455 156.542 137.067 156.48 137.884C156.418 138.701 157.03 139.414 157.846 139.476C158.663 139.538 159.375 138.926 159.437 138.108Z" fill="#FFAD3B"/>
<path d="M168.059 136.551C167.929 137.36 167.17 137.908 166.361 137.781C165.553 137.654 165.006 136.891 165.136 136.082C165.266 135.273 166.026 134.725 166.834 134.852C167.639 134.983 168.189 135.743 168.059 136.551Z" fill="#FFAD3B"/>
<path d="M176.942 136.816C176.812 137.624 176.053 138.172 175.244 138.045C174.436 137.915 173.889 137.155 174.019 136.346C174.15 135.537 174.909 134.989 175.717 135.116C176.525 135.247 177.073 136.007 176.942 136.816Z" fill="#FFAD3B"/>
<path d="M185.561 138.828C185.431 139.637 184.671 140.184 183.863 140.057C183.055 139.927 182.508 139.167 182.638 138.358C182.768 137.549 183.528 137.001 184.336 137.129C185.141 137.256 185.691 138.019 185.561 138.828Z" fill="#FFAD3B"/>
<path d="M192.946 142.462C193.749 142.301 194.27 141.519 194.109 140.716C193.949 139.912 193.167 139.391 192.364 139.552C191.561 139.712 191.041 140.494 191.201 141.297C191.362 142.101 192.143 142.622 192.946 142.462Z" fill="#FFAD3B"/>
<path d="M202.936 140.876C202.806 141.684 202.047 142.232 201.239 142.105C200.43 141.975 199.883 141.215 200.013 140.406C200.144 139.597 200.903 139.049 201.711 139.18C202.516 139.307 203.067 140.067 202.936 140.876Z" fill="#FFAD3B"/>
<path d="M210.666 136.675C210.535 137.484 209.776 138.032 208.968 137.905C208.16 137.774 207.612 137.015 207.743 136.206C207.873 135.397 208.632 134.849 209.441 134.976C210.245 135.107 210.796 135.867 210.666 136.675Z" fill="#FFAD3B"/>
<path d="M218.02 131.718C217.89 132.527 217.131 133.075 216.323 132.947C215.514 132.817 214.967 132.057 215.097 131.248C215.228 130.44 215.987 129.892 216.795 130.019C217.6 130.146 218.151 130.909 218.02 131.718Z" fill="#FFAD3B"/>
<path d="M224.857 126.034C224.727 126.843 223.968 127.391 223.159 127.263C222.351 127.136 221.804 126.373 221.934 125.564C222.065 124.755 222.824 124.208 223.632 124.338C224.437 124.465 224.988 125.225 224.857 126.034Z" fill="#FFAD3B"/>
<path d="M232.515 121.594C232.577 120.777 231.965 120.065 231.149 120.003C230.332 119.941 229.62 120.553 229.558 121.37C229.496 122.187 230.108 122.9 230.924 122.962C231.741 123.024 232.453 122.411 232.515 121.594Z" fill="#FFAD3B"/>
<path d="M240.766 118.442C240.636 119.251 239.876 119.799 239.068 119.668C238.26 119.538 237.713 118.778 237.84 117.969C237.97 117.16 238.729 116.612 239.537 116.743C240.346 116.873 240.896 117.633 240.766 118.442Z" fill="#FFAD3B"/>
<path d="M249.33 116.674C249.199 117.483 248.44 118.031 247.632 117.903C246.824 117.773 246.276 117.013 246.407 116.204C246.537 115.396 247.296 114.848 248.104 114.975C248.913 115.102 249.46 115.865 249.33 116.674Z" fill="#FFAD3B"/>
<path d="M258.209 116.58C258.079 117.389 257.32 117.936 256.511 117.809C255.703 117.679 255.156 116.919 255.283 116.11C255.41 115.301 256.173 114.754 256.981 114.884C257.789 115.011 258.34 115.771 258.209 116.58Z" fill="#FFAD3B"/>
<path d="M266.898 118.397C266.96 117.579 266.348 116.867 265.532 116.805C264.715 116.743 264.003 117.355 263.941 118.172C263.879 118.989 264.491 119.702 265.307 119.764C266.124 119.826 266.836 119.214 266.898 118.397Z" fill="#FFAD3B"/>
<path d="M194.881 161.789C194.695 161.76 194.539 161.613 194.503 161.418C194.037 158.825 192.313 156.431 190.003 155.166C189.781 155.045 189.7 154.765 189.82 154.543C189.944 154.321 190.224 154.24 190.446 154.36C193.033 155.776 194.887 158.352 195.409 161.255C195.454 161.506 195.288 161.744 195.037 161.789C194.982 161.796 194.93 161.796 194.881 161.789Z" fill="#FFAD3B"/>
<path d="M191.348 160.828C191.228 160.808 191.117 160.743 191.042 160.635C189.96 159.064 188.5 157.752 186.822 156.846C186.597 156.725 186.516 156.448 186.636 156.223C186.757 155.998 187.041 155.916 187.259 156.037C189.067 157.012 190.638 158.421 191.801 160.117C191.945 160.326 191.893 160.613 191.684 160.756C191.58 160.821 191.462 160.844 191.348 160.828Z" fill="#FFAD3B"/>
<path d="M185.835 159.416C185.789 159.409 185.744 159.393 185.701 159.373C183.883 158.457 181.846 158.033 179.813 158.15C179.556 158.167 179.344 157.971 179.328 157.717C179.314 157.462 179.507 157.247 179.761 157.231C181.954 157.104 184.15 157.56 186.115 158.548C186.34 158.662 186.431 158.94 186.317 159.165C186.226 159.351 186.027 159.445 185.835 159.416Z" fill="#FFAD3B"/>
<path d="M214.289 157.472C214.123 157.446 213.977 157.325 213.921 157.152C212.95 153.95 213.325 150.431 214.951 147.505C215.075 147.284 215.358 147.205 215.577 147.326C215.798 147.45 215.88 147.73 215.756 147.952C214.273 150.623 213.918 153.963 214.804 156.885C214.879 157.129 214.742 157.384 214.498 157.459C214.426 157.478 214.358 157.481 214.289 157.472Z" fill="#FFAD3B"/>
<path d="M217.405 154.126C217.238 154.1 217.092 153.983 217.04 153.81C216.346 151.609 217.02 149.081 218.718 147.519C218.907 147.346 219.197 147.359 219.366 147.548C219.539 147.734 219.526 148.028 219.34 148.197C217.923 149.502 217.336 151.693 217.916 153.533C217.991 153.774 217.861 154.035 217.616 154.11C217.548 154.133 217.476 154.139 217.405 154.126Z" fill="#FFAD3B"/>
<path d="M219.956 152.867C219.904 152.857 219.852 152.841 219.803 152.815C219.581 152.691 219.503 152.41 219.627 152.189C220.709 150.255 222.267 148.601 224.137 147.408C224.349 147.271 224.632 147.333 224.772 147.548C224.909 147.763 224.847 148.047 224.632 148.184C222.889 149.293 221.439 150.832 220.432 152.635C220.334 152.811 220.142 152.896 219.956 152.867Z" fill="#FFAD3B"/>
<path d="M204.471 274.535C204.435 274.528 204.4 274.519 204.364 274.506C188.827 267.915 176.427 258.666 165.345 245.39C165.182 245.194 165.208 244.904 165.403 244.741C165.599 244.578 165.889 244.604 166.052 244.8C177.037 257.958 189.328 267.126 204.725 273.658C204.96 273.756 205.068 274.026 204.97 274.261C204.885 274.457 204.677 274.568 204.471 274.535Z" fill="#E6ECEF"/>
<path d="M129.845 148.004C129.767 147.991 129.692 147.959 129.627 147.907C129.431 147.747 129.398 147.457 129.561 147.261C141.358 132.729 156.797 126.696 175.453 129.324C175.704 129.367 175.876 129.592 175.844 129.843C175.808 130.094 175.577 130.27 175.326 130.234C157.012 127.651 141.856 133.574 130.275 147.838C130.167 147.972 130.005 148.027 129.845 148.004Z" fill="#E6ECEF"/>
<path d="M211.213 127.984C211.119 127.968 211.027 127.922 210.956 127.851C210.78 127.668 210.786 127.378 210.969 127.198L211.239 126.937C218.995 119.456 227.014 111.717 237.742 109.19C245.243 107.422 252.819 107.742 262.309 110.234C262.556 110.299 262.703 110.55 262.638 110.795C262.573 111.039 262.302 111.186 262.077 111.124C252.738 108.675 245.302 108.355 237.953 110.087C227.47 112.556 219.545 120.203 211.878 127.599L211.604 127.86C211.497 127.965 211.35 128.007 211.213 127.984Z" fill="#E6ECEF"/>
<path d="M245.178 144.545C244.999 144.515 244.849 144.382 244.804 144.196C244.745 143.948 244.898 143.7 245.146 143.641C252.315 141.942 259.099 138.551 264.763 133.835C264.958 133.672 265.245 133.698 265.411 133.894C265.574 134.089 265.548 134.38 265.353 134.543C259.578 139.35 252.667 142.807 245.358 144.538C245.296 144.555 245.234 144.555 245.178 144.545Z" fill="#E6ECEF"/>
<path d="M144.147 167.696C143.583 167.604 143.02 167.494 142.459 167.36C142.211 167.301 142.062 167.053 142.117 166.806C142.176 166.558 142.433 166.411 142.671 166.463C148.413 167.83 154.431 166.763 160.251 165.736C164.765 164.937 169.431 164.112 174.048 164.376C174.29 164.386 174.495 164.607 174.482 164.862C174.469 165.116 174.25 165.309 173.996 165.296C169.49 165.038 164.875 165.853 160.414 166.642C155.06 167.588 149.543 168.563 144.147 167.696Z" fill="#E6ECEF"/>
<path d="M244.148 180.877C244.012 180.854 243.888 180.773 243.819 180.642C243.699 180.421 243.78 180.14 244.005 180.02C250.578 176.432 255.922 170.712 259.057 163.909C262.195 157.097 263.117 150.18 261.8 143.338C260.246 144.013 255.508 145.976 250.793 147.02C245.243 148.249 237.292 152.179 234.64 154.227C234.438 154.383 234.148 154.344 233.994 154.145C233.838 153.943 233.877 153.656 234.076 153.5C236.794 151.399 244.927 147.375 250.591 146.12C256.215 144.874 261.888 142.291 261.944 142.268C262.071 142.209 262.218 142.213 262.341 142.275C262.465 142.337 262.556 142.454 262.586 142.591C264.104 149.811 263.198 157.113 259.891 164.294C256.675 171.276 251.187 177.146 244.445 180.828C244.35 180.877 244.246 180.894 244.148 180.877Z" fill="#303332"/>
<path d="M176.437 195.494C165.107 193.667 154.503 185.211 148.403 172.727C148.331 172.584 148.341 172.414 148.426 172.281C148.51 172.147 148.66 172.065 148.82 172.065C148.859 172.065 152.91 172.085 160.284 170.141C168.01 168.106 176.088 168.025 179.937 169.946C180.165 170.06 180.256 170.337 180.142 170.562C180.028 170.79 179.754 170.881 179.526 170.767C175.919 168.967 167.929 169.075 160.519 171.028C154.751 172.548 151.039 172.887 149.547 172.962C156.559 186.799 169.242 195.396 182.029 194.923C182.276 194.916 182.495 195.112 182.505 195.366C182.514 195.621 182.316 195.833 182.061 195.843C180.181 195.914 178.298 195.794 176.437 195.494Z" fill="#303332"/>
<path d="M242.522 271.714C242.395 271.695 242.278 271.62 242.203 271.502C242.069 271.287 242.135 271.003 242.353 270.87C254.996 263.059 265.072 249.639 270.719 233.082C275.63 218.687 278.286 200.728 278.012 183.806C278.009 183.551 278.211 183.343 278.465 183.339C278.719 183.336 278.928 183.538 278.931 183.793C279.211 201.067 276.604 218.678 271.589 233.382C265.874 250.141 255.661 263.734 242.835 271.655C242.741 271.714 242.63 271.734 242.522 271.714Z" fill="#303332"/>
<path d="M207.71 205.597C207.687 205.594 207.664 205.587 207.642 205.581C207.401 205.502 207.267 205.245 207.345 205.003C209.154 199.355 209.209 193.113 207.498 187.429C207.427 187.184 207.563 186.93 207.805 186.855C208.049 186.783 208.306 186.92 208.378 187.162C210.138 193.019 210.082 199.456 208.218 205.281C208.15 205.502 207.932 205.633 207.71 205.597Z" fill="#303332"/>
<path d="M223.042 200.366C222.958 200.353 222.873 200.314 222.804 200.252C220.002 197.672 217.646 194.496 215.991 191.065C215.88 190.837 215.978 190.563 216.206 190.452C216.434 190.341 216.707 190.436 216.818 190.667C218.425 193.997 220.709 197.076 223.427 199.577C223.613 199.75 223.626 200.04 223.453 200.226C223.345 200.343 223.189 200.389 223.042 200.366Z" fill="#303332"/>
<path d="M153.916 191.675C153.855 191.666 153.789 191.643 153.734 191.604C149.824 188.995 146.558 185.437 144.294 181.318C144.17 181.096 144.251 180.816 144.476 180.692C144.698 180.568 144.978 180.649 145.102 180.874C147.295 184.866 150.456 188.313 154.246 190.837C154.457 190.977 154.513 191.264 154.373 191.476C154.268 191.63 154.089 191.701 153.916 191.675Z" fill="#303332"/>
<path d="M148.791 191.209C148.722 191.199 148.657 191.173 148.598 191.13C146.278 189.483 144.264 187.328 142.772 184.905C142.638 184.69 142.707 184.406 142.922 184.272C143.137 184.138 143.42 184.207 143.554 184.422C144.981 186.744 146.907 188.802 149.126 190.38C149.335 190.527 149.38 190.814 149.234 191.023C149.133 191.169 148.957 191.235 148.791 191.209Z" fill="#303332"/>
<path d="M266.327 162.276C266.291 162.269 266.252 162.259 266.216 162.243C265.984 162.142 265.877 161.871 265.978 161.636C267.643 157.824 268.617 153.787 268.872 149.638C268.888 149.384 269.106 149.192 269.36 149.208C269.608 149.224 269.807 149.443 269.791 149.694C269.53 153.953 268.529 158.095 266.822 162.005C266.734 162.204 266.529 162.308 266.327 162.276Z" fill="#303332"/>
<path d="M269.122 161.477C269.057 161.467 268.995 161.444 268.94 161.405C268.731 161.265 268.673 160.978 268.816 160.766C270.12 158.829 270.863 156.477 270.918 154.146C270.924 153.891 271.133 153.689 271.387 153.695C271.632 153.699 271.843 153.911 271.837 154.165C271.781 156.673 270.98 159.197 269.582 161.278C269.474 161.434 269.292 161.506 269.122 161.477Z" fill="#303332"/>
<path d="M214.514 260.287C214.355 260.261 214.195 260.235 214.039 260.205C213.788 260.16 213.621 259.922 213.664 259.674C213.706 259.426 213.941 259.26 214.188 259.299C221.325 260.558 229.716 259.534 236.109 256.634C242.669 253.66 252.794 243.42 254.162 237.025C254.214 236.777 254.416 236.604 254.706 236.673C254.954 236.725 255.114 236.97 255.058 237.217C253.618 243.968 243.373 254.352 236.487 257.473C230.078 260.378 221.703 261.445 214.514 260.287Z" fill="#303332"/>
<path d="M237.559 259.771C237.423 259.749 237.295 259.664 237.227 259.533C237.11 259.308 237.194 259.031 237.419 258.911C241.786 256.602 245.68 253.572 248.997 249.91C249.17 249.721 249.46 249.707 249.646 249.877C249.835 250.047 249.848 250.34 249.678 250.526C246.293 254.27 242.311 257.361 237.849 259.723C237.755 259.771 237.657 259.788 237.559 259.771Z" fill="#303332"/>
<path d="M125.387 143.25C125.312 143.237 125.24 143.207 125.175 143.158C124.976 143.002 124.941 142.712 125.097 142.513C127.789 139.079 130.914 136.003 134.394 133.372C134.599 133.218 134.886 133.257 135.039 133.463C135.192 133.665 135.153 133.955 134.951 134.109C131.536 136.692 128.463 139.708 125.824 143.083C125.713 143.217 125.547 143.276 125.387 143.25Z" fill="#303332"/>
<path d="M266.255 107.168C266.209 107.161 266.164 107.145 266.118 107.122C262.954 105.492 259.571 104.341 256.068 103.698C255.817 103.652 255.654 103.411 255.7 103.163C255.746 102.912 256.023 102.759 256.234 102.795C259.825 103.453 263.293 104.634 266.538 106.307C266.763 106.424 266.851 106.702 266.737 106.927C266.643 107.103 266.447 107.197 266.255 107.168Z" fill="#303332"/>
<path d="M-8.58745 32.8626C35.4997 74.3885 104.298 87.3489 160.507 64.7202C154.279 74.4337 146.618 80.7266 136.687 86.579C148.85 89.0291 157.737 91.8441 169.907 94.2859C157.502 100.385 148.014 101.187 135.339 103.495C144.818 105.347 152.98 112.209 160.025 118.81C125.321 114.396 92.1934 115.519 56.3993 108.04C18.4763 100.115 -17.8833 81.1101 -34.2156 58.8988L-8.58745 32.8626Z" fill="#83A329"/>
<path d="M-30.0655 68.2094C-11.7359 87.2368 20.6585 103.499 55.8063 110.849C77.7747 115.441 98.9881 116.84 119.52 118.193C132.619 119.054 146.149 119.94 159.656 121.665C160.884 121.821 162.077 121.16 162.605 120.046C163.142 118.925 162.893 117.564 161.969 116.74C157.081 112.159 151.859 107.688 146.139 104.547C154.382 103.099 161.99 101.381 171.165 96.8629C172.264 96.3254 172.893 95.147 172.733 93.9293C172.573 92.7117 171.66 91.73 170.467 91.4921C164.444 90.2764 159.13 88.9488 153.99 87.666C150.811 86.8763 147.558 86.0602 144.113 85.2657C152.293 79.6811 158.101 73.7706 162.915 66.2697C163.592 65.2253 163.501 63.8591 162.712 62.9046C161.931 61.9586 160.599 61.61 159.443 62.0716C104.641 84.1268 36.357 71.2589 -6.62702 30.7764C-7.77939 29.6988 -9.59327 29.7492 -10.6626 30.8947C-11.7404 32.0483 -11.6251 33.8809 -10.5389 34.9406C32.3143 75.3042 96.622 89.1319 152.319 70.7539C147.87 75.6489 142.418 79.8767 135.237 84.1065C134.219 84.7121 133.674 85.8754 133.868 87.0438C134.062 88.2121 134.968 89.1354 136.12 89.3643C142.143 90.5799 147.457 91.9075 152.597 93.1904C155.163 93.8359 157.779 94.4823 160.503 95.1224C154.024 97.3847 148.025 98.3993 140.959 99.5943C138.982 99.9329 136.938 100.27 134.818 100.665C133.466 100.906 132.48 102.087 132.462 103.459C132.445 104.832 133.421 106.014 134.771 106.28C140.646 107.426 146.121 110.787 151.258 114.915C140.651 113.825 130.135 113.135 119.886 112.45C99.5613 111.109 78.5471 109.73 56.968 105.221C18.5149 97.1864 -16.3756 78.3334 -31.9295 57.1845C-32.8789 55.9276 -34.6533 55.6459 -35.9265 56.5797C-37.1998 57.5134 -37.4663 59.3058 -36.5338 60.5791C-34.6365 63.176 -32.4719 65.7113 -30.0655 68.2094Z" fill="#658215"/>
<path d="M-8.59876 32.8544C35.4972 74.3823 104.301 87.3516 160.511 64.7339C154.284 74.4454 146.623 80.7365 136.692 86.5867C148.856 89.0383 157.744 91.8544 169.916 94.2978C157.51 100.394 148.022 101.194 135.346 103.5C144.826 105.354 152.99 112.217 160.037 118.818C125.33 114.399 92.2003 115.516 56.4031 108.033C18.4767 100.103 -17.8879 81.0951 -34.2245 58.8838L-8.59876 32.8544Z" fill="#83A329"/>
<path d="M-30.6108 67.5538C-12.2772 86.5819 20.1215 102.847 55.2725 110.202C77.2429 114.796 98.4577 116.198 118.991 117.554C132.091 118.417 145.622 119.305 159.13 121.032C160.358 121.188 161.551 120.527 162.079 119.414C162.615 118.292 162.366 116.932 161.442 116.108C156.554 111.526 151.331 107.055 145.609 103.914C153.853 102.467 161.461 100.751 170.636 96.2344C171.735 95.6971 172.364 94.5189 172.204 93.3014C172.044 92.0838 171.13 91.1021 169.937 90.864C163.914 89.6476 158.599 88.3194 153.458 87.0359C150.279 86.2458 147.026 85.4293 143.581 84.6344C151.76 79.0516 157.567 73.1427 162.381 65.6434C163.057 64.5991 162.966 63.2331 162.177 62.2786C161.396 61.3326 160.064 60.9838 158.908 61.4452C104.106 83.4897 35.8161 70.6129 -7.17656 30.1284C-8.32917 29.0508 -10.1431 29.101 -11.2124 30.2461C-12.29 31.3995 -12.1744 33.2319 -11.088 34.2916C31.7738 74.6572 96.0873 88.493 151.785 70.1254C147.336 75.0192 141.885 79.2458 134.704 83.474C133.686 84.0794 133.141 85.2425 133.335 86.4108C133.53 87.579 134.436 88.5023 135.587 88.7313C141.611 89.9478 146.925 91.276 152.066 92.5595C154.632 93.2053 157.249 93.852 159.973 94.4924C153.494 96.7535 147.495 97.7671 140.429 98.961C138.451 99.2992 136.407 99.6363 134.288 100.03C132.936 100.272 131.949 101.452 131.932 102.824C131.915 104.197 132.891 105.379 134.241 105.645C140.116 106.792 145.593 110.153 150.731 114.282C140.122 113.19 129.606 112.499 119.356 111.812C99.0301 110.468 78.0145 109.086 56.4334 104.574C17.9768 96.5349 -16.9186 77.6787 -32.4766 56.5299C-33.4262 55.2729 -35.2007 54.991 -36.4739 55.9244C-37.7471 56.8579 -38.0134 58.6501 -37.0806 59.9233C-35.1828 62.5203 -33.0178 65.0556 -30.6108 67.5538Z" fill="#658215"/>
<path d="M426.669 133.487C425.489 131.087 420.383 121.887 408.502 115.231C389.475 104.59 374.531 114.194 361.278 108.93C348.015 103.673 351.717 93.4692 333.547 81.8627C316.475 70.9605 295.544 75.4838 293.071 76.0708C295.14 72.0726 296.431 69.8126 296.431 69.8126C296.431 69.8126 318.782 63.8446 336.74 75.3599C354.702 86.8751 350.987 97.0761 364.1 102.268C377.209 107.469 392.052 97.8196 410.851 108.363C424.469 116.007 429.051 127.102 429.051 127.102C429.051 127.102 428.262 129.456 426.669 133.487Z" fill="#8842C2"/>
<path d="M408.499 115.231C389.481 104.584 374.53 114.201 361.281 108.937C348.021 103.674 351.713 93.4695 333.546 81.8695C316.481 70.9641 295.551 75.4906 293.074 76.0776C283.569 94.562 257.689 150.371 266.982 194.253C278.296 247.639 318.527 250.277 341.768 239.173C391.081 215.62 418.793 153.583 426.672 133.497C425.492 131.087 420.38 121.887 408.499 115.231ZM297.646 103.573C332.986 119.122 327.955 149.288 327.955 149.288C319.707 149.376 303.264 146.728 297.128 133.696C290.278 119.151 296.525 103.08 297.646 103.573ZM336.733 222.619C336.733 222.619 332.611 209.956 315.223 201.333C298.226 192.896 285.54 198.398 285.081 198.6C285.452 198.114 300.022 179.601 320.955 189.299C341.595 198.858 336.733 222.619 336.733 222.619ZM382.948 173.111C369.046 176.825 356.403 165.959 351.146 159.603C351.146 159.603 370.926 136.292 405.598 153.273C406.71 153.814 398.468 168.956 382.948 173.111Z" fill="#9858CC"/>
<path d="M359.127 136.109C359.075 136.106 359.026 136.096 358.974 136.074C358.739 135.976 358.628 135.705 358.726 135.47C359.72 133.096 360.346 130.592 360.587 128.025C360.61 127.774 360.815 127.591 361.089 127.611C361.34 127.634 361.529 127.859 361.503 128.113C361.255 130.771 360.606 133.367 359.573 135.829C359.499 136.015 359.313 136.122 359.127 136.109Z" fill="#8842C2"/>
<path d="M363.35 135.259C363.295 135.255 363.243 135.242 363.191 135.219C362.959 135.118 362.852 134.844 362.956 134.613C364.005 132.235 365.628 130.116 367.658 128.492C367.854 128.332 368.144 128.364 368.303 128.563C368.463 128.762 368.43 129.053 368.232 129.209C366.319 130.742 364.787 132.741 363.797 134.985C363.715 135.164 363.536 135.268 363.35 135.259Z" fill="#8842C2"/>
<path d="M367.323 134.877C367.153 134.867 366.997 134.762 366.925 134.596C366.827 134.361 366.935 134.091 367.169 133.993C371.282 132.255 375.815 131.426 380.276 131.602C380.533 131.615 380.729 131.827 380.719 132.078C380.709 132.333 380.494 132.532 380.243 132.519C375.916 132.349 371.52 133.151 367.528 134.837C367.459 134.87 367.391 134.88 367.323 134.877Z" fill="#8842C2"/>
<path d="M339.582 128.012C339.467 128.005 339.36 127.96 339.275 127.872C339.099 127.689 339.106 127.395 339.288 127.223C341.749 124.865 343.795 122.135 345.372 119.112C345.489 118.887 345.766 118.799 345.991 118.916C346.216 119.034 346.304 119.311 346.187 119.536C344.564 122.647 342.456 125.458 339.924 127.885C339.829 127.976 339.705 128.018 339.582 128.012Z" fill="#8842C2"/>
<path d="M338.295 124.402C338.181 124.395 338.07 124.346 337.988 124.258C337.812 124.075 337.822 123.782 338.005 123.609C339.839 121.864 340.331 118.978 340.677 116.17C340.709 115.919 340.95 115.743 341.188 115.769C341.439 115.802 341.618 116.03 341.589 116.281C341.221 119.252 340.69 122.318 338.637 124.271C338.542 124.369 338.418 124.408 338.295 124.402Z" fill="#8842C2"/>
<path d="M336.492 121.128C336.3 121.118 336.127 120.984 336.075 120.788C334.827 116.167 332.038 112.035 328.215 109.159C328.013 109.006 327.971 108.719 328.124 108.513C328.277 108.308 328.571 108.272 328.766 108.422C332.752 111.422 335.661 115.73 336.958 120.547C337.024 120.792 336.88 121.046 336.636 121.111C336.587 121.124 336.538 121.128 336.492 121.128Z" fill="#8842C2"/>
<path d="M316.344 177.324C322.8 171.324 334.534 177.399 334.954 185.767L330.301 182.741C325.856 179.92 321.672 178.136 316.344 177.324Z" fill="#8842C2"/>
<path d="M300.162 66.4214C299.611 64.6049 299.305 63.1798 298.963 61.0306C298.467 57.8999 298.823 55.2975 299.833 54.7039C300.286 54.4365 301.289 54.2767 301.772 54.2017C303.984 53.8495 306.242 53.6669 308.631 53.4777C311.091 53.2821 313.633 53.0766 316.198 52.669C322.868 51.6058 328.108 49.2349 331.764 45.6183C336.44 40.9907 338.275 34.6901 339.891 29.133C341.419 23.876 342.863 18.9125 346.33 16.1796C348.123 14.7675 350.553 13.9946 353.173 14.0076C354.757 14.0142 356.367 14.3142 357.83 14.8719C361.708 16.3492 365.172 19.5777 367.58 23.9608L369.16 26.8371C370.099 26.5762 370.979 26.1686 371.608 25.4772C372.527 24.4663 371.608 21.7432 371.608 21.7432C368.903 16.822 364.712 12.5727 359.466 10.5736C357.478 9.81702 355.331 9.41916 353.196 9.40937C349.7 9.39307 346.223 10.4106 343.485 12.5695C334.635 19.5517 336.548 34.4194 328.532 42.3506C325.09 45.7553 320.255 47.3695 315.477 48.1294C310.7 48.8893 305.829 48.9023 301.051 49.6654C299.823 49.8611 298.575 50.1155 297.503 50.7481C294.006 52.8059 293.788 57.7531 294.423 61.7611C294.928 64.9408 295.401 66.7801 296.431 69.8293C296.431 69.8293 299.888 70.6348 301.508 69.7054L300.162 66.4214Z" fill="#8842C2"/>
<path d="M463.7 72.5655C462.781 70.0349 461.07 67.8792 459.294 65.8573C455.293 61.2916 450.825 57.1401 445.98 53.4844C441.89 50.3993 437.24 47.2751 435.79 42.3572C434.076 36.5392 437.585 30.4213 441.923 26.1883C445.198 22.9923 449.03 20.367 453.191 18.456C453.165 18.2538 451.011 15.834 449.571 15.8438C447.694 15.8568 444.901 17.8625 444.901 17.8625C442.688 19.3561 440.609 21.0454 438.716 22.8912C432.176 29.2733 429.432 37.0349 431.381 43.6551C433.141 49.6329 437.954 53.2235 442.196 56.3933C442.539 56.6477 442.877 56.9021 443.213 57.1532C447.801 60.6133 452.051 64.5626 455.84 68.8837C457.515 70.7947 458.757 72.4188 459.379 74.1309C459.888 75.5299 459.865 76.9649 459.321 77.7899C458.708 78.7194 457.157 79.4531 454.833 79.9162C453.305 80.2195 451.708 80.4054 450.017 80.5978C448.026 80.8261 445.97 81.0642 443.868 81.5207C438.472 82.6915 434.291 85.1798 431.775 88.7182C428.66 93.0979 428.474 98.2147 428.308 102.731L428.279 103.53C428.054 109.332 427.327 114.697 425.926 120.746C425.926 120.746 424.512 123.688 425.098 125.4L429.051 127.109C431.251 119.109 432.551 112.003 432.873 103.713C433.04 99.4507 433.049 94.8655 435.523 91.3891C437.651 88.3986 441.258 86.7973 444.846 86.0212C448.43 85.2417 452.135 85.1472 455.733 84.433C458.581 83.8655 461.559 82.7567 463.159 80.3304C464.639 78.0835 464.622 75.0962 463.7 72.5655Z" fill="#8842C2"/>
<path d="M327.955 149.288C317.273 150.21 305.314 147.425 298.2 138.832C290.659 129.153 289.93 114.641 294.69 103.605C295.365 102.157 296.753 100.716 298.571 101.482C298.845 101.619 299.666 101.994 299.956 102.137C307.989 105.891 315.425 111.298 320.672 118.541C327.202 127.369 330.076 138.852 327.955 149.288C328.16 136.015 322.285 123.697 312.512 115.358C307.823 111.305 302.387 108.174 296.734 105.669C297.232 105.963 298.34 105.875 298.79 105.47C298.868 105.408 298.94 105.353 299.002 105.281C298.865 105.451 298.575 106.096 298.438 106.429C295.098 115.587 295.3 126.498 300.041 135.137C305.806 144.588 317.446 148.237 327.955 149.288Z" fill="#8842C2"/>
<path d="M336.733 222.619C328.704 210.262 314.438 201.47 300.152 198.679C295.182 197.808 290.119 197.664 285.077 198.6C287.3 197.156 289.877 196.314 292.488 195.727C309.921 191.895 332.715 204.914 336.733 222.619Z" fill="#8842C2"/>
<path d="M285.077 198.597C290.519 189.766 300.866 183.618 311.446 184.443C322.128 185.239 332.556 192.068 336.251 202.311C338.653 208.827 338.783 216.083 336.733 222.619C336.831 216.119 335.805 209.509 332.937 203.753C328.9 195.368 320.118 189.932 311.049 188.777C301.442 187.587 292.142 192.244 285.077 198.597Z" fill="#8842C2"/>
<path d="M351.146 159.606C363.585 143.989 385.708 141.869 403.347 149.745C404.178 150.149 405.771 150.824 406.592 151.222C409.522 152.892 407.065 156.518 405.901 158.511C396.315 173.065 378.307 181.372 362.614 170.747C358.104 167.808 354.2 164.003 351.146 159.606C353.036 161.465 355.034 163.174 357.136 164.72C371.295 175.273 384.903 174.458 397.396 161.847C399.772 159.329 402.148 156.492 403.422 153.348C403.409 153.652 403.392 153.785 403.545 154.203C403.702 154.653 404.197 155.171 404.591 155.328L404.158 155.126C386.864 146.35 366.43 146.239 351.146 159.606Z" fill="#8842C2"/>
<path d="M298.611 81.5596C298.565 82.3781 297.868 83.0043 297.05 82.9586C296.232 82.913 295.606 82.2151 295.652 81.3965C295.697 80.578 296.395 79.9518 297.213 79.9975C298.027 80.0431 298.656 80.741 298.611 81.5596Z" fill="#8842C2"/>
<path d="M307.468 81.5107C307.422 82.3293 306.725 82.9554 305.907 82.9098C305.089 82.8641 304.463 82.1662 304.509 81.3477C304.554 80.5291 305.252 79.903 306.07 79.9486C306.884 79.9943 307.51 80.6922 307.468 81.5107Z" fill="#8842C2"/>
<path d="M316.321 82.2671C316.276 83.0856 315.578 83.7118 314.76 83.6661C313.942 83.6205 313.317 82.9226 313.362 82.104C313.408 81.2855 314.105 80.6593 314.923 80.705C315.741 80.7506 316.367 81.4485 316.321 82.2671Z" fill="#8842C2"/>
<path d="M324.56 85.6914C324.844 84.9229 324.452 84.0695 323.684 83.7855C322.916 83.5014 322.063 83.8941 321.779 84.6626C321.494 85.4312 321.887 86.2845 322.655 86.5686C323.423 86.8527 324.276 86.4599 324.56 85.6914Z" fill="#8842C2"/>
<path d="M332.654 88.9819C332.608 89.8005 331.911 90.4266 331.093 90.381C330.275 90.3353 329.649 89.6374 329.695 88.8189C329.741 88.0003 330.438 87.3742 331.256 87.4198C332.071 87.4655 332.696 88.1634 332.654 88.9819Z" fill="#8842C2"/>
<path d="M339.5 94.6499C339.454 95.4685 338.757 96.0946 337.939 96.0489C337.121 96.0033 336.496 95.3054 336.541 94.4868C336.587 93.6683 337.284 93.0421 338.102 93.0878C338.92 93.1335 339.546 93.8313 339.5 94.6499Z" fill="#8842C2"/>
<path d="M345.232 101.378C345.187 102.196 344.489 102.823 343.671 102.777C342.853 102.731 342.228 102.033 342.273 101.215C342.319 100.396 343.016 99.7702 343.834 99.8158C344.649 99.8647 345.278 100.563 345.232 101.378Z" fill="#8842C2"/>
<path d="M350.501 108.54C350.456 109.358 349.758 109.984 348.94 109.939C348.122 109.893 347.497 109.195 347.542 108.376C347.588 107.558 348.285 106.932 349.103 106.977C349.921 107.023 350.547 107.724 350.501 108.54Z" fill="#8842C2"/>
<path d="M357.468 113.907C357.422 114.726 356.725 115.352 355.907 115.306C355.089 115.261 354.464 114.563 354.509 113.744C354.555 112.926 355.252 112.299 356.07 112.345C356.885 112.391 357.51 113.092 357.468 113.907Z" fill="#8842C2"/>
<path d="M366.003 115.737C365.957 116.555 365.26 117.182 364.442 117.136C363.624 117.09 362.998 116.392 363.044 115.574C363.089 114.755 363.787 114.129 364.605 114.175C365.423 114.22 366.048 114.918 366.003 115.737Z" fill="#8842C2"/>
<path d="M374.843 116.477C374.798 117.296 374.1 117.922 373.282 117.876C372.464 117.83 371.839 117.133 371.884 116.314C371.93 115.495 372.627 114.869 373.445 114.915C374.263 114.961 374.889 115.658 374.843 116.477Z" fill="#8842C2"/>
<path d="M383.726 116.19C383.681 117.009 382.983 117.635 382.165 117.589C381.348 117.543 380.722 116.845 380.767 116.027C380.813 115.208 381.51 114.582 382.328 114.628C383.146 114.673 383.772 115.371 383.726 116.19Z" fill="#8842C2"/>
<path d="M392.447 117.191C392.401 118.01 391.704 118.636 390.886 118.59C390.068 118.545 389.442 117.847 389.488 117.028C389.533 116.21 390.231 115.584 391.049 115.629C391.866 115.675 392.492 116.373 392.447 117.191Z" fill="#8842C2"/>
<path d="M400.978 119.686C400.932 120.505 400.235 121.131 399.417 121.085C398.599 121.039 397.973 120.342 398.019 119.523C398.065 118.704 398.762 118.078 399.58 118.124C400.398 118.17 401.023 118.871 400.978 119.686Z" fill="#8842C2"/>
<path d="M408.864 123.397C408.818 124.216 408.121 124.842 407.303 124.797C406.485 124.751 405.859 124.053 405.905 123.234C405.95 122.416 406.648 121.79 407.466 121.835C408.283 121.881 408.909 122.579 408.864 123.397Z" fill="#8842C2"/>
<path d="M415.707 129.072C415.661 129.89 414.964 130.516 414.146 130.471C413.328 130.425 412.702 129.727 412.748 128.909C412.794 128.09 413.491 127.464 414.309 127.51C415.127 127.555 415.752 128.256 415.707 129.072Z" fill="#8842C2"/>
<path d="M420.663 136.439C420.617 137.258 419.92 137.884 419.102 137.838C418.284 137.792 417.659 137.094 417.704 136.276C417.75 135.457 418.447 134.831 419.265 134.877C420.08 134.923 420.709 135.62 420.663 136.439Z" fill="#8842C2"/>
<path d="M322.992 214.828C322.871 214.821 322.754 214.769 322.669 214.671C317.367 208.589 309.716 204.757 301.677 204.16C301.423 204.141 301.234 203.922 301.253 203.668C301.273 203.414 301.478 203.224 301.745 203.244C310.026 203.86 317.905 207.806 323.363 214.068C323.529 214.26 323.51 214.551 323.318 214.717C323.226 214.795 323.109 214.834 322.992 214.828Z" fill="#303332"/>
<path d="M314.738 213.08C314.633 213.073 314.529 213.034 314.448 212.956C312.02 210.686 308.859 209.307 305.548 209.069C305.294 209.049 305.105 208.831 305.121 208.576C305.141 208.322 305.372 208.149 305.613 208.149C309.133 208.4 312.496 209.871 315.076 212.281C315.262 212.454 315.272 212.744 315.099 212.93C315.002 213.037 314.868 213.086 314.738 213.08Z" fill="#303332"/>
<path d="M316.641 244.713C301.925 243.914 290.735 237.033 286.505 232.96C286.322 232.784 286.316 232.494 286.492 232.311C286.671 232.128 286.961 232.122 287.143 232.298C294.231 239.124 321.268 253.972 351.492 233.335C377.066 215.875 389.823 197.958 389.95 197.778C390.097 197.57 390.384 197.521 390.592 197.668C390.801 197.814 390.85 198.101 390.703 198.31C390.576 198.489 377.734 216.537 352.013 234.098C339.266 242.793 327.068 245.281 316.641 244.713Z" fill="#303332"/>
<path d="M296.45 70.4782C296.245 70.4684 296.066 70.3184 296.023 70.1064C295.974 69.8586 296.137 69.6173 296.388 69.5683C302.052 68.4759 307.846 67.9965 313.61 68.1465C313.848 68.153 314.066 68.365 314.06 68.6193C314.053 68.8737 313.842 69.0727 313.587 69.0661C307.888 68.9194 302.159 69.3922 296.564 70.4717C296.525 70.4782 296.486 70.4815 296.45 70.4782Z" fill="#303332"/>
<path d="M429.246 126.903C429.11 126.897 428.976 126.825 428.891 126.704C426.069 122.566 422.742 118.776 419.004 115.443C418.815 115.274 418.796 114.983 418.965 114.794C419.135 114.605 419.425 114.589 419.614 114.758C423.407 118.144 426.783 121.988 429.65 126.189C429.794 126.398 429.738 126.685 429.53 126.828C429.445 126.883 429.344 126.91 429.246 126.903Z" fill="#303332"/>
<path d="M380.715 172.23C380.51 172.22 380.331 172.07 380.289 171.858C380.24 171.607 380.403 171.369 380.653 171.32C389.888 169.546 397.843 163.438 402.017 154.939C392.717 149.963 381.488 148.264 371.138 150.279C370.884 150.328 370.646 150.165 370.597 149.914C370.548 149.666 370.711 149.422 370.962 149.376C381.66 147.292 393.281 149.102 402.842 154.339C403.057 154.457 403.141 154.721 403.037 154.939C398.791 163.904 390.488 170.365 380.826 172.224C380.79 172.23 380.751 172.23 380.715 172.23Z" fill="#303332"/>
<path d="M303.016 139.566C302.893 139.56 302.772 139.504 302.687 139.4C295.232 130.438 293.41 117.26 298.155 106.606C298.207 106.488 298.308 106.397 298.432 106.355C298.555 106.315 298.689 106.328 298.803 106.394C300.015 107.088 301.257 107.75 302.456 108.393C305.434 109.984 308.514 111.631 311.261 113.819C315.054 116.843 320.779 123.388 322.933 127.947C323.041 128.175 322.943 128.452 322.715 128.56C322.487 128.668 322.213 128.57 322.102 128.341C320.004 123.896 314.402 117.498 310.687 114.54C308.005 112.401 305.099 110.848 302.023 109.205C300.96 108.637 299.869 108.054 298.79 107.444C294.44 117.7 296.261 130.239 303.394 138.81C303.557 139.005 303.531 139.296 303.336 139.459C303.245 139.54 303.127 139.573 303.016 139.566Z" fill="#303332"/>
<path d="M323.282 167.364C323.148 167.358 323.021 167.293 322.936 167.175C322.787 166.97 322.832 166.683 323.037 166.533C328.316 162.698 332.787 157.653 335.961 151.949C336.085 151.727 336.369 151.649 336.587 151.769C336.809 151.893 336.89 152.174 336.766 152.396C333.53 158.217 328.968 163.36 323.582 167.276C323.487 167.342 323.383 167.371 323.282 167.364Z" fill="#303332"/>
<path d="M338.93 173.864C338.731 173.854 338.555 173.711 338.506 173.509C337.281 168.199 337.9 162.571 340.253 157.656C340.364 157.428 340.637 157.33 340.865 157.441C341.094 157.552 341.191 157.826 341.081 158.054C338.819 162.779 338.223 168.196 339.402 173.3C339.458 173.548 339.305 173.796 339.057 173.851C339.015 173.864 338.969 173.867 338.93 173.864Z" fill="#303332"/>
<path d="M288.587 127.969C288.427 127.96 288.277 127.868 288.199 127.715C286.381 124.027 284.993 120.126 284.077 116.122C284.022 115.874 284.175 115.626 284.422 115.57C284.673 115.512 284.918 115.668 284.973 115.916C285.873 119.852 287.235 123.688 289.024 127.307C289.138 127.536 289.043 127.81 288.815 127.924C288.743 127.96 288.665 127.976 288.587 127.969Z" fill="#303332"/>
<path d="M286.625 128.566C286.534 128.56 286.443 128.53 286.368 128.468C283.438 126.176 280.998 123.214 279.303 119.904C279.186 119.679 279.277 119.402 279.502 119.285C279.727 119.171 280.004 119.259 280.121 119.484C281.754 122.676 284.11 125.533 286.935 127.741C287.134 127.898 287.17 128.188 287.013 128.387C286.915 128.514 286.769 128.576 286.625 128.566Z" fill="#303332"/>
<path d="M393.571 175.358C393.193 175.338 392.818 175.302 392.443 175.257C392.192 175.224 392.013 174.996 392.042 174.745C392.072 174.493 392.303 174.314 392.554 174.343C396.324 174.81 400.284 173.88 403.448 171.796C403.66 171.656 403.946 171.715 404.086 171.927C404.227 172.139 404.168 172.426 403.956 172.563C400.929 174.562 397.201 175.557 393.571 175.358Z" fill="#303332"/>
<path d="M397.612 180.889C395.165 180.582 392.818 179.545 390.974 177.96C390.782 177.794 390.759 177.504 390.925 177.311C391.091 177.119 391.381 177.096 391.574 177.262C393.284 178.73 395.461 179.692 397.697 179.972C397.947 180.005 398.127 180.233 398.097 180.488C398.065 180.729 397.853 180.902 397.612 180.889Z" fill="#303332"/>
<path d="M346.659 94.2002C346.529 94.1937 346.405 94.1317 346.317 94.0208C335.903 80.3565 317.494 72.9438 300.53 75.5723C300.279 75.6115 300.044 75.4386 300.005 75.1875C299.966 74.9364 300.139 74.7016 300.39 74.6625C317.68 71.985 336.434 79.5379 347.05 93.4599C347.203 93.6621 347.164 93.9491 346.962 94.1056C346.871 94.1741 346.764 94.2035 346.659 94.2002Z" fill="#E6ECEF"/>
<path d="M420.35 124.882C420.24 124.875 420.129 124.829 420.044 124.741C409.242 113.559 393.023 108.279 377.714 110.96C377.467 111.002 377.225 110.836 377.183 110.585C377.141 110.333 377.307 110.095 377.558 110.053C393.163 107.32 409.698 112.704 420.706 124.102C420.882 124.285 420.878 124.575 420.696 124.751C420.601 124.846 420.474 124.888 420.35 124.882Z" fill="#E6ECEF"/>
<path d="M319.75 117.475C319.619 117.469 319.492 117.403 319.408 117.289C314.07 110.124 306.474 104.597 298.021 101.72C297.78 101.639 297.653 101.378 297.734 101.136C297.816 100.898 298.08 100.768 298.318 100.85C306.947 103.785 314.699 109.426 320.144 116.738C320.297 116.94 320.255 117.23 320.05 117.38C319.958 117.449 319.854 117.478 319.75 117.475Z" fill="#E6ECEF"/>
<path d="M407.365 152.823C407.287 152.82 407.212 152.797 407.143 152.751C398.843 147.458 388.875 144.973 379.057 145.759C378.803 145.775 378.581 145.59 378.562 145.338C378.542 145.084 378.731 144.862 378.982 144.843C388.986 144.041 399.166 146.574 407.635 151.975C407.85 152.112 407.912 152.396 407.775 152.611C407.684 152.754 407.525 152.833 407.365 152.823Z" fill="#E6ECEF"/>
<path d="M594.344 2.86259C550.257 44.3885 481.459 57.3489 425.249 34.7202C431.477 44.4337 439.138 50.7266 449.069 56.579C436.907 59.0291 428.02 61.8441 415.849 64.2859C428.255 70.3848 437.742 71.1865 450.418 73.4947C440.939 75.347 432.776 82.2093 425.731 88.81C460.435 84.396 493.563 85.5186 529.357 78.0397C567.28 70.1146 603.64 51.1101 619.972 28.8988L594.344 2.86259Z" fill="#83A329"/>
<path d="M615.822 38.2094C597.492 57.2368 565.098 73.4987 529.95 80.8494C507.982 85.4405 486.769 86.8397 466.236 88.1931C453.138 89.0543 439.607 89.9399 426.101 91.6654C424.873 91.8207 423.68 91.1601 423.152 90.0464C422.615 88.9246 422.864 87.5638 423.788 86.74C428.675 82.1586 433.897 77.6876 439.618 74.5471C431.374 73.0989 423.766 71.3812 414.592 66.8629C413.492 66.3254 412.863 65.147 413.023 63.9293C413.183 62.7117 414.096 61.73 415.289 61.4921C421.313 60.2764 426.627 58.9488 431.767 57.666C434.946 56.8763 438.198 56.0602 441.643 55.2657C433.463 49.6811 427.656 43.7706 422.842 36.2697C422.165 35.2253 422.256 33.8591 423.045 32.9046C423.825 31.9586 425.158 31.61 426.314 32.0716C481.115 54.1268 549.4 41.2589 592.384 0.776358C593.536 -0.301177 595.35 -0.250803 596.419 0.89468C597.497 2.04833 597.382 3.88088 596.295 4.94057C553.442 45.3042 489.135 59.1319 433.437 40.7539C437.887 45.6489 443.338 49.8767 450.52 54.1065C451.537 54.7121 452.083 55.8754 451.889 57.0438C451.694 58.2121 450.789 59.1354 449.637 59.3643C443.614 60.5799 438.3 61.9075 433.16 63.1904C430.594 63.8359 427.978 64.4823 425.254 65.1224C431.733 67.3847 437.731 68.3993 444.798 69.5943C446.775 69.9329 448.819 70.2704 450.938 70.6647C452.29 70.9064 453.277 72.0867 453.294 73.4592C453.312 74.8317 452.336 76.0142 450.985 76.28C445.111 77.4264 439.635 80.787 434.498 84.9154C445.106 83.8248 455.621 83.1352 465.871 82.4504C486.195 81.109 507.209 79.7302 528.789 75.221C567.242 67.1864 602.132 48.3334 617.686 27.1845C618.635 25.9276 620.41 25.6459 621.683 26.5797C622.956 27.5134 623.223 29.3058 622.29 30.5791C620.393 33.176 618.229 35.7113 615.822 38.2094Z" fill="#658215"/>
<path d="M594.355 2.85443C550.259 44.3823 481.455 57.3516 425.246 34.7339C431.473 44.4454 439.133 50.7365 449.064 56.5867C436.901 59.0383 428.013 61.8544 415.841 64.2978C428.246 70.3941 437.734 71.1943 450.41 73.5003C440.93 75.3539 432.766 82.2165 425.72 88.8176C460.427 84.3989 493.556 85.5164 529.354 78.0329C567.28 70.1029 603.645 51.0951 619.981 28.8838L594.355 2.85443Z" fill="#83A329"/>
<path d="M616.367 37.5538C598.034 56.5819 565.635 72.8468 530.484 80.202C508.514 84.7959 487.299 86.198 466.765 87.5545C453.666 88.4175 440.134 89.305 426.627 91.0324C425.399 91.1879 424.206 90.5275 423.678 89.414C423.141 88.2924 423.39 86.9318 424.315 86.1079C429.203 81.5263 434.426 77.055 440.147 73.914C431.904 72.4671 424.295 70.7508 415.121 66.2344C414.021 65.6971 413.392 64.5189 413.553 63.3014C413.713 62.0838 414.626 61.1021 415.819 60.864C421.843 59.6476 427.158 58.3194 432.298 57.0359C435.477 56.2458 438.731 55.4293 442.176 54.6344C433.996 49.0516 428.189 43.1427 423.376 35.6434C422.699 34.5991 422.79 33.2331 423.579 32.2786C424.36 31.3326 425.693 30.9838 426.849 31.4452C481.65 53.4897 549.941 40.6129 592.933 0.128441C594.086 -0.949154 595.9 -0.899049 596.969 0.246137C598.047 1.3995 597.931 3.23186 596.845 4.2916C553.983 44.6572 489.669 58.493 433.971 40.1254C438.42 45.0192 443.872 49.2458 451.053 53.474C452.07 54.0794 452.616 55.2425 452.422 56.4108C452.227 57.579 451.321 58.5023 450.169 58.7313C444.146 59.9478 438.831 61.276 433.69 62.5595C431.124 63.2053 428.508 63.852 425.784 64.4924C432.263 66.7535 438.262 67.7671 445.328 68.961C447.305 69.2992 449.349 69.6363 451.469 70.0302C452.821 70.2718 453.808 71.4518 453.825 72.8241C453.842 74.1965 452.866 75.379 451.515 75.6449C445.64 76.7921 440.164 80.1532 435.026 84.2819C445.634 83.1898 456.15 82.4987 466.401 81.8124C486.727 80.4681 507.742 79.0863 529.323 74.5744C567.78 66.5349 602.675 47.6787 618.233 26.5299C619.183 25.2729 620.957 24.991 622.231 25.9244C623.504 26.8579 623.77 28.6501 622.837 29.9233C620.939 32.5203 618.774 35.0556 616.367 37.5538Z" fill="#658215"/>
</g>
<defs>
<clipPath id="clip0_45_2118">
<rect width="588" height="313" fill="white"/>
</clipPath>
</defs>
</svg>
